<?xml version="1.0" encoding="utf-8"?>
<!-- Generator: Adobe Illustrator 24.0.2, SVG Export Plug-In . SVG Version: 6.00 Build 0)  -->
<svg version="1.1" id="Capa_1" xmlns="http://www.w3.org/2000/svg" xmlns:xlink="http://www.w3.org/1999/xlink" x="0px" y="0px"
	 viewBox="0 0 144 144" style="enable-background:new 0 0 144 144;" xml:space="preserve">
<style type="text/css">
	.st0{fill:#ABC6DB;}
	.st1{fill:#3E4A70;}
	.st2{fill:#2048ED;}
</style>
<g>
	<g>
		<path class="st0" d="M71.9,59.6V35c0,5.4-1.1,10.4-3.1,15C69.8,53.2,70.8,56.4,71.9,59.6z"/>
	</g>
	<g>
		<path class="st0" d="M71.9,35V0c-5.3,0-10.5,0-15.8,0c-0.5,1.2-0.9,2.4-1.4,3.6C65,10.1,71.9,21.7,71.9,35z"/>
	</g>
	<path class="st1" d="M73.9,0c-0.7,0-1.3,0-2,0v35v24.6c1,3.1,2,6.2,3.1,9.3l30.1-30.6c-1.3-3.5-2.6-7-3.9-10.5L73.9,0z"/>
	<path class="st2" d="M90.9,0c-5.7,0-11.4,0-17.1,0l27.3,27.8C97.8,18.5,94.4,9.3,90.9,0z"/>
	<path class="st2" d="M76,72h14.1l18.2-18.5l3.8,3.9c-2.4-6.4-4.7-12.8-7.1-19.1L74.9,68.9C75.3,69.9,75.6,71,76,72z"/>
	<path class="st2" d="M43.5,61.7c5.2-13.2,10.5-26.5,15.9-40c3.1,9.6,6.2,19,9.3,28.4c2-4.6,3.1-9.7,3.1-15
		c0-13.3-6.9-24.9-17.2-31.4c-5.8,15-11.7,30.1-17.5,45.1c-0.7,1.7-1.3,3.4-2,5.1l0.3-0.3L43.5,61.7z"/>
	<path class="st1" d="M17.3,99.5c-5.4,13.8-10.8,27.6-16.2,41.4c-0.3,0.8-0.8,1.6-1.1,2.4c0,0.2,0,0.4,0,0.6c2.7,0,5.5-0.2,8.2,0.1
		c2.3,0.2,3.1-0.8,3.9-2.7c1.8-4.6,3.6-9.1,5.4-13.7h-0.1V99.5z"/>
	<path class="st1" d="M22.9,85.3c-0.7,1.7-1.4,3.5-2,5.2h14.7C30.6,90.5,26.1,88.5,22.9,85.3z"/>
	<path class="st2" d="M71.9,88.5c-9.4,0-18.7,0-28.1,0c-2.5,1.3-5.3,2-8.3,2h18.2v9.1c6.1,0,12.1,0,18.2,0v-9.1V88.5z"/>
	<path class="st1" d="M78,78.2c1.1,3.4,2.2,6.8,3.4,10.2c-3.2,0-6.3,0-9.5,0v2c10,0,18.2,8.3,18.2,18.5c0,1.5-0.2,3-0.5,4.4
		c1.2,3.7,2.4,7.3,3.6,11l15.1-15.4L78,78.2z"/>
	<path class="st2" d="M90.1,72H76c0.7,2.1,1.4,4.2,2,6.2l30.3,30.8c0-11.2,4.9-21.2,12.6-28c-1.1-3-2.2-6-3.3-9.1L90.1,72L90.1,72z"
		/>
	<path class="st2" d="M108.3,109l-15.1,15.4c1.8,5.5,3.6,11.1,5.4,16.6c0.7,2.4,1.8,3,4.2,3c9.9-0.1,19.9-0.1,29.8-0.1
		C118.4,138.8,108.3,125.1,108.3,109z"/>
	<g>
		<path class="st0" d="M142.6,143.9c0.4,0,0.9,0,1.4,0c-2.2-6-4.4-12-6.6-17.9c-6.4-2.9-10.9-9.4-10.9-17c0-2.8,0.6-5.5,1.8-7.9
			c-1.1-3-2.2-6-3.3-9L108.3,109L142.6,143.9z"/>
	</g>
	<g>
		<path class="st0" d="M108.3,109l16.6-16.9c-1.4-3.7-2.7-7.4-4.1-11C113.1,87.8,108.3,97.8,108.3,109z"/>
	</g>
	<g>
		<path class="st0" d="M132.5,143.9c2.8,0,5.5,0,8.3,0c0.6,0,1.1,0,1.8,0L108.3,109C108.3,125.1,118.4,138.8,132.5,143.9z"/>
	</g>
	<path class="st1" d="M137.4,126c-3.1-8.3-6.1-16.6-9.2-24.9c-1.1,2.4-1.8,5.1-1.8,7.9C126.5,116.6,131,123.1,137.4,126z"/>
	<g>
		<path class="st0" d="M71.9,90.5v9.1c3.6,0,7.2,0,10.8,0c1.9,0,2.6,0.6,3.2,2.4c1.2,3.8,2.5,7.6,3.7,11.4c0.3-1.4,0.5-2.9,0.5-4.4
			C90.1,98.8,81.9,90.5,71.9,90.5z"/>
	</g>
	<g>
		<path class="st0" d="M30.9,99.6c1.5,0,3,0,4.6,0v-9.1c0,0,0,0,0,0H20.8c-1.2,3-2.4,6-3.5,9v28h0.1c3.4-8.5,6.7-17,10.1-25.5
			C28.2,100.3,28.9,99.6,30.9,99.6z"/>
	</g>
	<g>
		<path class="st0" d="M35.5,90.5C35.5,90.5,35.5,90.5,35.5,90.5l0,9.1c6.1,0,12.1,0,18.2,0.1v-9.1H35.5z"/>
	</g>
	<path class="st2" d="M35.5,90.5v-2c-0.9,0-1.7,0-2.6,0c0.9-2.2,1.7-4.3,2.6-6.5V72h-7.4c-1.7,4.4-3.5,8.9-5.2,13.3
		C26.1,88.5,30.6,90.5,35.5,90.5L35.5,90.5z"/>
	<path class="st2" d="M35.5,90.5L35.5,90.5c3,0,5.8-0.7,8.3-2c-2.8,0-5.5,0-8.3,0V90.5z"/>
	<path class="st2" d="M35.5,72v10c1.3-3.3,2.6-6.6,4-10H35.5z"/>
	<polygon class="st2" points="35.5,90.5 35.5,90.5 35.5,90.5 	"/>
	<polygon class="st2" points="35.5,90.5 35.5,90.5 35.5,90.5 	"/>
	<g>
		<path class="st0" d="M90.1,72h27.4c-1.8-4.9-3.6-9.7-5.4-14.6l-3.8-3.9L90.1,72z"/>
	</g>
	<g>
		<polygon class="st0" points="90.1,72 90.1,72 117.5,72 117.5,72 		"/>
	</g>
	<g>
		<path class="st0" d="M28.3,71.3c-0.1,0.2-0.2,0.5-0.3,0.7h7.4C33,72,30.7,71.8,28.3,71.3z"/>
	</g>
	<g>
		<path class="st0" d="M39.5,71.8c-1.3,0.1-2.7,0.2-4,0.2h4C39.5,71.9,39.5,71.8,39.5,71.8z"/>
	</g>
	<g>
		<path class="st0" d="M35.5,72c1.4,0,2.7-0.1,4-0.2c1.3-3.4,2.7-6.7,4-10.1l-8.1-8.2l-0.3,0.3c-2.3,5.8-4.5,11.6-6.8,17.5
			C30.7,71.8,33,72,35.5,72z"/>
	</g>
	<g>
		<polygon class="st0" points="28.1,72 28.1,72 35.5,72 35.5,72 		"/>
	</g>
	<g>
		<polygon class="st0" points="39.4,72 35.5,72 35.5,72 39.4,72 		"/>
	</g>
</g>
</svg>
