<?xml version="1.0" encoding="utf-8"?>
<!-- Generator: Adobe Illustrator 24.0.2, SVG Export Plug-In . SVG Version: 6.00 Build 0)  -->
<svg version="1.1" id="Capa_1" xmlns="http://www.w3.org/2000/svg" xmlns:xlink="http://www.w3.org/1999/xlink" x="0px" y="0px"
	 viewBox="0 0 144 144" style="enable-background:new 0 0 144 144;" xml:space="preserve">
<style type="text/css">
	.st0{fill:#3E4A70;}
	.st1{fill:#DFE6ED;}
	.st2{fill:#2048ED;}
	.st3{fill:#216FB5;}
	.st4{fill:#ABC6DB;}
</style>
<rect y="108" class="st0" width="36" height="36"/>
<g>
	<rect y="72" class="st1" width="36" height="36"/>
</g>
<rect y="36" class="st2" width="36" height="36"/>
<rect class="st0" width="36" height="36"/>
<rect x="36" y="108" class="st3" width="36" height="36"/>
<g>
	<rect x="36" y="72" class="st4" width="36" height="36"/>
</g>
<rect x="36" y="36" class="st3" width="36" height="36"/>
<g>
	<rect x="36" class="st1" width="36" height="36"/>
</g>
<rect x="72" y="108" class="st2" width="36" height="36"/>
<g>
	<rect x="72" y="72" class="st1" width="36" height="36"/>
</g>
<rect x="72" y="36" class="st0" width="36" height="36"/>
<rect x="72" class="st2" width="36" height="36"/>
<g>
	<rect x="108" y="108" class="st4" width="36" height="36"/>
</g>
<rect x="108" y="72" class="st0" width="36" height="36"/>
<rect x="108" y="36" class="st2" width="36" height="36"/>
<g>
	<rect x="108" class="st4" width="36" height="36"/>
</g>
<circle class="st3" cx="18" cy="18" r="18"/>
<circle class="st3" cx="90" cy="18" r="18"/>
<circle class="st2" cx="18" cy="90" r="18"/>
<circle class="st3" cx="54" cy="90" r="18"/>
<circle class="st0" cx="54" cy="18" r="18"/>
<circle class="st2" cx="90" cy="90" r="18"/>
<g>
	<circle class="st4" cx="90" cy="54" r="18"/>
</g>
<circle class="st0" cx="126" cy="54" r="18"/>
<g>
	<circle class="st1" cx="54" cy="54" r="18"/>
</g>
<g>
	<circle class="st1" cx="18" cy="126" r="18"/>
</g>
<circle class="st0" cx="54" cy="126" r="18"/>
<circle class="st0" cx="18" cy="126" r="9"/>
<circle class="st2" cx="54" cy="90" r="9"/>
<circle class="st2" cx="54" cy="18" r="9"/>
<g>
	<circle class="st4" cx="90" cy="126" r="18"/>
</g>
<g>
	<circle class="st1" cx="90" cy="126" r="9"/>
</g>
<circle class="st3" cx="90" cy="54" r="9"/>
<circle class="st3" cx="126" cy="126" r="18"/>
<circle class="st3" cx="126" cy="18" r="18"/>
<g>
	<circle class="st1" cx="126" cy="18" r="9"/>
</g>
<path class="st3" d="M18,72V36c9.9,0,18,8.1,18,18S27.9,72,18,72z"/>
<g>
	<path class="st1" d="M18,36v36C8.1,72,0,63.9,0,54S8.1,36,18,36z"/>
</g>
<g>
	<path class="st4" d="M108,90h36c0,9.9-8.1,18-18,18S108,99.9,108,90z"/>
</g>
<g>
	<path class="st1" d="M144,90h-36c0-9.9,8.1-18,18-18S144,80.1,144,90z"/>
</g>
<circle class="st0" cx="18" cy="54" r="9"/>
<circle class="st0" cx="126" cy="90" r="9"/>
</svg>
