<?xml version="1.0" encoding="utf-8"?>
<!-- Generator: Adobe Illustrator 24.0.2, SVG Export Plug-In . SVG Version: 6.00 Build 0)  -->
<svg version="1.1" id="Capa_1" xmlns="http://www.w3.org/2000/svg" xmlns:xlink="http://www.w3.org/1999/xlink" x="0px" y="0px"
	 viewBox="0 0 144 144" style="enable-background:new 0 0 144 144;" xml:space="preserve">
<style type="text/css">
	.st0{fill:#E44D26;}
	.st1{opacity:0.6;}
	.st2{opacity:0.4;}
	.st3{opacity:0.2;}
	.st4{opacity:0.3;}
	.st5{opacity:0.5;}
	.st6{opacity:0.7;}
</style>
<g>
	<path class="st0" d="M56,63H7c-3.9,0-7-3.1-7-7V7c0-3.9,3.1-7,7-7h49c3.9,0,7,3.1,7,7v49C63,59.9,59.9,63,56,63z"/>
</g>
<g class="st1">
	<path class="st0" d="M137,63H88c-3.9,0-7-3.1-7-7V7c0-3.9,3.1-7,7-7h49c3.9,0,7,3.1,7,7v49C144,59.9,140.9,63,137,63z"/>
</g>
<g class="st2">
	<path class="st0" d="M56,144H7c-3.9,0-7-3.1-7-7V88c0-3.9,3.1-7,7-7h49c3.9,0,7,3.1,7,7v49C63,140.9,59.9,144,56,144z"/>
</g>
<g class="st3">
	<path class="st0" d="M137,144H88c-3.9,0-7-3.1-7-7V88c0-3.9,3.1-7,7-7h49c3.9,0,7,3.1,7,7v49C144,140.9,140.9,144,137,144z"/>
</g>
<g class="st4">
	<path d="M103.7,117.4c-0.8,0-1.5-0.3-2.1-0.9s-0.9-1.3-0.9-2.1c0-0.8,0.3-1.5,0.9-2s1.3-0.8,2.1-0.8c0.8,0,1.5,0.3,2.1,0.8
		c0.6,0.6,0.9,1.2,0.9,2c0,0.5-0.1,1-0.4,1.5s-0.6,0.8-1.1,1.1C104.7,117.3,104.2,117.4,103.7,117.4z"/>
	<path d="M113.2,117.4c-0.8,0-1.5-0.3-2.1-0.9s-0.9-1.3-0.9-2.1c0-0.8,0.3-1.5,0.9-2s1.3-0.8,2.1-0.8c0.8,0,1.5,0.3,2.1,0.8
		c0.6,0.6,0.9,1.2,0.9,2c0,0.5-0.1,1-0.4,1.5s-0.6,0.8-1.1,1.1C114.2,117.3,113.7,117.4,113.2,117.4z"/>
	<path d="M122.6,117.4c-0.8,0-1.5-0.3-2.1-0.9s-0.9-1.3-0.9-2.1c0-0.8,0.3-1.5,0.9-2s1.3-0.8,2.1-0.8c0.8,0,1.5,0.3,2.1,0.8
		c0.6,0.6,0.9,1.2,0.9,2c0,0.5-0.1,1-0.4,1.5s-0.6,0.8-1.1,1.1C123.7,117.3,123.2,117.4,122.6,117.4z"/>
</g>
<g class="st5">
	<path d="M21.7,117.4c-0.8,0-1.5-0.3-2.1-0.9s-0.9-1.3-0.9-2.1c0-0.8,0.3-1.5,0.9-2s1.3-0.8,2.1-0.8c0.8,0,1.5,0.3,2.1,0.8
		c0.6,0.6,0.9,1.2,0.9,2c0,0.5-0.1,1-0.4,1.5s-0.6,0.8-1.1,1.1C22.7,117.3,22.2,117.4,21.7,117.4z"/>
	<path d="M31.2,117.4c-0.8,0-1.5-0.3-2.1-0.9s-0.9-1.3-0.9-2.1c0-0.8,0.3-1.5,0.9-2s1.3-0.8,2.1-0.8c0.8,0,1.5,0.3,2.1,0.8
		c0.6,0.6,0.9,1.2,0.9,2c0,0.5-0.1,1-0.4,1.5c-0.3,0.5-0.6,0.8-1.1,1.1C32.2,117.3,31.7,117.4,31.2,117.4z"/>
	<path d="M40.6,117.4c-0.8,0-1.5-0.3-2.1-0.9s-0.9-1.3-0.9-2.1c0-0.8,0.3-1.5,0.9-2c0.6-0.5,1.3-0.8,2.1-0.8s1.5,0.3,2.1,0.8
		c0.6,0.6,0.9,1.2,0.9,2c0,0.5-0.1,1-0.4,1.5c-0.3,0.5-0.6,0.8-1.1,1.1C41.7,117.3,41.2,117.4,40.6,117.4z"/>
</g>
<g class="st6">
	<path d="M100.7,34.4c-0.8,0-1.5-0.3-2.1-0.9c-0.6-0.6-0.9-1.3-0.9-2.1c0-0.8,0.3-1.5,0.9-2s1.3-0.8,2.1-0.8c0.8,0,1.5,0.3,2.1,0.8
		c0.6,0.6,0.9,1.2,0.9,2c0,0.5-0.1,1-0.4,1.5s-0.6,0.8-1.1,1.1S101.2,34.4,100.7,34.4z"/>
	<path d="M110.2,34.4c-0.8,0-1.5-0.3-2.1-0.9c-0.6-0.6-0.9-1.3-0.9-2.1c0-0.8,0.3-1.5,0.9-2s1.3-0.8,2.1-0.8c0.8,0,1.5,0.3,2.1,0.8
		c0.6,0.6,0.9,1.2,0.9,2c0,0.5-0.1,1-0.4,1.5s-0.6,0.8-1.1,1.1S110.7,34.4,110.2,34.4z"/>
	<path d="M119.6,34.4c-0.8,0-1.5-0.3-2.1-0.9c-0.6-0.6-0.9-1.3-0.9-2.1c0-0.8,0.3-1.5,0.9-2s1.3-0.8,2.1-0.8c0.8,0,1.5,0.3,2.1,0.8
		c0.6,0.6,0.9,1.2,0.9,2c0,0.5-0.1,1-0.4,1.5s-0.6,0.8-1.1,1.1C120.7,34.3,120.2,34.4,119.6,34.4z"/>
</g>
</svg>
