<?xml version="1.0" encoding="utf-8"?>
<!-- Generator: Adobe Illustrator 24.0.2, SVG Export Plug-In . SVG Version: 6.00 Build 0)  -->
<svg version="1.1" id="Capa_1" xmlns="http://www.w3.org/2000/svg" xmlns:xlink="http://www.w3.org/1999/xlink" x="0px" y="0px"
	 viewBox="0 0 144 144" style="enable-background:new 0 0 144 144;" xml:space="preserve">
<style type="text/css">
	.st0{fill:#EAD5D0;}
	.st1{fill:#DD4B23;}
	.st2{fill:#E76328;}
	.st3{opacity:0.2;}
	.st4{fill:#E44D26;}
</style>
<rect x="16" y="16" class="st0" width="113" height="112"/>
<path class="st1" d="M129,112.6L90.4,70.7c-2.2-2.1-5.1-1.7-7,1l-7.1,10.2c-2.1,3-5.5,3-7.6,0l-20-28.8c-2.3-3.3-6.1-2.7-7.9,1.1
	L16,112.6V128h113V112.6z"/>
<circle class="st2" cx="98.2" cy="41.8" r="18.8"/>
<rect x="16" y="40" class="st3" width="42" height="88"/>
<rect x="104" y="16" class="st3" width="25" height="24"/>
<rect y="45" class="st0" width="54" height="88"/>
<ellipse class="st2" cx="35.8" cy="64.5" rx="13.5" ry="13.8"/>
<path class="st4" d="M54,114.1l-18.5-13.9c-1-1.2-2.4-1-3.3,0.6l-3.4,5.8c-1,1.7-2.6,1.7-3.6,0l-9.6-16.4c-1.1-1.9-2.9-1.6-3.8,0.6
	L0,114.1V144h54V114.1z"/>
<rect x="108" y="0" class="st0" width="36" height="36"/>
<circle class="st2" cx="135.1" cy="9.7" r="5.6"/>
<path class="st4" d="M144,31.5l-12.3-12.2c-0.7-0.6-1.6-0.5-2.2,0.3l-2.3,3c-0.7,0.9-1.8,0.9-2.4,0l-6.4-8.4c-0.7-1-1.9-0.8-2.5,0.3
	l-7.9,17V36h36V31.5z"/>
</svg>
