<?xml version="1.0" encoding="utf-8"?>
<!-- Generator: Adobe Illustrator 24.0.2, SVG Export Plug-In . SVG Version: 6.00 Build 0)  -->
<svg version="1.1" id="Capa_1" xmlns="http://www.w3.org/2000/svg" xmlns:xlink="http://www.w3.org/1999/xlink" x="0px" y="0px"
	 viewBox="0 0 144 144" style="enable-background:new 0 0 144 144;" xml:space="preserve">
<g>
	<path d="M124.7,130.4l-22.5-32.1c-22.8,11.5-24.8,0.9-38.3-1.5c-8.9-1.6-21.2,3-23.1,3l-21.5,30.6c-3.6,6,0.7,13.6,7.7,13.6h90
		C124,144,128.3,136.4,124.7,130.4z"/>
</g>
<path d="M94.5,45h-45C47,45,45,43,45,40.5v0c0-2.5,2-4.5,4.5-4.5h45c2.5,0,4.5,2,4.5,4.5v0C99,43,97,45,94.5,45z"/>
<path d="M81,45v36v2.8l1.6,2.3L117,135L27,135l34.3-48.8l1.6-2.3V81V45H81 M90,36H54v45l-34.7,49.4c-3.6,6,0.7,13.6,7.7,13.6h90
	c7,0,11.3-7.6,7.7-13.6L90,81V36L90,36z"/>
<circle cx="27" cy="9" r="9"/>
<circle cx="49.5" cy="22.5" r="4.5"/>
</svg>
