<svg id="a3de6a6d-5a9f-4dff-be33-9fc4235c0924" data-name="Capa 1" xmlns="http://www.w3.org/2000/svg" width="20" height="20" viewBox="0 0 20 20"><defs><style>.b9fb470e-92f4-4e18-9869-42c70fab9730{fill:#1769ff;}.fba09780-eef6-4cd9-82f0-808e9bd2cb5c{fill:#fff;fill-rule:evenodd;}</style></defs><title>_</title><path class="b9fb470e-92f4-4e18-9869-42c70fab9730" d="M0,10A10,10,0,1,1,10,20,9.99972,9.99972,0,0,1,0,10Z"/><path class="fba09780-eef6-4cd9-82f0-808e9bd2cb5c" d="M9.8623,8.35231A1.63712,1.63712,0,0,0,9.56,7.36a2.03061,2.03061,0,0,0-1.70846-.69308H4.66694v6.50231h2.97a4.6644,4.6644,0,0,0,.93153-.08693,1.81865,1.81865,0,0,0,1.2108-.83846,1.878,1.878,0,0,0,.29381-1.03694,1.70549,1.70549,0,0,0-.25611-.95306A1.48,1.48,0,0,0,9.05461,9.68a1.58092,1.58092,0,0,0,.50307-.37A1.43609,1.43609,0,0,0,9.8623,8.35231Zm4.44462-.57307H11.48231V6.97h2.82461Zm-2.4954,2.51a1.30237,1.30237,0,0,1,.34-.74383A1.01753,1.01753,0,0,1,12.91232,9.27a1.129,1.129,0,0,1,.75693.25921,1.04785,1.04785,0,0,1,.33921.76Zm2.24694-1.83078A1.9689,1.9689,0,0,1,14.9,9.17a2.31582,2.31582,0,0,1,.38921.99461,6.10036,6.10036,0,0,1,.0431.95461H11.78077a1.14885,1.14885,0,0,0,.51,1.01384,1.306,1.306,0,0,0,.70308.18154,1.08938,1.08938,0,0,0,.70688-.22076,1.04192,1.04192,0,0,0,.26311-.33077h1.30075a1.56859,1.56859,0,0,1-.47232.86924,2.3863,2.3863,0,0,1-1.83307.70075,2.67091,2.67091,0,0,1-1.71692-.59152,2.30882,2.30882,0,0,1-.74463-1.92463A2.58426,2.58426,0,0,1,11.16925,8.9a2.37026,2.37026,0,0,1,1.74227-.66693A2.8132,2.8132,0,0,1,14.05846,8.45846ZM5.98079,12.04078V10.30694H7.60385a1.67863,1.67863,0,0,1,.65923.11.697.697,0,0,1,.41922.69768.81748.81748,0,0,1-.43307.81153,1.58246,1.58246,0,0,1-.66848.11463Zm0-4.24462V9.23077H7.58385a1.33915,1.33915,0,0,0,.69693-.16153.612.612,0,0,0,.26766-.57078.58206.58206,0,0,0-.35381-.60077,2.51674,2.51674,0,0,0-.77923-.10153Z"/></svg>