<svg id="e24dabec-952c-43c3-be7b-a618f456535b" data-name="Capa 1" xmlns="http://www.w3.org/2000/svg" width="20" height="20" viewBox="0 0 20 20"><title>_</title><path d="M7.88426,16.30221a.98468.98468,0,0,1-.95905-1.29262c.44758-1.14352.87572-2.29476,1.3324-3.43459.9617-2.40024,1.93693-4.795,2.90569-7.19246a1.01485,1.01485,0,0,1,.895-.68084,1.03081,1.03081,0,0,1,1.00631.55243.74307.74307,0,0,1,.05167.67592c-.30183.81-.59459,1.62373-.91733,2.42537q-1.66584,4.13766-3.35067,8.26766A.998.998,0,0,1,7.88426,16.30221Z"/><path d="M2.50281,10.18647c.36507.35934.69695.67747,1.01929,1.005Q4.6362,12.32356,5.743,13.4628a.96942.96942,0,0,1,.28929.88355.92759.92759,0,0,1-.61048.78073.90929.90929,0,0,1-1.01844-.1589c-1.37933-1.37513-2.76059-2.74845-4.12632-4.137A.85731.85731,0,0,1,.29534,9.55278Q2.34353,7.48607,4.415,5.44246a.92664.92664,0,0,1,1.32535.04767A.96873.96873,0,0,1,5.81422,6.845c-.94612.98534-1.908,1.95558-2.86573,2.92971C2.81845,9.90693,2.67607,10.027,2.50281,10.18647Z"/><path d="M17.47362,10.1962c-.27617-.28711-.52584-.55009-.77921-.80947-.8134-.8327-1.633-1.65945-2.44006-2.49821a.90125.90125,0,0,1-.178-1.11046.99707.99707,0,0,1,1.00971-.57552.90431.90431,0,0,1,.49654.20778c.441.39127.86423.80347,1.28069,1.22121.9474.95031,1.87663,1.919,2.83414,2.85886a.96561.96561,0,0,1,.02283,1.38164c-1.38538,1.36932-2.7583,2.75125-4.14558,4.11863a.9651.9651,0,0,1-1.29652-.07618.98289.98289,0,0,1-.10467-1.32013c.85408-.89442,1.724-1.77372,2.587-2.6596C16.99113,10.698,17.21974,10.45925,17.47362,10.1962Z"/></svg>