<svg id="a7a7f861-6a80-4400-be47-a22c48248028" data-name="Capa 1" xmlns="http://www.w3.org/2000/svg" width="20" height="20" viewBox="0 0 20 20"><defs><style>.b8a4a1fb-c276-442a-ad58-ddb23a2e8c69{fill:#264de4;}.b7356a67-dae6-4cc1-86e4-28242c82c1e4{fill:#2965f1;}.be5972cf-ed3a-4cd2-bdf3-142555dbc1a6{fill:#ebebeb;}.b3a55e68-374b-4dad-8b6e-e6cf827a11af{fill:#fff;}</style></defs><title>_</title><path class="b8a4a1fb-c276-442a-ad58-ddb23a2e8c69" d="M9.99229,19.3l-5.3328-1.479L3.47018,4.5H16.52982L15.34043,17.81847Z"/><path class="b7356a67-dae6-4cc1-86e4-28242c82c1e4" d="M14.32157,16.97131l1.01761-11.382H10v12.579Z"/><path class="be5972cf-ed3a-4cd2-bdf3-142555dbc1a6" d="M6.19486,10.52992,6.341,12.164H10V10.52992Z"/><path class="be5972cf-ed3a-4cd2-bdf3-142555dbc1a6" d="M5.90011,7.22342l.14863,1.634H10v-1.634Z"/><path class="be5972cf-ed3a-4cd2-bdf3-142555dbc1a6" d="M10,14.77339l-.00641.00125-1.82112-.49085L8.0558,12.98043H6.41529l.2281,2.56573,3.3489.92922L10,16.47279Z"/><path d="M6.54342.7H8.52357v.82666H7.37267v.82792H8.52482v.82792H6.54342Z"/><path d="M8.92087.7h1.98007v.719H9.74879v.14354h1.15215V3.21838H8.92087V2.46219H10.073V2.31865H8.91954V.7Z"/><path d="M11.297.7h1.98007v.719H12.1249v.14354h1.15215V3.21838H11.297V2.46219h1.15216V2.31865H11.297V.7Z"/><path class="b3a55e68-374b-4dad-8b6e-e6cf827a11af" d="M13.79481,10.52992l.29608-3.3065h-4.096v1.634h2.303l-.1487,1.67249H9.99488V12.164h2.01339l-.18969,2.11853-1.8237.4921V16.474l3.3514-.92789.02433-.27676.38447-4.30111Z"/></svg>