<svg id="a051eaf7-77de-4ba4-baa6-67c641946ca6" data-name="Capa 1" xmlns="http://www.w3.org/2000/svg" width="20" height="20" viewBox="0 0 20 20"><defs><style>.b618a392-944a-47db-9b5c-4b666819d930{fill:#669df5;}.ad675685-0e03-41d6-81ce-27bd333b111f{fill:#1c73e7;}</style></defs><title>_</title><path class="b618a392-944a-47db-9b5c-4b666819d930" d="M16.23905,5.98269c-2.10895.00744-4.21977.07182-6.32618.002A2.29574,2.29574,0,0,1,7.62818,3.6359,2.34825,2.34825,0,0,1,9.9691,1.26932c2.08848-.05517,4.17988.00092,6.27.00975-.03293.20923-.23063.2264-.36595.31438a2.39928,2.39928,0,0,0-.394,3.75545C15.7155,5.59192,16.08948,5.64963,16.23905,5.98269Z"/><path class="b618a392-944a-47db-9b5c-4b666819d930" d="M9.11088,12.35158c-2.10895.00744-4.21977.07182-6.32619.002A2.29573,2.29573,0,0,1,.5,10.00479,2.34825,2.34825,0,0,1,2.84093,7.63821c2.08848-.05517,4.17988.00092,6.27.00974-.03294.20923-.23063.22641-.36595.31439a2.39928,2.39928,0,0,0-.394,3.75545C8.58733,11.9608,8.9613,12.01852,9.11088,12.35158Z"/><path class="b618a392-944a-47db-9b5c-4b666819d930" d="M16.23905,18.72047c-2.10895.00744-4.21977.07181-6.32618.002a2.29572,2.29572,0,0,1-2.28469-2.3488A2.34824,2.34824,0,0,1,9.9691,14.0071c2.08848-.05518,4.17988.00091,6.27.00974-.03294.20922-.23063.22641-.36595.31439a2.39925,2.39925,0,0,0-.394,3.75544C15.71551,18.32969,16.08948,18.3874,16.23905,18.72047Z"/><path class="ad675685-0e03-41d6-81ce-27bd333b111f" d="M16.23905,5.98269c-.14957-.33306-.52355-.39077-.75984-.63379a2.39928,2.39928,0,0,1,.394-3.75545c.13532-.088.333-.10515.36595-.31438.30071-.011.60246-.04367.90195-.02914a2.40617,2.40617,0,0,1,2.35858,2.35214,2.40375,2.40375,0,0,1-2.30247,2.40532C16.87991,6.02956,16.55854,5.99251,16.23905,5.98269Z"/><path class="ad675685-0e03-41d6-81ce-27bd333b111f" d="M9.11088,12.35158c-.14958-.33306-.52355-.39078-.75984-.63379a2.39928,2.39928,0,0,1,.394-3.75545c.13532-.088.333-.10516.36595-.31439.30071-.011.60246-.04366.90194-.02914a2.37939,2.37939,0,0,1,.05611,4.75746C9.75174,12.39844,9.43037,12.36139,9.11088,12.35158Z"/><path class="ad675685-0e03-41d6-81ce-27bd333b111f" d="M16.23905,18.72047c-.14957-.33307-.52354-.39078-.75983-.6338a2.39925,2.39925,0,0,1,.394-3.75544c.13532-.088.333-.10517.36595-.31439.30071-.011.60246-.04366.90195-.02914a2.37939,2.37939,0,0,1,.05611,4.75746C16.87991,18.76733,16.55854,18.73028,16.23905,18.72047Z"/></svg>