<svg id="ab0255d0-0669-4d00-8651-08a2b263687e" data-name="Capa 1" xmlns="http://www.w3.org/2000/svg" width="20" height="20" viewBox="0 0 20 20"><title>_</title><path d="M11.81748,11.05606h.1433q.666-.00006,1.332.00014a.26658.26658,0,0,0,.21519-.46279q-1.64707-1.9823-3.29286-3.96564a.2621.2621,0,0,0-.44043-.00068Q8.124,8.61435,6.47483,10.60293a.26793.26793,0,0,0-.0554.30709.27131.27131,0,0,0,.275.14886q.65984-.0012,1.31969-.00021c.04831,0,.09662,0,.15422,0v5.478a.46013.46013,0,0,1-.08.01376c-1.2991-.00142-2.59876.02-3.89717-.01109a4.22283,4.22283,0,0,1-.85873-8.31713.18428.18428,0,0,0,.1454-.14064A6.39147,6.39147,0,0,1,8.53022,3.57086a6.48219,6.48219,0,0,1,6.97993,3.31392.21682.21682,0,0,0,.17874.12144,4.65679,4.65679,0,0,1,3.95831,3.36536,4.75555,4.75555,0,0,1-2.57135,5.73986,4.82182,4.82182,0,0,1-2.056.44394q-1.54786.00149-3.09573.00011c-.03231,0-.06462-.0036-.10665-.0061Z"/></svg>