<svg id="b7157ae8-4893-4d96-8518-b3e7820d8d90" data-name="Capa 1" xmlns="http://www.w3.org/2000/svg" xmlns:xlink="http://www.w3.org/1999/xlink" width="20" height="20" viewBox="0 0 20 20"><defs><style>.fb57e58a-e6df-4019-a233-9dbf32f90d91{fill:#185c37;}.b60965d6-7ff2-4f78-8b94-1c96fd70e706{fill:#21a366;}.bfd0d7e1-d284-4932-9aad-aafd8ba89f79{fill:#107c41;}.b1d42198-412f-45f5-bba6-35bd00ffe1b1{opacity:0.1;}.b0e456a4-cc75-4415-a8db-ec6ca3557292,.b1d42198-412f-45f5-bba6-35bd00ffe1b1{isolation:isolate;}.b0e456a4-cc75-4415-a8db-ec6ca3557292{opacity:0.2;}.a720290f-a928-4877-8528-414c1f35e438{fill:url(#a9ee93b3-a61b-4be3-8a5a-2031435e2a58);}.b5a7a11b-7c4b-434c-a101-f32bbed42493{fill:#fff;}.a5b809b8-12dc-4018-a958-b0a7e201edbb{fill:#33c481;}</style><linearGradient id="a9ee93b3-a61b-4be3-8a5a-2031435e2a58" x1="2.21631" y1="757.47012" x2="8.53354" y2="746.53034" gradientTransform="matrix(1, 0, 0, -1, 0, 762)" gradientUnits="userSpaceOnUse"><stop offset="0" stop-color="#18884f"/><stop offset="0.5" stop-color="#117e43"/><stop offset="1" stop-color="#0b6631"/></linearGradient></defs><title>_</title><path class="fb57e58a-e6df-4019-a233-9dbf32f90d91" d="M12.42207,9.55977,4.935,8.24057v9.74707a.80239.80239,0,0,0,.06184.309.76341.76341,0,0,0,.17493.26088.78506.78506,0,0,0,.26078.17484.80687.80687,0,0,0,.3091.06183H18.66233a.79947.79947,0,0,0,.30753-.06183.78837.78837,0,0,0,.26235-.17337.81336.81336,0,0,0,.1764-.26235.80231.80231,0,0,0,.06175-.309V14.39636Z"/><path class="b60965d6-7ff2-4f78-8b94-1c96fd70e706" d="M12.42207,1.20581H5.74167a.80856.80856,0,0,0-.3091.06183.784.784,0,0,0-.26078.17493.7622.7622,0,0,0-.17493.26079.80252.80252,0,0,0-.06184.3091V5.60364L12.42207,10l3.96515,1.3192L19.47036,10V5.60364Z"/><path class="bfd0d7e1-d284-4932-9aad-aafd8ba89f79" d="M4.935,5.60364h7.48705V10H4.935Z"/><path class="b1d42198-412f-45f5-bba6-35bd00ffe1b1" d="M10.29327,4.72319H4.935V15.71556h5.35825a.81076.81076,0,0,0,.80812-.80508V5.52984a.81076.81076,0,0,0-.80812-.80665Z"/><path class="b0e456a4-cc75-4415-a8db-ec6ca3557292" d="M9.853,5.16341H4.935V16.15579H9.853a.81333.81333,0,0,0,.80813-.80656V5.9685A.81352.81352,0,0,0,9.853,5.16341Z"/><path class="b0e456a4-cc75-4415-a8db-ec6ca3557292" d="M9.853,5.16341H4.935v10.1134H9.853a.81593.81593,0,0,0,.80813-.80656V5.9685A.81352.81352,0,0,0,9.853,5.16341Z"/><path class="b0e456a4-cc75-4415-a8db-ec6ca3557292" d="M9.41282,5.16341H4.935v10.1134h4.4778a.81607.81607,0,0,0,.80812-.80656V5.9685a.81366.81366,0,0,0-.80812-.80509Z"/><path class="a720290f-a928-4877-8528-414c1f35e438" d="M1.33776,5.16341H9.41282a.80823.80823,0,0,1,.80812.80509v8.063a.81392.81392,0,0,1-.23824.56988.80541.80541,0,0,1-.56988.23521H1.33776a.80748.80748,0,0,1-.80812-.80509V5.9685A.79531.79531,0,0,1,.59148,5.661a.80315.80315,0,0,1,.43719-.43719A.82988.82988,0,0,1,1.33776,5.16341Z"/><path class="b5a7a11b-7c4b-434c-a101-f32bbed42493" d="M3.03241,12.62037,4.73147,9.99245,3.17559,7.37972H4.42394L5.27273,9.0532a3.26559,3.26559,0,0,1,.16132.35428H5.4461c.05586-.12662.11466-.2502.17493-.36937l.90916-1.65535H7.679L6.08389,9.9804l1.63576,2.64144H6.497l-.98149-1.83332a1.67942,1.67942,0,0,1-.116-.24726h-.0151a1.14519,1.14519,0,0,1-.11465.23668L4.25959,12.62037Z"/><path class="a5b809b8-12dc-4018-a958-b0a7e201edbb" d="M18.66233,1.20581H12.42207V5.60364h7.04829V2.01246a.80243.80243,0,0,0-.06175-.3091.83335.83335,0,0,0-.17493-.26235.81963.81963,0,0,0-.57135-.2352Z"/><path class="bfd0d7e1-d284-4932-9aad-aafd8ba89f79" d="M12.42207,10h7.04829v4.39636H12.42207Z"/></svg>