<svg id="fb546130-a863-4f24-bb65-1345cbfd5a9c" data-name="Capa 1" xmlns="http://www.w3.org/2000/svg" width="20" height="20" viewBox="0 0 20 20"><defs><style>.aeafacd6-b5ef-4ae3-9cd5-4c719c16e25a{fill:#e44d26;}.ba688bfe-a06f-48e5-b9ca-48de642012c4{fill:#f16529;}.b270c02e-82b4-4516-970f-eaf30e17eb36{fill:#ebebeb;}.ba0bd578-5133-4e97-a8e7-1c53150b6f67{fill:#fff;}</style></defs><title>_</title><path class="aeafacd6-b5ef-4ae3-9cd5-4c719c16e25a" d="M16.52982,4.48271,15.34051,17.80118,9.991,19.28274l-5.3328-1.479L3.47018,4.48271Z"/><path class="ba688bfe-a06f-48e5-b9ca-48de642012c4" d="M10,18.15108,14.32157,16.954l1.01636-11.382H10Z"/><path class="b270c02e-82b4-4516-970f-eaf30e17eb36" d="M7.68666,8.84014H10v-1.634H5.90011l.03849.43829.40238,4.5023H10V10.51264H7.83661Z"/><path class="b270c02e-82b4-4516-970f-eaf30e17eb36" d="M8.0558,12.96314H6.414l.22943,2.56573,3.34882.92922L10,16.45551V14.7561l-.00775.00125L8.17118,14.2665Z"/><path class="ba0bd578-5133-4e97-a8e7-1c53150b6f67" d="M9.99362,12.14672H12.007l-.18969,2.11853-1.82371.4921v1.69941l3.35266-.92789.02433-.27675.38455-4.30112.03973-.43836H9.99362Z"/><path class="ba0bd578-5133-4e97-a8e7-1c53150b6f67" d="M9.99362,8.83631v.00383h3.9499l.03207-.3678.07556-.82792.03849-.43829h-4.096V8.83631Z"/><path d="M4.67365.71726h.8305v.82025h.76V.71726h.83042V3.20109H6.26417V2.36926h-.76v.83183h-.8305V.71726Z"/><path d="M8.18784,1.5401H7.45606V.71726H9.75012V1.5401H9.01833v1.661H8.18784V1.5401Z"/><path d="M10.11409.71726h.8664l.53317.87282.5331-.87282h.8664V3.20109h-.82792V1.96946l-.57158.883H11.4995l-.57157-.883V3.20109h-.81384Z"/><path d="M13.32712.71726h.83049V2.37951h1.16882v.82158H13.32712V.71726Z"/></svg>