<svg id="f7c9d9a7-8f6e-485f-b54a-605c7e4f8345" data-name="Capa 1" xmlns="http://www.w3.org/2000/svg" width="20" height="20" viewBox="0 0 20 20"><defs><style>.a0c52aa8-f6ae-4bbd-a735-db85dc7e757a{fill:#f09e01;}.afc13b04-e4c9-4f8b-b4aa-b9ab3e9820eb{fill:#101010;}.e56db032-756d-4538-b86e-511183001dda{fill:#f8be01;}.f37953c0-10cc-48bf-b309-7102589f3b70{fill:#ececeb;}.b97da319-6387-4a02-8e29-2b11a3cd9403{fill:#f8be04;}.b9ca5898-c583-4262-8236-675d59235f30{fill:#fffffe;}.ae827252-1ad6-44a0-bb43-2b214f9b85a8{fill:#fff;}</style></defs><title>_</title><path class="a0c52aa8-f6ae-4bbd-a735-db85dc7e757a" d="M10.00293,4.38035q3.19344.00006,6.38688.00052c.13164,0,.14936-.03456.13652.1447-.02294.32018-.05084.64-.07757.95991q-.03527.4219-.07251.84364-.0352.406-.071.812-.03856.43758-.07764.87513-.05826.65358-.11668,1.30716-.05826.6591-.11551,1.3183c-.03956.44635-.08041.89259-.11994,1.339-.03859.43574-.0755.87164-.11447,1.30734-.03867.43226-.07939.86432-.11847,1.29654-.03082.34089-.06032.6819-.09075,1.02283-.032.35844-.06355.71692-.09686,1.07524-.02907.31268-.06332.62492-.08846.9379a.14765.14765,0,0,1-.10515.1397,6.46577,6.46577,0,0,1-.68418.22247c-1.19345.34317-2.39081.67233-3.58969.99593-.31.08367-.62071.16448-.93077.24784a.36108.36108,0,0,1-.19714-.00141q-1.78965-.49712-3.58-.99172c-.50648-.14048-1.01219-.28371-1.51824-.42573a.49784.49784,0,0,0-.0508-.01471c-.05444-.00916-.07432-.043-.07876-.09541-.01754-.20739-.03789-.41454-.0563-.62186-.02434-.27415-.04756-.54839-.07176-.82255q-.04979-.56415-.10038-1.12823c-.03667-.4076-.07453-.81509-.1108-1.22272-.04128-.46391-.08075-.928-.12217-1.39188-.0386-.43229-.07933-.86439-.118-1.29667-.03837-.42875-.075-.85766-.11308-1.28644-.03055-.3444-.06237-.68869-.093-1.03308q-.04973-.55883-.09843-1.11773c-.03345-.376-.06849-.7518-.10119-1.12783-.0379-.43587-.07393-.8719-.11094-1.30785-.0194-.22852-.04007-.45693-.05822-.68554-.00558-.07027-.00407-.14107-.00711-.21157-.00189-.04369.01441-.06661.061-.0634.02459.00169.0494.00021.07412.00021Q6.80419,4.3803,10.00293,4.38035ZM9.86957,14.63843a.21007.21007,0,0,1-.03148-.003c-.53409-.13163-1.06272-.28371-1.59418-.42519a.10265.10265,0,0,1-.08425-.10418c-.00863-.10186-.01618-.20381-.02524-.30563-.02375-.26686-.04675-.53381-.07284-.80044-.00987-.10086-.01335-.10109-.116-.10114q-.73036-.00033-1.46074-.0001c-.01764,0-.03528.00034-.05292.00023a.044.044,0,0,0-.05043.05192c.00143.04936-.0002.09887.00277.14812.025.41527.06311.82948.10343,1.24349q.05024.51581.12116,1.02921a.167.167,0,0,0,.13767.15744c.93989.27829,1.88615.53383,2.83053.79608a1.90649,1.90649,0,0,0,.42161.09624q.00021.36.00046.7201c.00052.29226-.00754.5847.02069.87638.00668.06906.00531.06928.074.05777.23257-.039.4557-.1152.68321-.17391.31274-.0807.62308-.1707.93447-.25666.24373-.06729.48971-.1277.73146-.20047.28588-.08605.57543-.15825.861-.24466.31258-.09456.62579-.18706.93861-.28085a.0941.0941,0,0,0,.07548-.09153,1.5731,1.5731,0,0,1,.02533-.24071c.01282-.10129.01361-.2034.024-.30427.02016-.195.04318-.3898.06177-.5851q.012-.12567.02326-.25141c.01651-.18127.04881-.36157.05659-.543.00814-.18973.03735-.37705.05061-.56607a1.69332,1.69332,0,0,1,.02112-.25121c.02549-.11407.01789-.23036.03369-.34519.01376-.1.01908-.20293.0303-.30345.021-.188.03878-.37669.05328-.56469.01511-.19579.042-.39061.05232-.58712a1.68575,1.68575,0,0,1,.0205-.25126,2.7981,2.7981,0,0,0,.03405-.34491c.00865-.10829.02038-.217.03067-.32487.01332-.13945.01652-.28.03681-.4187.01478-.101.0108-.20439.02621-.3039.029-.18754.04017-.37672.05378-.56474.01419-.19595.04218-.3906.05219-.58715a1.38656,1.38656,0,0,1,.02087-.25111,2.78692,2.78692,0,0,0,.03182-.356c.01241-.11415.02307-.23064.03231-.34581a1.96576,1.96576,0,0,1,.02024-.25138,2.24844,2.24844,0,0,0,.03332-.34491c.00706-.12626.02115-.25238.03148-.37793a2.80285,2.80285,0,0,1,.02113-.28317c.02185-.11767.02369-.237.03438-.35545.01039-.11517.02043-.23081.02833-.34634.01122-.16417.038-.32739.03765-.49273a.426.426,0,0,1,.00253-.06337,3.4058,3.4058,0,0,0,.03882-.43963c.00281-.15546.0119-.14111-.14318-.14112q-2.5257-.00026-5.0514-.0001c-.01765,0-.03531-.00034-.05295.00007-.08841.00208-.09009.00214-.09057.08825-.001.17649.00007.353.00027.52948-.16935.00143-.3387.0042-.508.00408-.79088-.00054-1.5818-.006-2.3725.01765a.98674.98674,0,0,0-.116.0082c-.08721.013-.08852.01671-.09756.1062-.03793.37545-.07874.75058-.11019,1.12672-.03762.45-.083.89926-.124,1.34893q-.04524.49543-.08812.99108-.06142.69564-.12237,1.39134c-.02533.29165-.04723.58362-.07453.87508-.01611.172-.0195.17169.14868.17168q1.62611-.00006,3.2522.00034a.91832.91832,0,0,1,.21085.00888c.00034.43777.00251.87555.00045,1.31331-.00173.36636.01374.733-.01987,1.099C9.97008,14.61441,9.96357,14.62633,9.86957,14.63843Z"/><path class="afc13b04-e4c9-4f8b-b4aa-b9ab3e9820eb" d="M11.27742,1.46073c.0293.03362.05308.06243.07844.08978q.47526.51246.9518,1.02373a.23331.23331,0,0,1,.0742.18676c-.0072.11963-.00182.24-.00192.36007-.00011.13646.00526.1148-.111.115q-.69917.00109-1.39835.0003c-.24718,0-.49436.00036-.74154-.00022-.0852-.0002-.086-.00126-.08638-.08746q-.00093-.24365,0-.4873c.00031-.08678.00106-.08781.08545-.08816.20127-.00083.40256.00082.60382-.0013.11646-.00123.23287-.00756.34928-.01229.01679-.00069.036.0012.04852-.02327a.81244.81244,0,0,0-.14191-.17587q-.4306-.47438-.86589-.94448a.25691.25691,0,0,1-.08134-.20519c.00755-.11958.00147-.24.002-.36006.00041-.08747.001-.08823.08478-.08873.12006-.00071.24012-.00019.36018-.00019h1.72675c.02472,0,.04951.00128.07413-.00027.03708-.00232.04967.016.04929.05049-.00077.07061-.00009.14124-.00009.21187,0,.10946-.00271.219.001.32836.00189.05541-.01678.07149-.07164.07232-.29649.00445-.59293.01268-.88938.01983A.193.193,0,0,0,11.27742,1.46073Z"/><path class="afc13b04-e4c9-4f8b-b4aa-b9ab3e9820eb" d="M9.6465,2.00854q0,.56082,0,1.12163c0,.11451.00685.10592-.09971.106q-.92058.00047-1.84116,0c-.08576,0-.08679-.00094-.087-.08567q-.00089-.33861.00006-.67721c.00026-.07769.00168-.07866.08326-.07875q.5079-.0006,1.01581-.00027c.09127-.00007.09189-.00065.09194-.09092q.00036-.70848.00015-1.417A.48505.48505,0,0,0,8.8093.83352c-.00589-.05331.01268-.074.07031-.07293.19393.00344.388.00129.582.00129.03527,0,.07054-.00041.10581.00016.07762.00125.07884.00145.07893.08255Q9.647,1.42656,9.6465,2.00854Z"/><path class="e56db032-756d-4538-b86e-511183001dda" d="M9.99974,6.05862c-.00021-.1765-.00124-.353-.00028-.52949.00048-.08611.00216-.08617.09057-.08825.01764-.00041.0353-.00007.05295-.00007q2.5257,0,5.0514.0001c.15508,0,.146-.01434.14318.14112a3.4058,3.4058,0,0,1-.03882.43963.426.426,0,0,0-.00253.06337c.00031.16534-.02643.32856-.03765.49273-.0079.11553-.01794.23117-.02833.34634-.01069.11841-.01253.23778-.03438.35545a2.80285,2.80285,0,0,0-.02113.28317c-.01033.12555-.02442.25167-.03148.37793a2.24844,2.24844,0,0,1-.03332.34491,1.96576,1.96576,0,0,0-.02024.25138c-.00924.11517-.0199.23166-.03231.34581a2.78692,2.78692,0,0,1-.03182.356,1.38656,1.38656,0,0,0-.02087.25111c-.01.19655-.038.3912-.05219.58715-.01361.188-.02474.3772-.05378.56474-.01541.09951-.01143.20288-.02621.3039-.02029.13874-.02349.27925-.03681.4187-.01029.10785-.022.21658-.03067.32487a2.7981,2.7981,0,0,1-.03405.34491,1.68575,1.68575,0,0,0-.0205.25126c-.01032.19651-.03721.39133-.05232.58712-.0145.188-.0323.37672-.05328.56469-.01122.10052-.01654.20344-.0303.30345-.0158.11483-.0082.23112-.03369.34519a1.69332,1.69332,0,0,0-.02112.25121c-.01326.189-.04247.37634-.05061.56607-.00778.18148-.04008.36178-.05659.543q-.01146.12576-.02326.25141c-.01859.1953-.04161.39005-.06177.5851-.01043.10087-.01122.203-.024.30427a1.5731,1.5731,0,0,0-.02533.24071.0941.0941,0,0,1-.07548.09153c-.31282.09379-.626.18629-.93861.28085-.28562.08641-.57517.15861-.861.24466-.24175.07277-.48773.13318-.73146.20047-.31139.086-.62173.176-.93447.25666-.22751.05871-.45064.13495-.68321.17391-.06874.01151-.06737.01129-.074-.05777-.02823-.29168-.02017-.58412-.02069-.87638q-.00063-.36006-.00045-.72011l.04257-.02785.04158-.00793a.03411.03411,0,0,0,.04378-.012l.04107-.01027a.03446.03446,0,0,0,.043-.01242.053.053,0,0,0,.04173-.00892.92112.92112,0,0,0,.27672-.07392l.04094-.00825a.03632.03632,0,0,0,.04311-.01485l.04152-.00843a.45278.45278,0,0,0,.19217-.0539l.041-.00942a.03343.03343,0,0,0,.04319-.01339l.04136-.00832a.03377.03377,0,0,0,.04257-.01447l.04228-.00912a.76055.76055,0,0,0,.25562-.07258l.04126-.00937a.17393.17393,0,0,0,.10763-.03154l.0407-.00971a.15519.15519,0,0,0,.1072-.03288l.0412-.00853a.21117.21117,0,0,0,.1273-.03736.20466.20466,0,0,0,.10557-.03014.42349.42349,0,0,0,.1915-.05331.05452.05452,0,0,0,.0417-.01.1395.1395,0,0,0,.106-.03313,1.21667,1.21667,0,0,0,.25411-.07036.03379.03379,0,0,0,.04266-.01476.24862.24862,0,0,0,.10568-.029.03462.03462,0,0,0,.0427-.01354c.20225-.04837.399-.115.59694-.17784a.114.114,0,0,0,.09275-.10991c.01511-.16139.03584-.32224.05133-.48359q.05808-.60519.11336-1.21067.06172-.67377.12154-1.34773.03765-.41589.07634-.83167c.03006-.3193.06176-.63844.09143-.95777.00733-.07888.00363-.08292-.07423-.09567a2.34545,2.34545,0,0,0-.43246-.0163.12229.12229,0,0,0-.11082-.00141.85.85,0,0,0-.179-.01149q-1.44987-.00165-2.89974-.0035c-.03867,0-.07735-.00295-.116-.00452l.00038-2.56478c.13412-.00535.26847.01167.40248-.00411a.77573.77573,0,0,0,.18954.00466,1.42316,1.42316,0,0,0,.36158.01409.924.924,0,0,0,.2106.00674.57417.57417,0,0,0,.23425.01364.51819.51819,0,0,0,.14748.0073.32549.32549,0,0,0,.17029.01463A.17718.17718,0,0,0,11.8,7.9184a.14346.14346,0,0,0,.10673.01544l.04024.009a1.74023,1.74023,0,0,1,.04593.26968,1.48622,1.48622,0,0,0,.04059.27959.10092.10092,0,0,0,.00534.06248.24786.24786,0,0,0,.01677.149.2251.2251,0,0,0,.00819.10517.139.139,0,0,0,.01188.107.27605.27605,0,0,0,.00734.10485.18892.18892,0,0,0,.015.128.18458.18458,0,0,0,.00433.084.32654.32654,0,0,0,.01683.17036l.0015.04147c-.00088.034-.00309.06795-.0022.10185.00067.02592.01085.04672.04195.04719a6.56793,6.56793,0,0,0,.19733.0352q.68772.00243,1.37544.00343a.20662.20662,0,0,0,.063-.0034c.02806-.00922.03854-.02973.01588-.05641a.1853.1853,0,0,0-.00775-.08369.13974.13974,0,0,0-.0123-.10719.33451.33451,0,0,0-.0102-.1259.12773.12773,0,0,0-.012-.107.26139.26139,0,0,0-.00787-.10491.18445.18445,0,0,0-.01356-.12812.09974.09974,0,0,0-.00614-.06268.37043.37043,0,0,0-.01589-.19122.108.108,0,0,0-.00572-.063.24525.24525,0,0,0-.01494-.149.15369.15369,0,0,0-.006-.08389.23788.23788,0,0,0-.01441-.14957.18083.18083,0,0,0-.0058-.08359.31677.31677,0,0,0-.01673-.17015.10619.10619,0,0,0-.00441-.06291.30035.30035,0,0,0-.01664-.17024.09562.09562,0,0,0-.00563-.06295.23187.23187,0,0,0-.01411-.14942.16792.16792,0,0,0-.006-.08365.30547.30547,0,0,0-.01621-.17017.15163.15163,0,0,0-.00583-.08392.31021.31021,0,0,0-.01513-.17042.10063.10063,0,0,0-.00462-.06265.3163.3163,0,0,0-.017-.17033.17083.17083,0,0,0-.00569-.084.25223.25223,0,0,0-.01455-.14949.17278.17278,0,0,0-.00678-.08362.312.312,0,0,0-.01477-.17054.28554.28554,0,0,0-.01215-.12549c.01572-.05094.00259-.08459-.056-.08349a3.59338,3.59338,0,0,0-.398.0067c-.03851-.00208-.077-.00587-.11553-.006q-.97105-.003-1.94211-.00453c-.232,0-.46413-.00969-.69611.003-.03085-.02252-.06642-.01189-.1-.01348C10.13019,6.06164,10.065,6.06054,9.99974,6.05862Z"/><path class="f37953c0-10cc-48bf-b309-7102589f3b70" d="M10.40241,7.85083c-.134.01578-.26836-.00124-.40248.00411-.02965-.02856-.06647-.0178-.10068-.017-.09525.00237-.19043.00715-.28566.01007-.35268.0108-.70538.02074-1.058.03211-.09676.00312-.10031.00643-.11052.1007q-.04215.38916-.08157.77861-.03922.38952-.07548.77933c-.02485.26675-.04921.53355-.07134.80053-.00675.08137-.00164.08341.07823.0859.02468.00077.04941.00019.07412.00019q.736,0,1.472.00024c.03867,0,.07733.00337.116.00518q-.00019.76167-.00016,1.52333c.00007.09522.00144.0953.09215.09721.02115.00044.04231.00008.06347.00008q.89389,0,1.7878,0c.02821,0,.05644-.00044.08462.00054.01707.0006.03782,0,.03865.02444.00068.0201-.01546.03-.03128.03855a.23953.23953,0,0,0-.12416-.01572q-.8829-.00034-1.76582-.00006a.2364.2364,0,0,0-.10424.00959.91665.91665,0,0,0-.21085-.00891q-1.6261-.00088-3.2522-.00034c-.16818,0-.16479.00035-.14868-.17168.0273-.29146.0492-.58343.07453-.87508q.06041-.69575.12237-1.39134.04375-.49557.08812-.99108c.04107-.44967.08642-.899.124-1.34893.03145-.37614.07226-.75127.11019-1.12672.009-.08949.01035-.09318.09756-.1062a.98674.98674,0,0,1,.116-.0082c.7907-.02364,1.58162-.01819,2.3725-.01765.16935.00012.3387-.00265.50806-.00408.06521.00193.13045.003.1956.00611.03356.00159.06913-.009.1.01348-.06173.03867-.12989.01536-.19492.01864-.09965.005-.10089.00229-.10113.09954-.00064.25372-.00022.50745-.00021.76117,0,.25724-.00063.51449.00044.77173.00034.0814.00241.08257.08356.08408.08455.00157.16914.00061.25372.00064C10.36563,7.814,10.39473,7.81325,10.40241,7.85083Z"/><path class="f37953c0-10cc-48bf-b309-7102589f3b70" d="M10.04126,16.39361l-.04257.02785a1.90586,1.90586,0,0,1-.42162-.09623c-.94438-.26225-1.89064-.51779-2.83053-.79608a.167.167,0,0,1-.13767-.15744q-.07167-.51337-.12116-1.02921c-.04032-.414-.07838-.82822-.10343-1.24349-.003-.04925-.00134-.09876-.00277-.14812a.044.044,0,0,1,.05043-.05192c.01764.00011.03528-.00023.05292-.00023q.73037,0,1.46074.0001c.10263,0,.10611.00028.116.10114.02609.26663.04909.53358.07284.80044.00906.10182.01661.20377.02524.30563a.10265.10265,0,0,0,.08425.10418c.53146.14148,1.06009.29356,1.59418.42519a.20875.20875,0,0,0,.03147.003.2608.2608,0,0,0,.1806.00962.589.589,0,0,1,.16155-.02976.04134.04134,0,0,1-.03143.03738c-.05433.01416-.10777.03232-.16264.04367a.06616.06616,0,0,0-.06061.07257c-.00012.0247-.00086.0494-.00033.07408.01019.47531-.02106.95111.01861,1.42628A.152.152,0,0,0,10.04126,16.39361Z"/><path class="b97da319-6387-4a02-8e29-2b11a3cd9403" d="M10.21171,14.61829a.5886.5886,0,0,0-.16155.02975.2608.2608,0,0,1-.1806-.00962c.094-.01209.10052-.024.10909-.11736.03361-.36592.01814-.7326.01987-1.099.00206-.43776-.00011-.87554-.00045-1.31329a.23654.23654,0,0,1,.10424-.00958q.88292-.00035,1.76582.00006a.23962.23962,0,0,1,.12416.01571,1.23682,1.23682,0,0,0-.025.2319.09862.09862,0,0,0-.01159.08666.38825.38825,0,0,0-.01069.12485.09871.09871,0,0,0-.01045.087.34213.34213,0,0,0-.00906.12527.14747.14747,0,0,0-.01142.10772.31239.31239,0,0,0-.00933.12551.19369.19369,0,0,0-.014.12878.48529.48529,0,0,0-.00936.14573.14366.14366,0,0,0-.01222.10843.26609.26609,0,0,0-.00749.104.13887.13887,0,0,0-.01095.1079.34854.34854,0,0,0-.01062.125.06.06,0,0,0-.00926.06581.39061.39061,0,0,0-.01219.12516.03581.03581,0,0,0-.00651.04447.19724.19724,0,0,0-.01475.093.15933.15933,0,0,1-.14242.175c-.12285.029-.24233.07219-.36327.10925l-.02145.00562a1.24261,1.24261,0,0,0-.25327.06934.049.049,0,0,0-.059.02371.85791.85791,0,0,0-.25886.06057.03542.03542,0,0,0-.0436.01257l-.04111.00911a.0338.0338,0,0,0-.04329.01357l-.04141.00771a.03528.03528,0,0,0-.04376.01254l-.041.00873a.54338.54338,0,0,0-.19329.0514Z"/><path class="b9ca5898-c583-4262-8236-675d59235f30" d="M11.88136,13.27843a.48538.48538,0,0,1,.00936-.14574c.04612-.04.04856-.06246.014-.12877a.31257.31257,0,0,1,.00932-.12551c.05467-.03051.04384-.068.01143-.10772a.34213.34213,0,0,1,.00906-.12527c.05148-.02324.042-.0538.01045-.087a.38834.38834,0,0,1,.01069-.12486c.05128-.02254.04191-.05319.01159-.08665a1.23682,1.23682,0,0,1,.025-.2319c.01582-.00853.032-.01844.03128-.03854-.00083-.02442-.02158-.02384-.03865-.02444-.02818-.001-.05641-.00054-.08462-.00054q-.89389,0-1.7878,0c-.02116,0-.04232.00036-.06347-.00008-.09071-.00191-.09208-.002-.09215-.09721q-.00054-.76167.00016-1.52333l.04251-.01113c.03867.00157.07735.00447.116.00452q1.44987.002,2.89974.0035a.84965.84965,0,0,1,.17905.0115l.1108.0014a2.34545,2.34545,0,0,1,.43246.0163c.07786.01275.08156.01679.07423.09567-.02967.31933-.06137.63847-.09143.95777q-.03913.41574-.07634.83167-.061.67385-.12154,1.34773-.05546.60546-.11336,1.21067c-.01549.16135-.03622.3222-.05133.48359a.114.114,0,0,1-.09275.10991c-.198.0628-.39469.12947-.59694.17784-.02437-.02746-.03525-.01235-.0427.01354a.24862.24862,0,0,1-.10568.029c-.02563-.02807-.03584-.01155-.04266.01476a1.21667,1.21667,0,0,1-.25411.07036.07354.07354,0,0,0-.106.03313.05452.05452,0,0,1-.0417.01.20925.20925,0,0,0-.1915.05331.20466.20466,0,0,1-.10557.03014c-.05563-.0325-.09413-.00663-.1273.03736l-.0412.00853c-.04779-.02833-.08157-.011-.1072.03288l-.04071.00971c-.04735-.02865-.08127-.01147-.10762.03154l-.04126.00937c-.07288-.02772-.13457.02333-.20278.0299a.05844.05844,0,0,0-.05284.04268l-.04228.00912c-.02506-.02713-.03524-.01052-.04257.01447l-.04137.00832c-.02455-.02831-.03569-.01334-.04318.01339l-.041.00942a.19707.19707,0,0,0-.19217.0539l-.04152.00843c-.02622-.02944-.03634-.01214-.04311.01485l-.04094.00825c-.02774-.03691-.05939-.00641-.08327.00145-.06523.02147-.14451.008-.19345.07247a.053.053,0,0,1-.04173.00892c-.0238-.02861-.03528-.01451-.043.01242l-.04107.01027c-.024-.03014-.03587-.01629-.04378.012l-.04158.00793a.152.152,0,0,1-.06595-.12135c-.03967-.47517-.00842-.951-.01861-1.42628-.00053-.02468.00021-.04938.00033-.07408a.06616.06616,0,0,1,.06061-.07257c.05487-.01135.10831-.02951.16264-.04367a.04134.04134,0,0,0,.03143-.03738l.04-.00682a.19524.19524,0,0,0,.19328-.05141l.041-.00874c.0245.03042.036.01552.04376-.01253l.04142-.00772c.02512.02961.036.01382.04328-.01356l.04111-.00911c.02471.03113.036.0158.0436-.01257a.85506.85506,0,0,1,.25892-.06048c.02756.01156.04958.0095.05892-.0238a1.24261,1.24261,0,0,1,.25327-.06934c.01158.015.0175.00845.02145-.00562.12094-.03706.24042-.08028.36327-.10925a.15933.15933,0,0,0,.14242-.175.19742.19742,0,0,1,.01474-.09306c.02932-.01083.03681-.02487.00652-.04446a.39061.39061,0,0,1,.01219-.12516c.04256-.01638.04161-.03888.00926-.06581a.34861.34861,0,0,1,.01062-.125c.05446-.0308.04358-.06824.01095-.10789a.26609.26609,0,0,1,.00749-.104C11.91694,13.351,11.91867,13.33558,11.88136,13.27843Z"/><path class="ae827252-1ad6-44a0-bb43-2b214f9b85a8" d="M10.40241,7.85083c-.00768-.03758-.03678-.03682-.06563-.03683-.08458,0-.16917.00093-.25372-.00064-.08115-.00151-.08322-.00268-.08356-.08408-.00107-.25724-.00043-.51449-.00044-.77173,0-.25372-.00043-.50745.00021-.76117.00024-.09725.00148-.09452.10113-.09954.065-.00328.13319.02.19492-.01864.232-.01273.46409-.003.69611-.003q.97106,0,1.94211.00453c.03851.00012.077.00391.11553.006.01941.051.06392.03175.09837.032a.85841.85841,0,0,1,.35569.0448.28557.28557,0,0,1,.01215.1255c-.02422.05937-.04948.11883.01477.17053a.17281.17281,0,0,1,.00678.08363c-.0283.05306-.04336.10483.01455.14948a.17086.17086,0,0,1,.00569.084c-.02237.05958-.05082.11976.017.17032a.10063.10063,0,0,1,.00462.06265c-.024.05939-.04959.11891.01513.17042a.15166.15166,0,0,1,.00583.08393c-.02316.05945-.05035.11927.01621.17016a.16792.16792,0,0,1,.006.08365c-.02889.053-.04357.10462.01411.14942a.09562.09562,0,0,1,.00563.06295c-.02245.05949-.05009.11947.01664.17024a.10622.10622,0,0,1,.00441.06292c-.02233.05946-.04991.11943.01673.17014a.18086.18086,0,0,1,.0058.0836c-.02848.05307-.04351.10483.01441.14956a.15372.15372,0,0,1,.006.0839c-.0275.05294-.04245.10461.01494.149a.108.108,0,0,1,.00572.063c-.02251.06606-.04671.13225.01589.19122a.09976.09976,0,0,1,.00614.06269c-.02485.04581-.04447.09107.01356.12811a.26139.26139,0,0,1,.00787.10491c-.02847.03933-.04011.07676.012.107a.33451.33451,0,0,1,.0102.1259c-.03041.0397-.04159.07718.0123.10719a.1853.1853,0,0,1,.00775.08369.22984.22984,0,0,1-.13355.02118q-.65091.00007-1.30183.00061c-.03716.00008-.07835-.01386-.1105.019a.13179.13179,0,0,1-.10577-.01964c-.00022-.03342-.00071-.06684-.00055-.10025a.04285.04285,0,0,0-.0392-.04879l-.0015-.04148c.02277-.05959.05086-.1197-.01683-.17035a.18458.18458,0,0,1-.00433-.084c.02371-.046.04448-.0917-.015-.128a.27605.27605,0,0,1-.00734-.10485c.02929-.03936.0411-.07678-.01188-.107a.2251.2251,0,0,1-.00819-.10517c.02673-.0533.044-.10552-.01677-.149a.101.101,0,0,1-.00534-.06249.051.051,0,0,0,.02035-.04572q-.016-.21245-.03337-.42478a.264.264,0,0,0-.01181-.07172c-.01407-.03689-.0375-.03586-.06169-.007l-.04024-.009c-.02823-.05593-.0664-.04316-.10673-.01545a.17718.17718,0,0,1-.08385-.00651c-.05175-.06316-.11107-.03829-.17029-.01463a.51828.51828,0,0,1-.14749-.0073.2487.2487,0,0,0-.23424-.01364.9247.9247,0,0,1-.21061-.00673c-.00927-.03623-.03827-.03437-.06633-.03439L10.648,7.835a.06351.06351,0,0,0-.056.0205A.77573.77573,0,0,1,10.40241,7.85083Z"/><path class="a0c52aa8-f6ae-4bbd-a735-db85dc7e757a" d="M9.99955,10.41972l-.04251.01113c-.03867-.00181-.07733-.00516-.116-.00518q-.736-.00054-1.472-.00024c-.02471,0-.04944.00058-.07412-.00019-.07987-.00249-.085-.00453-.07823-.0859.02213-.267.04649-.53378.07134-.80053q.03633-.38979.07548-.77933T8.445,7.98087c.01021-.09427.01376-.09758.11052-.1007.35266-.01137.70536-.02131,1.058-.03211.09523-.00292.19041-.0077.28566-.01007.03421-.00085.071-.01161.10068.017Z"/><path class="f37953c0-10cc-48bf-b309-7102589f3b70" d="M12.26616,9.613c.03215-.03289.07334-.019.1105-.019q.65091-.00142,1.30183-.00061A.22984.22984,0,0,0,13.812,9.5722c.02266.02668.01218.04719-.01588.05641a.20662.20662,0,0,1-.063.0034q-.68772-.00135-1.37544-.00343A.13113.13113,0,0,1,12.26616,9.613Z"/><path class="f37953c0-10cc-48bf-b309-7102589f3b70" d="M11.947,7.94281c.02419-.02882.04762-.02985.06169.007a.264.264,0,0,1,.01181.07172q.01743.21232.03337.42478a.051.051,0,0,1-.02035.04572,1.486,1.486,0,0,1-.04059-.27958A1.74023,1.74023,0,0,0,11.947,7.94281Z"/><path class="f37953c0-10cc-48bf-b309-7102589f3b70" d="M13.50313,6.16247a.85841.85841,0,0,0-.35569-.0448c-.03445-.00024-.079.019-.09837-.032a3.59338,3.59338,0,0,1,.398-.0067C13.50572,6.07788,13.51885,6.11153,13.50313,6.16247Z"/><path class="f37953c0-10cc-48bf-b309-7102589f3b70" d="M10.592,7.85549a.06351.06351,0,0,1,.056-.0205l.23922.00021c.02806,0,.05706-.00184.06633.03439A1.42356,1.42356,0,0,1,10.592,7.85549Z"/><path class="f37953c0-10cc-48bf-b309-7102589f3b70" d="M10.25247,16.342c.04894-.06449.12822-.051.19345-.07247.02388-.00786.05553-.03836.08327-.00145A.92112.92112,0,0,1,10.25247,16.342Z"/><path class="f37953c0-10cc-48bf-b309-7102589f3b70" d="M11.16413,7.87632a.2487.2487,0,0,1,.23424.01364A.57413.57413,0,0,1,11.16413,7.87632Z"/><path class="f37953c0-10cc-48bf-b309-7102589f3b70" d="M11.0573,16.128a.05844.05844,0,0,1,.05284-.04268c.06821-.00657.1299-.05762.20278-.0299A.76055.76055,0,0,1,11.0573,16.128Z"/><path class="f37953c0-10cc-48bf-b309-7102589f3b70" d="M13.74221,8.85267c-.0626-.059-.0384-.12516-.01589-.19122A.37043.37043,0,0,1,13.74221,8.85267Z"/><path class="f37953c0-10cc-48bf-b309-7102589f3b70" d="M13.61589,7.43308c-.06656-.05089-.03937-.11071-.01621-.17016A.30542.30542,0,0,1,13.61589,7.43308Z"/><path class="f37953c0-10cc-48bf-b309-7102589f3b70" d="M13.6583,7.89934c-.06673-.05077-.03909-.11075-.01664-.17024A.30035.30035,0,0,1,13.6583,7.89934Z"/><path class="f37953c0-10cc-48bf-b309-7102589f3b70" d="M13.5741,6.94592c-.06785-.05056-.0394-.11074-.017-.17032A.31626.31626,0,0,1,13.5741,6.94592Z"/><path class="f37953c0-10cc-48bf-b309-7102589f3b70" d="M11.54586,7.89726c.05922-.02366.11854-.04853.17029.01463A.32549.32549,0,0,1,11.54586,7.89726Z"/><path class="f37953c0-10cc-48bf-b309-7102589f3b70" d="M13.67944,8.1324c-.06664-.05071-.03906-.11068-.01673-.17014A.31672.31672,0,0,1,13.67944,8.1324Z"/><path class="f37953c0-10cc-48bf-b309-7102589f3b70" d="M10.65476,16.2366a.197.197,0,0,1,.19217-.0539A.45307.45307,0,0,1,10.65476,16.2366Z"/><path class="f37953c0-10cc-48bf-b309-7102589f3b70" d="M12.10231,9.23251c.06769.05065.0396.11076.01683.17035A.32649.32649,0,0,1,12.10231,9.23251Z"/><path class="f37953c0-10cc-48bf-b309-7102589f3b70" d="M13.59385,7.179c-.06472-.05151-.03915-.111-.01513-.17042A.31021.31021,0,0,1,13.59385,7.179Z"/><path class="f37953c0-10cc-48bf-b309-7102589f3b70" d="M11.88378,15.89586a.20925.20925,0,0,1,.1915-.05331A.42349.42349,0,0,1,11.88378,15.89586Z"/><path class="f37953c0-10cc-48bf-b309-7102589f3b70" d="M13.53005,6.4585c-.06425-.0517-.039-.11116-.01477-.17053A.312.312,0,0,1,13.53005,6.4585Z"/><path class="f37953c0-10cc-48bf-b309-7102589f3b70" d="M13.636,7.66615c-.05768-.0448-.043-.09643-.01411-.14942A.23187.23187,0,0,1,13.636,7.66615Z"/><path class="f37953c0-10cc-48bf-b309-7102589f3b70" d="M13.69965,8.36556c-.05792-.04473-.04289-.09649-.01441-.14956A.23785.23785,0,0,1,13.69965,8.36556Z"/><path class="f37953c0-10cc-48bf-b309-7102589f3b70" d="M13.7206,8.5985c-.05739-.04443-.04244-.0961-.01494-.149A.24521.24521,0,0,1,13.7206,8.5985Z"/><path class="f37953c0-10cc-48bf-b309-7102589f3b70" d="M12.03883,8.55456c.06076.04344.0435.09566.01677.149A.24786.24786,0,0,1,12.03883,8.55456Z"/><path class="f37953c0-10cc-48bf-b309-7102589f3b70" d="M12.12064,9.44434a.04285.04285,0,0,1,.0392.04879c-.00016.03341.00033.06683.00055.10025-.0311-.00047-.04128-.02127-.04195-.04719C12.11755,9.51229,12.11976,9.4783,12.12064,9.44434Z"/><path class="f37953c0-10cc-48bf-b309-7102589f3b70" d="M13.55138,6.69161c-.05791-.04465-.04285-.09642-.01455-.14948A.25219.25219,0,0,1,13.55138,6.69161Z"/><path class="f37953c0-10cc-48bf-b309-7102589f3b70" d="M13.76191,9.04347c-.058-.037-.03841-.0823-.01356-.12811A.18441.18441,0,0,1,13.76191,9.04347Z"/><path class="f37953c0-10cc-48bf-b309-7102589f3b70" d="M12.083,9.02055c.05945.03629.03868.082.015.128A.18892.18892,0,0,1,12.083,9.02055Z"/><path class="f37953c0-10cc-48bf-b309-7102589f3b70" d="M11.65091,15.96336c.03317-.044.07167-.06986.1273-.03736A.21117.21117,0,0,1,11.65091,15.96336Z"/><path class="f37953c0-10cc-48bf-b309-7102589f3b70" d="M13.80429,9.48851c-.05389-.03-.04271-.06749-.0123-.10719A.13974.13974,0,0,1,13.80429,9.48851Z"/><path class="f37953c0-10cc-48bf-b309-7102589f3b70" d="M13.78179,9.25542c-.05212-.03028-.04048-.06771-.012-.107A.12773.12773,0,0,1,13.78179,9.25542Z"/><path class="f37953c0-10cc-48bf-b309-7102589f3b70" d="M12.06379,8.80869c.053.03023.04117.06765.01188.107A.139.139,0,0,1,12.06379,8.80869Z"/><path class="f37953c0-10cc-48bf-b309-7102589f3b70" d="M11.8,7.9184c.04033-.02771.0785-.04048.10673.01545A.14351.14351,0,0,1,11.8,7.9184Z"/><path class="f37953c0-10cc-48bf-b309-7102589f3b70" d="M12.117,15.83256a.07354.07354,0,0,1,.106-.03313A.1395.1395,0,0,1,12.117,15.83256Z"/><path class="f37953c0-10cc-48bf-b309-7102589f3b70" d="M11.50251,16.00477c.02563-.04388.05941-.06121.1072-.03288A.15519.15519,0,0,1,11.50251,16.00477Z"/><path class="f37953c0-10cc-48bf-b309-7102589f3b70" d="M11.35418,16.046c.02635-.043.06027-.06019.10762-.03154A.17389.17389,0,0,1,11.35418,16.046Z"/><path class="f37953c0-10cc-48bf-b309-7102589f3b70" d="M13.30516,10.44064l-.1108-.0014A.12222.12222,0,0,1,13.30516,10.44064Z"/><path class="f37953c0-10cc-48bf-b309-7102589f3b70" d="M12.62546,15.68533c.00745-.02589.01833-.041.0427-.01354A.03462.03462,0,0,1,12.62546,15.68533Z"/><path class="f37953c0-10cc-48bf-b309-7102589f3b70" d="M12.47712,15.72907c.00682-.02631.017-.04283.04266-.01476A.03379.03379,0,0,1,12.47712,15.72907Z"/><path class="f37953c0-10cc-48bf-b309-7102589f3b70" d="M10.97245,16.15156c.00733-.025.01751-.0416.04257-.01447A.03377.03377,0,0,1,10.97245,16.15156Z"/><path class="f37953c0-10cc-48bf-b309-7102589f3b70" d="M10.8879,16.17327c.00749-.02673.01863-.0417.04318-.01339A.03342.03342,0,0,1,10.8879,16.17327Z"/><path class="f37953c0-10cc-48bf-b309-7102589f3b70" d="M10.57013,16.25987c.00677-.027.01689-.04429.04311-.01485A.03632.03632,0,0,1,10.57013,16.25987Z"/><path class="f37953c0-10cc-48bf-b309-7102589f3b70" d="M10.16769,16.36338c.00777-.02693.01925-.041.043-.01242A.03446.03446,0,0,1,10.16769,16.36338Z"/><path class="f37953c0-10cc-48bf-b309-7102589f3b70" d="M10.08284,16.38568c.00791-.02832.0198-.04217.04378-.012A.03411.03411,0,0,1,10.08284,16.38568Z"/><path class="f37953c0-10cc-48bf-b309-7102589f3b70" d="M10.445,14.56005a.19524.19524,0,0,1-.19328.05141A.54308.54308,0,0,1,10.445,14.56005Z"/><path class="f37953c0-10cc-48bf-b309-7102589f3b70" d="M11.90471,13.00392c.03457.06631.03213.08879-.014.12877A.19367.19367,0,0,1,11.90471,13.00392Z"/><path class="f37953c0-10cc-48bf-b309-7102589f3b70" d="M11.92546,12.77069c.03241.03975.04324.07721-.01143.10772A.14752.14752,0,0,1,11.92546,12.77069Z"/><path class="f37953c0-10cc-48bf-b309-7102589f3b70" d="M11.88136,13.27843c.03731.05715.03558.07254-.01222.10843A.14366.14366,0,0,1,11.88136,13.27843Z"/><path class="f37953c0-10cc-48bf-b309-7102589f3b70" d="M11.86165,13.49087c.03263.03965.04351.07709-.01095.10789A.13885.13885,0,0,1,11.86165,13.49087Z"/><path class="f37953c0-10cc-48bf-b309-7102589f3b70" d="M11.945,12.55841c.03156.03321.041.06377-.01045.087A.09871.09871,0,0,1,11.945,12.55841Z"/><path class="f37953c0-10cc-48bf-b309-7102589f3b70" d="M11.96725,12.3469c.03032.03346.03969.06411-.01159.08665A.0986.0986,0,0,1,11.96725,12.3469Z"/><path class="f37953c0-10cc-48bf-b309-7102589f3b70" d="M11.84008,13.72381c.03235.02693.0333.04943-.00926.06581A.06.06,0,0,1,11.84008,13.72381Z"/><path class="f37953c0-10cc-48bf-b309-7102589f3b70" d="M11.81863,13.91478c.03029.01959.0228.03363-.00652.04446A.03581.03581,0,0,1,11.81863,13.91478Z"/><path class="f37953c0-10cc-48bf-b309-7102589f3b70" d="M11.017,14.41154c-.00934.0333-.03136.03536-.05892.0238A.04886.04886,0,0,1,11.017,14.41154Z"/><path class="f37953c0-10cc-48bf-b309-7102589f3b70" d="M10.69912,14.49582c-.00757.02837-.01889.0437-.0436.01257A.03542.03542,0,0,1,10.69912,14.49582Z"/><path class="f37953c0-10cc-48bf-b309-7102589f3b70" d="M10.61441,14.5175c-.00726.02738-.01816.04317-.04328.01356A.03379.03379,0,0,1,10.61441,14.5175Z"/><path class="f37953c0-10cc-48bf-b309-7102589f3b70" d="M10.52971,14.53878c-.00775.02805-.01926.043-.04376.01253A.03528.03528,0,0,1,10.52971,14.53878Z"/><path class="f37953c0-10cc-48bf-b309-7102589f3b70" d="M11.29168,14.33658c-.00395.01407-.00987.02062-.02145.00562Z"/></svg>