<svg id="b075d800-536c-4bce-95af-0632ab7464f6" data-name="Capa 1" xmlns="http://www.w3.org/2000/svg" width="20" height="20" viewBox="0 0 20 20"><defs><style>.ad7b6c33-3eb4-4382-b778-1813df7a5298{fill:#3f403c;}.baac48bd-ed01-45ce-b860-e18711a4824b{fill:#80ba4c;}.eefedd42-6576-48b5-87bc-12e262ce7cd9{fill:#5fa13b;}.f696144a-ba69-4008-a538-9f5799f23cd4{fill:#b6de69;}.b4d2f5d9-ae63-4ddb-bb37-e0c8f42c5230{fill:#84be4c;}</style></defs><title>_</title><path class="ad7b6c33-3eb4-4382-b778-1813df7a5298" d="M8.99423,14.78184c.33731.00927.826.23508.45735.61911-.14427.15028-.30292.11593-.4852.15117a3.94036,3.94036,0,0,0-.49568.1631,9.61122,9.61122,0,0,0-1.05991.43633,13.63832,13.63832,0,0,0-1.936,1.159,15.07782,15.07782,0,0,1-1.48362.93463,2.14526,2.14526,0,0,1-.471.20291,1.231,1.231,0,0,0-.63477.37459.60586.60586,0,0,1-.48431.18911A9.22038,9.22038,0,0,1,.80273,18.8054c-.06123-.01026-.12307-.0169-.18462-.02521V18.4049a6.437,6.437,0,0,0,1.26083.00831,1.69589,1.69589,0,0,0,1.39519-.83427c.02479.13011-.05412.333.17094.228a25.49322,25.49322,0,0,0,2.4684-1.27687c.47791-.227.92016-.51655,1.37589-.78262.24863-.14516.50095-.2856.73735-.45046a1.28914,1.28914,0,0,0,.29782-.23366c.06673-.08905.05736-.18752.17392-.244A.68488.68488,0,0,1,8.818,14.777Z"/><path class="ad7b6c33-3eb4-4382-b778-1813df7a5298" d="M15.10757,13.77a4.90609,4.90609,0,0,0,1.228.12475,2.06553,2.06553,0,0,0,1.184-.43923c.55994-.39785,1.05568-.87266,1.58407-1.30826.08265-.06813.14486-.18043.27818-.16905v.23455c-.14491.02929-.23011.14826-.33848.23048-.46615.35368-.92542.71645-1.39314,1.068-.14159.10642-.20549.19475-.06758.356.11953.13977-.02891.149-.1113.16339a5.02838,5.02838,0,0,1-.97912.07441c-.51466-.0114-1.02906-.03418-1.54361-.05211a.05713.05713,0,0,0,.00172-.04347Z"/><path class="baac48bd-ed01-45ce-b860-e18711a4824b" d="M8.40787,14.993a6.04241,6.04241,0,0,1-1.11851.75452c-.45573.26607-.898.55561-1.37589.78262a2.81073,2.81073,0,0,1-1.4593-.58457,3.78373,3.78373,0,0,1-.96757-1.1531A8.50845,8.50845,0,0,1,2.489,11.42847a13.83711,13.83711,0,0,1,.1584-3.26483c.04173-.27946.04588-.27921.30228-.16659A27.848,27.848,0,0,1,5.945,9.42888a5.59018,5.59018,0,0,0,.58422.40008c-.03589.24062-.07666.48065-.10666.722a4.75869,4.75869,0,0,0,.03731,1.69126,5.61862,5.61862,0,0,0,.46755,1.34892,2.56729,2.56729,0,0,0,1.24562,1.19273A.43615.43615,0,0,1,8.40787,14.993Z"/><path class="eefedd42-6576-48b5-87bc-12e262ce7cd9" d="M5.266,12.56648a7.79563,7.79563,0,0,0,.64068,1.026c.23226.3848.49832.74829.74124,1.12657a10.6197,10.6197,0,0,0,.73518,1.04333c-.08458.05829-.15748.14-.27306.13555a4.26859,4.26859,0,0,1-.53943-.8003c-.24818-.36309-.46243-.74937-.69121-1.12572-.13248-.21794-.26677-.43482-.39637-.65446a.42948.42948,0,0,0-.16351-.1912q-.42787-.71919-.85539-1.43864c-.09454-.15983-.18386-.32275-.27555-.48425l.04885-.0481a1.85781,1.85781,0,0,1,.286.38759C4.7761,11.88031,4.97989,12.25326,5.266,12.56648Z"/><path class="f696144a-ba69-4008-a538-9f5799f23cd4" d="M15.02515.9881H15.119c-.02706.08323.021.15194.04505.22458a24.792,24.792,0,0,1,.78517,2.79185,18.46292,18.46292,0,0,1,.43748,3.057,16.2432,16.2432,0,0,1-.09384,2.83038A11.2493,11.2493,0,0,1,15.111,13.792a.87331.87331,0,0,0-.17651.298c-.0365.05944-.07131.12-.10975.17815A4.976,4.976,0,0,1,11.911,16.33436a2.53271,2.53271,0,0,1-2.11436-.27289c-.2412-.14857-.42588-.3652-.67384-.49939a.38751.38751,0,0,1,.02606-.33551c.35274-.82526.7024-1.65184,1.0556-2.47691.49757-1.16231,1.002-2.32173,1.49417-3.4863.23-.54405.438-1.09736.65669-1.64618.01725-.04328.04919-.09235-.00861-.11991-.049-.02338-.08852.01624-.11553.05629-.01725.02556-.02553.057-.0406.08422-.45685.82584-.8332,1.69165-1.24146,2.54095-.50954,1.06-.9674,2.14453-1.50666,3.19148-.21369.41487-.37459.85683-.56185,1.28544-.172.39368-.24921.417-.61537.19934-.03968-.02358-.08816-.03185-.12987-.05262a2.60545,2.60545,0,0,1-.82621-.60393,4.18726,4.18726,0,0,1-.84931-1.97339,5.45511,5.45511,0,0,1-.02649-1.70068,3.27015,3.27015,0,0,0,.10287-.66154c.1536-.1358.12831-.34048.19007-.51074A10.86506,10.86506,0,0,1,8.81886,5.62353a17.17126,17.17126,0,0,1,2.85153-2.37119c1.0125-.7152,2.08365-1.33992,3.11681-2.02321C14.88188,1.16651,14.997,1.11873,15.02515.9881Z"/><path class="b4d2f5d9-ae63-4ddb-bb37-e0c8f42c5230" d="M8.63781,15.03424c.04823-.12533.18343-.24263.24283-.37859.18726-.42861.34816-.87057.56185-1.28544.53926-1.047.99712-2.13146,1.50666-3.19148.40826-.8493.78461-1.71511,1.24146-2.54095.01507-.02725.02335-.05866.0406-.08422.027-.04.06651-.07967.11553-.05629.0578.02756.02586.07663.00861.11991-.21871.54882-.42674,1.10213-.65669,1.64618-.49221,1.16457-.9966,2.324-1.49417,3.4863-.3532.82507-.70286,1.65165-1.0556,2.47691-.02571.06014-.024.18231-.10611.18933a.43933.43933,0,0,1-.346-.1219A.23316.23316,0,0,1,8.63781,15.03424Z"/></svg>