<svg id="a47047d0-3ec0-4c95-8263-7a3d71a21a6f" data-name="Capa 1" xmlns="http://www.w3.org/2000/svg" width="20" height="20" viewBox="0 0 20 20"><defs><style>.b799957a-9ed5-4e53-93e7-fbb2a2d188e4{fill:#0077b5;}.b1ff1bbb-e513-4015-b9b5-599561d1030b{fill:#fff;}</style></defs><title>_</title><path class="b799957a-9ed5-4e53-93e7-fbb2a2d188e4" d="M0,9.11483a10,10,0,1,1,10,10A9.99972,9.99972,0,0,1,0,9.11483Z"/><path class="b1ff1bbb-e513-4015-b9b5-599561d1030b" d="M7.64308,6.891v6.80923H5.37692V6.891Z"/><path class="b1ff1bbb-e513-4015-b9b5-599561d1030b" d="M7.79231,4.78484A1.18205,1.18205,0,0,1,6.51,5.96176H6.49538a1.17984,1.17984,0,1,1,.02923-2.35307A1.17741,1.17741,0,0,1,7.79231,4.78484Z"/><path class="b1ff1bbb-e513-4015-b9b5-599561d1030b" d="M15.81538,9.79639v3.90383H13.54924V10.05715c0-.91462-.32771-1.53924-1.14769-1.53924a1.24029,1.24029,0,0,0-1.1631.82771,1.54494,1.54494,0,0,0-.0746.55229v3.80231H8.89693s.03-6.17,0-6.80923h2.26692v.96462A2.25083,2.25083,0,0,1,13.20615,6.731C14.69769,6.731,15.81538,7.70485,15.81538,9.79639Z"/></svg>