<svg id="be4cac28-6e7f-413f-94cc-bf80db95a3be" data-name="Capa 1" xmlns="http://www.w3.org/2000/svg" width="20" height="20" viewBox="0 0 20 20"><defs><style>.f1064532-2c43-4e50-af88-e33d8eb3cb69{fill:#6181b6;}.b64b82f2-ee6e-4fd9-b86f-83f5b2cca23b{fill:#fff;}</style></defs><title>_</title><path class="f1064532-2c43-4e50-af88-e33d8eb3cb69" d="M10,15.02065c5.52257,0,10-2.2483,10-5.01993,0-2.77307-4.47743-5.02137-10-5.02137S0,7.22765,0,10.00072C0,12.77235,4.47743,15.02065,10,15.02065Z"/><path class="b64b82f2-ee6e-4fd9-b86f-83f5b2cca23b" d="M12.02415,11.62832,12.5195,9.097a1.27548,1.27548,0,0,0-.2757-1.265,2.206,2.206,0,0,0-1.4875-.38621H9.89382l.24475-1.25759a.17136.17136,0,0,0-.03239-.13713.14884.14884,0,0,0-.12238-.056H8.797a.16527.16527,0,0,0-.16224.12822L8.1056,8.808a1.42952,1.42952,0,0,0-.35678-.77393,2.07579,2.07579,0,0,0-1.635-.59713H3.83019a.16822.16822,0,0,0-.16368.12976l-1.0644,5.44744a.17108.17108,0,0,0,.03248.13713.14856.14856,0,0,0,.12229.056H3.951a.16555.16555,0,0,0,.16368-.12823l.25951-1.31356h.886a3.90523,3.90523,0,0,0,1.1632-.14595,2.32026,2.32026,0,0,0,.85367-.50714,2.641,2.641,0,0,0,.50417-.6207l-.21227,1.088a.17136.17136,0,0,0,.03239.13713.14882.14882,0,0,0,.12238.05606H8.91049a.16516.16516,0,0,0,.16215-.12831L9.658,8.66205h.8138c.3494,0,.44667.06488.47915.09736.025.02358.0737.12085.0162.41869L10.49535,11.587a.17.17,0,0,0,.0324.13713.14781.14781,0,0,0,.12237.0575h1.21926A.22766.22766,0,0,0,12.02415,11.62832Zm-5.496-2.095a1.2718,1.2718,0,0,1-.41427.805,1.64825,1.64825,0,0,1-.97451.23441H4.61006L4.992,8.62228h.68251c.50426,0,.70771.10465.78879.1931A.91111.91111,0,0,1,6.52812,9.53335Z"/><path class="b64b82f2-ee6e-4fd9-b86f-83f5b2cca23b" d="M17.09717,8.03407a2.07466,2.07466,0,0,0-1.63354-.59713H13.16234a.16659.16659,0,0,0-.16224.12976l-1.06584,5.43862a.16991.16991,0,0,0,.03239.137.14773.14773,0,0,0,.12238.0575h1.19568a.16643.16643,0,0,0,.16215-.12966l.261-1.31366h.88606a3.95426,3.95426,0,0,0,1.16167-.14442,2.30106,2.30106,0,0,0,.85357-.50867,2.583,2.583,0,0,0,.52046-.64427,2.67688,2.67688,0,0,0,.28452-.77394A1.84788,1.84788,0,0,0,17.09717,8.03407ZM15.85281,9.53335a1.27138,1.27138,0,0,1-.41419.805,1.65037,1.65037,0,0,1-.976.23441h-.52775l.3818-1.95046h.68261c.50417,0,.70762.10465.78878.1931A.85082.85082,0,0,1,15.85281,9.53335Z"/></svg>