<svg id="bf708acc-4931-45b7-822e-5670e3382b09" data-name="Capa 1" xmlns="http://www.w3.org/2000/svg" width="20" height="20" viewBox="0 0 20 20"><title>_</title><path d="M9.5692,19.011q-2.57735,0-5.15467-.00016a2.191,2.191,0,0,1-2.23737-2.45358,7.53873,7.53873,0,0,1,.3817-1.4977,9.78715,9.78715,0,0,1,2.22937-3.766,7.645,7.645,0,0,1,1.6631-1.31361.16508.16508,0,0,1,.20055-.00024,5.18518,5.18518,0,0,0,5.81337.01359.20008.20008,0,0,1,.24341-.00137,8.22916,8.22916,0,0,1,2.71209,2.65169,10.89885,10.89885,0,0,1,1.51212,3.678,2.21561,2.21561,0,0,1-2.159,2.6883C13.039,19.01463,11.3041,19.011,9.5692,19.011Z"/><path d="M9.56466,10.15845a4.5793,4.5793,0,1,1,4.5826-4.64253A4.57866,4.57866,0,0,1,9.56466,10.15845Z"/></svg>