<svg id="e89f63ff-dd30-4aa7-acd5-4426514a31db" data-name="Capa 1" xmlns="http://www.w3.org/2000/svg" width="20" height="20" viewBox="0 0 20 20"><defs><style>.b4a240af-550d-4db5-b14c-54a6e749721d{fill:#4675a4;}.eb7ab103-048f-45d7-8df0-2c0f95d1a3f2{fill:#f9d663;}</style></defs><title>_</title><path class="b4a240af-550d-4db5-b14c-54a6e749721d" d="M9.932.74445c-4.82615,0-4.52585,2.04822-4.52585,2.04822l.00675,2.122h4.60469v.63746H3.58278S.49453,5.20989.49453,9.97563c0,4.76748,2.6957,4.598,2.6957,4.598H4.79892V12.361A2.51744,2.51744,0,0,1,7.451,9.72407h4.56783a2.44044,2.44044,0,0,0,2.5665-2.429V3.21368S14.97624.74445,9.932.74445ZM7.39234,2.17037a.85383.85383,0,0,1,.317.062.80233.80233,0,0,1,.26845.1761.78333.78333,0,0,1,.17948.26334.80113.80113,0,0,1-.17948.8841.82984.82984,0,0,1-.26845.1761.86214.86214,0,0,1-.63408,0A.82941.82941,0,0,1,6.8069,3.556a.78253.78253,0,0,1-.17948-.26344.78675.78675,0,0,1,0-.62066.782.782,0,0,1,.17948-.26334.80191.80191,0,0,1,.26835-.1761A.85434.85434,0,0,1,7.39234,2.17037Z"/><path class="eb7ab103-048f-45d7-8df0-2c0f95d1a3f2" d="M10.06962,19.25555c4.82605,0,4.52411-2.04822,4.52411-2.04822l-.005-2.122H9.98239v-.63746h6.43483s3.08825.34218,3.08825-4.42356c0-4.76738-2.69407-4.59793-2.69407-4.59793H15.20272V7.63725a2.52049,2.52049,0,0,1-2.65383,2.63868H7.98116a2.44051,2.44051,0,0,0-2.5666,2.429v4.0813s-.38917,2.46933,4.65506,2.46933Zm2.53968-1.42592a.86277.86277,0,0,1-.31873-.06205.81841.81841,0,0,1-.26835-.1761.80678.80678,0,0,1-.17948-.26344.78184.78184,0,0,1-.06215-.31033.79416.79416,0,0,1,.06215-.31033.80647.80647,0,0,1,.17948-.26334.84542.84542,0,0,1,.26835-.1761.86668.86668,0,0,1,.63581,0,.84669.84669,0,0,1,.26836.1761.80663.80663,0,0,1,.17948.26334.80717.80717,0,0,1,0,.62066.80693.80693,0,0,1-.17948.26344.8196.8196,0,0,1-.26836.1761.86073.86073,0,0,1-.31708.06205Z"/></svg>