<svg id="b3c351fb-495c-4e69-9ef1-f7e6c7c84eff" data-name="Capa 1" xmlns="http://www.w3.org/2000/svg" width="20" height="20" viewBox="0 0 20 20"><defs><style>.f4c10561-0d7d-4cb8-8c9a-ac21559e4da0{fill:#39d8ff;}</style></defs><title>_</title><path class="f4c10561-0d7d-4cb8-8c9a-ac21559e4da0" d="M16.33881,6.93594c-.20557-.06165-.41083-.14362-.637-.20526.04114-.14362.06171-.28693.10285-.43048.47253-2.31787.16443-4.2049-.9043-4.82013-1.02728-.595-2.7121.02057-4.397,1.49707-.16437.14361-.32874.28717-.49311.45135-.10272-.10248-.2055-.205-.32873-.30774C7.91443,1.54141,6.12683.8851,5.05835,1.50064,4.031,2.0953,3.72278,3.85928,4.1543,6.0538c.04107.22583.08221.43078.14386.65661a7.28262,7.28262,0,0,0-.71918.22553C1.50372,7.65365.16815,8.80246.16815,9.97152c0,1.21015,1.4383,2.44086,3.59577,3.17914a5.295,5.295,0,0,0,.53424.16412c-.06165.22553-.10279.47193-.16443.69745-.41095,2.17426-.08216,3.87659.92462,4.47126,1.04791.61554,2.83557-.02027,4.56152-1.51764.1438-.123.26709-.2461.41095-.36914.16437.16388.34925.32806.53418.49218,1.66431,1.43573,3.32862,2.01014,4.3559,1.43573,1.04816-.61523,1.39734-2.46118.94537-4.69708-.04114-.16388-.08221-.34857-.12335-.53332l.36975-.123c2.26019-.73822,3.71918-1.94837,3.71918-3.17914C19.83185,8.823,18.45508,7.67422,16.33881,6.93594ZM11.0376,3.63345c1.459-1.27155,2.81488-1.764,3.43133-1.41516.65753.38971.92481,1.90735.49311,3.91742-.02057.12335-.06171.26666-.08222.39a18.91847,18.91847,0,0,0-2.62994-.41028,22.93827,22.93827,0,0,0-1.66431-2.07177C10.72949,3.90011,10.89368,3.7565,11.0376,3.63345ZM6.51721,12.02236c.20551.34888.41095.67695.61646,1.00525a17.51981,17.51981,0,0,1-1.80817-.28723,17.69386,17.69386,0,0,1,.637-1.74347C6.1474,11.34549,6.33234,11.67385,6.51721,12.02236ZM5.34607,7.34585q.89373-.18447,1.7876-.30743a7.59651,7.59651,0,0,0-.61646.98437c-.18487.32831-.36981.67688-.55475,1.02576A16.8383,16.8383,0,0,1,5.34607,7.34585Zm1.04785,2.66644c.26715-.53326.53424-1.06659.84247-1.57928s.61639-1.02545.94519-1.51764a26.24267,26.24267,0,0,1,3.59576,0c.32862.49219.6576,1.00494.94507,1.51764.30835.51269.57532,1.046.84259,1.57928-.2467.53327-.53424,1.06659-.822,1.57959-.308.51276-.61645,1.02546-.94507,1.51764-.57531.04114-1.19177.06165-1.80822.06165s-1.21229-.02051-1.7876-.06165c-.34931-.49218-.65747-1.00488-.9657-1.51764C6.92816,11.07888,6.66107,10.54556,6.39392,10.01229Zm7.0683,1.98987c.20557-.32831.39026-.67688.57532-1.02575.2464.5744.47253,1.1488.65753,1.7229a14.21863,14.21863,0,0,1-1.82874.30774C13.0719,12.67874,13.27716,12.35073,13.46222,12.00216ZM14.017,9.00741c-.16449-.32831-.34918-.65631-.55475-1.00519-.18506-.328-.39032-.65637-.59589-.98437q.95545.123,1.7876.3078A15.00915,15.00915,0,0,1,14.017,9.00741ZM10.01025,4.63864a14.82045,14.82045,0,0,1,1.15064,1.39459,22.021,22.021,0,0,0-2.32184,0C9.20892,5.56161,9.5993,5.08969,10.01025,4.63864ZM5.4693,2.23886c.65753-.38965,2.11639.16388,3.65741,1.51764a3.71541,3.71541,0,0,1,.28766.26666A23.1819,23.1819,0,0,0,7.72949,6.09494a18.91012,18.91012,0,0,0-2.63.41021c-.04114-.18469-.08222-.38971-.12329-.595C4.60632,4.02316,4.85291,2.608,5.4693,2.23886ZM4.52417,12.55569c-.18494-.0614-.3493-.12305-.49316-.16388a7.49507,7.49507,0,0,1-2.30127-1.21014,1.72986,1.72986,0,0,1-.73969-1.16938c0-.71771,1.06842-1.62011,2.856-2.25616.226-.08191.45209-.14362.6781-.205a18.23549,18.23549,0,0,0,.9657,2.48169A22.01676,22.01676,0,0,0,4.52417,12.55569Zm4.54089,3.83575A8.03821,8.03821,0,0,1,6.86652,17.7452a1.79826,1.79826,0,0,1-1.37665.06141c-.6164-.34858-.88355-1.74347-.53424-3.58942.04114-.22553.08221-.43079.14386-.65631a23.62908,23.62908,0,0,0,2.65057.38971,20.86027,20.86027,0,0,0,1.68488,2.092C9.31165,16.16561,9.18835,16.2684,9.06506,16.39144Zm.9657-.98461c-.41089-.45136-.82184-.923-1.19171-1.41517.36987.02027.76025.02027,1.15064.02027.41094,0,.80151,0,1.19177-.02027C10.8114,14.48385,10.44171,14.95547,10.03076,15.40683ZM15.147,16.57589a1.72018,1.72018,0,0,1-.637,1.21015c-.61645.34887-1.95215-.10248-3.36969-1.33319-.16449-.14362-.329-.28724-.4931-.45105A17.96224,17.96224,0,0,0,12.291,13.90945a19.49206,19.49206,0,0,0,2.671-.41022,1.8971,1.8971,0,0,0,.08221.49243A7.29252,7.29252,0,0,1,15.147,16.57589Zm.69867-4.18408c-.10278.04083-.22613.0614-.32892.10248a20.13144,20.13144,0,0,0-.98614-2.482,21.06947,21.06947,0,0,0,.96558-2.46112c.20556.06134.39062.12305.57531.18439,1.8288.61554,2.9383,1.559,2.9383,2.25647C18.98926,10.75088,17.79749,11.7355,15.8457,12.39181Z"/><path class="f4c10561-0d7d-4cb8-8c9a-ac21559e4da0" d="M9.98969,11.79684a1.76386,1.76386,0,1,0-1.767-1.764A1.76545,1.76545,0,0,0,9.98969,11.79684Z"/></svg>