<svg id="b76e799e-da56-4e19-8617-667dfd8f13a1" data-name="Capa 1" xmlns="http://www.w3.org/2000/svg" width="20" height="20" viewBox="0 0 20 20"><defs><style>.a36417fb-354b-4cce-a617-5cef03c60f90{fill:#ff3e00;}.eb4a214d-9278-4947-84d8-d8aaa3003b80{fill:#fff;}</style></defs><title>_</title><path class="a36417fb-354b-4cce-a617-5cef03c60f90" d="M17.1385,2.77225A6.00384,6.00384,0,0,0,9.09876,1.04618l-4.57938,2.918A5.24985,5.24985,0,0,0,2.14555,7.476a5.5367,5.5367,0,0,0,.54415,3.554,5.25331,5.25331,0,0,0-.78461,1.96295,5.59321,5.59321,0,0,0,.95682,4.235A6.00455,6.00455,0,0,0,10.902,18.95391l4.579-2.90584a5.26922,5.26922,0,0,0,2.37384-3.5118,5.53428,5.53428,0,0,0-.54594-3.55218,5.28534,5.28534,0,0,0,.7864-1.963,5.59836,5.59836,0,0,0-.95683-4.235"/><path class="eb4a214d-9278-4947-84d8-d8aaa3003b80" d="M8.65072,17.4808A3.64054,3.64054,0,0,1,4.7459,16.032a3.36185,3.36185,0,0,1-.57416-2.54569,2.98089,2.98089,0,0,1,.109-.42339l.08611-.26332.23509.17579a5.93585,5.93585,0,0,0,1.78574.88822l.17543.05109-.01573.17543a1.0354,1.0354,0,0,0,.19152.676,1.09779,1.09779,0,0,0,1.17619.43554,1.0379,1.0379,0,0,0,.28119-.12291l4.57188-2.91834a.94892.94892,0,0,0,.43018-.63883,1.01153,1.01153,0,0,0-.17543-.76747,1.098,1.098,0,0,0-1.17656-.43553,1.00993,1.00993,0,0,0-.28082.1229L9.80977,11.55658a3.35855,3.35855,0,0,1-.929.40731,3.63847,3.63847,0,0,1-3.89768-1.44667,3.36438,3.36438,0,0,1-.57095-2.546A3.162,3.162,0,0,1,5.83992,5.85351l4.58617-2.918a3.33727,3.33727,0,0,1,.9236-.40732,3.63607,3.63607,0,0,1,3.903,1.44846,3.36114,3.36114,0,0,1,.576,2.546,3.51837,3.51837,0,0,1-.109.42661l-.08754.26332-.23366-.17579a5.94411,5.94411,0,0,0-1.79074-.89537L13.432,6.09075l.01571-.17578a1.026,1.026,0,0,0-.18614-.681,1.09333,1.09333,0,0,0-1.16941-.4234,1.00962,1.00962,0,0,0-.28083.12292l-4.58082,2.913a.95773.95773,0,0,0-.43017.6374,1.02411,1.02411,0,0,0,.17543.76889,1.09633,1.09633,0,0,0,1.16762.43554,1.06066,1.06066,0,0,0,.28119-.12291l1.75572-1.11331a3.2757,3.2757,0,0,1,.93038-.4091A3.63456,3.63456,0,0,1,15.01405,9.49a3.36493,3.36493,0,0,1,.576,2.54569,3.16187,3.16187,0,0,1-1.42774,2.11766L9.58146,17.0717A3.36926,3.36926,0,0,1,8.65072,17.4808Z"/></svg>