<svg id="ac60c80b-56a6-4fcc-a85c-dc3b2266ab17" data-name="Capa 1" xmlns="http://www.w3.org/2000/svg" width="20" height="20" viewBox="0 0 20 20"><defs><style>.b975c897-f733-4b6d-aca8-81e16278913c{fill:#666;}</style></defs><title>_</title><path class="b975c897-f733-4b6d-aca8-81e16278913c" d="M16.29139,3.70918A8.897,8.897,0,1,0,3.70854,16.29082,8.897,8.897,0,1,0,16.29139,3.70918Zm1.801,5.89179H14.642a15.42023,15.42023,0,0,0-.56273-3.86883A8.85274,8.85274,0,0,0,15.913,4.46839,8.06914,8.06914,0,0,1,18.09239,9.601Zm-7.69277.798h3.44677a14.59028,14.59028,0,0,1-.50455,3.55715,8.9708,8.9708,0,0,0-2.94222-.64036Zm4.93975-6.4873A8.04114,8.04114,0,0,1,13.82818,4.962a9.074,9.074,0,0,0-.46813-1.09032,6.41385,6.41385,0,0,0-1.16913-1.67A8.05813,8.05813,0,0,1,15.33937,3.91171ZM10.39962,2.02339a3.76724,3.76724,0,0,1,2.24854,2.20122,8.93829,8.93829,0,0,1,.45717,1.07819,8.12938,8.12938,0,0,1-2.70571.60761ZM13.34547,6.0693a14.591,14.591,0,0,1,.49729,3.53532H10.39962V6.71329A8.97543,8.97543,0,0,0,13.34547,6.0693ZM9.60038,9.601H6.15354a14.6571,14.6571,0,0,1,.49729-3.53531A8.8164,8.8164,0,0,0,9.59676,6.706V9.601ZM9.604,2.02339v3.887A8.1167,8.1167,0,0,1,6.89822,5.3028a9.34943,9.34943,0,0,1,.45724-1.07819A3.76708,3.76708,0,0,1,9.604,2.02339Zm-1.79012.17826a6.44972,6.44972,0,0,0-1.17031,1.67A10.9546,10.9546,0,0,0,6.17538,4.962,8.20135,8.20135,0,0,1,4.66426,3.91171,8.05449,8.05449,0,0,1,7.81389,2.20165ZM4.09057,4.46839A8.99594,8.99594,0,0,0,5.92436,5.73214,15.33505,15.33505,0,0,0,5.36163,9.601H1.91117A8.08243,8.08243,0,0,1,4.09057,4.46839ZM1.91117,10.399H5.36163a15.45506,15.45506,0,0,0,.57,3.89068,8.7713,8.7713,0,0,0-1.82646,1.25647A8.06951,8.06951,0,0,1,1.91117,10.399Zm2.7676,5.70382a8.11256,8.11256,0,0,1,1.50394-1.043,10.1734,10.1734,0,0,0,.46087,1.06848A6.47268,6.47268,0,0,0,7.81389,17.802,8.11,8.11,0,0,1,4.67877,16.10283ZM9.604,17.97661a3.76712,3.76712,0,0,1-2.24855-2.20124,9.55521,9.55521,0,0,1-.45-1.05756A8.03209,8.03209,0,0,1,9.604,14.115Zm-2.9423-4.02045A14.65164,14.65164,0,0,1,6.15724,10.399H9.604V13.3158A8.79668,8.79668,0,0,0,6.66171,13.95616Zm3.74153,4.02045V14.115a8.11293,8.11293,0,0,1,2.69847.60277,9.11066,9.11066,0,0,1-.44992,1.05756A3.7673,3.7673,0,0,1,10.40324,17.97661Zm1.79131-.17828a6.43689,6.43689,0,0,0,1.16913-1.67366,9.70038,9.70038,0,0,0,.46087-1.0685,8.07118,8.07118,0,0,1,1.50386,1.043A8.01932,8.01932,0,0,1,12.19455,17.79833Zm3.71118-2.25217a8.91271,8.91271,0,0,0-1.82647-1.25647,15.42638,15.42638,0,0,0,.57-3.89068h3.45047A8.09511,8.09511,0,0,1,15.90573,15.54616Z"/></svg>