<svg id="af8eb290-576b-44f6-948a-6a71e0f4cb78" data-name="Capa 1" xmlns="http://www.w3.org/2000/svg" width="20" height="20" viewBox="0 0 20 20"><defs><style>.b07e9d1b-2235-4e97-94e4-5b56643bbaf7{fill:#666;fill-rule:evenodd;}</style></defs><title>_</title><path class="b07e9d1b-2235-4e97-94e4-5b56643bbaf7" d="M19.05742,10A9.05742,9.05742,0,1,1,10,.94258,9.05646,9.05646,0,0,1,19.05742,10Zm-8.76114,5.03939h.00262a5.38553,5.38553,0,1,0-4.66773-2.69771L4.86706,15.133l2.85626-.74979A5.36072,5.36072,0,0,0,10.29628,15.03939Z"/><path class="b07e9d1b-2235-4e97-94e4-5b56643bbaf7" d="M8.01829,13.506l-.1637-.09746L6.16,13.853l.45352-1.65164L6.507,12.0311a4.47608,4.47608,0,1,1,3.79186,2.09866h-.00262A4.4641,4.4641,0,0,1,8.01829,13.506Zm4.80938-2.69254a.42631.42631,0,0,1,.18457.12085,1.1162,1.1162,0,0,1-.07932.63936,1.38676,1.38676,0,0,1-.9083.64064,1.85181,1.85181,0,0,1-.84724-.05328,8.10325,8.10325,0,0,1-.76673-.28329A5.93248,5.93248,0,0,1,8.13528,9.87784l-.0234-.03248-.00135-.00131A2.61207,2.61207,0,0,1,7.56216,8.4523a1.4889,1.4889,0,0,1,.44447-1.09416c.009-.01039.01817-.01949.02594-.02728a.49361.49361,0,0,1,.35866-.16894c.0897,0,.18068.0013.25864.00519h.0299c.078,0,.17672-.00129.27284.23.03641.08967.091.22222.14816.36126.11564.282.24429.59387.26642.638a.25084.25084,0,0,1,.01166.23652l-.01951.03767a.78613.78613,0,0,1-.11564.18714c-.02205.026-.04545.05457-.06885.08186a1.9266,1.9266,0,0,1-.13253.15335c-.06758.06758-.13777.14035-.05853.27419a4.03365,4.03365,0,0,0,.74856.933,3.4689,3.4689,0,0,0,.99278.62766c.03641.01558.06758.02857.08836.04027.13515.06758.21311.05588.29235-.03379.078-.08966.33661-.39373.42623-.52758.08971-.13515.17933-.11306.30283-.06757s.78489.37034.91869.43791C12.78088,10.79009,12.80562,10.80179,12.82767,10.81347Z"/></svg>