<svg width="60" height="60" viewBox="0 0 60 60" fill="none" xmlns="http://www.w3.org/2000/svg">
<rect width="60" height="60" fill="white"/>
<path d="M24.2079 46C23.8489 45.832 23.4687 45.6984 23.135 45.49C22.1663 44.8849 21.724 43.8583 22.1237 42.791C23.4728 39.1901 24.8484 35.5985 26.2772 32.0286C28.496 26.4846 30.7914 20.9712 32.9957 15.4216C33.4629 14.2457 34.1511 13.4203 35.3315 13C35.6405 13 35.9494 13 36.2584 13C36.4225 13.0677 36.5855 13.1379 36.7508 13.2024C38.1189 13.7355 38.8152 15.0132 38.2965 16.3897C36.8637 20.1916 35.3787 23.9744 33.8643 27.7445C31.7178 33.0883 29.502 38.4041 27.3738 43.7551C26.9281 44.8758 26.2715 45.64 25.1348 46C24.8258 46 24.5169 46 24.2079 46Z" fill="black"/>
<path d="M4 29.5C4.28106 29.0656 4.49593 28.5652 4.85318 28.2069C8.34321 24.7076 11.8447 21.2194 15.372 17.7577C16.3574 16.7905 17.2006 16.6969 18.3083 17.2396C19.3645 17.7568 19.9575 18.7514 19.7531 19.9756C19.6637 20.5106 19.3519 21.0878 18.9714 21.4823C16.3989 24.1514 13.7828 26.778 11.1747 29.4127C11.0019 29.5871 10.7798 29.713 10.5084 29.9153C10.8427 30.2658 11.0663 30.5078 11.2976 30.7418C13.7958 33.2676 16.2981 35.7896 18.7929 38.319C19.4648 39.0001 19.9347 39.7571 19.7738 40.7923C19.6244 41.7537 19.1843 42.5022 18.274 42.8513C17.3489 43.2061 16.3659 43.3046 15.5852 42.5324C11.9181 38.9061 8.26979 35.2609 4.62978 31.6075C4.35929 31.3359 4.20708 30.9468 4 30.6123C4 30.2416 4 29.8708 4 29.5Z" fill="black"/>
<path d="M56.4663 30.6124C56.0273 31.1971 55.6509 31.8445 55.1391 32.3564C51.7996 35.6962 48.3928 38.9697 45.0946 42.3494C44.0985 43.37 42.2212 43.1596 41.4207 42.3474C40.5284 41.4419 40.3591 39.6331 41.3414 38.6679C43.9172 36.1367 46.4163 33.5275 48.9443 30.9478C49.223 30.6634 49.4905 30.3678 49.8207 30.0163C49.0033 29.1695 48.2228 28.3498 47.4302 27.5419C45.4628 25.5363 43.4784 23.5476 41.524 21.5296C40.4005 20.3696 40.3528 18.8811 41.3477 17.8186C42.4148 16.6788 43.9764 16.6141 45.1935 17.8093C48.7617 21.3129 52.2868 24.8607 55.8102 28.4095C56.1005 28.7019 56.2509 29.1333 56.4663 29.5002C56.4663 29.8708 56.4663 30.2416 56.4663 30.6124Z" fill="black"/>
</svg>
