<svg width="60" height="60" viewBox="0 0 60 60" fill="none" xmlns="http://www.w3.org/2000/svg">
<rect width="60" height="60" fill="white"/>
<path d="M29.5905 55L14.39 50.7857L11 12.8279H48.2247L44.8347 50.7784L29.5905 55Z" fill="#264DE4"/>
<path d="M41.9305 48.3645L44.8311 15.932H29.6124V51.7754L41.9305 48.3645Z" fill="#2965F1"/>
<path d="M18.7664 30.01L19.1829 34.6662H29.6124V30.01H18.7664Z" fill="#EBEBEB"/>
<path d="M17.9262 20.5882L18.3499 25.2443H29.6123V20.5882H17.9262Z" fill="#EBEBEB"/>
<path d="M29.6123 42.1015L29.5941 42.1051L24.4031 40.7065L24.0706 36.9925H19.3947L20.045 44.3036L29.5904 46.9512L29.6123 46.9439V42.1015Z" fill="#EBEBEB"/>
<path d="M19.76 2H25.404V4.35548H22.1236V6.7146H25.4077V9.07373H19.76V2Z" fill="black"/>
<path d="M26.5365 2H32.1805V4.04872H28.8964V4.45773H32.1805V9.17598H26.5365V7.02136H29.8206V6.61235H26.5328V2H26.5365V2Z" fill="black"/>
<path d="M33.3093 2H38.9533V4.04872H35.6692V4.45773H38.9533V9.17598H33.3093V7.02136H36.5934V6.61235H33.3093V2Z" fill="black"/>
<path d="M40.4291 30.0101L41.273 20.5882H29.5978V25.2443H36.1623L35.7386 30.0101H29.5978V34.6662H35.3368L34.7961 40.7028L29.5978 42.1051V46.9476L39.1506 44.3036L39.22 43.5148L40.3159 31.259L40.4291 30.0101Z" fill="white"/>
</svg>
