<svg width="60" height="60" viewBox="0 0 60 60" fill="none" xmlns="http://www.w3.org/2000/svg">
<rect width="60" height="60" fill="white"/>
<path d="M24.1507 48.9797C21.9203 48.9797 19.7401 49.0143 17.5613 48.9702C15.263 48.9238 12.9169 49.0739 10.6791 48.6596C5.11148 47.6289 1.25339 42.8598 1.01043 37.1072C0.781067 31.6793 4.35701 26.6236 9.61686 25.0247C10.3275 24.8087 10.6378 24.4507 10.8955 23.7691C13.6495 16.4854 18.8687 12.0413 26.545 11.1538C34.5083 10.233 40.7624 13.4676 45.0631 20.3248C45.4734 20.9792 45.9093 21.2822 46.6377 21.4318C53.4113 22.8226 57.9794 28.3296 57.9999 35.0777C58.0204 41.8242 53.3742 47.486 46.5533 48.7482C44.5765 49.1141 42.4986 48.9482 40.4664 48.9837C38.6265 49.0159 36.7854 48.9904 34.8601 48.9904C34.8601 43.6841 34.8601 38.4523 34.8601 33.0833C36.0993 33.0833 37.3185 33.1262 38.532 33.0606C38.9736 33.0367 39.5319 32.8601 39.7836 32.5467C39.9217 32.3748 39.6253 31.6962 39.3657 31.3775C36.4693 27.8206 33.5437 24.2879 30.6217 20.7523C29.6256 19.5472 29.3942 19.5372 28.4274 20.7053C25.4785 24.2686 22.5311 27.8331 19.6128 31.4216C19.3581 31.7348 19.1082 32.3365 19.244 32.6082C19.3858 32.8919 19.9911 33.0485 20.4028 33.068C21.6236 33.1258 22.849 33.0887 24.1507 33.0887C24.1507 38.4008 24.1507 43.6296 24.1507 48.9797Z" fill="#8AD5FF"/>
</svg>
