<svg width="60" height="60" viewBox="0 0 60 60" fill="none" xmlns="http://www.w3.org/2000/svg">
<rect width="60" height="60" fill="white"/>
<path d="M48.2941 12.7493L44.8978 50.7705L29.6214 55L14.3927 50.7778L11 12.7493H48.2941Z" fill="#E44D26"/>
<path d="M29.6471 51.7694L41.9882 48.3521L44.8904 15.8592H29.6471V51.7694Z" fill="#F16529"/>
<path d="M23.041 25.1889H29.6471V20.524H17.9391L18.0489 21.7753L19.1981 34.6283H29.6471V29.9635H23.4692L23.041 25.1889Z" fill="#EBEBEB"/>
<path d="M24.095 36.9589H19.4067L20.0619 44.2836L29.6251 46.9362L29.6471 46.9289V42.0775L29.6251 42.0811L24.4244 40.6798L24.095 36.9589Z" fill="#EBEBEB"/>
<path d="M29.6288 34.6283H35.3784L34.8368 40.6762L29.6288 42.0811V46.9325L39.203 44.2836L39.2725 43.4934L40.3705 31.2147L40.4839 29.9635H29.6288V34.6283Z" fill="white"/>
<path d="M29.6288 25.1779V25.1889H40.9085L41 24.1388L41.2159 21.7753L41.3257 20.524H29.6288V25.1779Z" fill="white"/>
<path d="M14.4366 2H16.8082V4.34157H18.9785V2H21.3501V9.09057H18.9785V6.71607H16.8082V9.09057H14.4366V2Z" fill="black"/>
<path d="M24.472 4.34889H22.3822V2H28.9334V4.34889H26.8436V9.09057H24.472V4.34889Z" fill="black"/>
<path d="M29.9728 2H32.4469L33.9694 4.49158L35.4919 2H37.966V9.09057H35.6017V5.57455L33.9694 8.0954H33.9291L32.2968 5.57455V9.09057H29.9728V2Z" fill="black"/>
<path d="M39.1481 2H41.5197V6.74534H44.8575V9.09057H39.1481V2Z" fill="black"/>
</svg>
