<svg width="60" height="60" viewBox="0 0 60 60" fill="none" xmlns="http://www.w3.org/2000/svg">
<rect width="60" height="60" fill="white"/>
<path d="M29.891 44C45.8463 44 58.782 37.5083 58.782 29.5018C58.782 21.4917 45.8463 15 29.891 15C13.9357 15 1 21.4917 1 29.5018C1 37.5046 13.9357 44 29.891 44Z" fill="#6181B6"/>
<path d="M35.7379 34.2016L37.1683 26.8897C37.5009 25.2381 37.22 24.0078 36.3699 23.2356C35.5494 22.4892 34.1376 22.1198 32.0716 22.1198H29.5842L30.2902 18.4878C30.3123 18.3474 30.2902 18.2107 30.1978 18.0925C30.1054 17.978 29.9834 17.9299 29.8429 17.9299H26.4168C26.184 17.9299 25.9955 18.0925 25.9474 18.2994L24.4173 26.0547C24.2769 25.1679 23.948 24.4253 23.3862 23.8193C22.3772 22.6777 20.799 22.0939 18.6628 22.0939H12.0656C11.8327 22.0939 11.6405 22.2602 11.5925 22.4671L8.5175 38.1993C8.49532 38.3397 8.5175 38.4764 8.6099 38.5946C8.70229 38.7091 8.82426 38.7572 8.9647 38.7572H12.413C12.6532 38.7572 12.838 38.5946 12.8861 38.3877L13.6363 34.5932H16.1976C17.5392 34.5932 18.6887 34.4528 19.5572 34.172C20.4738 33.869 21.2943 33.3813 22.0224 32.7089C22.61 32.1731 23.1016 31.5672 23.4786 30.9169L22.8651 34.0575C22.8429 34.1979 22.8651 34.3346 22.9574 34.4528C23.0535 34.571 23.1755 34.6191 23.316 34.6191H26.7458C26.9786 34.6191 27.1671 34.4565 27.2151 34.2496L28.9079 25.6372H31.2585C32.2675 25.6372 32.5484 25.8256 32.6445 25.918C32.7184 25.9845 32.8588 26.2653 32.6925 27.1261L31.3287 34.0833C31.3065 34.2237 31.3287 34.3641 31.4211 34.4787C31.5209 34.5969 31.6355 34.6449 31.7759 34.6449H35.2981C35.5051 34.571 35.6936 34.4122 35.7379 34.2016ZM19.8603 28.1496C19.6533 29.2395 19.2504 30.0302 18.6628 30.4736C18.0751 30.9169 17.1105 31.1497 15.8465 31.1497H14.3201L15.4252 25.5152H17.3988C18.855 25.5152 19.4426 25.8182 19.6792 26.0731C19.9785 26.4537 20.0525 27.1705 19.8603 28.1496Z" fill="white"/>
<path d="M50.396 23.8193C49.387 22.6777 47.8088 22.0939 45.6763 22.0939H39.0273C38.7945 22.0939 38.606 22.2602 38.5579 22.4671L35.4792 38.1734C35.4571 38.3138 35.4792 38.4542 35.5716 38.5687C35.6714 38.687 35.786 38.735 35.9264 38.735H39.3821C39.615 38.735 39.8035 38.5687 39.8515 38.3618L40.6055 34.5673H43.1667C44.5047 34.5673 45.6541 34.4269 46.5226 34.1498C47.4392 33.8469 48.2597 33.3591 48.9878 32.6793C49.5976 32.1214 50.1151 31.497 50.492 30.8172C50.8653 30.1447 51.1462 29.3984 51.3125 28.5818C51.7117 26.5682 51.4049 24.9832 50.396 23.8193ZM46.7998 28.1496C46.5929 29.2395 46.19 30.0302 45.6023 30.4736C45.0147 30.9169 44.0501 31.1497 42.7824 31.1497H41.2559L42.3573 25.5152H44.331C45.7871 25.5152 46.3748 25.8182 46.6113 26.0731C46.9403 26.4463 47.0142 27.1705 46.7998 28.1496Z" fill="white"/>
</svg>
