<svg width="60" height="60" viewBox="0 0 60 60" fill="none" xmlns="http://www.w3.org/2000/svg">
<rect width="60" height="60" fill="white"/>
<g clip-path="url(#clip0_1_134)">
<path d="M30.4903 52.0001C18.5971 52 8.97568 42.3618 9.00055 30.4282C9.02527 18.5628 18.67 8.95346 30.5864 9.00029C42.4461 9.04691 52.0529 18.6855 51.9952 30.6076C51.9381 42.4352 42.348 51.9923 30.4903 52.0001ZM30.2956 44.6887C31.7532 44.686 33.0054 44.6132 34.2512 44.4453C35.6585 44.2558 37.0429 43.9671 38.3703 43.449C39.2445 43.1077 40.0722 42.6838 40.7491 42.0147C41.3441 41.4265 41.6789 40.7258 41.6238 39.8739C41.5902 39.3565 41.5681 38.8346 41.4812 38.3249C40.9084 34.962 39.1538 32.3843 36.2762 30.564C36.0448 30.4177 36.044 30.425 35.8187 30.5947C33.9034 32.0366 31.751 32.617 29.3747 32.3285C27.7714 32.1338 26.3374 31.5124 25.07 30.5105C24.9962 30.4521 24.9426 30.4248 24.8467 30.4825C22.9526 31.6218 21.5023 33.1725 20.5163 35.152C19.7881 36.614 19.4292 38.167 19.3645 39.797C19.3309 40.6454 19.5929 41.3695 20.1958 41.9553C20.4865 42.2377 20.8097 42.4962 21.1502 42.716C22.0613 43.3044 23.0757 43.6572 24.1174 43.9327C26.2077 44.4855 28.3417 44.6762 30.2956 44.6887ZM30.504 31.0227C34.6023 31.0108 37.8728 27.7131 37.848 23.5877C37.8239 19.556 34.5068 16.2624 30.4068 16.3114C26.3537 16.3598 23.1185 19.6786 23.1397 23.7226C23.1608 27.7422 26.4724 31.0344 30.504 31.0227Z" fill="black"/>
<path d="M30.2955 44.6886C28.3415 44.6761 26.2075 44.4854 24.1172 43.9325C23.0756 43.657 22.0612 43.3042 21.1501 42.7159C20.8096 42.496 20.4863 42.2376 20.1956 41.9551C19.5928 41.3694 19.3307 40.6452 19.3644 39.7969C19.429 38.1668 19.788 36.6139 20.5162 35.1518C21.5021 33.1723 22.9524 31.6217 24.8465 30.4823C24.9424 30.4246 24.9961 30.452 25.0699 30.5103C26.3373 31.5123 27.7713 32.1336 29.3745 32.3283C31.7508 32.6169 33.9032 32.0365 35.8185 30.5945C36.0438 30.4249 36.0447 30.4175 36.2761 30.5639C39.1537 32.3842 40.9083 34.9619 41.4811 38.3247C41.5679 38.8345 41.5901 39.3563 41.6236 39.8738C41.6788 40.7256 41.3439 41.4264 40.7489 42.0145C40.0721 42.6837 39.2444 43.1076 38.3701 43.4488C37.0427 43.9669 35.6584 44.2556 34.2511 44.4452C33.0053 44.613 31.753 44.6859 30.2955 44.6886Z" fill="white"/>
<path d="M30.5038 31.0226C26.4723 31.0343 23.1606 27.7421 23.1396 23.7225C23.1184 19.6785 26.3535 16.3597 30.4066 16.3113C34.5066 16.2623 37.8237 19.5559 37.8479 23.5877C37.8726 27.7129 34.6021 31.0107 30.5038 31.0226Z" fill="white"/>
</g>
<defs>
<clipPath id="clip0_1_134">
<rect width="42.995" height="43" fill="white" transform="translate(9.00035 9)"/>
</clipPath>
</defs>
</svg>
