<svg width="60" height="60" viewBox="0 0 60 60" fill="none" xmlns="http://www.w3.org/2000/svg">
<rect width="60" height="60" fill="white"/>
<path d="M29.4719 3C15.6448 3 16.5051 8.86821 16.5051 8.86821L16.5243 14.9479H29.717V16.7742H11.2809C11.2809 16.7742 2.43291 15.7938 2.43291 29.4478C2.43291 43.1067 10.1563 42.6212 10.1563 42.6212H14.7653V36.282C14.7653 36.282 14.5154 28.7269 22.3637 28.7269H35.4506C35.4506 28.7269 42.8039 28.8422 42.8039 21.7677V10.0745C42.8039 10.0745 43.9237 3 29.4719 3ZM22.1955 7.08516C22.5079 7.08516 22.8155 7.14764 23.1038 7.26298C23.3922 7.37833 23.6565 7.55135 23.8728 7.76762C24.0939 7.98389 24.2717 8.23862 24.387 8.52218C24.5072 8.80573 24.5697 9.10371 24.5697 9.4113C24.5697 9.71408 24.5072 10.0169 24.387 10.3004C24.2717 10.584 24.0939 10.8387 23.8728 11.055C23.6565 11.2712 23.3922 11.4395 23.1038 11.5596C22.8155 11.675 22.5079 11.7326 22.1955 11.7326C21.8831 11.7326 21.5755 11.675 21.2871 11.5596C20.9988 11.4395 20.7344 11.2712 20.5182 11.055C20.2971 10.8387 20.1192 10.584 20.0039 10.3004C19.8837 10.0169 19.8213 9.71408 19.8213 9.4113C19.8213 9.10371 19.8837 8.80573 20.0039 8.52218C20.1192 8.23862 20.2971 7.98389 20.5182 7.76762C20.7344 7.55135 20.9988 7.37833 21.2871 7.26298C21.5755 7.14764 21.8831 7.08516 22.1955 7.08516Z" fill="#4675A4"/>
<path d="M29.8659 56.035C43.693 56.035 42.8279 50.1668 42.8279 50.1668L42.8135 44.0871H29.616V42.2608H48.0521C48.0521 42.2608 56.9001 43.2412 56.9001 29.5872C56.9001 15.9283 49.1815 16.4138 49.1815 16.4138H44.5725V22.7482C44.5725 22.7482 44.8176 30.3081 36.9693 30.3081H23.8824C23.8824 30.3081 16.5291 30.1928 16.5291 37.2673V48.9605C16.5291 48.9605 15.4141 56.035 29.8659 56.035ZM37.1423 51.9498C36.8299 51.9498 36.5175 51.8874 36.2292 51.772C35.9408 51.6567 35.6813 51.4837 35.4602 51.2674C35.2391 51.0511 35.0661 50.7964 34.946 50.5128C34.8258 50.2341 34.7681 49.9313 34.7681 49.6237C34.7681 49.3209 34.8258 49.0181 34.946 48.7346C35.0661 48.451 35.2391 48.1963 35.4602 47.98C35.6813 47.7638 35.9408 47.5955 36.2292 47.4754C36.5175 47.36 36.8299 47.3024 37.1423 47.3024C37.4499 47.3024 37.7623 47.36 38.0507 47.4754C38.339 47.5955 38.5986 47.7638 38.8197 47.98C39.0407 48.1963 39.2137 48.451 39.3339 48.7346C39.4541 49.0181 39.5165 49.3209 39.5117 49.6237C39.5165 49.9313 39.4541 50.2293 39.3339 50.5128C39.2137 50.7964 39.0407 51.0511 38.8197 51.2674C38.5986 51.4837 38.339 51.6567 38.0507 51.772C37.7623 51.8874 37.4499 51.9498 37.1423 51.9498Z" fill="#F9D663"/>
</svg>
