<svg width="60" height="60" viewBox="0 0 60 60" fill="none" xmlns="http://www.w3.org/2000/svg">
<rect width="60" height="60" fill="white"/>
<path d="M47.8811 20.9137C47.3026 20.7406 46.7202 20.5123 46.0823 20.3392C46.1972 19.9378 46.2566 19.5365 46.3715 19.1351C47.7028 12.6424 46.8351 7.35379 43.8199 5.63027C40.9275 3.96185 36.173 5.6893 31.4184 9.82495C30.9549 10.2263 30.4913 10.6277 30.0277 11.0881C29.7385 10.8008 29.4493 10.5136 29.1006 10.2263C24.1163 5.80341 19.0725 3.96184 16.0613 5.6893C13.161 7.35379 12.2933 12.2961 13.5096 18.4425C13.6245 19.0761 13.7434 19.6506 13.9138 20.2841C13.2204 20.4572 12.5231 20.6855 11.8852 20.9137C6.03312 22.9245 2.26514 26.1433 2.26514 29.4211C2.26514 32.8131 6.32235 36.2601 12.4082 38.326C12.9312 38.4991 13.3947 38.6722 13.9138 38.7864C13.7434 39.4199 13.6245 40.1085 13.4502 40.742C12.2893 46.8334 13.2164 51.6026 16.0573 53.2671C19.013 54.9906 24.0568 53.212 28.9263 49.0133C29.3304 48.6671 29.6791 48.3247 30.0872 47.9784C30.5507 48.4388 31.0737 48.8992 31.5928 49.3557C36.2879 53.3772 40.983 54.9866 43.8793 53.3772C46.8351 51.6537 47.8216 46.4832 46.5458 40.2187C46.4309 39.7583 46.3121 39.2428 46.1972 38.7234L47.2392 38.3771C53.6182 36.3152 57.7349 32.9272 57.7349 29.4762C57.7349 26.2023 53.852 22.9835 47.8811 20.9137Z" fill="#39D8FF"/>
<path d="M46.4904 36.201C46.2011 36.3152 45.8525 36.3742 45.5632 36.4883C44.8104 34.0762 43.8239 31.7742 42.7818 29.5352C43.8239 27.2923 44.751 24.9982 45.5038 22.6411C46.0823 22.8143 46.6053 22.9874 47.1283 23.1566C52.287 24.8801 55.417 27.5244 55.417 29.4801C55.3576 31.605 51.9977 34.3634 46.4904 36.201ZM44.228 40.683C44.751 43.0951 44.8659 45.5112 44.5172 47.9233C44.1686 49.7059 43.5307 50.8549 42.7184 51.3153C40.9791 52.2911 37.2111 51.028 33.2133 47.581C32.7497 47.1796 32.2862 46.7782 31.8226 46.3179C33.5025 44.4802 35.0676 42.5245 36.4583 40.4547C39.0099 40.2265 41.5021 39.8802 43.9942 39.3057C43.9982 39.8212 44.1131 40.2226 44.228 40.683ZM21.1605 51.1972C19.4806 51.7717 18.0899 51.8308 17.2776 51.3704C15.5383 50.3945 14.7854 46.4871 15.772 41.3126C15.8869 40.679 16.0058 40.1045 16.1762 39.4749C18.6683 39.9944 21.1605 40.3367 23.6527 40.5689C25.1028 42.6387 26.7233 44.5904 28.4072 46.428C28.0586 46.7743 27.7099 47.0616 27.3652 47.4039C25.5664 48.9582 23.4229 50.2804 21.1605 51.1972ZM13.161 36.201C10.7837 35.4534 8.64019 34.3044 6.67102 32.8091C5.28031 31.6601 4.58298 30.456 4.58298 29.5352C4.58298 27.5244 7.59815 24.9982 12.638 23.2156C13.2798 22.9835 13.9138 22.8103 14.5517 22.6411C15.3045 24.9982 16.1762 27.3513 17.2776 29.5942C16.2356 31.8922 15.3084 34.2454 14.5517 36.6614C14.0326 36.4883 13.5691 36.3152 13.161 36.201ZM15.8275 18.0411C14.7854 12.7565 15.4788 8.79002 17.2182 7.75512C19.0725 6.66514 23.1891 8.21552 27.5356 12.0088C27.8248 12.241 28.114 12.5282 28.3478 12.7565C26.6679 14.5941 25.0434 16.5498 23.5933 18.5606C21.1011 18.7888 18.6089 19.1351 16.1762 19.7096C16.0613 19.1902 15.9424 18.6156 15.8275 18.0411ZM39.7666 23.9043C39.2436 22.9835 38.6652 22.0627 38.0867 21.1458C39.8855 21.3741 41.5654 21.6613 43.1305 22.0076C42.6075 23.617 42.0251 25.2264 41.3317 26.7178C40.8681 25.8009 40.3451 24.8801 39.7666 23.9043ZM30.0277 14.48C31.1886 15.7431 32.2901 17.0062 33.2767 18.3874C31.0737 18.2733 28.9302 18.2733 26.7273 18.3874C27.7693 17.0653 28.8708 15.7431 30.0277 14.48ZM20.1739 23.9593C19.6549 24.8801 19.1319 25.856 18.6089 26.8358C17.971 25.2815 17.3371 23.6721 16.8735 22.0627C18.5534 21.7164 20.2334 21.4292 21.9173 21.2009C21.2635 22.0745 20.6851 22.9953 20.1739 23.9593ZM21.9133 37.9836C20.1739 37.8104 18.494 37.5232 16.8141 37.1769C17.3371 35.5085 17.9155 33.903 18.6089 32.2936C19.1319 33.2695 19.6509 34.1903 20.1739 35.1661C20.7564 36.142 21.3348 37.0628 21.9133 37.9836ZM30.0872 44.6494C28.9263 43.3824 27.7693 42.0602 26.7233 40.683C27.7654 40.7381 28.8668 40.7381 29.9683 40.7381C31.1292 40.7381 32.2307 40.7381 33.3322 40.683C32.2901 42.0602 31.2441 43.3824 30.0872 44.6494ZM41.3911 32.2346C42.0845 33.844 42.7224 35.4534 43.2454 37.0628C41.506 37.4642 39.8261 37.7514 38.0867 37.9246C38.6652 37.0038 39.2436 36.0869 39.7666 35.1071C40.3451 34.1903 40.8681 33.2144 41.3911 32.2346ZM37.738 33.9581C36.8703 35.3944 35.9987 36.8306 35.0715 38.2118C33.4471 38.3259 31.7116 38.385 29.9723 38.385C28.2329 38.385 26.553 38.3259 24.9285 38.2118C23.9419 36.8346 23.0742 35.3983 22.2025 33.9581C21.3348 32.5218 20.5781 31.0266 19.8253 29.5313C20.5781 28.036 21.3309 26.5446 22.2025 25.1084C23.0742 23.6721 23.9419 22.2358 24.8691 20.8586C28.2289 20.6264 31.5928 20.6264 35.0121 20.8586C35.9392 22.2358 36.8703 23.6721 37.6786 25.1084C38.5503 26.5446 39.3031 28.0399 40.0559 29.5313C39.3625 31.0266 38.5503 32.5218 37.738 33.9581ZM42.6075 7.70003C44.4618 8.79002 45.2146 13.0437 43.9982 18.6747C43.9388 19.021 43.8239 19.4223 43.7644 19.7686C41.3317 19.1902 38.8395 18.8478 36.3473 18.6156C34.8972 16.6049 33.3322 14.6531 31.6522 12.8116C32.0563 12.4102 32.5199 12.0088 32.928 11.6626C37.0407 8.1014 40.8681 6.72023 42.6075 7.70003Z" fill="white"/>
<path d="M29.9723 24.6519C32.6982 24.6519 34.9566 26.8358 34.9566 29.5942C34.9566 32.2936 32.7537 34.5366 29.9723 34.5366C27.2463 34.5366 24.9879 32.3526 24.9879 29.5942C25.0434 26.8358 27.2463 24.6519 29.9723 24.6519Z" fill="#39D8FF"/>
</svg>
