<svg width="60" height="60" viewBox="0 0 60 60" fill="none" xmlns="http://www.w3.org/2000/svg">
<rect width="60" height="60" fill="white"/>
<path d="M29.7352 12.3803C35.8405 12.3803 41.9459 12.3803 48.0512 12.3803C48.4298 12.3803 48.4812 12.2811 48.4445 12.7957C48.3783 13.7146 48.2975 14.6299 48.2203 15.5488C48.1541 16.3538 48.0806 17.1624 48.0107 17.9674C47.9446 18.743 47.8747 19.5185 47.8086 20.2978C47.7351 21.1358 47.6616 21.9702 47.5844 22.8083C47.4741 24.058 47.3602 25.3077 47.2499 26.5575C47.1396 27.8182 47.0293 29.079 46.9191 30.3398C46.8088 31.6189 46.6912 32.8981 46.5772 34.1809C46.467 35.4306 46.3604 36.6803 46.2501 37.9301C46.1398 39.1688 46.0222 40.4075 45.9119 41.6499C45.8237 42.6276 45.7392 43.6053 45.651 44.5831C45.5591 45.6123 45.4672 46.6378 45.3716 47.667C45.2871 48.5638 45.1915 49.4607 45.118 50.3576C45.0996 50.5781 45.0004 50.681 44.8166 50.7582C44.177 51.0229 43.5154 51.2067 42.8538 51.3978C39.4317 52.3829 35.9986 53.3275 32.5581 54.2538C31.6686 54.4927 30.7791 54.7243 29.8896 54.9632C29.6985 55.0147 29.5183 55.011 29.3235 54.9596C25.9015 54.0075 22.4794 53.0629 19.0573 52.1146C17.6054 51.7102 16.1535 51.3022 14.7016 50.8942C14.6538 50.8795 14.6061 50.8612 14.5546 50.8538C14.4002 50.8281 14.3414 50.7288 14.3304 50.5818C14.2789 49.9863 14.2201 49.3946 14.1687 48.7991C14.0988 48.0125 14.0327 47.2259 13.9628 46.4393C13.8672 45.3623 13.7717 44.2817 13.6761 43.2047C13.5695 42.0358 13.4629 40.8669 13.36 39.6981C13.2387 38.3601 13.1284 37.0295 13.0071 35.6989C12.8969 34.4602 12.7792 33.2215 12.669 31.9791C12.5587 30.7478 12.4521 29.5201 12.3455 28.2887C12.2573 27.3036 12.1654 26.3149 12.0772 25.3261C11.9853 24.2602 11.8897 23.1905 11.7978 22.1209C11.7023 21.0439 11.603 19.9633 11.5075 18.8863C11.3972 17.6366 11.2943 16.3868 11.1877 15.1371C11.1325 14.4792 11.0737 13.8249 11.0223 13.1706C11.0039 12.9685 11.0076 12.7663 11.0002 12.5641C10.9965 12.4392 11.0406 12.373 11.1766 12.3803C11.2465 12.384 11.32 12.3803 11.3898 12.3803C17.5025 12.3803 23.6189 12.3803 29.7352 12.3803ZM29.3529 41.8006C29.3235 41.7969 29.2905 41.8006 29.261 41.7932C27.7283 41.4146 26.2139 40.9809 24.6885 40.5729C24.5194 40.5288 24.4606 40.4259 24.4459 40.2752C24.4202 39.9848 24.3981 39.6907 24.3724 39.4004C24.3099 38.6321 24.2437 37.8676 24.1702 37.103C24.1408 36.8127 24.1335 36.8127 23.8394 36.8127C22.4426 36.8127 21.0459 36.8127 19.6491 36.8127C19.5977 36.8127 19.5462 36.8127 19.4984 36.8127C19.3992 36.8127 19.3514 36.8604 19.3551 36.9634C19.3587 37.1067 19.3551 37.2464 19.3624 37.3897C19.4359 38.5807 19.5425 39.7679 19.6601 40.9552C19.7557 41.9403 19.8697 42.9253 20.0093 43.9067C20.0461 44.1567 20.149 44.2817 20.4026 44.3589C23.0969 45.1565 25.8132 45.8916 28.5222 46.6415C28.9192 46.7517 29.3125 46.8988 29.7315 46.9171C29.7315 47.6045 29.7315 48.2955 29.7315 48.9829C29.7315 49.8209 29.7095 50.659 29.7903 51.4971C29.8087 51.6955 29.805 51.6955 30.0035 51.6625C30.6688 51.5522 31.3121 51.3316 31.9627 51.1626C32.8595 50.931 33.7491 50.6737 34.6423 50.4274C35.3406 50.2363 36.0464 50.0599 36.7411 49.854C37.5608 49.6077 38.3915 49.4019 39.2111 49.152C40.108 48.88 41.0049 48.6153 41.9017 48.347C42.0304 48.3066 42.1223 48.2147 42.1186 48.086C42.1113 47.8508 42.1627 47.6229 42.1921 47.395C42.2289 47.1046 42.2326 46.8105 42.262 46.5238C42.3208 45.9651 42.3869 45.4064 42.4384 44.8441C42.4605 44.6051 42.4825 44.3625 42.5046 44.1236C42.5523 43.6053 42.6442 43.0871 42.6663 42.5651C42.6883 42.0211 42.7729 41.4845 42.8096 40.9405C42.828 40.7015 42.817 40.4553 42.8685 40.22C42.942 39.8929 42.9199 39.5584 42.964 39.2313C43.0008 38.9409 43.0155 38.6468 43.0486 38.3565C43.1074 37.8161 43.1588 37.2758 43.2029 36.7355C43.2471 36.1731 43.3242 35.6144 43.3536 35.052C43.3647 34.8168 43.361 34.5668 43.4125 34.3316C43.4786 34.0044 43.4823 33.6699 43.5117 33.3428C43.5338 33.0341 43.5668 32.7216 43.5962 32.4129C43.633 32.0122 43.644 31.6116 43.7028 31.2109C43.7469 30.9205 43.7322 30.6265 43.7764 30.3398C43.8609 29.8031 43.894 29.2591 43.9307 28.7188C43.9712 28.1564 44.052 27.6014 44.0814 27.0353C44.0925 26.7964 44.0851 26.5465 44.1402 26.3149C44.2211 25.9767 44.1954 25.6349 44.2321 25.293C44.2689 24.9659 44.2983 24.6314 44.324 24.3006C44.3424 24.0617 44.3314 23.8154 44.3828 23.5802C44.4527 23.253 44.46 22.9185 44.4784 22.5914C44.5005 22.2275 44.5409 21.8673 44.5703 21.5071C44.5924 21.2388 44.5813 20.9631 44.6291 20.6948C44.6916 20.3566 44.6953 20.0148 44.7284 19.6766C44.7578 19.3458 44.7872 19.015 44.8092 18.6842C44.8423 18.2137 44.9195 17.7469 44.9158 17.2727C44.9158 17.2139 44.9158 17.1514 44.9232 17.0926C44.9857 16.6735 45.0261 16.2545 45.0334 15.8318C45.0408 15.3871 45.0665 15.4275 44.6218 15.4275C39.7919 15.4275 34.962 15.4275 30.1359 15.4275C30.0844 15.4275 30.0329 15.4275 29.9852 15.4275C29.7315 15.4348 29.7279 15.4348 29.7242 15.6811C29.7205 16.1884 29.7242 16.6919 29.7242 17.1992C29.2427 17.1992 28.7575 17.2065 28.2686 17.2065C26.0007 17.2065 23.7328 17.1881 21.4649 17.258C21.3546 17.2617 21.2407 17.2653 21.1304 17.28C20.8841 17.3168 20.8805 17.3278 20.8547 17.5851C20.7445 18.6621 20.6305 19.7391 20.5386 20.8161C20.4284 22.1062 20.2997 23.3964 20.1821 24.6866C20.0939 25.6312 20.013 26.5795 19.9285 27.5279C19.8108 28.8585 19.6932 30.1891 19.5793 31.5197C19.5058 32.3577 19.4433 33.1921 19.3661 34.0302C19.3183 34.5227 19.3073 34.519 19.7888 34.519C22.8984 34.519 26.0081 34.519 29.1177 34.519C29.3199 34.519 29.522 34.497 29.7242 34.5448C29.7242 35.8018 29.7315 37.0553 29.7242 38.3123C29.7205 39.3636 29.7646 40.4148 29.6654 41.4624C29.6433 41.7344 29.6249 41.7675 29.3529 41.8006Z" fill="#F09E01"/>
<path d="M33.3925 4.00707C33.4771 4.10264 33.5432 4.18718 33.6167 4.26437C34.5246 5.24578 35.4325 6.22719 36.3478 7.20124C36.4948 7.3593 36.572 7.51368 36.5573 7.7379C36.5389 8.07973 36.5536 8.42525 36.5536 8.77076C36.5536 9.16039 36.5683 9.10158 36.2338 9.10158C34.8959 9.10525 33.5616 9.10158 32.2237 9.10158C31.5142 9.10158 30.8048 9.10158 30.0954 9.10158C29.8528 9.10158 29.8492 9.0979 29.8492 8.85163C29.8492 8.38482 29.8492 7.92168 29.8492 7.45487C29.8492 7.20492 29.8528 7.20124 30.0954 7.20124C30.6725 7.19757 31.2496 7.20492 31.8267 7.19757C32.1612 7.19389 32.4957 7.17551 32.8301 7.16081C32.8779 7.15714 32.9331 7.16449 32.9698 7.09465C32.8742 6.89984 32.7088 6.74913 32.5618 6.5874C31.7385 5.68318 30.9114 4.77529 30.077 3.87842C29.9153 3.70566 29.8271 3.5329 29.8455 3.29031C29.8675 2.94847 29.8492 2.60295 29.8492 2.25744C29.8492 2.00749 29.8528 2.00382 30.0917 2.00382C30.4373 2.00014 30.7791 2.00382 31.1246 2.00382C32.775 2.00382 34.4254 2.00382 36.0758 2.00382C36.1456 2.00382 36.2191 2.00749 36.289 2.00382C36.3992 1.99646 36.4323 2.04792 36.4323 2.14717C36.4286 2.34933 36.4323 2.55149 36.4323 2.75366C36.4323 3.06609 36.425 3.3822 36.436 3.69463C36.4397 3.85269 36.3882 3.90047 36.2302 3.90047C35.3811 3.91885 34.5283 3.94091 33.6792 3.96296C33.591 3.96296 33.5028 3.94826 33.3925 4.00707Z" fill="#101010"/>
<path d="M28.7133 5.58029C28.7133 6.65359 28.7133 7.72321 28.7133 8.79652C28.7133 9.12365 28.7317 9.1016 28.4266 9.1016C26.666 9.1016 24.9053 9.1016 23.1447 9.1016C22.8984 9.1016 22.8947 9.09792 22.8947 8.85533C22.8947 8.2084 22.8911 7.56148 22.8947 6.91456C22.8947 6.69034 22.8984 6.69034 23.1337 6.69034C24.104 6.69034 25.0744 6.69034 26.0485 6.69034C26.3094 6.69034 26.3131 6.68667 26.3131 6.42937C26.3131 5.07304 26.3131 3.72038 26.3131 2.36405C26.3131 2.3126 26.3168 2.26114 26.3131 2.21335C26.2947 2.0553 26.3499 1.99649 26.5153 2.00016C27.0703 2.01119 27.629 2.00384 28.1841 2.00384C28.287 2.00384 28.3862 2.00384 28.4891 2.00384C28.7134 2.00751 28.717 2.00751 28.717 2.23908C28.7134 3.35282 28.7133 4.46655 28.7133 5.58029Z" fill="#101010"/>
<path d="M29.7279 17.1954C29.7279 16.6882 29.7242 16.1846 29.7279 15.6774C29.7279 15.4311 29.7352 15.4311 29.9888 15.4238C30.0403 15.4238 30.0918 15.4238 30.1395 15.4238C34.9694 15.4238 39.7993 15.4238 44.6254 15.4238C45.0702 15.4238 45.0445 15.3833 45.0371 15.8281C45.0298 16.2508 44.9893 16.6698 44.9268 17.0889C44.9158 17.1477 44.9158 17.2101 44.9158 17.2726C44.9158 17.7468 44.8386 18.2136 44.8092 18.6841C44.7872 19.0149 44.7578 19.3457 44.7284 19.6765C44.6989 20.0147 44.6916 20.3602 44.6291 20.6947C44.5813 20.963 44.5924 21.235 44.5703 21.507C44.5409 21.8673 44.5005 22.2311 44.4784 22.5914C44.46 22.9185 44.4527 23.253 44.3828 23.5801C44.3351 23.8154 44.3461 24.0616 44.324 24.3042C44.2983 24.635 44.2652 24.9695 44.2321 25.2967C44.1954 25.6348 44.2211 25.9767 44.1402 26.3148C44.0851 26.5501 44.0925 26.7964 44.0814 27.0353C44.052 27.6013 43.9712 28.1564 43.9307 28.7187C43.894 29.2591 43.8609 29.8031 43.7764 30.3397C43.7322 30.6264 43.7433 30.9205 43.7028 31.2109C43.644 31.6078 43.6367 32.0122 43.5962 32.4128C43.5668 32.7216 43.5338 33.034 43.508 33.3428C43.4823 33.6699 43.4786 34.0044 43.4088 34.3315C43.361 34.5668 43.3647 34.8167 43.3536 35.052C43.3242 35.618 43.2471 36.1767 43.2029 36.7391C43.1588 37.2758 43.1111 37.8161 43.0486 38.3564C43.0155 38.6468 43.0008 38.9408 42.964 39.2275C42.9199 39.5584 42.942 39.8892 42.8685 40.2163C42.817 40.4515 42.8244 40.6978 42.8096 40.9367C42.7729 41.4771 42.6883 42.0174 42.6663 42.5614C42.6442 43.0833 42.5523 43.5979 42.5046 44.1199C42.4825 44.3588 42.4605 44.6014 42.4384 44.8403C42.3833 45.399 42.3208 45.9577 42.262 46.5201C42.2326 46.8105 42.2289 47.1009 42.1921 47.3913C42.1627 47.6191 42.1149 47.847 42.1186 48.0823C42.1223 48.2146 42.0304 48.3065 41.9017 48.3433C41.0049 48.6116 40.108 48.8762 39.2111 49.1482C38.3915 49.3945 37.5608 49.604 36.7411 49.8503C36.0464 50.0598 35.3406 50.2326 34.6423 50.4237C33.7491 50.67 32.8595 50.9273 31.9627 51.1588C31.3047 51.3316 30.6652 51.5485 29.9962 51.6587C29.7977 51.6918 29.8014 51.6918 29.783 51.4933C29.7021 50.6553 29.7242 49.8172 29.7242 48.9792C29.7242 48.2918 29.7242 47.6008 29.7242 46.9134C29.7646 46.8877 29.805 46.8619 29.8455 46.8325C29.8859 46.8252 29.9263 46.8178 29.9631 46.8105C30.0109 46.8289 30.055 46.8215 30.0881 46.7774C30.1285 46.7664 30.1653 46.759 30.2057 46.748C30.2535 46.7664 30.2976 46.7554 30.3307 46.7112C30.3748 46.7186 30.4152 46.7112 30.452 46.6855C30.7276 46.6488 30.9923 46.59 31.2459 46.4723C31.2864 46.465 31.3231 46.4576 31.3635 46.4503C31.415 46.465 31.4554 46.4503 31.4885 46.4062C31.5289 46.3988 31.5694 46.3915 31.6061 46.3804C31.8009 46.3621 31.9884 46.3253 32.1575 46.2261C32.1979 46.2187 32.2347 46.2077 32.2751 46.2003C32.3266 46.2187 32.367 46.2077 32.4001 46.1636C32.4405 46.1562 32.481 46.1489 32.5177 46.1415C32.5692 46.1562 32.6096 46.1452 32.639 46.1011C32.6794 46.0937 32.7199 46.0827 32.7603 46.0754C33.0176 46.0459 33.2602 45.9798 33.4918 45.8658C33.5322 45.8585 33.569 45.8475 33.6094 45.8401C33.7197 45.8401 33.8263 45.8181 33.9181 45.7482C33.9586 45.7372 33.9953 45.7298 34.0358 45.7188C34.146 45.7188 34.2563 45.7004 34.3445 45.6232C34.385 45.6159 34.4217 45.6085 34.4621 45.5975C34.5945 45.5938 34.7194 45.5718 34.826 45.4909C34.9363 45.4946 35.0356 45.4542 35.1275 45.4027C35.3223 45.388 35.506 45.3512 35.6751 45.2483C35.7192 45.2557 35.7597 45.2446 35.7964 45.2189C35.9104 45.2226 36.0133 45.2042 36.1015 45.1234C36.3551 45.0903 36.5941 45.0057 36.8293 44.9212C36.8808 44.9396 36.9212 44.9249 36.9506 44.8771C37.0609 44.8808 37.1564 44.8366 37.252 44.7925C37.3035 44.8072 37.3439 44.7999 37.3733 44.7521C37.9541 44.6124 38.5164 44.4213 39.0862 44.2412C39.2553 44.186 39.3361 44.1015 39.3508 43.9251C39.3949 43.4619 39.4537 43.0025 39.4978 42.5393C39.6081 41.3815 39.7184 40.2237 39.8213 39.0658C39.9389 37.7793 40.0529 36.4892 40.1705 35.199C40.244 34.405 40.3139 33.6074 40.391 32.8135C40.4829 31.9166 40.5748 31.0013 40.6594 30.0824C40.6814 29.8545 40.6704 29.8435 40.4462 29.8067C40.0345 29.7406 39.6228 29.7553 39.2075 29.7626C39.1009 29.7075 38.9943 29.7149 38.8877 29.759C38.7186 29.7222 38.5458 29.7259 38.3731 29.7259C35.6053 29.7222 32.8301 29.7185 30.0587 29.7149C29.9484 29.7149 29.8381 29.7075 29.7242 29.7001C29.7242 27.2485 29.7242 24.7968 29.7242 22.3451C30.1138 22.3304 30.4961 22.3818 30.882 22.3341C31.0621 22.3708 31.2459 22.3561 31.426 22.3488C31.7679 22.4223 32.1171 22.4039 32.4626 22.3892C32.6647 22.4186 32.8632 22.426 33.0654 22.4076C33.2859 22.4848 33.5101 22.4627 33.738 22.448C33.8777 22.4774 34.0174 22.4774 34.1607 22.4701C34.3188 22.5473 34.4842 22.5178 34.6496 22.5105C34.7268 22.5362 34.8077 22.5399 34.8885 22.5289C34.9841 22.595 35.0907 22.584 35.1973 22.573C35.234 22.5803 35.2745 22.5914 35.3112 22.5987C35.3958 22.8487 35.3995 23.1133 35.4436 23.3706C35.4877 23.6353 35.4619 23.9146 35.5612 24.1719C35.5465 24.2344 35.5502 24.2969 35.5759 24.352C35.5575 24.499 35.5538 24.6461 35.6237 24.7821C35.609 24.8813 35.6126 24.9842 35.6457 25.0835C35.6273 25.1864 35.6163 25.293 35.6825 25.3886C35.6715 25.4915 35.6751 25.5907 35.7009 25.69C35.6898 25.8149 35.6678 25.9436 35.745 26.0575C35.7303 26.1384 35.7339 26.2193 35.756 26.2965C35.745 26.4619 35.7303 26.6273 35.8038 26.7853C35.8038 26.8258 35.8075 26.8662 35.8075 26.9029C35.8075 27.0022 35.8001 27.1014 35.8038 27.197C35.8075 27.2705 35.8332 27.3293 35.9251 27.333C36.0133 27.4102 36.1236 27.3955 36.2302 27.3881C36.3073 27.4543 36.4029 27.4322 36.4911 27.4322C37.8034 27.4396 39.1193 27.4396 40.4352 27.4433C40.494 27.4433 40.5601 27.4506 40.6153 27.4322C40.6961 27.4065 40.7255 27.3477 40.6594 27.2705C40.6667 27.1897 40.6704 27.1088 40.6373 27.0316C40.6483 26.925 40.6704 26.8184 40.6006 26.7228C40.6153 26.6015 40.6079 26.4802 40.5748 26.3626C40.5932 26.256 40.6116 26.1531 40.5417 26.0539C40.5491 25.9546 40.5491 25.8554 40.516 25.7561C40.5344 25.6312 40.5491 25.5062 40.4756 25.3886C40.494 25.3261 40.4829 25.2673 40.4609 25.2085C40.4793 25.0247 40.494 24.8372 40.4168 24.6608C40.4278 24.5983 40.4241 24.5395 40.4021 24.4807C40.4168 24.3336 40.4351 24.1903 40.358 24.0543C40.3727 23.9697 40.369 23.8889 40.3396 23.8117C40.358 23.6647 40.369 23.5213 40.2955 23.3816C40.3065 23.3008 40.3028 23.2199 40.2771 23.1427C40.2881 22.9773 40.3102 22.8119 40.2293 22.6538C40.2477 22.595 40.2403 22.5326 40.2183 22.4737C40.233 22.3083 40.2514 22.1429 40.1705 21.9849C40.1889 21.9224 40.1779 21.8636 40.1558 21.8048C40.1705 21.6577 40.1962 21.5144 40.1154 21.3747C40.1264 21.2975 40.1264 21.2167 40.097 21.1358C40.1117 20.9704 40.1301 20.805 40.0492 20.6469C40.0639 20.5661 40.0639 20.4852 40.0308 20.408C40.0455 20.2426 40.0639 20.0772 39.9867 19.9191C40.0051 19.8566 40.0014 19.7978 39.9794 19.739C39.9904 19.5736 40.0124 19.4082 39.9316 19.2502C39.9463 19.1693 39.9426 19.0884 39.9169 19.0076C39.9279 18.8605 39.95 18.7172 39.8764 18.5775C39.8948 18.4966 39.8801 18.4158 39.8581 18.3386C39.8728 18.1732 39.8911 18.0078 39.814 17.8497C39.8176 17.7321 39.8213 17.6108 39.7735 17.4932C39.8213 17.3462 39.7809 17.2506 39.6155 17.2543C39.2332 17.2616 38.8509 17.2249 38.4723 17.2726C38.3621 17.2653 38.2518 17.2543 38.1415 17.2543C36.2853 17.2469 34.4291 17.2396 32.5728 17.2396C31.9075 17.2396 31.2422 17.2101 30.5769 17.2469C30.4851 17.1881 30.3858 17.2175 30.2866 17.2138C30.1028 17.2028 29.9153 17.1991 29.7279 17.1954Z" fill="#F8BE01"/>
<path d="M30.8821 22.3341C30.4961 22.3819 30.1138 22.3304 29.7279 22.3488C29.6433 22.2643 29.5368 22.2974 29.4375 22.2974C29.1655 22.3047 28.8935 22.3194 28.6178 22.3268C27.607 22.3562 26.5962 22.3856 25.5817 22.4187C25.306 22.4297 25.2987 22.437 25.2693 22.709C25.1884 23.4515 25.1075 24.1977 25.034 24.9402C24.9605 25.6863 24.887 26.4288 24.8172 27.175C24.7473 27.9432 24.6775 28.7078 24.615 29.4723C24.5929 29.7039 24.6076 29.7112 24.8392 29.7186C24.9091 29.7223 24.9826 29.7186 25.0524 29.7186C26.4602 29.7186 27.868 29.7186 29.2758 29.7186C29.386 29.7186 29.4963 29.7296 29.6103 29.7333C29.6103 31.1889 29.6103 32.6444 29.6103 34.1037C29.6103 34.3757 29.6139 34.3757 29.8749 34.383C29.9374 34.383 29.9962 34.383 30.0587 34.383C31.7679 34.383 33.4771 34.383 35.1863 34.383C35.2672 34.383 35.348 34.383 35.4289 34.383C35.4767 34.383 35.5392 34.383 35.5392 34.4529C35.5318 34.5117 35.4877 34.5411 35.4436 34.5668C35.3296 34.5007 35.2047 34.519 35.087 34.519C33.3999 34.519 31.7091 34.519 30.0219 34.519C29.9227 34.519 29.8198 34.5007 29.7242 34.5448C29.5257 34.497 29.3199 34.519 29.1177 34.519C26.0081 34.519 22.8985 34.519 19.7888 34.519C19.3073 34.519 19.3147 34.519 19.3624 34.0265C19.4396 33.1921 19.5021 32.354 19.5756 31.516C19.6896 30.1854 19.8109 28.8548 19.9248 27.5242C20.0094 26.5759 20.0902 25.6275 20.1784 24.6829C20.2997 23.3964 20.4284 22.1062 20.5387 20.8161C20.6269 19.7391 20.7445 18.6621 20.8548 17.5851C20.8805 17.3278 20.8842 17.3168 21.1341 17.28C21.2444 17.2653 21.3547 17.2617 21.4686 17.258C23.7365 17.1918 26.0044 17.2065 28.2723 17.2065C28.7575 17.2065 29.2427 17.1992 29.7279 17.1955C29.9153 17.2028 30.1028 17.2028 30.2903 17.2139C30.3858 17.2176 30.4851 17.1881 30.5733 17.2506C30.3969 17.3609 30.2021 17.2947 30.0146 17.3058C29.7316 17.3205 29.7279 17.3131 29.7242 17.5888C29.7242 18.3166 29.7242 19.0444 29.7242 19.7722C29.7242 20.511 29.7242 21.2461 29.7242 21.9849C29.7242 22.2202 29.7316 22.2202 29.9631 22.2275C30.2057 22.2312 30.4483 22.2275 30.6909 22.2275C30.7755 22.2312 30.86 22.2275 30.8821 22.3341Z" fill="#ECECEB"/>
<path d="M29.8455 46.8362C29.8051 46.862 29.7646 46.8877 29.7242 46.9171C29.3052 46.8987 28.9119 46.7517 28.5149 46.6414C25.8059 45.8879 23.0932 45.1564 20.3953 44.3588C20.1417 44.2816 20.0351 44.1603 20.002 43.9067C19.866 42.9253 19.752 41.9402 19.6528 40.9551C19.5389 39.7679 19.4286 38.5806 19.3551 37.3897C19.3477 37.2464 19.3551 37.103 19.3514 36.9633C19.3477 36.8604 19.3955 36.8126 19.4947 36.8126C19.5462 36.8126 19.5977 36.8126 19.6454 36.8126C21.0422 36.8126 22.439 36.8126 23.8357 36.8126C24.1298 36.8126 24.1408 36.8126 24.1665 37.103C24.2401 37.8675 24.3062 38.6321 24.3761 39.4003C24.4018 39.6907 24.4238 39.9847 24.4496 40.2751C24.4643 40.4295 24.5194 40.5287 24.6922 40.5729C26.2176 40.9772 27.732 41.4146 29.2647 41.7932C29.2941 41.8005 29.3235 41.8005 29.3566 41.8005C29.5257 41.8924 29.6985 41.8593 29.8749 41.8299C30.0293 41.8042 30.1763 41.727 30.338 41.7454C30.327 41.7969 30.305 41.8373 30.2461 41.852C30.0918 41.8924 29.9374 41.9439 29.7793 41.977C29.658 42.0027 29.6066 42.0689 29.6066 42.1865C29.6066 42.2563 29.6029 42.3298 29.6066 42.3997C29.636 43.7634 29.5478 45.127 29.6617 46.4907C29.6691 46.6525 29.7315 46.748 29.8455 46.8362Z" fill="#ECECEB"/>
<path d="M30.3343 41.7454C30.1726 41.7307 30.0256 41.8042 29.8712 41.8299C29.6948 41.8593 29.522 41.8961 29.3529 41.8005C29.6213 41.7674 29.6396 41.7307 29.6654 41.4624C29.7609 40.4111 29.7168 39.3599 29.7242 38.3123C29.7315 37.0552 29.7242 35.8018 29.7242 34.5447C29.8197 34.5043 29.9227 34.519 30.0219 34.519C31.7091 34.519 33.3999 34.519 35.087 34.519C35.2083 34.519 35.3296 34.5006 35.4436 34.5631C35.4142 34.7873 35.3553 35.0042 35.37 35.2284C35.3076 35.3056 35.3223 35.3938 35.337 35.4783C35.3039 35.596 35.3002 35.7173 35.3076 35.8349C35.2524 35.9157 35.2524 36.0003 35.2745 36.0848C35.2451 36.2061 35.2377 36.3237 35.2487 36.445C35.1899 36.5443 35.1973 36.6472 35.2157 36.7538C35.1789 36.8714 35.1789 36.9927 35.1899 37.114C35.1201 37.2316 35.1348 37.3566 35.1495 37.4816C35.1238 37.6213 35.1091 37.7609 35.1238 37.9006C35.0576 37.9999 35.0723 38.1065 35.087 38.2131C35.0613 38.3123 35.0503 38.4115 35.065 38.5108C35.0061 38.61 35.0135 38.7129 35.0356 38.8195C35.0025 38.9372 34.9951 39.0585 35.0062 39.1798C34.9547 39.2349 34.9547 39.3011 34.9804 39.3672C34.9473 39.4848 34.94 39.6061 34.9437 39.7274C34.9032 39.7642 34.9032 39.8083 34.9253 39.8561C34.8812 39.9406 34.8812 40.0362 34.8812 40.1244C34.8812 40.4074 34.7562 40.5581 34.4732 40.628C34.1203 40.7125 33.7785 40.8338 33.433 40.9404C33.4109 40.9441 33.3925 40.9514 33.3705 40.9551C33.1205 40.9919 32.8816 41.0654 32.6427 41.1536C32.5692 41.1352 32.514 41.1573 32.4736 41.2234C32.2126 41.2271 31.9737 41.3153 31.7311 41.3962C31.6833 41.3815 31.6392 41.3888 31.6061 41.433C31.5657 41.4403 31.5289 41.4513 31.4885 41.4587C31.4371 41.4403 31.3966 41.4513 31.3635 41.4991C31.3231 41.5065 31.2827 41.5138 31.2459 41.5212C31.1945 41.5065 31.154 41.5101 31.1209 41.5579C31.0805 41.5653 31.0438 41.5763 31.0033 41.5837C30.8085 41.5984 30.6247 41.6461 30.4483 41.7307C30.4115 41.7307 30.3748 41.738 30.3343 41.7454Z" fill="#F8BE04"/>
<path d="M35.1238 37.9007C35.1091 37.761 35.1238 37.6213 35.1495 37.4816C35.2819 37.3677 35.2892 37.3015 35.19 37.1141C35.1789 36.9928 35.1789 36.8715 35.2157 36.7538C35.3737 36.6656 35.3407 36.559 35.2488 36.4451C35.2377 36.3238 35.2451 36.2062 35.2745 36.0849C35.4215 36.0187 35.3958 35.9305 35.3039 35.8349C35.3002 35.7173 35.3039 35.596 35.337 35.4784C35.484 35.4122 35.4583 35.3277 35.3701 35.2284C35.3554 35.0042 35.4142 34.7873 35.4436 34.5631C35.4877 34.5374 35.5355 34.5117 35.5318 34.4529C35.5281 34.383 35.4693 34.3867 35.4215 34.383C35.3407 34.3793 35.2598 34.383 35.1789 34.383C33.4697 34.383 31.7605 34.383 30.0513 34.383C29.9889 34.383 29.93 34.383 29.8676 34.383C29.6066 34.3757 29.6029 34.3757 29.6029 34.1037C29.6029 32.6481 29.6029 31.1925 29.6029 29.7333C29.647 29.7259 29.6874 29.7149 29.7279 29.7039C29.8381 29.7075 29.9484 29.7149 30.0624 29.7186C32.8338 29.7222 35.6053 29.7259 38.3805 29.7296C38.5532 29.7296 38.726 29.7259 38.8951 29.7627C39.0017 29.7627 39.1082 29.7663 39.2112 29.7663C39.6265 29.759 40.0419 29.7443 40.4499 29.8141C40.6741 29.8509 40.6851 29.8619 40.6631 30.0898C40.5748 31.0014 40.483 31.9166 40.3984 32.8319C40.3249 33.6258 40.2514 34.4234 40.1779 35.2174C40.0602 36.5076 39.9463 37.7941 39.8287 39.0842C39.7221 40.2421 39.6155 41.3999 39.5052 42.5578C39.4611 43.0209 39.4023 43.4804 39.3582 43.9435C39.3435 44.1199 39.2626 44.2045 39.0935 44.2596C38.5275 44.4397 37.9614 44.6308 37.3807 44.7705C37.3108 44.6933 37.2778 44.7338 37.2594 44.811C37.1638 44.8551 37.0646 44.8955 36.958 44.8955C36.8845 44.8146 36.855 44.8624 36.8367 44.9396C36.5977 45.0241 36.3588 45.1087 36.1089 45.1418C35.9766 45.0719 35.881 45.1234 35.8038 45.2373C35.767 45.2631 35.7266 45.2704 35.6825 45.2667C35.4767 45.2337 35.2892 45.2704 35.1348 45.4211C35.0393 45.4726 34.9437 45.513 34.8334 45.5093C34.6754 45.4174 34.5651 45.491 34.4695 45.6159C34.4291 45.6233 34.3923 45.6306 34.3519 45.6417C34.2159 45.5608 34.1167 45.6086 34.0431 45.7372C34.0027 45.7483 33.966 45.7556 33.9255 45.7666C33.7895 45.6858 33.694 45.7335 33.6168 45.8585C33.5763 45.8659 33.5396 45.8769 33.4991 45.8843C33.2896 45.8034 33.1132 45.9504 32.9184 45.9688C32.8559 45.9761 32.7861 46.0129 32.7677 46.0901C32.7272 46.0974 32.6868 46.1085 32.6464 46.1158C32.5729 46.0386 32.5471 46.0864 32.5251 46.1563C32.4846 46.1636 32.4442 46.171 32.4075 46.1783C32.3376 46.0974 32.3045 46.1416 32.2825 46.2151C32.2421 46.2224 32.2053 46.2334 32.1649 46.2408C31.9553 46.2004 31.7679 46.2371 31.6135 46.3952C31.5731 46.4025 31.5326 46.4099 31.4959 46.4209C31.4224 46.3364 31.393 46.3878 31.3709 46.465C31.3305 46.4724 31.2937 46.4797 31.2533 46.4871C31.1724 46.3805 31.0842 46.4687 31.0144 46.4907C30.8269 46.5532 30.599 46.5128 30.4593 46.7003C30.4226 46.726 30.3822 46.7333 30.338 46.726C30.2682 46.6451 30.2351 46.6856 30.2131 46.7627C30.1726 46.7738 30.1359 46.7811 30.0954 46.7921C30.0256 46.7039 29.9925 46.7444 29.9705 46.8252C29.93 46.8326 29.8896 46.8399 29.8529 46.8473C29.7352 46.7591 29.6764 46.6635 29.6654 46.4981C29.5514 45.1344 29.6397 43.7707 29.6103 42.407C29.6103 42.3372 29.6103 42.2637 29.6103 42.1939C29.6103 42.0762 29.6617 42.0101 29.783 41.9843C29.9411 41.9513 30.0954 41.8998 30.2498 41.8594C30.3086 41.8447 30.3307 41.8042 30.3417 41.7528C30.3785 41.7454 30.4189 41.7381 30.4557 41.7344C30.6505 41.7895 30.8416 41.7417 31.0107 41.5874C31.0511 41.58 31.0879 41.569 31.1283 41.5616C31.1982 41.6499 31.2312 41.6057 31.2533 41.5249C31.2937 41.5175 31.3342 41.5102 31.3709 41.5028C31.4444 41.5874 31.4738 41.5433 31.4959 41.4624C31.5363 41.455 31.5731 41.444 31.6135 41.4367C31.6833 41.5249 31.7164 41.4808 31.7385 41.3999C31.9811 41.319 32.22 41.2308 32.481 41.2272C32.5618 41.2602 32.6243 41.2529 32.6501 41.1573C32.8853 41.0691 33.1279 40.9956 33.3778 40.9588C33.4109 41.0029 33.4293 40.9846 33.4403 40.9441C33.7858 40.8375 34.1314 40.7126 34.4805 40.6317C34.7636 40.5655 34.8922 40.4148 34.8886 40.1281C34.8886 40.0399 34.8886 39.9443 34.9327 39.8598C35.0172 39.8304 35.0393 39.79 34.951 39.7311C34.9474 39.6098 34.951 39.4885 34.9878 39.3709C35.1091 39.3231 35.1054 39.2607 35.0135 39.1835C35.0025 39.0622 35.0098 38.9409 35.0429 38.8232C35.1973 38.735 35.1679 38.6284 35.076 38.5145C35.054 38.4116 35.065 38.3123 35.087 38.2131C35.2267 38.1102 35.2304 38.0661 35.1238 37.9007Z" fill="#FFFFFE"/>
<path d="M30.8821 22.3341C30.86 22.2275 30.7755 22.2312 30.6946 22.2312C30.452 22.2312 30.2094 22.2349 29.9668 22.2312C29.7316 22.2238 29.7279 22.2202 29.7279 21.9849C29.7242 21.2461 29.7279 20.511 29.7279 19.7722C29.7279 19.0444 29.7279 18.3166 29.7279 17.5888C29.7279 17.3094 29.7316 17.3168 30.0183 17.3021C30.2057 17.2911 30.4005 17.3609 30.577 17.247C31.2423 17.2102 31.9076 17.2396 32.5729 17.2396C34.4291 17.2396 36.2853 17.247 38.1415 17.2543C38.2518 17.2543 38.3621 17.2653 38.4724 17.2727C38.5275 17.4197 38.6561 17.3646 38.7554 17.3646C39.1009 17.3683 39.4501 17.3462 39.7772 17.4932C39.8213 17.6109 39.8177 17.7321 39.8103 17.8534C39.7405 18.0225 39.667 18.1953 39.8507 18.3423C39.8728 18.4195 39.8875 18.5004 39.8691 18.5812C39.7919 18.7356 39.7478 18.8826 39.9132 19.0113C39.939 19.0885 39.9426 19.1693 39.9279 19.2502C39.8654 19.423 39.7846 19.5957 39.9794 19.7391C40.0014 19.7979 40.0051 19.8567 39.9904 19.9192C39.9243 20.0883 39.8507 20.261 40.0345 20.4081C40.0639 20.4852 40.0676 20.5661 40.0529 20.647C39.9867 20.8197 39.9059 20.9925 40.097 21.1358C40.1264 21.2167 40.1264 21.2976 40.1154 21.3784C40.0345 21.5291 39.9904 21.6762 40.1558 21.8048C40.1779 21.8636 40.1889 21.9224 40.1705 21.9849C40.108 22.1577 40.0272 22.3304 40.2183 22.4738C40.2404 22.5326 40.2477 22.5914 40.2293 22.6539C40.1669 22.8267 40.0897 22.9957 40.2808 23.1428C40.3065 23.22 40.3102 23.3008 40.2955 23.3817C40.2146 23.5361 40.1742 23.6831 40.3396 23.8117C40.369 23.8889 40.3727 23.9698 40.3543 24.0507C40.2771 24.205 40.233 24.3521 40.3984 24.4807C40.4205 24.5395 40.4278 24.5983 40.4131 24.6608C40.3506 24.8483 40.2808 25.0394 40.4609 25.2085C40.483 25.2673 40.494 25.3261 40.4793 25.3886C40.4058 25.5209 40.3506 25.6496 40.516 25.7562C40.5491 25.8554 40.5491 25.9547 40.5381 26.0576C40.4572 26.1715 40.4242 26.2781 40.5712 26.3664C40.6079 26.484 40.6116 26.6053 40.6006 26.7266C40.516 26.8368 40.483 26.9471 40.6373 27.0316C40.6667 27.1088 40.6668 27.1897 40.6594 27.2706C40.5418 27.3478 40.4095 27.3331 40.2771 27.3331C39.0311 27.3331 37.7887 27.3331 36.5426 27.3331C36.436 27.3331 36.3184 27.2926 36.2265 27.3882C36.1199 27.3955 36.0133 27.4102 35.9251 27.3331C35.9251 27.2375 35.9214 27.1419 35.9251 27.0464C35.9251 26.9692 35.892 26.9177 35.8112 26.9067C35.8112 26.8662 35.8075 26.8258 35.8075 26.7891C35.87 26.6163 35.9508 26.4435 35.756 26.2965C35.734 26.2193 35.7303 26.1385 35.745 26.0576C35.8112 25.9253 35.8736 25.7929 35.7009 25.69C35.6752 25.5908 35.6715 25.4915 35.6825 25.3886C35.7671 25.2747 35.8001 25.1681 35.6494 25.0835C35.6163 24.9843 35.6127 24.885 35.6274 24.7821C35.7009 24.6277 35.7487 24.477 35.5759 24.3521C35.5502 24.2969 35.5465 24.2344 35.5612 24.1756C35.6053 24.1426 35.6237 24.0948 35.62 24.0433C35.5869 23.6353 35.5575 23.231 35.5245 22.8267C35.5171 22.7568 35.5134 22.6833 35.4877 22.6208C35.4473 22.5142 35.3811 22.5179 35.3113 22.5988C35.2745 22.5914 35.2341 22.5804 35.1973 22.573C35.1165 22.4113 35.0062 22.4481 34.8886 22.5289C34.8077 22.54 34.7268 22.5363 34.6496 22.5105C34.5026 22.3304 34.3299 22.4003 34.1608 22.4701C34.0211 22.4775 33.8777 22.4775 33.7381 22.4481C33.5874 22.3268 33.3301 22.3121 33.0654 22.4076C32.8633 22.426 32.6611 22.415 32.4626 22.3893C32.4369 22.2863 32.3523 22.29 32.2715 22.29C32.0436 22.29 31.8157 22.29 31.5841 22.29C31.5216 22.29 31.4665 22.2937 31.4224 22.3488C31.2423 22.3598 31.0622 22.3709 30.8821 22.3341Z" fill="white"/>
<path d="M29.7279 29.7038C29.6875 29.7149 29.647 29.7259 29.6029 29.7332C29.4927 29.7296 29.3824 29.7185 29.2684 29.7185C27.8607 29.7185 26.4529 29.7185 25.0451 29.7185C24.9752 29.7185 24.9017 29.7185 24.8319 29.7185C24.6077 29.7112 24.593 29.7038 24.615 29.4723C24.6775 28.7077 24.7473 27.9432 24.8172 27.175C24.887 26.4288 24.9569 25.6863 25.034 24.9401C25.1076 24.194 25.1884 23.4515 25.2693 22.7053C25.2987 22.437 25.306 22.4296 25.5854 22.4186C26.5962 22.3855 27.607 22.3561 28.6215 22.3267C28.8935 22.3194 29.1692 22.3047 29.4412 22.2973C29.5404 22.2936 29.6434 22.2642 29.7316 22.3451C29.7279 24.8005 29.7279 27.2522 29.7279 29.7038Z" fill="#F09E01"/>
<path d="M36.2265 27.3882C36.3184 27.2963 36.436 27.3367 36.5426 27.333C37.7887 27.3294 39.0311 27.333 40.2771 27.333C40.4095 27.333 40.5418 27.3477 40.6594 27.2706C40.7256 27.3477 40.6962 27.4066 40.6153 27.4323C40.5602 27.4507 40.494 27.4433 40.4352 27.4433C39.1193 27.4396 37.8034 27.4396 36.4912 27.4323C36.403 27.4323 36.3074 27.4543 36.2265 27.3882Z" fill="#ECECEB"/>
<path d="M35.3112 22.5987C35.3811 22.5179 35.4473 22.5142 35.4877 22.6208C35.5134 22.6833 35.5171 22.7568 35.5244 22.8266C35.5575 23.231 35.5906 23.639 35.62 24.0433C35.6237 24.0948 35.6053 24.1425 35.5612 24.1756C35.462 23.9146 35.4877 23.639 35.4436 23.3706C35.3995 23.1133 35.3958 22.8487 35.3112 22.5987Z" fill="#ECECEB"/>
<path d="M39.7735 17.4932C39.4464 17.3462 39.1009 17.3682 38.7554 17.3645C38.6561 17.3645 38.5275 17.4197 38.4724 17.2727C38.8509 17.2249 39.2332 17.2616 39.6155 17.2543C39.7809 17.2506 39.8213 17.3462 39.7735 17.4932Z" fill="#ECECEB"/>
<path d="M31.4261 22.3488C31.4665 22.2936 31.5253 22.29 31.5878 22.29C31.8157 22.29 32.0436 22.29 32.2752 22.29C32.356 22.29 32.4406 22.2863 32.4663 22.3892C32.1171 22.4039 31.7679 22.4223 31.4261 22.3488Z" fill="#ECECEB"/>
<path d="M30.452 46.6892C30.5916 46.5054 30.8195 46.5422 31.007 46.4797C31.0768 46.4576 31.165 46.3694 31.2459 46.476C30.9923 46.5936 30.7276 46.6525 30.452 46.6892Z" fill="#ECECEB"/>
<path d="M33.0654 22.4076C33.3301 22.312 33.5874 22.3267 33.7381 22.448C33.5139 22.4627 33.286 22.4848 33.0654 22.4076Z" fill="#ECECEB"/>
<path d="M32.7603 46.0754C32.7787 45.9982 32.8485 45.9577 32.911 45.9541C33.1058 45.9357 33.2823 45.7887 33.4918 45.8695C33.2602 45.9798 33.0176 46.046 32.7603 46.0754Z" fill="#ECECEB"/>
<path d="M40.4609 25.2085C40.2808 25.0394 40.3506 24.8482 40.4168 24.6608C40.494 24.8372 40.4793 25.0247 40.4609 25.2085Z" fill="#ECECEB"/>
<path d="M40.097 21.1358C39.9059 20.9925 39.9867 20.8197 40.0529 20.6507C40.1301 20.805 40.1117 20.9704 40.097 21.1358Z" fill="#ECECEB"/>
<path d="M40.2183 22.4738C40.0272 22.3267 40.1044 22.1577 40.1705 21.9849C40.2514 22.1429 40.233 22.3084 40.2183 22.4738Z" fill="#ECECEB"/>
<path d="M39.9794 19.739C39.7846 19.5957 39.8654 19.4229 39.9279 19.2502C40.0088 19.4082 39.9867 19.5736 39.9794 19.739Z" fill="#ECECEB"/>
<path d="M34.1607 22.4701C34.3298 22.4003 34.5026 22.3304 34.6496 22.5106C34.4842 22.5179 34.3188 22.5473 34.1607 22.4701Z" fill="#ECECEB"/>
<path d="M40.2808 23.1428C40.0897 22.9957 40.1705 22.8266 40.233 22.6539C40.3139 22.8119 40.2918 22.9773 40.2808 23.1428Z" fill="#ECECEB"/>
<path d="M31.6062 46.3841C31.7605 46.2261 31.948 46.1893 32.1575 46.2298C31.9848 46.329 31.7973 46.3694 31.6062 46.3841Z" fill="#ECECEB"/>
<path d="M35.756 26.2965C35.9508 26.4435 35.87 26.6126 35.8038 26.7854C35.7303 26.631 35.745 26.4619 35.756 26.2965Z" fill="#ECECEB"/>
<path d="M40.0345 20.408C39.8508 20.261 39.9206 20.0883 39.9904 19.9192C40.0676 20.0772 40.0493 20.2426 40.0345 20.408Z" fill="#ECECEB"/>
<path d="M35.1311 45.4101C35.2855 45.2594 35.473 45.2226 35.6788 45.2557C35.5097 45.3586 35.3223 45.3954 35.1311 45.4101Z" fill="#ECECEB"/>
<path d="M39.8507 18.3423C39.6669 18.1953 39.7405 18.0225 39.8066 17.8534C39.8875 18.0115 39.8654 18.1769 39.8507 18.3423Z" fill="#ECECEB"/>
<path d="M40.1558 21.8048C39.9904 21.6761 40.0345 21.5291 40.1154 21.3784C40.1962 21.5144 40.1705 21.6614 40.1558 21.8048Z" fill="#ECECEB"/>
<path d="M40.3396 23.8117C40.1742 23.6831 40.2146 23.5361 40.2955 23.3817C40.369 23.5214 40.3579 23.6647 40.3396 23.8117Z" fill="#ECECEB"/>
<path d="M40.3984 24.4807C40.233 24.352 40.2771 24.205 40.3543 24.0506C40.4315 24.1903 40.4131 24.3336 40.3984 24.4807Z" fill="#ECECEB"/>
<path d="M35.5759 24.352C35.7487 24.477 35.7009 24.6277 35.6237 24.7821C35.5538 24.6461 35.5575 24.499 35.5759 24.352Z" fill="#ECECEB"/>
<path d="M35.8111 26.9066C35.8883 26.9177 35.9214 26.9691 35.9214 27.0463C35.9214 27.1419 35.9214 27.2375 35.9214 27.333C35.8332 27.333 35.8038 27.2705 35.8001 27.197C35.8001 27.1015 35.8075 27.0022 35.8111 26.9066Z" fill="#ECECEB"/>
<path d="M39.9132 19.0113C39.7478 18.8826 39.7919 18.7356 39.8728 18.5812C39.9463 18.7172 39.9242 18.8642 39.9132 19.0113Z" fill="#ECECEB"/>
<path d="M40.516 25.7562C40.3506 25.6496 40.4058 25.5209 40.4793 25.3886C40.5491 25.5062 40.5344 25.6312 40.516 25.7562Z" fill="#ECECEB"/>
<path d="M35.7009 25.69C35.87 25.793 35.8112 25.9253 35.745 26.0576C35.6678 25.9437 35.6936 25.815 35.7009 25.69Z" fill="#ECECEB"/>
<path d="M34.4622 45.6012C34.5577 45.4762 34.668 45.399 34.8261 45.4946C34.7195 45.5755 34.5945 45.5975 34.4622 45.6012Z" fill="#ECECEB"/>
<path d="M40.6373 27.0316C40.483 26.9471 40.516 26.8368 40.6042 26.7229C40.6741 26.8221 40.652 26.9287 40.6373 27.0316Z" fill="#ECECEB"/>
<path d="M40.5749 26.3627C40.4242 26.2781 40.4572 26.1678 40.5381 26.0576C40.6116 26.1531 40.5932 26.2561 40.5749 26.3627Z" fill="#ECECEB"/>
<path d="M35.6457 25.0835C35.7965 25.1717 35.7634 25.2783 35.6788 25.3886C35.6163 25.293 35.6274 25.1864 35.6457 25.0835Z" fill="#ECECEB"/>
<path d="M34.8885 22.5289C35.0025 22.448 35.1127 22.4113 35.1936 22.573C35.0907 22.584 34.9841 22.595 34.8885 22.5289Z" fill="#ECECEB"/>
<path d="M35.8001 45.2263C35.8736 45.1124 35.9729 45.0609 36.1052 45.1308C36.017 45.2116 35.9141 45.2337 35.8001 45.2263Z" fill="#ECECEB"/>
<path d="M34.0358 45.7226C34.1093 45.5976 34.2048 45.5461 34.3445 45.627C34.2563 45.7042 34.1497 45.7226 34.0358 45.7226Z" fill="#ECECEB"/>
<path d="M33.6131 45.8401C33.6903 45.7152 33.7858 45.6674 33.9218 45.7482C33.8299 45.8144 33.7233 45.8401 33.6131 45.8401Z" fill="#ECECEB"/>
<path d="M39.2075 29.7627C39.1009 29.7627 38.9943 29.759 38.8914 29.759C38.9943 29.7149 39.1009 29.7075 39.2075 29.7627Z" fill="#ECECEB"/>
<path d="M37.2593 44.8036C37.2814 44.7301 37.3108 44.686 37.3806 44.7631C37.3512 44.8109 37.3071 44.8183 37.2593 44.8036Z" fill="#ECECEB"/>
<path d="M36.833 44.9286C36.8514 44.8514 36.8808 44.8073 36.9543 44.8844C36.9249 44.9322 36.8844 44.9469 36.833 44.9286Z" fill="#ECECEB"/>
<path d="M32.5177 46.1415C32.5398 46.068 32.5692 46.0239 32.639 46.1011C32.6096 46.1452 32.5692 46.1562 32.5177 46.1415Z" fill="#ECECEB"/>
<path d="M32.2751 46.204C32.2972 46.1268 32.3303 46.0827 32.4001 46.1673C32.367 46.2114 32.3266 46.2224 32.2751 46.204Z" fill="#ECECEB"/>
<path d="M31.3635 46.454C31.3819 46.3768 31.4113 46.3253 31.4885 46.4099C31.4554 46.454 31.415 46.4687 31.3635 46.454Z" fill="#ECECEB"/>
<path d="M30.2094 46.748C30.2314 46.6708 30.2645 46.6304 30.3344 46.7113C30.3013 46.7591 30.2572 46.7664 30.2094 46.748Z" fill="#ECECEB"/>
<path d="M29.9668 46.8142C29.9889 46.7333 30.0219 46.6929 30.0918 46.7811C30.0587 46.8252 30.0146 46.8289 29.9668 46.8142Z" fill="#ECECEB"/>
<path d="M31.0033 41.5763C30.8343 41.7307 30.6468 41.7822 30.4483 41.7234C30.6247 41.6425 30.8085 41.591 31.0033 41.5763Z" fill="#ECECEB"/>
<path d="M35.1899 37.114C35.2892 37.3052 35.2818 37.3677 35.1495 37.4816C35.1348 37.3566 35.1238 37.2317 35.1899 37.114Z" fill="#ECECEB"/>
<path d="M35.2488 36.4451C35.3407 36.559 35.3738 36.6656 35.2157 36.7538C35.1973 36.6472 35.19 36.5443 35.2488 36.4451Z" fill="#ECECEB"/>
<path d="M35.1238 37.9007C35.2304 38.0661 35.2267 38.1102 35.087 38.2131C35.0723 38.1065 35.0576 37.9999 35.1238 37.9007Z" fill="#ECECEB"/>
<path d="M35.0687 38.5108C35.1605 38.6248 35.1936 38.7314 35.0356 38.8196C35.0135 38.713 35.0062 38.6101 35.0687 38.5108Z" fill="#ECECEB"/>
<path d="M35.3075 35.8349C35.3994 35.9305 35.4251 36.0187 35.2781 36.0849C35.2524 36.0003 35.2524 35.9158 35.3075 35.8349Z" fill="#ECECEB"/>
<path d="M35.3701 35.2284C35.4583 35.324 35.484 35.4122 35.337 35.4783C35.3223 35.3938 35.3076 35.3056 35.3701 35.2284Z" fill="#ECECEB"/>
<path d="M35.0061 39.1798C35.098 39.257 35.1017 39.3232 34.9804 39.3673C34.9547 39.3011 34.951 39.2349 35.0061 39.1798Z" fill="#ECECEB"/>
<path d="M34.9437 39.7275C35.0319 39.7826 35.0098 39.8231 34.9253 39.8561C34.9069 39.8084 34.9032 39.7643 34.9437 39.7275Z" fill="#ECECEB"/>
<path d="M32.6464 41.15C32.6206 41.2455 32.5582 41.2529 32.4773 41.2198C32.5141 41.1536 32.5729 41.1316 32.6464 41.15Z" fill="#ECECEB"/>
<path d="M31.7311 41.3926C31.7091 41.4734 31.676 41.5176 31.6062 41.4293C31.6393 41.3852 31.6834 41.3779 31.7311 41.3926Z" fill="#ECECEB"/>
<path d="M31.4885 41.4551C31.4664 41.5322 31.437 41.58 31.3635 41.4955C31.3966 41.4477 31.4407 41.4367 31.4885 41.4551Z" fill="#ECECEB"/>
<path d="M31.2459 41.5175C31.2239 41.5984 31.1908 41.6425 31.1209 41.5543C31.154 41.5065 31.1981 41.4991 31.2459 41.5175Z" fill="#ECECEB"/>
<path d="M33.433 40.9368C33.4219 40.9772 33.4036 40.9956 33.3705 40.9515C33.3925 40.9478 33.4109 40.9405 33.433 40.9368Z" fill="#ECECEB"/>
</svg>
