<?xml version="1.0" encoding="utf-8"?>
<!-- Generator: Adobe Illustrator 24.0.2, SVG Export Plug-In . SVG Version: 6.00 Build 0)  -->
<svg version="1.1" id="Capa_1" xmlns="http://www.w3.org/2000/svg" xmlns:xlink="http://www.w3.org/1999/xlink" x="0px" y="0px"
	 viewBox="0 0 144 144" style="enable-background:new 0 0 144 144;" xml:space="preserve">
<style type="text/css">
	.st0{fill:#DFE6ED;}
	.st1{fill:#3B4551;}
	.st2{fill:none;stroke:#3B4551;stroke-width:5;stroke-linejoin:round;stroke-miterlimit:10;}
	.st3{fill:#2048ED;}
	.st4{fill:#FFFFFF;}
</style>
<g>
	<path class="st0" d="M5,141.5c-1.4,0-2.5-1.1-2.5-2.5V81.6c0-1.4,1.1-2.5,2.5-2.5h134c1.4,0,2.5,1.1,2.5,2.5V139
		c0,1.4-1.1,2.5-2.5,2.5H5z"/>
	<path class="st1" d="M139,81.6V139H5V81.6H139 M139,76.6H5c-2.8,0-5,2.2-5,5V139c0,2.8,2.2,5,5,5h134c2.8,0,5-2.2,5-5V81.6
		C144,78.8,141.8,76.6,139,76.6L139,76.6z"/>
</g>
<line class="st2" x1="24.1" y1="129.4" x2="24.1" y2="91.1"/>
<circle class="st3" cx="110.3" cy="81.6" r="19.1"/>
<circle class="st3" cx="110.3" cy="40.4" r="9.6"/>
<circle class="st3" cx="110.3" cy="9.6" r="9.6"/>
<path class="st4" d="M110.3,94.1l9.6-12.2l-7.9,2.4V69.4c0-0.8-0.7-1.4-1.7-1.4c-0.9,0-1.7,0.6-1.7,1.4v14.9l-7.9-2.4L110.3,94.1z"
	/>
</svg>
