<?xml version="1.0" encoding="utf-8"?>
<!-- Generator: Adobe Illustrator 24.0.2, SVG Export Plug-In . SVG Version: 6.00 Build 0)  -->
<svg version="1.1" id="Capa_1" xmlns="http://www.w3.org/2000/svg" xmlns:xlink="http://www.w3.org/1999/xlink" x="0px" y="0px"
	 viewBox="0 0 144 144" style="enable-background:new 0 0 144 144;" xml:space="preserve">
<style type="text/css">
	.st0{fill:#2048ED;}
	.st1{fill:#DFE6ED;}
	.st2{fill:#919DD6;}
</style>
<g>
	<rect class="st0" width="9" height="36"/>
	<rect x="13.5" y="-13.5" transform="matrix(-1.836970e-16 1 -1 -1.836970e-16 22.5 -13.5)" class="st0" width="9" height="36"/>
	<rect x="17.5" y="-0.7" transform="matrix(0.7203 -0.6936 0.6936 0.7203 -9.4541 21.5527)" class="st0" width="9" height="46.5"/>
</g>
<g>
	<rect x="121.5" y="-13.5" transform="matrix(-1.836970e-16 1 -1 -1.836970e-16 130.5 -121.5)" class="st0" width="9" height="36"/>
	<rect x="135" transform="matrix(-1 -1.224647e-16 1.224647e-16 -1 279 36)" class="st0" width="9" height="36"/>
	<rect x="98.3" y="17.5" transform="matrix(0.7204 -0.6936 0.6936 0.7204 18.7176 90.4255)" class="st0" width="46.5" height="9"/>
</g>
<g>
	<rect x="135" y="108" transform="matrix(-1 -1.224647e-16 1.224647e-16 -1 279 252)" class="st0" width="9" height="36"/>
	<rect x="121.5" y="121.5" transform="matrix(6.123234e-17 -1 1 6.123234e-17 -13.5 265.5)" class="st0" width="9" height="36"/>
	
		<rect x="117.5" y="98.3" transform="matrix(0.7203 -0.6936 0.6936 0.7203 -50.1565 118.6038)" class="st0" width="9" height="46.5"/>
</g>
<g>
	<rect x="13.5" y="121.5" transform="matrix(6.123234e-17 -1 1 6.123234e-17 -121.5 157.5)" class="st0" width="9" height="36"/>
	<rect y="108" class="st0" width="9" height="36"/>
	<rect x="-0.7" y="117.5" transform="matrix(0.7204 -0.6936 0.6936 0.7204 -78.328 49.7231)" class="st0" width="46.5" height="9"/>
</g>
<rect x="27" y="27" class="st0" width="90" height="90"/>
<g>
	<rect x="36" y="36" class="st1" width="72" height="72"/>
</g>
<circle class="st0" cx="90" cy="54" r="9"/>
<path class="st2" d="M108,99L83.4,74.5c-1.4-1.2-3.3-1-4.4,0.6l-4.5,6c-1.3,1.8-3.5,1.8-4.9,0L56.8,64.3c-1.5-1.9-3.9-1.6-5,0.7
	L36,99v9h72V99z"/>
</svg>
