<?xml version="1.0" encoding="utf-8"?>
<!-- Generator: Adobe Illustrator 24.0.2, SVG Export Plug-In . SVG Version: 6.00 Build 0)  -->
<svg version="1.1" id="Capa_1" xmlns="http://www.w3.org/2000/svg" xmlns:xlink="http://www.w3.org/1999/xlink" x="0px" y="0px"
	 viewBox="0 0 144 144" style="enable-background:new 0 0 144 144;" xml:space="preserve">
<style type="text/css">
	.st0{fill:#FFFFFF;}
	.st1{fill:#ABC6DB;}
	.st2{fill:#3E4A70;}
	.st3{fill:#2048ED;}
	.st4{fill:#216FB5;}
</style>
<g>
	<rect x="48.3" y="38.7" class="st0" width="50.5" height="67.9"/>
	<g>
		<path class="st1" d="M66.2,15.4c3.7,5.8,5.9,12.7,5.9,20.1V15.4C70.1,15.4,68.1,15.4,66.2,15.4z"/>
	</g>
	<g>
		<path class="st1" d="M72.1,42v-6.5c0,2.2-0.2,4.4-0.6,6.5C71.7,42,71.9,42,72.1,42z"/>
	</g>
	<g>
		<path class="st1" d="M19.7,69.3c-3.6-1.6-6.9-3.8-9.8-6.5C8.5,65,6.5,66.8,3.8,68c-1.2,0.5-3,0-3.5,1.4c-0.4,0.9-0.2,2.1-0.2,3.3
			h16.3L19.7,69.3z"/>
	</g>
	<g>
		<path class="st1" d="M50.8,69c-0.2,0.1-0.3,0.2-0.5,0.2l0.5,0.5C50.8,69.5,50.8,69.3,50.8,69z"/>
	</g>
	<path class="st2" d="M72.1,42c2.3,0.1,4.6,0.1,6.8,0.3c0.3,0,0.5,0.1,0.8,0.1C86,43.1,90.7,47,92.6,52l16.5-16.5L89.1,15.4
		c-5.7,0-11.3,0-17,0v20.1V42z"/>
	<path class="st2" d="M131.5,57.8c-1.2-3-1.8-6.2-2.3-9.4c-1-6.2-1-12.4-0.9-18.7c0-3.7-1.4-7.1-3.6-9.6l-15.4,15.4L131.5,57.8z"/>
	<path class="st3" d="M144,70.3C144,70.3,144,70.3,144,70.3c0-1.2-0.4-1.6-1.5-1.8c-0.1,0-0.2-0.1-0.4-0.1c-3.3-0.7-5.8-2.7-7.8-5.4
		c-1.2-1.7-2.2-3.4-2.9-5.2l-22.3-22.3L92.6,52c1.8,4.5,1.3,9.7-2.2,14.2c-1.8,2.3-4.2,3.6-7.3,4.8c1.8,0.5,3.4,0.9,4.8,1.5h2.7
		L109.2,54l18.5,18.5H144C144,71.8,143.9,71.1,144,70.3z"/>
	<path class="st2" d="M35,91.1c-10.2,0-18.5-8.3-18.5-18.5l0,0H0.1c0,0.2,0,0.5,0,0.7c0,0.4,0.1,0.9,0,1.3c-0.2,1.2,0.3,1.5,1.4,1.7
		c3.9,0.8,6.7,3.1,8.7,6.4c3.5,5.6,4.6,12,5.3,18.3c0.5,4.6,0.4,9.2,0.2,13.8c-0.1,1.4,0.1,2.8,0.6,4.2V91.1H35z"/>
	<path class="st3" d="M35,91.1h15.7c0-2.9,0-5.9,0-8.8C47.5,87.6,41.7,91.1,35,91.1z"/>
	<path class="st2" d="M94.5,95c-0.5,0.8-1.1,1.6-1.7,2.4c-1.3,1.5-2.8,2.6-4.3,3.5c1.4,2.6,2.2,5.6,2.2,8.8
		c0,10.2-8.3,18.5-18.5,18.5v1.3c5.7,0,11.5,0,17.2,0l19.8-19.8L94.5,95z"/>
	<path class="st4" d="M127.7,72.6H90.6l0,0H88c0.7,0.3,1.3,0.6,1.9,1c6.9,4.4,8.7,14.5,4.6,21.4l14.7,14.7c0-19.7,15.4-35.9,34.9-37
		c0,0,0,0,0-0.1L127.7,72.6L127.7,72.6z"/>
	<path class="st3" d="M89.3,129.5c8,0,16.1,0,24.1,0c0.5,0,1,0,1.5-0.1c-3.6-5.7-5.7-12.5-5.7-19.8L89.3,129.5z"/>
	<g>
		<path class="st1" d="M144,72.6c-19.4,1.2-34.9,17.3-34.9,37c0,7.3,2.1,14,5.7,19.8c3.9-0.3,7.2-2,9.6-4.5
			c2.5-2.7,3.9-6.4,3.7-10.7c0-0.4,0-0.7,0-1c-0.1-2.5,0-4.9,0.1-7.4c0-0.1,0-0.3,0-0.4c0.5-6.2,1.1-12.3,3.4-18.1
			c0.1-0.3,0.2-0.5,0.3-0.8c1.6-3.9,3.8-7.3,7.8-9.3c0.7-0.4,1.7-0.4,2.6-0.6c0.7-0.2,1.3-0.5,1.6-1.2c0-0.1,0.1-0.3,0.1-0.5
			C144.1,74.2,144.1,73.4,144,72.6z"/>
	</g>
	<g>
		<path class="st1" d="M72.1,103.8v24.4c10.2,0,18.5-8.3,18.5-18.5c0-3.2-0.8-6.2-2.2-8.8c-3.3,2-7.1,2.8-11.1,2.9
			C75.5,103.8,73.8,103.8,72.1,103.8z"/>
	</g>
	<g>
		<path class="st1" d="M35,91.1C35,91.1,35,91.1,35,91.1l-18.5,0V119c1.2,4,4.2,7.4,8,9.2H35V91.1z"/>
	</g>
	<g>
		<path class="st1" d="M50.7,102.3c0-3.7,0-7.5,0.1-11.2H35c0,0,0,0,0,0v37.1h18.5v-24.4c-0.4,0-0.9,0-1.3,0
			C51.1,103.8,50.7,103.6,50.7,102.3z"/>
	</g>
	<path class="st4" d="M53.5,103.8v24.4H35H24.5c1.2,0.6,2.6,1,3.9,1.2c0.8,0.1,1.5,0.2,2.3,0.2c1.4,0,2.9,0,4.3-0.1
		c2.2,0,4.4-0.1,6.6-0.1c10-0.1,20,0.1,30,0.1c0.2,0,0.4,0,0.5,0v-1.3v-24.4C65.9,103.9,59.7,103.8,53.5,103.8z"/>
	<path class="st3" d="M35,72.6H16.5c0,10.2,8.3,18.5,18.5,18.5h0V72.6z"/>
	<path class="st3" d="M50.8,72.6H35v18.5h0c6.7,0,12.5-3.5,15.8-8.8c0-2.7,0-5.3,0-8C50.8,73.7,50.8,73.2,50.8,72.6z"/>
	<polygon class="st3" points="35,91.1 35,91.1 35,91.1 	"/>
	<polygon class="st3" points="35,91.1 35,91.1 35,91.1 	"/>
	<g>
		<polygon class="st1" points="109.2,54 90.6,72.6 127.7,72.6 		"/>
	</g>
	<g>
		<polygon class="st1" points="127.7,72.6 127.7,72.6 90.6,72.6 90.6,72.6 		"/>
	</g>
	<g>
		<path class="st1" d="M19.7,69.3l-3.3,3.3H35C29.6,72.6,24.4,71.4,19.7,69.3z"/>
	</g>
	<g>
		<path class="st1" d="M50.8,72.6c0-0.9,0-1.8,0-2.8l-0.5-0.5c-4.7,2.1-9.8,3.3-15.3,3.3H50.8z"/>
	</g>
	<g>
		<path class="st1" d="M50.3,69.3L35,54L19.7,69.3c4.7,2.1,9.8,3.3,15.3,3.3S45.6,71.4,50.3,69.3z"/>
	</g>
	<g>
		<rect x="16.5" y="72.6" class="st1" width="18.5" height="0"/>
	</g>
	<g>
		<rect x="35" y="72.6" class="st1" width="15.8" height="0"/>
	</g>
	<path class="st3" d="M66.2,15.4c-9.9,0-34.8,0-35.9,0c-2,0-3.9,0.2-5.7,1.1c-5.8,2.8-8.7,7.5-8.6,14c0.2,9-0.3,18-3.2,26.6
		c-0.7,2.1-1.6,4-2.8,5.7c2.9,2.6,6.2,4.8,9.8,6.5L35,54l15.3,15.3c0.2-0.1,0.3-0.2,0.5-0.2c0-8.9,0-17.8,0-26.7
		c0-0.3,0.1-0.4,0.3-0.3c6.8,0,13.6-0.2,20.4-0.1c0.4-2.1,0.6-4.3,0.6-6.5C72.1,28.1,69.9,21.2,66.2,15.4z"/>
	<path class="st4" d="M113.9,15.4c-1.1,0-18.6,0-24.8,0l20.1,20.1l15.4-15.4C122,17.2,118.2,15.4,113.9,15.4z"/>
	<path class="st4" d="M72.1,75.7c-3.5-0.1-7,0.2-10.4,0c-1.2-0.1-1.1,0.7-1.1,1.5c0,2.8,0,5.6,0,8.4c0,2.9,0,5.7,0,8.6
		c0,0.8-0.1,1.6,1.1,1.5c3.5-0.1,7,0.1,10.5,0.1v-4.7V75.7z"/>
	<path class="st2" d="M72.1,91.1c3.7,0,7.1,1.1,10,2.9c2.8-1.4,4-3.7,4.4-7.1l-11-11c-1.1-0.1-2.2-0.2-3.3-0.2V91.1z"/>
	<path class="st3" d="M86.5,86.2c0.3-5.4-2.2-8.5-7.7-9.8c-1.1-0.3-2.3-0.4-3.4-0.6l11,11C86.5,86.7,86.5,86.4,86.5,86.2z"/>
	<g>
		<path class="st1" d="M72.1,95.8c2,0,3.9-0.2,5.9-0.5c1.6-0.3,3-0.7,4.1-1.3c-2.9-1.8-6.3-2.9-10-2.9V95.8z"/>
	</g>
	<g>
		<path class="st1" d="M69.1,50c-2,4.7-5,8.9-8.6,12.4c0,1.8,0,3.7,0,5.5c3.9,0.3,7.8,0.3,11.6,0.1v-18C71.1,50.1,70.1,50.1,69.1,50
			z"/>
	</g>
	<path class="st2" d="M74.9,67.9c0.8-0.1,1.6-0.3,2.4-0.5l6.2-6.2c0.2-1.1,0.3-2.4,0.2-3.8c-0.3-3.8-3.2-6.3-7.5-7
		c-1.4-0.2-2.7-0.2-4.1-0.2v18C73,68,74,68,74.9,67.9z"/>
	<path class="st3" d="M78,67.1c3.3-1.4,5-3.3,5.5-5.9l-6.2,6.2C77.5,67.3,77.7,67.2,78,67.1z"/>
	<path class="st3" d="M69.1,50c-0.4,0-0.8,0-1.1-0.1c-1.6,0-3.2,0.2-4.8,0.1c-2-0.2-2.8,0.3-2.7,2.6c0.1,3.3,0.1,6.5,0.1,9.8
		C64.1,58.9,67.1,54.7,69.1,50z"/>
</g>
</svg>
