<?xml version="1.0" encoding="utf-8"?>
<!-- Generator: Adobe Illustrator 24.0.2, SVG Export Plug-In . SVG Version: 6.00 Build 0)  -->
<svg version="1.1" id="Capa_1" xmlns="http://www.w3.org/2000/svg" xmlns:xlink="http://www.w3.org/1999/xlink" x="0px" y="0px"
	 viewBox="0 0 144 144" style="enable-background:new 0 0 144 144;" xml:space="preserve">
<style type="text/css">
	.st0{fill:#2048ED;}
	.st1{fill:#FFFFFF;}
</style>
<g>
	<g>
		<path class="st0" d="M45.5,110c-1.7,0-3-1.3-3-3v-0.7c0-1.7,1.3-3,3-3h7.5V93c0-1.7,1.3-3,3-3h13.1c1.7,0,3,1.3,3,3v10.3h7.5
			c1.7,0,3,1.3,3,3v0.7c0,1.7-1.3,3-3,3H45.5z"/>
		<g>
			<path class="st0" d="M69.2,93v13.3h10.5v0.7H45.5v-0.7h10.5V93H69.2 M69.2,87H56.1c-3.3,0-6,2.7-6,6v7.3h-4.5c-3.3,0-6,2.7-6,6
				v0.7c0,3.3,2.7,6,6,6h34.2c3.3,0,6-2.7,6-6v-0.7c0-3.3-2.7-6-6-6h-4.5V93C75.2,89.7,72.5,87,69.2,87L69.2,87z"/>
		</g>
	</g>
	<g>
		<path class="st1" d="M6.1,91.5c-1.7,0-3-1.3-3-3V6c0-1.7,1.3-3,3-3h113c1.7,0,3,1.3,3,3v82.5c0,1.7-1.3,3-3,3H6.1z"/>
		<path class="st0" d="M119.1,6v82.5H6.1V6H119.1 M119.1,0H6.1c-3.3,0-6,2.7-6,6v82.5c0,3.3,2.7,6,6,6h113c3.3,0,6-2.7,6-6V6
			C125.1,2.7,122.4,0,119.1,0L119.1,0z"/>
	</g>
	<rect x="3.9" y="72" class="st0" width="117.5" height="18"/>
	<g>
		<circle class="st1" cx="62.9" cy="81" r="6"/>
		<path class="st0" d="M62.9,78c1.7,0,3,1.3,3,3s-1.3,3-3,3s-3-1.3-3-3S61.2,78,62.9,78 M62.9,72c-5,0-9,4-9,9s4,9,9,9s9-4,9-9
			S67.8,72,62.9,72L62.9,72z"/>
	</g>
</g>
<g>
	<g>
		<path class="st1" d="M81.9,125c-1.7,0-3-1.3-3-3V47.5c0-1.7,1.3-3,3-3h56c1.7,0,3,1.3,3,3V122c0,1.7-1.3,3-3,3H81.9z"/>
		<path class="st0" d="M137.9,47.5V122h-56V47.5H137.9 M137.9,41.5h-56c-3.3,0-6,2.7-6,6V122c0,3.3,2.7,6,6,6h56c3.3,0,6-2.7,6-6
			V47.5C143.9,44.2,141.2,41.5,137.9,41.5L137.9,41.5z"/>
	</g>
	<circle class="st0" cx="109.9" cy="115" r="4.5"/>
</g>
<g>
	<g>
		<path class="st1" d="M71.9,141c-1.7,0-3-1.3-3-3V87.5c0-1.7,1.3-3,3-3h32c1.7,0,3,1.3,3,3V138c0,1.7-1.3,3-3,3H71.9z"/>
		<g>
			<path class="st0" d="M103.9,87.5V138h-32V87.5H103.9 M103.9,81.5h-32c-3.3,0-6,2.7-6,6V138c0,3.3,2.7,6,6,6h32c3.3,0,6-2.7,6-6
				V87.5C109.9,84.2,107.2,81.5,103.9,81.5L103.9,81.5z"/>
		</g>
	</g>
	<circle class="st0" cx="87.9" cy="132.5" r="3"/>
</g>
</svg>
