<?xml version="1.0" encoding="utf-8"?>
<!-- Generator: Adobe Illustrator 24.0.2, SVG Export Plug-In . SVG Version: 6.00 Build 0)  -->
<svg version="1.1" id="Capa_1" xmlns="http://www.w3.org/2000/svg" xmlns:xlink="http://www.w3.org/1999/xlink" x="0px" y="0px"
	 viewBox="0 0 144 144" style="enable-background:new 0 0 144 144;" xml:space="preserve">
<style type="text/css">
	.st0{fill:none;stroke:#152447;stroke-width:2;stroke-linejoin:round;stroke-miterlimit:10;stroke-dasharray:4;}
	.st1{fill:#F2E9C0;}
	.st2{fill:#EDE3B0;}
	.st3{fill:#EFDF81;}
	.st4{fill:#F7E017;}
</style>
<circle class="st0" cx="27.5" cy="27.5" r="27"/>
<g>
	<circle class="st1" cx="61" cy="29" r="27"/>
	<g>
		<path d="M61,3.5c14.1,0,25.5,11.4,25.5,25.5S75.1,54.5,61,54.5S35.5,43.1,35.5,29S46.9,3.5,61,3.5 M61,0.5
			C45.3,0.5,32.5,13.3,32.5,29S45.3,57.5,61,57.5S89.5,44.7,89.5,29S76.7,0.5,61,0.5L61,0.5z"/>
	</g>
</g>
<g>
	<circle class="st2" cx="95" cy="50" r="31"/>
	<g>
		<path d="M95,20.5c16.3,0,29.5,13.2,29.5,29.5S111.3,79.5,95,79.5S65.5,66.3,65.5,50S78.7,20.5,95,20.5 M95,17.5
			c-17.9,0-32.5,14.6-32.5,32.5S77.1,82.5,95,82.5s32.5-14.6,32.5-32.5S112.9,17.5,95,17.5L95,17.5z"/>
	</g>
</g>
<g>
	<circle class="st3" cx="111" cy="71" r="32"/>
	<g>
		<path d="M111,40.5c16.8,0,30.5,13.7,30.5,30.5s-13.7,30.5-30.5,30.5S80.5,87.8,80.5,71S94.2,40.5,111,40.5 M111,37.5
			c-18.5,0-33.5,15-33.5,33.5s15,33.5,33.5,33.5s33.5-15,33.5-33.5S129.5,37.5,111,37.5L111,37.5z"/>
	</g>
</g>
<g>
	<circle class="st4" cx="93.5" cy="108.5" r="34.5"/>
	<g>
		<path d="M93.5,75.5c18.2,0,33,14.8,33,33s-14.8,33-33,33s-33-14.8-33-33S75.3,75.5,93.5,75.5 M93.5,72.5c-19.9,0-36,16.1-36,36
			s16.1,36,36,36s36-16.1,36-36S113.4,72.5,93.5,72.5L93.5,72.5z"/>
	</g>
</g>
</svg>
