<?xml version="1.0" encoding="utf-8"?>
<!-- Generator: Adobe Illustrator 24.0.2, SVG Export Plug-In . SVG Version: 6.00 Build 0)  -->
<svg version="1.1" id="Capa_1" xmlns="http://www.w3.org/2000/svg" xmlns:xlink="http://www.w3.org/1999/xlink" x="0px" y="0px"
	 viewBox="0 0 144 144" style="enable-background:new 0 0 144 144;" xml:space="preserve">
<style type="text/css">
	.st0{fill:#CCB217;}
	.st1{fill:#E2C917;}
	.st2{fill:#F7E017;}
</style>
<g>
	<rect x="72" class="st0" width="24" height="24"/>
</g>
<g>
	<rect x="72" y="24" class="st1" width="24" height="24"/>
</g>
<g>
	<rect x="48" class="st2" width="24" height="24"/>
</g>
<g>
	<rect x="48" y="24" class="st2" width="24" height="24"/>
</g>
<g>
	<rect x="72" y="56" class="st1" width="24" height="24"/>
</g>
<g>
	<rect x="72" y="80" class="st0" width="24" height="64"/>
</g>
<g>
	<rect x="48" y="56" class="st2" width="24" height="24"/>
</g>
<g>
	<rect x="48" y="80" class="st2" width="24" height="64"/>
</g>
<rect y="48" width="8" height="56"/>
<rect x="100" y="56" width="8" height="40"/>
<rect x="136" y="80" width="8" height="16"/>
<rect x="36" y="56" width="8" height="16"/>
<rect x="36" y="80" width="8" height="16"/>
<rect x="8" y="48" width="28" height="8"/>
<rect x="8" y="72" width="28" height="8"/>
<rect x="8" y="96" width="28" height="8"/>
<rect x="108" y="48" width="28" height="8"/>
<rect x="120" y="72" width="16" height="8"/>
<rect x="108" y="96" width="28.8" height="8"/>
</svg>
