<?xml version="1.0" encoding="utf-8"?>
<!-- Generator: Adobe Illustrator 24.0.2, SVG Export Plug-In . SVG Version: 6.00 Build 0)  -->
<svg version="1.1" id="Capa_1" xmlns="http://www.w3.org/2000/svg" xmlns:xlink="http://www.w3.org/1999/xlink" x="0px" y="0px"
	 viewBox="0 0 144 144" style="enable-background:new 0 0 144 144;" xml:space="preserve">
<style type="text/css">
	.st0{fill:#A88D1B;}
	.st1{opacity:0.25;}
	.st2{fill:#B79C1A;}
	.st3{fill:#CCB217;}
	.st4{fill:#E2C917;}
	.st5{fill:#F7E017;}
</style>
<g>
	<g>
		<path class="st0" d="M87.8,110.4l-75.2-8.2C9.3,101.9,7,99,7.4,95.7l9.9-90.6c0.4-3.2,3.2-5.5,6.5-5.2l90.6,9.9
			c3.2,0.4,5.5,3.2,5.2,6.5l-8.2,75.2L87.8,110.4z"/>
	</g>
	<g class="st1">
		<path class="st0" d="M87.8,110.4l2.1-18.8c0.1-1.4,1.4-2.3,2.7-2.2l18.8,2.1L87.8,110.4z"/>
	</g>
</g>
<g>
	<g>
		<path class="st2" d="M88.7,116.5l-75.7,0c-3.2,0-5.9-2.6-5.9-5.9l0-91.2c0-3.2,2.6-5.9,5.9-5.9l91.2,0c3.2,0,5.9,2.6,5.9,5.9
			l0,75.7L88.7,116.5z"/>
	</g>
	<g class="st1">
		<path class="st2" d="M88.7,116.5l0-18.9c0-1.4,1.1-2.5,2.5-2.5l18.9,0L88.7,116.5z"/>
	</g>
</g>
<g>
	<g>
		<path class="st3" d="M89.5,119.7L14.1,126c-3.2,0.3-6.1-2.1-6.3-5.4L0.1,29.8c-0.3-3.2,2.1-6.1,5.4-6.3l90.9-7.6
			c3.2-0.3,6.1,2.1,6.3,5.4l6.3,75.4L89.5,119.7z"/>
	</g>
	<g class="st1">
		<path class="st3" d="M89.5,119.7l-1.6-18.8c-0.1-1.4,0.9-2.6,2.3-2.7l18.8-1.6L89.5,119.7z"/>
	</g>
</g>
<g>
	<g>
		<path class="st4" d="M109.5,124l-74.7,12.2c-3.2,0.5-6.2-1.6-6.7-4.8l-14.7-90c-0.5-3.2,1.6-6.2,4.8-6.7l90-14.7
			c3.2-0.5,6.2,1.6,6.7,4.8l12.2,74.7L109.5,124z"/>
	</g>
	<g class="st1">
		<path class="st4" d="M109.5,124l-3-18.6c-0.2-1.4,0.7-2.6,2-2.8l18.6-3L109.5,124z"/>
	</g>
</g>
<g>
	<g>
		<path class="st5" d="M126.7,26.9c-0.7-3.2-3.9-5.1-7.1-4.4l-88.7,21c-3.2,0.7-5.1,3.9-4.4,7.1l21,88.7c0.7,3.2,3.9,5.1,7.1,4.4
			l73.6-17.5l15.9-25.7L126.7,26.9z"/>
	</g>
	<g>
		<path class="st4" d="M125.8,104.9c-1.3,0.3-2.2,1.7-1.8,3l4.4,18.4l15.9-25.7L125.8,104.9z"/>
	</g>
</g>
</svg>
