<?xml version="1.0" encoding="utf-8"?>
<!-- Generator: Adobe Illustrator 24.0.2, SVG Export Plug-In . SVG Version: 6.00 Build 0)  -->
<svg version="1.1" id="Capa_1" xmlns="http://www.w3.org/2000/svg" xmlns:xlink="http://www.w3.org/1999/xlink" x="0px" y="0px"
	 viewBox="0 0 144 144" style="enable-background:new 0 0 144 144;" xml:space="preserve">
<style type="text/css">
	.st0{fill:#F7E017;}
	.st1{fill:#FFFFFF;}
</style>
<g>
	<g>
		<path class="st0" d="M83.7,127.7H48.1c-3.5,0-6.3-2.8-6.3-6.3V85.8c0-3.5,2.8-6.3,6.3-6.3h35.6c3.5,0,6.3,2.8,6.3,6.3v35.6
			C90,124.9,87.2,127.7,83.7,127.7z"/>
	</g>
	<g>
		<path class="st0" d="M64.3,143.1l-6.4-15.4H74l-6.4,15.4C67.1,144.1,64.7,144.1,64.3,143.1z"/>
	</g>
</g>
<g>
	<g>
		<path class="st0" d="M116.7,50.6H81.1c-3.5,0-6.3-2.8-6.3-6.3V8.7c0-3.5,2.8-6.3,6.3-6.3h35.6c3.5,0,6.3,2.8,6.3,6.3v35.6
			C123,47.7,120.2,50.6,116.7,50.6z"/>
	</g>
	<g>
		<path class="st0" d="M96.6,65.9l-8.9-15.3h22.5l-8.9,15.3C100.1,67.9,97.8,67.9,96.6,65.9z"/>
	</g>
</g>
<g>
	<g>
		<path class="st0" d="M138.9,98.8h-18.7c-2.8,0-5.1-2.3-5.1-5.1V74.9c0-2.8,2.3-5.1,5.1-5.1h18.7c2.8,0,5.1,2.3,5.1,5.1v18.7
			C144,96.5,141.7,98.8,138.9,98.8z"/>
	</g>
	<g>
		<path class="st0" d="M128.5,106.2l-3.7-7.5h9.6l-3.7,7.5C130.2,107.1,128.9,107.1,128.5,106.2z"/>
	</g>
</g>
<g>
	<path class="st1" d="M99.9,23c-0.1,0-0.6-0.2-1.4-0.2c-0.9-0.1-2.3,0-4.2,0.6c-0.4,0.1-0.8,0.6-1.2,1c0.4,0.3,0.7,0.8,1.2,0.9
		c2,0.6,2.2,0.8,1.8,3c-0.6,3.3-1.1,6.6-1.7,9.8c-0.3,1.9,0.8,3.9,2.7,4.3c2.6,0.6,5.2,0.6,7.4-1.2c0.6-0.5,0.9-1.4,1.3-2.1
		c-0.7,0.1-1.5,0.2-2.2,0.4c-1.7,0.6-2.4,0.2-2.3-1.6c0-0.4,0.1-0.8,0.2-1.3c0.6-3.2,1.2-6.3,1.7-9.5c0.3-2-0.2-3.2-1.8-3.8
		C100.9,23.1,100.4,23,99.9,23z"/>
	<path class="st1" d="M104,15.4c0-2.4-1.9-4.5-4.2-4.4c-2.4,0-4.3,1.9-4.3,4.2c-0.1,2.5,1.9,4.6,4.3,4.6C102,19.6,104,17.6,104,15.4
		z"/>
</g>
<g>
	<path class="st1" d="M66.9,99c-0.1,0-0.6-0.2-1.4-0.2c-0.9-0.1-2.3,0-4.2,0.6c-0.4,0.1-0.8,0.6-1.2,1c0.4,0.3,0.7,0.8,1.2,0.9
		c2,0.6,2.2,0.8,1.8,3c-0.6,3.3-1.1,6.6-1.7,9.8c-0.3,1.9,0.8,3.9,2.7,4.3c2.6,0.6,5.2,0.6,7.4-1.2c0.6-0.5,0.9-1.4,1.3-2.1
		c-0.7,0.1-1.5,0.2-2.2,0.4c-1.7,0.6-2.4,0.2-2.3-1.6c0-0.4,0.1-0.8,0.2-1.3c0.6-3.2,1.2-6.3,1.7-9.5c0.3-2-0.2-3.2-1.8-3.8
		C67.9,99.2,67.4,99.1,66.9,99z"/>
	<path class="st1" d="M71,91.4C71,89,69,87,66.7,87c-2.4,0-4.3,1.9-4.3,4.2c-0.1,2.5,1.9,4.6,4.3,4.6C69,95.7,70.9,93.7,71,91.4z"/>
</g>
<g>
	<g>
		<path class="st0" d="M41.9,48.1H6.3c-3.5,0-6.3-2.8-6.3-6.3V6.2c0-3.5,2.8-6.3,6.3-6.3h35.6c3.5,0,6.3,2.8,6.3,6.3v35.6
			C48.2,45.3,45.4,48.1,41.9,48.1z"/>
	</g>
	<g>
		<path class="st0" d="M22.5,63.5l-6.4-15.4h16.1l-6.4,15.4C25.3,64.5,22.9,64.5,22.5,63.5z"/>
	</g>
</g>
<g>
	<path class="st1" d="M25.1,19.4c-0.1,0-0.6-0.2-1.4-0.2c-0.9-0.1-2.3,0-4.2,0.6c-0.4,0.1-0.8,0.6-1.2,1c0.4,0.3,0.7,0.8,1.2,0.9
		c2,0.6,2.2,0.8,1.8,3c-0.6,3.3-1.1,6.6-1.7,9.8c-0.3,1.9,0.8,3.9,2.7,4.3c2.6,0.6,5.2,0.6,7.4-1.2c0.6-0.5,0.9-1.4,1.3-2.1
		c-0.7,0.1-1.5,0.2-2.2,0.4c-1.7,0.6-2.4,0.2-2.3-1.6c0-0.4,0.1-0.8,0.2-1.3c0.6-3.2,1.2-6.3,1.7-9.5c0.3-2-0.2-3.2-1.8-3.8
		C26,19.6,25.6,19.5,25.1,19.4z"/>
	<path class="st1" d="M29.2,11.8c0-2.4-1.9-4.5-4.2-4.4c-2.4,0-4.3,1.9-4.3,4.2c-0.1,2.5,1.9,4.6,4.3,4.6
		C27.1,16.1,29.1,14.1,29.2,11.8z"/>
</g>
<g>
	<path class="st1" d="M130.3,82c-0.1,0-0.4-0.1-1-0.2c-0.7,0-1.6,0-2.9,0.4c-0.3,0.1-0.6,0.5-0.8,0.7c0.3,0.2,0.5,0.5,0.8,0.6
		c1.4,0.4,1.5,0.6,1.3,2.1c-0.4,2.3-0.8,4.6-1.2,6.9c-0.2,1.3,0.6,2.7,1.9,3c1.8,0.4,3.6,0.4,5.2-0.9c0.4-0.3,0.6-1,0.9-1.5
		c-0.5,0.1-1,0.1-1.5,0.3c-1.2,0.4-1.7,0.1-1.6-1.2c0-0.3,0.1-0.6,0.1-0.9c0.4-2.2,0.8-4.4,1.2-6.6c0.2-1.4-0.2-2.2-1.2-2.6
		C131,82.1,130.7,82,130.3,82z"/>
	<path class="st1" d="M133.2,76.7c0-1.7-1.3-3.1-3-3.1c-1.6,0-3,1.3-3,2.9c0,1.7,1.4,3.2,3,3.2C131.8,79.6,133.2,78.3,133.2,76.7z"
		/>
</g>
</svg>
