<?xml version="1.0" encoding="utf-8"?>
<!-- Generator: Adobe Illustrator 24.0.2, SVG Export Plug-In . SVG Version: 6.00 Build 0)  -->
<svg version="1.1" id="Capa_1" xmlns="http://www.w3.org/2000/svg" xmlns:xlink="http://www.w3.org/1999/xlink" x="0px" y="0px"
	 viewBox="0 0 144 144" style="enable-background:new 0 0 144 144;" xml:space="preserve">
<style type="text/css">
	.st0{fill:#01D756;}
	.st1{fill:#F9FDFB;}
</style>
<path class="st0" d="M117,127L86,83.5c-10,8-19.1-3.6-27,0.4c-7,3.6-33,44.6-33,44.6c-3.6,7.7-6,12,1,12h90
	C124,140.5,120.6,134.7,117,127z"/>
<g>
	<path class="st1" d="M61,127.4c0.6-2.2,1.1-4.2,1.7-6.3c0.1-0.4,0.1-0.8-0.1-1.2c-3.9-8,0.3-17,8.9-19.1
		c7.5-1.8,15.1,3.5,16.1,11.2c1.1,7.8-5.1,15.4-13.8,15.1c-1.8-0.1-3.5-0.5-5.1-1.3c-0.5-0.2-0.9-0.3-1.4-0.1
		C65.2,126.3,63.2,126.8,61,127.4z M64.2,124.2c1.3-0.3,2.4-0.6,3.4-0.9c0.5-0.1,0.9-0.1,1.3,0.2c1.4,0.8,2.9,1.3,4.6,1.4
		c7.6,0.5,12.9-6.2,11.8-12.9c-1-6.3-7.5-10.6-13.7-8.9c-7.2,2-10.5,10-6.7,16.5c0.2,0.4,0.3,0.8,0.2,1.2
		C64.8,121.9,64.5,123,64.2,124.2z"/>
	<path class="st0" d="M64.2,124.2c0.3-1.2,0.6-2.3,0.9-3.4c0.1-0.5,0.1-0.8-0.2-1.2c-3.8-6.5-0.6-14.5,6.7-16.5
		c6.2-1.7,12.7,2.6,13.7,8.9c1.1,6.6-4.2,13.4-11.8,12.9c-1.6-0.1-3.2-0.6-4.6-1.4c-0.5-0.3-0.8-0.3-1.3-0.2
		C66.5,123.7,65.4,123.9,64.2,124.2z M77.7,120.3c1.2,0,2.1-0.4,2.8-1.1c1-1,0.8-2.2-0.4-2.8c-0.3-0.2-0.6-0.3-0.9-0.5
		c-1.3-0.6-1.4-0.7-2.3,0.5c-0.5,0.7-1,0.8-1.8,0.4c-1.6-0.8-2.9-2-3.8-3.5c-0.2-0.4-0.3-0.7,0.1-1c0.9-0.8,0.9-1.7,0.3-2.7
		c-0.2-0.3-0.3-0.8-0.5-1.1c-0.4-1-1.6-1.3-2.4-0.5c-1,1-1.5,2.1-1.1,3.5c0.6,2.5,2.3,4.3,4.2,6C73.6,119.1,75.6,120,77.7,120.3z"/>
	<path class="st1" d="M77.7,120.3c-2.1-0.3-4.1-1.2-5.8-2.7c-1.9-1.7-3.5-3.5-4.2-6c-0.4-1.4,0.1-2.6,1.1-3.5
		c0.8-0.8,1.9-0.5,2.4,0.5c0.2,0.4,0.3,0.8,0.5,1.1c0.6,1,0.6,1.9-0.3,2.7c-0.4,0.3-0.3,0.6-0.1,1c0.9,1.5,2.2,2.7,3.8,3.5
		c0.7,0.4,1.2,0.3,1.8-0.4c0.9-1.2,0.9-1.1,2.3-0.5c0.3,0.1,0.6,0.3,0.9,0.5c1.2,0.6,1.4,1.8,0.4,2.8
		C79.8,119.9,78.9,120.3,77.7,120.3z"/>
</g>
<path d="M94.5,45.5h-45c-2.5,0-4.5-2-4.5-4.5v0c0-2.5,2-4.5,4.5-4.5h45c2.5,0,4.5,2,4.5,4.5v0C99,43.5,97,45.5,94.5,45.5z"/>
<path d="M81,45.5v36v2.8l1.6,2.3l34.3,48.8l-89.9,0l34.3-48.8l1.6-2.3v-2.8v-36H81 M90,36.5H54v45l-34.7,49.4
	c-3.6,6,0.7,13.6,7.7,13.6h90c7,0,11.3-7.6,7.7-13.6L90,81.5V36.5L90,36.5z"/>
<circle cx="27" cy="9.5" r="9"/>
<circle cx="49.5" cy="23" r="4.5"/>
</svg>
