<?xml version="1.0" encoding="utf-8"?>
<!-- Generator: Adobe Illustrator 24.0.2, SVG Export Plug-In . SVG Version: 6.00 Build 0)  -->
<svg version="1.1" id="Capa_1" xmlns="http://www.w3.org/2000/svg" xmlns:xlink="http://www.w3.org/1999/xlink" x="0px" y="0px"
	 viewBox="0 0 144 144" style="enable-background:new 0 0 144 144;" xml:space="preserve">
<style type="text/css">
	.st0{fill:#05556D;}
	.st1{fill:#1BB7C8;}
	.st2{fill:#65C2CB;}
</style>
<path class="st0" d="M77.7,47.8H64.5V61c0,5,4,9,9,9h13.2V56.8C86.7,51.9,82.6,47.8,77.7,47.8z"/>
<path class="st1" d="M88.5,53.8V67c0,5,4,9,9,9h13.2V62.8c0-5-4-9-9-9H88.5z"/>
<path class="st0" d="M116.5,116v19c0,5,4,9,9,9h19v-19c0-5-4-9-9-9H116.5z"/>
<path class="st1" d="M50.5,64v8c0,3.3,2.7,6,6,6h8v-8c0-3.3-2.7-6-6-6H50.5z"/>
<path class="st1" d="M0.5,122v12.7c0,5.1,4.2,9.3,9.3,9.3h12.7v-12.7c0-5.1-4.2-9.3-9.3-9.3H0.5z"/>
<path class="st0" d="M90.5,78v10c0,3.3,2.7,6,6,6h10V84c0-3.3-2.7-6-6-6H90.5z"/>
<path class="st0" d="M144.5,0h-32c-9.9,0-18,8.1-18,18v34h32c9.9,0,18-8.1,18-18V0z"/>
<path class="st2" d="M96.5,96h-30v30c0,9.9,8.1,18,18,18h30v-30C114.5,104.1,106.5,96,96.5,96z"/>
<path class="st0" d="M55.5,80H42.3v13.2c0,5,4,9,9,9h13.2V89C64.5,84,60.5,80,55.5,80z"/>
<path class="st1" d="M88.7,71.8H75.5c-5,0-9,4-9,9V94h13.2c5,0,9-4,9-9V71.8z"/>
<path class="st0" d="M64.5,104h-22c-9.9,0-18,8.1-18,18v21.9h22c9.9,0,18-8.1,18-18V104z"/>
<path class="st2" d="M44.5,0l-44,0v44c0,9.9,8.1,18,18,18h44V18C62.5,8.1,54.4,0,44.5,0z"/>
<path class="st1" d="M64.5,35.2v11h11c5,0,9-4,9-9v-11h-11C68.5,26.2,64.5,30.2,64.5,35.2z"/>
</svg>
