<?xml version="1.0" encoding="utf-8"?>
<!-- Generator: Adobe Illustrator 24.0.2, SVG Export Plug-In . SVG Version: 6.00 Build 0)  -->
<svg version="1.1" id="Capa_1" xmlns="http://www.w3.org/2000/svg" xmlns:xlink="http://www.w3.org/1999/xlink" x="0px" y="0px"
	 viewBox="0 0 144 144" style="enable-background:new 0 0 144 144;" xml:space="preserve">
<style type="text/css">
	.st0{fill:#3B9DFF;}
	.st1{font-family:'Courier';}
	.st2{font-size:40.5552px;}
</style>
<rect x="18.5" y="9" width="117" height="126"/>
<text transform="matrix(1 0 0 1 36.5 81)" class="st0 st1 st2">.md</text>
<path class="st0" d="M27.5,144L27.5,144c5,0,9-4,9-9v0v9H27.5z"/>
<path class="st0" d="M135.5,135v9h0c5,0,9-4,9-9v0H135.5z"/>
<rect x="36.5" y="135" class="st0" width="99" height="9"/>
<path d="M27.5,135h-9v0c0,5,4,9,9,9h0V135z"/>
<path d="M27.5,135v9h0c5,0,9-4,9-9v0H27.5z"/>
<path d="M18.5,9L18.5,9c0-5-4-9-9-9h0l9,0L18.5,9z"/>
<path class="st0" d="M9.5,9V0h0c-5,0-9,4-9,9v0H9.5z"/>
<rect x="18.5" transform="matrix(-1 -1.224647e-16 1.224647e-16 -1 145 9)" width="108" height="9"/>
<path d="M126.5,9h9v0c0-5-4-9-9-9h0V9z"/>
<path class="st0" d="M9.5,9h9v0c0-5-4-9-9-9h0V9z"/>
</svg>
