<?xml version="1.0" encoding="utf-8"?>
<!-- Generator: Adobe Illustrator 24.0.2, SVG Export Plug-In . SVG Version: 6.00 Build 0)  -->
<svg version="1.1" id="Capa_1" xmlns="http://www.w3.org/2000/svg" xmlns:xlink="http://www.w3.org/1999/xlink" x="0px" y="0px"
	 viewBox="0 0 144 144" style="enable-background:new 0 0 144 144;" xml:space="preserve">
<style type="text/css">
	.st0{fill:#FFFFFF;}
	.st1{fill:#020203;}
	.st2{fill:#E72378;}
	.st3{fill:#594193;}
	.st4{fill:#FFCE05;}
	.st5{font-family:'TwCenMT-Regular';}
	.st6{font-size:52.8767px;}
</style>
<g>
	<path class="st0" d="M6.2,141.5c-2,0-3.7-1.7-3.7-3.7V18.1c0-2,1.7-3.7,3.7-3.7h131.6c2,0,3.7,1.7,3.7,3.7v119.7
		c0,2-1.7,3.7-3.7,3.7H6.2z"/>
	<path class="st1" d="M137.8,16.9c0.7,0,1.2,0.5,1.2,1.2v119.7c0,0.7-0.5,1.2-1.2,1.2H6.2c-0.7,0-1.2-0.5-1.2-1.2V18.1
		c0-0.7,0.5-1.2,1.2-1.2H137.8 M137.8,11.9H6.2c-3.4,0-6.2,2.8-6.2,6.2v119.7c0,3.4,2.8,6.2,6.2,6.2h131.6c3.4,0,6.2-2.8,6.2-6.2
		V18.1C144,14.7,141.2,11.9,137.8,11.9L137.8,11.9z"/>
</g>
<g>
	<path class="st0" d="M47.5,19v-1.3c0-3.5,2.2-6.5,4.9-6.5h14.1V6c0-2.5,0.7-3.5,4.9-3.5h3.1c4.2,0,4.9,1.1,4.9,3.5v5.1h12.9
		c2.6,0,4.9,3,4.9,6.5V19H47.5z"/>
	<path class="st1" d="M74.4,5c1.4,0,2,0.2,2.3,0.3c0,0.1,0.1,0.4,0.1,0.8v2.6v5h5h10.4c0.8,0,1.9,1.1,2.2,2.8H50.1
		c0.4-1.8,1.4-2.8,2.2-2.8h11.6h5v-5V6c0-0.4,0-0.7,0.1-0.8C69.3,5.2,69.9,5,71.3,5H74.4 M74.4,0h-3.1c-4.1,0-7.4,1-7.4,6v2.6H52.3
		c-4.1,0-7.4,4-7.4,9v3.8h54.6v-3.8c0-5-3.3-9-7.4-9H81.7V6C81.7,1,78.5,0,74.4,0L74.4,0z"/>
</g>
<rect x="112.4" y="25.1" class="st2" width="21.4" height="23.9"/>
<rect x="10.9" y="24.5" class="st3" width="41" height="25.3"/>
<rect x="10.9" y="93.3" class="st2" width="35.7" height="42.7"/>
<rect x="54.5" y="93.3" class="st2" width="35.7" height="21.3"/>
<rect x="54.5" y="118.8" class="st3" width="79.3" height="17.2"/>
<rect x="98.1" y="93.3" class="st4" width="35.7" height="21.3"/>
<rect x="58.1" y="25.1" class="st4" width="47.6" height="36.7"/>
<g>
	<text transform="matrix(1.0424 0 0 1 13.2144 87.4277)" class="st2 st5 st6">block</text>
</g>
</svg>
