<?xml version="1.0" encoding="utf-8"?>
<!-- Generator: Adobe Illustrator 24.0.2, SVG Export Plug-In . SVG Version: 6.00 Build 0)  -->
<svg version="1.1" id="Capa_1" xmlns="http://www.w3.org/2000/svg" xmlns:xlink="http://www.w3.org/1999/xlink" x="0px" y="0px"
	 viewBox="0 0 144 144" style="enable-background:new 0 0 144 144;" xml:space="preserve">
<style type="text/css">
	.st0{fill:#0D484E;}
	.st1{fill:#01AC74;}
	.st2{fill:#02AC75;}
	.st3{fill:#7BC911;}
	.st4{fill:#03AB9E;}
	.st5{fill:#03AD75;}
	.st6{fill:#7CC914;}
</style>
<g>
	<path class="st0" d="M143.7,98c0,0-44.4-13.5-71.4,12.5c-1.2,1.1,0.3,6.5,0.3,6.5l70.7-14.3L143.7,98z"/>
	<path class="st0" d="M0.7,98c0,0,32.8-10.9,71.6,12.5c1.4,0.8,0.3,6.5,0.3,6.5L1.1,102.7L0.7,98z"/>
</g>
<g>
	<path class="st0" d="M136.6,83.8c0,0-54.9-1.2-64.3,21.3c-0.7,1.6-1.3,8.1,0,7c31.5-28.3,63.1-24.2,63.1-24.2L136.6,83.8z"/>
	<path class="st0" d="M7.8,83.8c0,0,35.6-11,64.5,21.3c1.2,1.3,1.3,8.2,0,7C37.4,78.6,9,87.9,9,87.9L7.8,83.8z"/>
</g>
<g>
	<path class="st0" d="M141,90.3c0,0-43.9-11.4-68.7,17.1c-1.1,1.3-1.3,8.1,0,7c31.5-28.7,67.4-20,67.4-20L141,90.3z"/>
	<path class="st0" d="M3.4,90.3c0,0,40.7-11.4,68.9,17.1c1.2,1.2,1.5,7.9,0,7c-41.2-26.1-67.7-20-67.7-20L3.4,90.3z"/>
</g>
<g>
	<path class="st0" d="M93.3,37.1c-7.8,8.6-12,18.9-13.7,30.6c9.8-9.1,21.8-12.3,34.1-14.7c-0.3,0.5-0.9,0.6-1.4,0.8
		c-7.6,2.7-14.7,6.3-20.6,11.9c-6.1,5.8-9.7,12.8-9.6,21.4c0.1,4.9,1.4,9.4,3.7,13.7c0.6,1.1,0.3,1.4-0.7,1.8
		c-4.7,2-9.9,5.4-12.7,9.4c-0.2,0.3,0.2,0.6,0,1c-0.8-1.1,0.9-2.2,0-3.3c-2.7-3.2-7.3-5.7-11.3-7.1c-0.8-0.3-0.9-0.5-0.5-1.3
		c2.5-4.6,4-9.5,3.9-14.7c0-8.2-3.5-14.9-9.2-20.5c-5.1-5-11.2-8.4-17.8-11.1c-0.2-0.1-2.6-0.9-3.7-1.4c-0.4-0.2-0.8-0.3-1.2-0.6
		c12.4,2.3,24.4,5.5,34.3,14.7C65.3,56,61.1,45.7,53.3,37.1l0,0c1.1-0.1,1.9,0.6,2.8,1.1c2.6,1.7,4.6,4.1,6.3,6.6
		c2,2.8,3.9,5.7,5.9,8.5c0.8,1.1,1.7,2.2,2.8,3c1.4,1,2.9,1,4.4,0c1.2-0.8,2.1-1.9,2.9-3.1c2.3-3.2,4.4-6.5,6.8-9.7
		c1.7-2.3,3.6-4.4,6.2-5.8C91.9,37.4,92.5,36.9,93.3,37.1L93.3,37.1z"/>
	<path class="st1" d="M72.4,24.9c-0.9-4.6-2.1-9-4.8-12.9c0.1,0.6,0.1,1.2,0.2,1.8c0,0.7,0.1,1.3,0.1,2c0.1,3.1,0.2,6.2-0.5,9.3
		c-0.1,0.4-0.1,0.8-0.7,0.5c-4-1.9-7.5-4.3-8.7-8.9c-0.8-3-0.2-5.8,0.9-8.6c1.1-2.8,2.7-5.3,4.8-7.5c0.3-0.4,0.6-0.7,1.3-0.4
		c4.4,2.1,8.2,4.8,10.4,9.3C77.7,14.3,76.4,21.1,72.4,24.9z"/>
	<path class="st1" d="M38.5,47.5c-2.9-2.7-5.8-5.2-9.2-6.9c-0.3-0.1-0.6-0.4-1.1-0.2c1.1,1.4,2.2,2.8,3.3,4.2
		c1.2,1.6,2.2,3.3,3.1,5.1c0.4,0.9,0.6,1.4-0.7,1.5c-3.8,0.5-7.5,0.4-10.6-2.2c-2.5-2.1-3.6-4.9-4.2-8c-0.4-2.3-0.4-4.6-0.2-6.9
		c0.1-0.9,0.4-1.4,1.4-1.5c3.5-0.4,7-0.5,10.4,0.8C36.6,35.5,39.5,41.6,38.5,47.5z"/>
	<path class="st2" d="M105.4,58.3c2.8-2.6,7.7-2.6,11.1-0.1c2.4,1.7,3.9,4.2,5.1,6.9c0.2,0.4,0.1,0.7-0.2,0.9
		c-3,2.1-6.1,3.5-9.8,2.7c-3.6-0.7-5.4-3.4-6.8-6.5c-0.4-0.8,0.4-0.6,0.7-0.6c2-0.2,4,0.1,6,0.5c0.7,0.1,1.4,0.2,2.4,0.4
		c-1.5-1.2-2.8-2-4.3-2.5C108.2,59.4,106.8,58.9,105.4,58.3z"/>
	<path class="st3" d="M44.3,20.2c-0.1-3.2-0.3-6.1-1.6-9c-0.3,1.9-0.5,3.6-0.8,5.3c-0.1,0.9-0.4,1.7-0.6,2.5c-0.2,0.6-0.4,0.8-1,0.3
		c-4.6-3.6-5.2-8.7-1.6-13.3c0.7-0.9,1.6-1.8,2.5-2.5c0.4-0.3,0.7-0.4,1.1-0.1c2.6,2.2,4.8,4.7,5.3,8.2C48.3,15.1,47,17.7,44.3,20.2
		z"/>
	<path class="st4" d="M97.4,40.1c3-2.7,7.1-3.1,10.8-1.1c2.5,1.3,4.3,3.3,5.9,5.5c0.4,0.5,0.3,0.9-0.1,1.3
		c-5.1,4.6-11.7,4.8-16.2-1.9c-0.5-0.8,0.1-0.7,0.5-0.8c1.9-0.3,3.9-0.3,5.8-0.1c0.6,0.1,1.2,0.1,2.1,0.2c-1.6-1-3-1.5-4.5-1.9
		C100.5,40.7,99,40.4,97.4,40.1z"/>
	<path class="st2" d="M33.1,67c3,0.6,5.9,0.5,9.1,0.1c-1.4,2.3-3.2,3.7-5.6,4.2c-4.6,1-8.4-0.9-11.9-3.6c-0.5-0.4-0.3-0.7-0.1-1.1
		c3-5.2,8.6-7.8,14.5-4.1c0.7,0.4,1.9,0.8,1.8,1.5c-0.1,0.8-1.3,0.9-2.1,1.2C36.9,66.1,35,66.5,33.1,67z"/>
	<path class="st2" d="M94.9,12.7c-2.7,0.8-4.9,2.4-7.3,4.1c0-2.6,1-4.6,2.9-6.1c3.2-2.6,7-3.1,11-2.7c0.6,0,0.8,0.4,0.7,0.9
		c-0.2,4.9-2.8,9.1-8.7,9.7c-0.9,0.1-1.8,0-2.7,0c-0.3,0-0.6,0.2-0.8-0.2c-0.1-0.3,0.2-0.5,0.3-0.8C91.6,15.9,93.3,14.4,94.9,12.7z"
		/>
	<path class="st2" d="M112.2,30c-2.8,0.8-5.1,2.4-7.6,4.1c-0.1-2.1,0.7-3.7,1.9-5.1c2.2-2.4,5.1-3.3,8.2-3.6c1.1-0.1,2.2,0,3.3,0
		c0.9,0,1.1,0.3,1.1,1.2c-0.1,5.5-4,9.5-9.5,9.5c-0.6,0-1.2,0-1.9,0c-0.9,0-1-0.3-0.5-1c1.3-1.7,2.8-3.2,4.4-4.6
		C111.9,30.3,112.1,30.2,112.2,30z"/>
	<path class="st5" d="M85.4,32.9c-0.4-3,2.1-6.2,5.2-6.8c1.8-0.3,3.5-0.1,5.3,0.3c0.6,0.2,1,0.4,0.9,1.1c-0.2,2.2-0.6,4.3-2.1,6.1
		c-1.9,2.4-4.8,2.3-7.2,1.6c-0.6-0.2-0.3-0.5-0.1-0.9c0.9-1.5,2.2-2.6,3.4-3.9c0.1-0.1,0.2-0.2,0.3-0.3C90.8,30,87,31.9,85.4,32.9z"
		/>
	<path class="st5" d="M65.8,36.6c1,2,1.9,3.8,2.2,5.7c-3.5,0.6-6.5-1.8-6.7-5.2c-0.1-1.5,0-3,0.5-4.4c0.1-0.4,0.3-0.6,0.7-0.7
		c4.1-0.6,8.1,3,8,7.1c0,0.6-0.2,1.3-0.3,2.2C68.8,39.6,67.7,37.9,65.8,36.6z"/>
	<path class="st6" d="M35.9,20.7c-1.8,0.2-3.6,0.2-5.3,1c1.5,0.3,2.9,0.4,4.3,0.8c0.8,0.2,0.9,0.5,0.3,1.1c-2.8,3.3-7.9,2.8-10-1
		c-0.1-0.2-0.2-0.4-0.1-0.7c1.1-2.4,5.3-4.1,8-3.4C34.2,19,35,19.5,35.9,20.7z"/>
	<path class="st6" d="M42.5,37c-0.2-1.9-0.2-3.7-1-5.6c-0.3,1.7-0.4,3.1-0.8,4.5c-0.2,0.9-0.5,0.9-1.2,0.3c-3.2-2.9-2.8-7.7,0.9-10
		c0.3-0.2,0.6-0.3,0.9,0c2,1.8,3.6,3.8,3.4,6.7C44.6,34.5,43.9,35.8,42.5,37z"/>
	<path class="st4" d="M85.2,11c-0.3-1.9-0.2-3.7-1.1-5.7c-0.1,1.8-0.4,3.2-0.7,4.6c-0.2,0.9-0.5,0.9-1.2,0.3
		c-3.3-2.9-2.8-7.8,0.9-10c0.3-0.2,0.5-0.3,0.8-0.1c2.5,1.3,4.2,5.7,3.2,8.3C86.8,9.4,86.2,10.3,85.2,11z"/>
	<path class="st2" d="M54.7,25.4c-0.3-1.8-0.2-3.6-1-5.5c-0.2,1.2-0.3,2.2-0.5,3.1c-0.1,0.5-0.2,1-0.4,1.6c-0.2,0.7-0.5,0.7-1,0.3
		c-2.8-2.4-3.2-5.8-0.7-8.6c2.1-2.4,1.8-2.3,3.9-0.1C57.7,19.1,57.6,22.9,54.7,25.4z"/>
	<path class="st4" d="M121.9,39.5c-1.4-1.2-3.2-1.8-5-2.7c1.9-1.1,3.6-1,5.3-0.2c2.4,1.1,4.1,3,5.4,5.3c0.5,0.8-0.2,0.9-0.6,1.2
		c-3.1,1.7-6.8,0.7-9-2.2c-0.4-0.6-0.9-1.2-1.2-2c1.7-0.1,3.3,0.5,4.9,0.8C121.9,39.8,122,39.6,121.9,39.5z"/>
	<path class="st6" d="M81.6,20c-0.7,0.9-1.1,1.6-1.3,2.4c-0.3,0.7-0.6,1.5-0.8,2.2c-1.4-1.5-1.6-4-0.4-5.9c0.9-1.5,2.3-2.5,3.9-3.2
		c0.4-0.2,0.6-0.2,1,0.2c2.7,3,1.9,7.3-1.7,9.1c-0.7,0.3-0.9,0.3-0.9-0.5C81.2,22.9,81.5,21.6,81.6,20z"/>
	<path class="st4" d="M41.5,77.2c1-1.2,1.3-2.8,2-4.2c1.8,2.2,1.6,5.1-0.6,7.2c-0.5,0.5-1.1,1-1.8,1.4c-1.7,1.1-1.9,1-2.9-0.7
		c-1.7-3.2-0.8-6.3,2.2-7.9c0.8-0.4,1.2-0.4,1.2,0.7c-0.1,1.2-0.2,2.3-0.3,3.5C41.3,77.2,41.5,77.3,41.5,77.2z"/>
	<path class="st5" d="M50.3,78.3c0.8-0.9,1.1-1.7,1.4-2.4c0.3-0.7,0.5-1.4,0.8-2.2c1.5,1.8,1.6,4.3,0.3,6.2c-0.9,1.4-2.2,2.3-3.7,3
		c-0.4,0.2-0.6,0.2-1-0.2c-2.8-2.9-2-7.4,1.7-9.2c0.8-0.4,0.9-0.1,0.9,0.6C50.7,75.5,50.6,76.7,50.3,78.3z"/>
	<path class="st6" d="M107.4,18.1c-0.3,0.7-0.7,1.4-1,2.1c-0.3,0.7-0.6,1.5-0.8,2.2c-1.9-1.9-1.5-5.2,0.8-7.3
		c0.9-0.9,2.1-2.1,3.2-1.8c1.2,0.3,1.5,2,1.9,3.3c0.6,2.6-0.7,5-3.3,6.1c-0.6,0.3-0.7,0-0.7-0.5c-0.1-1.3,0.2-2.6,0.3-3.9
		C107.6,18.2,107.5,18.2,107.4,18.1z"/>
	<path class="st6" d="M88.9,80.8c-1.5-1.1-3.1-1.3-4.6-1.8c1.4-1.8,4.5-1.8,6.3-0.5c0.9,0.6,1.6,1.3,2.2,2.1c1.2,1.7,1.1,1.9-0.7,3
		c-3.1,1.8-6.1,1.1-7.8-1.8c-0.4-0.7-0.4-1.1,0.5-1C86.1,80.8,87.3,80.8,88.9,80.8z"/>
	<path class="st5" d="M92.9,65.7c1.7-1.6,4-1.8,6-0.7c0.6,0.3,1.1,0.8,1.5,1.2c2.2,2.2,2,3.2-0.9,4.4c-2.7,1.1-5.3,0.1-6.6-2.5
		c-0.4-0.7-0.1-0.7,0.5-0.8c1.3-0.2,2.5,0.1,4,0c-0.8-0.6-1.5-0.8-2.2-1C94.4,66.1,93.7,65.9,92.9,65.7z"/>
	<path class="st6" d="M73,30.4c0.3,1.2,1.1,2.2,1.1,3.5c-2.9,0.3-4.9-1.3-5.1-4.2c0-0.2,0-0.3,0-0.5c0-3.4,1.1-4.1,4.2-2.6
		c2.5,1.2,3.6,3.7,2.6,6.2c-0.8-0.9-1.5-2-2.5-2.7C73.1,29.9,72.8,30.3,73,30.4z"/>
	<path class="st5" d="M95.3,77.4c1.5-0.2,2.9,0,4.5,0.3c-1.3-1.2-2.8-1.5-4.3-2.1c1.7-1.1,3.3-1.4,5-0.6c1.7,0.7,2.7,2.1,3.5,3.7
		c0.2,0.5,0.2,0.9-0.3,1.2C100.8,81.9,96.9,81.9,95.3,77.4z"/>
	<path class="st6" d="M60.5,52.2c-1.7,1.5-3.4,1.6-5.3,0.9c-0.7-0.3-1.4-0.7-2-1.3c-1.9-1.9-2.3-2,0.5-3.5c2.4-1.3,5-0.4,6.6,2.3
		c-1.3,0.3-2.5,0.3-4.1,0.3C57.6,51.8,58.9,51.9,60.5,52.2z"/>
	<path class="st6" d="M96.1,52.7c-1.2,0.4-2,1.3-3,1.9c-0.3-2,1-3.8,3-4.5c1-0.3,2.1-0.3,3.2-0.3c0.8,0,1,0.4,1,1.1
		c0,3.7-2.2,5.5-6,5c0.3-1.3,1.4-2,2-3c0.1-0.1,0.4-0.1,0.2-0.3C96.4,52.4,96.2,52.5,96.1,52.7z"/>
	<path class="st4" d="M52.2,33c0.3,0.9,0.8,1.7,1,2.7c0.1,0.5,0,0.6-0.4,0.6c-2.1,0.1-3.8-1.5-3.9-3.6c0-0.2,0-0.3,0-0.5
		c0.1-3.1,0.5-3.3,3.5-2.3c2.3,0.8,3.1,2.9,2.3,5.4c-0.8-0.9-1.3-1.8-2.3-2.4C52.4,32.7,52.2,32.9,52.2,33z"/>
	<path class="st6" d="M47.3,46.9C46.6,46,46.1,45,45,44.1c0.3,1,0.6,1.7,0.8,2.5c0.2,0.7,0.1,1.1-0.8,0.8c-2.6-0.7-3.8-3.7-2.5-6
		c0.1-0.2,0.2-0.4,0.5-0.4C46,41.4,48.6,43.7,47.3,46.9z"/>
	<path class="st5" d="M49.9,66.7c1-0.1,1.4-0.8,2-1.2c0.4,1.8-0.8,3.5-2.8,3.9c-2.3,0.5-3-0.3-2.3-2.6c0.5-1.5,1.6-2.3,3.2-2.4
		c0.3,0,0.6-0.1,0.8,0.2c0.2,0.3-0.1,0.5-0.2,0.8C50.4,65.7,50.2,66.1,49.9,66.7z"/>
	<path class="st6" d="M38.6,56.8c-0.7,0.4-1.6,0-2.4,0.4c0.7,0.6,1.6,0.5,2.5,0.8C38,58.8,37.2,59,36.4,59c-1.2,0-2.2-0.6-3.1-1.4
		c-0.3-0.3-1.1-0.9-0.9-1.4c0.2-0.6,1.2-0.8,1.7-1c1-0.3,1.9,0,2.8,0.4c0.4,0.2,0.8,0.3,1.1,0.6C38.1,56.2,38.7,56.8,38.6,56.8z"/>
	<polygon class="st0" points="93.3,37.1 93.2,37.1 93.3,37.1 	"/>
	<polygon class="st0" points="53.3,37.1 53.4,37.1 53.3,37.1 	"/>
</g>
<g>
	<path class="st0" d="M0,132c0-7.7,6.2-12,13.7-12c4,0,6.9,1.5,8.9,3.3l-2.1,2.5c-2-1.6-4.1-2.6-6.7-2.6c-5.6,0-9.5,3.5-9.5,8.8
		c0,5.2,3.8,8.7,9.4,8.7c3,0,5.5-1.3,7.6-2.9l1.9,2.5c-2.7,2.3-6.1,3.6-9.7,3.6C5.7,144,0,139.6,0,132z"/>
	<path class="st0" d="M33.5,120.6H37l0.4,5.4h0.1c2.6-3.7,6.4-6,10.9-6c1.8,0,3.3,0.2,4.8,0.9l-1,3.3c-1.7-0.5-2.6-0.8-4.5-0.8
		c-3.7,0-7.2,1.7-10.1,6.5v13.4h-4.2V120.6z"/>
	<path class="st0" d="M59.9,132c0-7.4,5.9-12,12.5-12c7.1,0,11.2,4.3,11.2,10.7c0,0.9-0.1,1.7-0.2,2.4H62.6v-3h18.2l-1.1,1.1
		c0-5.4-2.9-8.1-7.4-8.1c-4.5,0-8.5,3.2-8.5,8.9c0,5.9,4.1,8.9,9.6,8.9c2.9,0,5.2-0.8,7.5-2.2l1.5,2.5c-2.4,1.5-5.5,2.7-9.5,2.7
		C65.7,144,59.9,139.6,59.9,132z"/>
	<path class="st0" d="M90.7,132c0-7.7,6.2-12,13.7-12c4,0,6.9,1.5,8.9,3.3l-2.1,2.5c-2-1.6-4.1-2.6-6.7-2.6c-5.6,0-9.5,3.5-9.5,8.8
		c0,5.2,3.8,8.7,9.4,8.7c3,0,5.5-1.3,7.6-2.9l1.9,2.5c-2.7,2.3-6.1,3.6-9.7,3.6C96.4,144,90.7,139.6,90.7,132z"/>
	<path class="st0" d="M120.3,132c0-7.4,5.9-12,12.5-12c7.1,0,11.2,4.3,11.2,10.7c0,0.9-0.1,1.7-0.2,2.4h-20.7v-3h18.2l-1.1,1.1
		c0-5.4-2.9-8.1-7.4-8.1c-4.5,0-8.5,3.2-8.5,8.9c0,5.9,4.1,8.9,9.6,8.9c2.9,0,5.2-0.8,7.5-2.2l1.5,2.5c-2.4,1.5-5.5,2.7-9.5,2.7
		C126.2,144,120.3,139.6,120.3,132z"/>
</g>
<path class="st0" d="M36.7,58"/>
</svg>
