<?xml version="1.0" encoding="utf-8"?>
<!-- Generator: Adobe Illustrator 24.0.2, SVG Export Plug-In . SVG Version: 6.00 Build 0)  -->
<svg version="1.1" id="Capa_1" xmlns="http://www.w3.org/2000/svg" xmlns:xlink="http://www.w3.org/1999/xlink" x="0px" y="0px"
	 viewBox="0 0 144 144" style="enable-background:new 0 0 144 144;" xml:space="preserve">
<style type="text/css">
	.st0{fill:#FF7700;}
	.st1{fill:#FF0077;}
	.st2{fill:#00FF77;}
</style>
<path class="st0" d="M72.5,126h-9l9-9V99l-9-9h-18h-9l-9-9h-18v9v18v9l9,9h-9v9h-9v9h9v-9h9v-9h45v9h9v9h8.9l0.1-9h-9V126z
	 M27.5,117h-9v-9h9V117z M63.5,117h-9v-9h9V117z M36.5,108"/>
<path class="st1" d="M99.5,27h-9l9-9V9l-9-9h-54v27h-9v9h-9v9h9v-9h9v-9h54v9h9v9h9v-9h-9V27z M54.5,18h-9V9h9V18z M81.5,18h-9V9h9
	V18z"/>
<path class="st2" d="M135.5,99v-9h-9l9-9V63l-9-9v-9h-9v9h-18v-9h-9v9l-9,9v18l9,9h-9v9h-9v9h9v-9h9v-9l9,9h18l9-9v9H135.5v9h9v-9
	H135.5z M99.5,81h-9v-9h9V81z M126.5,81h-9v-9h9V81z"/>
</svg>
