<?xml version="1.0" encoding="utf-8"?>
<!-- Generator: Adobe Illustrator 24.0.2, SVG Export Plug-In . SVG Version: 6.00 Build 0)  -->
<svg version="1.1" id="Capa_1" xmlns="http://www.w3.org/2000/svg" xmlns:xlink="http://www.w3.org/1999/xlink" x="0px" y="0px"
	 viewBox="0 0 144 144" style="enable-background:new 0 0 144 144;" xml:space="preserve">
<style type="text/css">
	.st0{fill:none;stroke:#E6E6E6;stroke-width:0;stroke-miterlimit:10;}
	.st1{fill:#4F0F7C;}
	.st2{fill:#2BE269;}
	.st3{fill:#333333;}
	.st4{fill:#E5A07A;}
	.st5{font-family:'Moderna';}
	.st6{font-size:20.1453px;}
</style>
<rect x="0" y="0" class="st0" width="144" height="144"/>
<path class="st1" d="M56.7,52.6H31.6c-5.4,0-9.7-4.4-9.7-9.7V17.7c0-5.4,4.4-9.7,9.7-9.7h25.1c5.4,0,9.7,4.4,9.7,9.7v25.1
	C66.4,48.2,62,52.6,56.7,52.6z"/>
<path class="st1" d="M109.8,52.6H84.8c-5.4,0-9.7-4.4-9.7-9.7V17.7c0-5.4,4.4-9.7,9.7-9.7h25.1c5.4,0,9.7,4.4,9.7,9.7v25.1
	C119.6,48.2,115.2,52.6,109.8,52.6z"/>
<path class="st1" d="M56.7,107.2H31.6c-5.4,0-9.7-4.4-9.7-9.7V72.4c0-5.4,4.4-9.7,9.7-9.7h25.1c5.4,0,9.7,4.4,9.7,9.7v25.1
	C66.4,102.8,62,107.2,56.7,107.2z"/>
<path class="st2" d="M109.8,107.2H84.8c-5.4,0-9.7-4.4-9.7-9.7V72.4c0-5.4,4.4-9.7,9.7-9.7h25.1c5.4,0,9.7,4.4,9.7,9.7v25.1
	C119.6,102.8,115.2,107.2,109.8,107.2z"/>
<polygon class="st3" points="123.8,46.2 123.8,67.5 140.9,56.9 "/>
<polygon class="st3" points="17.1,68.9 17.1,47.7 0,58.3 "/>
<path class="st4" d="M98.4,100.2c0-5.3,0-10.6,0-16c0-2.6,1.3-4.2,3.4-4.2c2.1,0,3.3,1.5,3.3,4.2c0,5,0,10.1,0,15.1
	c0,3,1.2,4.2,4.2,4.2c5.2,0,10.5,0,15.7,0c5.9,0,8.6,5.1,8.4,13.1c0.1,10.7-3.2,14.4-5.5,16.4c-2.1,1.8-2.9,3.8-2.8,6.6
	c0.2,4.3,0.1,4.3-4.3,4.3c-6.9,0-13.9,0-20.8,0c-1.5,0-2-0.4-1.8-1.9c0.8-4.6-1-7.9-4.5-10.9c-3.9-3.4-7.4-7.2-11-10.9
	c-2-2.1-2.2-4.2-0.6-5.9c1.7-1.7,3.8-1.5,5.9,0.6c1.4,1.4,2.9,2.9,4.3,4.3c1.1,1.1,2.4,1.5,3.8,0.8c1.4-0.6,2.1-1.8,2.1-3.3
	C98.4,111.3,98.4,105.7,98.4,100.2z"/>
<text transform="matrix(0.9528 0 0 1 26 35.2119)" class="st2 st5 st6">pick</text>
</svg>
