<?xml version="1.0" encoding="utf-8"?>
<!-- Generator: Adobe Illustrator 24.0.2, SVG Export Plug-In . SVG Version: 6.00 Build 0)  -->
<svg version="1.1" id="Capa_1" xmlns="http://www.w3.org/2000/svg" xmlns:xlink="http://www.w3.org/1999/xlink" x="0px" y="0px"
	 viewBox="0 0 144 144" style="enable-background:new 0 0 144 144;" xml:space="preserve">
<style type="text/css">
	.st0{fill:#FFFFFF;}
	.st1{fill:#DFDFDF;}
	.st2{fill:#FF1C1C;}
	.st3{fill:#DF1818;}
</style>
<g id="Pokéball_1_">
	<g id="Colours">
		<path id="Down" class="st0" d="M72,95.6c-11.4,0-20.9-8.1-23.1-18.8H11c2.7,31.1,28.8,55.5,60.6,55.5s57.9-24.4,60.6-55.5H95.1
			C92.9,87.6,83.4,95.6,72,95.6z"/>
		<path id="Shadow_Down" class="st1" d="M85.5,130.8c25.2-5.9,44.4-27.5,46.7-54h-14.9C115.7,100.9,103.2,121.2,85.5,130.8z"/>
		<path id="Center" class="st0" d="M85.9,72L85.9,72C85.9,72,85.9,72,85.9,72c0-1.7-0.3-3.4-0.9-4.9c-2-5.3-7.1-9-13-9
			s-11.1,3.8-13,9c-0.6,1.5-0.9,3.2-0.9,4.9l0,0h0l0,0c0,1.7,0.3,3.4,0.9,4.9c2,5.3,7.1,9,13,9s11.1-3.8,13-9
			C85.6,75.4,85.9,73.7,85.9,72L85.9,72z"/>
		<path id="Up" class="st2" d="M72,48.4c11.4,0,20.9,8.1,23.1,18.8H133c-2.7-31.1-28.8-55.6-60.6-55.6S14.5,36,11.8,67.1h37.1
			C51.1,56.4,60.6,48.4,72,48.4z"/>
		<path id="Shadow_Up" class="st3" d="M117.2,67.1h15.7c-2.3-26.9-22.1-48.8-48-54.2C102.9,22.4,115.7,42.9,117.2,67.1z"/>
	</g>
	<path id="Line" d="M72.4,11.6c31.8,0,57.9,24.4,60.6,55.5H95.1C92.9,56.4,83.4,48.4,72,48.4s-20.9,8.1-23.1,18.8H11.8
		C14.5,36,40.6,11.6,72.4,11.6z M85,67.1c0.6,1.5,0.9,3.2,0.9,4.9l0,0h0l0,0c0,1.7-0.3,3.4-0.9,4.9c-2,5.3-7.1,9-13,9
		c-6,0-11.1-3.8-13-9c-0.6-1.5-0.9-3.2-0.9-4.9l0,0h0l0,0c0-1.7,0.3-3.4,0.9-4.9c2-5.3,7.1-9,13-9C78,58.1,83.1,61.9,85,67.1z
		 M71.6,132.4c-31.8,0-57.9-24.4-60.6-55.5h37.8C51.1,87.6,60.6,95.7,72,95.7s20.9-8.1,23.1-18.8h37.1
		C129.5,108,103.4,132.4,71.6,132.4z M72,0C32.2,0,0,32.2,0,72s32.2,72,72,72s72-32.2,72-72S111.8,0,72,0z"/>
</g>
</svg>
