<?xml version="1.0" encoding="utf-8"?>
<!-- Generator: Adobe Illustrator 24.0.2, SVG Export Plug-In . SVG Version: 6.00 Build 0)  -->
<svg version="1.1" id="Capa_1" xmlns="http://www.w3.org/2000/svg" xmlns:xlink="http://www.w3.org/1999/xlink" x="0px" y="0px"
	 viewBox="0 0 144 144" style="enable-background:new 0 0 144 144;" xml:space="preserve">
<style type="text/css">
	.st0{fill:#020203;}
	.st1{fill:#EAEAEA;}
	.st2{font-family:'Moderna';}
	.st3{font-size:16.4903px;}
</style>
<g>
	<rect x="9.7" y="117" class="st0" width="27" height="9"/>
	<rect x="108.7" y="117" class="st0" width="27" height="9"/>
	<rect x="27.7" y="135" class="st0" width="90" height="9"/>
	<rect x="18.7" y="126" class="st0" width="108" height="9"/>
	<rect x="36.7" y="72" class="st1" width="72" height="54"/>
	<rect x="27.7" y="81" class="st1" width="90" height="36"/>
	<rect x="18.7" y="63" class="st0" width="108" height="9"/>
	<rect x="18.7" y="72" class="st0" width="18" height="9"/>
	<rect x="108.7" y="72" class="st0" width="18" height="9"/>
	<rect x="27.7" y="54" class="st0" width="90" height="9"/>
	<rect x="0.3" y="9" class="st0" width="18" height="18"/>
	<rect x="18.3" y="0" class="st0" width="9" height="18"/>
	<rect x="27.3" y="0" class="st0" width="18" height="18"/>
	<rect x="9.3" y="0" class="st0" width="18" height="18"/>
	<rect x="9.3" y="18" class="st0" width="18" height="18"/>
	<rect x="0.3" y="18" class="st0" width="18" height="18"/>
	<rect x="9.3" y="27" class="st0" width="18" height="18"/>
	<rect x="27.3" y="27" class="st0" width="18" height="18"/>
	<rect x="27.3" y="18" class="st0" width="18" height="18"/>
	<rect x="36.3" y="18" class="st0" width="18" height="18"/>
	<rect x="36.3" y="27" class="st0" width="18" height="18"/>
	<rect x="45.3" y="18" class="st0" width="18" height="18"/>
	<rect x="36.3" y="0" class="st0" width="18" height="18"/>
	<rect x="36.3" y="9" class="st0" width="27" height="18"/>
	<rect x="45.3" y="9" class="st0" width="18" height="18"/>
	<rect x="27.3" y="0" class="st0" width="27" height="18"/>
	<rect x="117.7" y="72" class="st0" width="18" height="54"/>
	<rect x="99.7" y="27" class="st0" width="9" height="45"/>
	<rect x="9.7" y="72" class="st0" width="18" height="54"/>
	<rect x="0.7" y="90" class="st0" width="9" height="18"/>
	<rect x="135.7" y="90" class="st0" width="9" height="18"/>
	
		<rect x="135.7" y="90" transform="matrix(-1 -1.224647e-16 1.224647e-16 -1 271.4771 197.9339)" class="st0" width="0" height="18"/>
	<circle class="st0" cx="45.7" cy="99" r="9"/>
	<circle class="st0" cx="108.7" cy="27" r="9"/>
	<rect x="81.7" y="36" class="st0" width="9" height="36"/>
	<circle class="st0" cx="81.7" cy="36" r="9"/>
	<circle class="st0" cx="4.8" cy="58.5" r="4.5"/>
	<circle class="st0" cx="99.7" cy="99" r="9"/>
</g>
<text transform="matrix(1 0 0 1 25.5486 28.0784)" class="st1 st2 st3">...</text>
</svg>
