<?xml version="1.0" encoding="utf-8"?>
<!-- Generator: Adobe Illustrator 24.0.2, SVG Export Plug-In . SVG Version: 6.00 Build 0)  -->
<svg version="1.1" id="Capa_1" xmlns="http://www.w3.org/2000/svg" xmlns:xlink="http://www.w3.org/1999/xlink" x="0px" y="0px"
	 viewBox="0 0 144 144" style="enable-background:new 0 0 144 144;" xml:space="preserve">
<style type="text/css">
	.st0{fill:#020203;}
	.st1{fill:#FFFFFF;}
	.st2{fill:#E72987;}
	.st3{font-family:'AllerDisplay';}
	.st4{font-size:16px;}
</style>
<g>
	<path class="st0" d="M135.7,67c0,44.4-28,59.8-62.6,59.8S10.4,115.5,10.4,67c0-36.9,28-56.8,62.6-56.8S135.7,30.1,135.7,67z"/>
	<path class="st0" d="M29.2,33.7c3.8-4.8,9.3-8.1,13.6-12.7c0.7-0.7,1.4-1.5,1.4-2.5c0-1.1-1-2-1.8-2.7c-4.5-3.6-9.4-6.5-14.3-9.4
		c-2.5-1.5-5-3-7.8-3.9s-5.9-1-8.5,0.1C11.1,3,10.4,3.4,10,4C9.4,4.8,9.4,5.8,9.4,6.7C9.2,17.5,13.5,29,16.3,39.4
		c0.1,0.4,0.3,0.9,0.6,1.2c5.3,4,8.8-2,11.5-5.8C28.7,34.4,28.9,34.1,29.2,33.7z"/>
	<path class="st0" d="M117.8,33.7c-3.4-4.8-8.4-8.1-12.3-12.7c-0.6-0.7-1.3-1.5-1.2-2.5c0-1.1,0.9-2,1.7-2.7c4-3.6,8.4-6.5,12.9-9.4
		c2.3-1.5,4.5-3,7-3.9c2.5-0.9,5.3-1,7.7,0.1c0.6,0.3,1.2,0.7,1.6,1.4c0.5,0.8,0.5,1.7,0.5,2.7c0.2,10.8-3.7,22.3-6.2,32.7
		c-0.1,0.4-0.2,0.9-0.6,1.2c-4.8,4-7.9-2-10.3-5.8C118.3,34.4,118,34.1,117.8,33.7z"/>
	<path class="st0" d="M58.1,124.4c-0.3,1.1-2.6,2.7-3.6,3.2c-3.4,1.8-3.8,5.8-6.4,8.4c-3.5,3.7-9.9,6.4-15.1,5.3
		c-5.5-1.3-9.1-6.8-9.8-12.1c-0.4-3,0.6-4.9,1-7.7c1-6.3-1.4-9.2-1.6-12.8c0-0.3,22.1-3.7,26,0.4C51.9,112.4,58.5,123.3,58.1,124.4z
		"/>
	<path class="st0" d="M94,122.5c-0.7,2.5,3,4.6,4,6.7c1.2,2.4,1.7,4.7,3.7,6.8c3.6,3.7,10,6.4,15.2,5.3c5.2-1.2,8.9-6.1,9.8-11.3
		c1.5-8.2-5.1-18.3-1.6-25.2C127.8,99.5,97.5,110,94,122.5z"/>
	<path class="st1" d="M49.4,36.9c2.4,0,4.6,0,7,0c0,1.4,0,2.8,0,4.2c0,1.3,0,2.7,0,4.2c-2.3,0-4.6,0-6.9,0c0,2.4,0,4.6,0,6.9
		c-2.8,0-5.5,0-8.4,0c0-2.2,0-4.4,0-6.8c-2.4,0-4.6,0-6.9,0c0-2.8,0-5.5,0-8.4c2.2,0,4.4,0,6.8,0c0-2.4,0-4.6,0-6.9
		c2.8,0,5.5,0,8.4,0C49.4,32.2,49.4,34.5,49.4,36.9z"/>
	<g>
		<path class="st1" d="M97,44.1c-3.1,0-5.6-2.6-5.5-5.7c0.1-3.1,2.6-5.5,5.7-5.5c3,0.1,5.4,2.6,5.4,5.6
			C102.7,41.6,100.1,44.1,97,44.1z"/>
		<path class="st1" d="M116.6,52.4c0,3.1-2.5,5.6-5.6,5.6c-3.1,0-5.6-2.5-5.6-5.6c0-3,2.5-5.5,5.5-5.5
			C114,46.9,116.6,49.4,116.6,52.4z"/>
	</g>
	<path class="st2" d="M110.7,81.9c0,18.6-17.1,25.1-38.3,25.1s-38.3-4.7-38.3-25.1C34.2,66.4,51.3,58,72.5,58S110.7,66.4,110.7,81.9
		z"/>
	<path class="st0" d="M44.9,62.5c-1.9,1.4-4.4,2.1-6.5,3.4c-0.3,0.2-0.7,0.4-0.8,0.8c-0.1,0.4,0.1,0.9,0.4,1.2
		c1.3,1.8,2.9,3.4,4.4,5c0.8,0.8,1.6,1.7,2.5,2.3c1,0.6,2.1,1,3.2,0.8c0.3,0,0.6-0.1,0.8-0.3c0.3-0.2,0.4-0.6,0.5-0.9
		c1.2-4.1,0.8-8.8,0.8-13c0-0.2,0-0.4-0.1-0.5c-1.6-2.1-3.5-0.2-4.9,1C45.2,62.3,45.1,62.4,44.9,62.5z"/>
	<path class="st0" d="M54,58.4c-2.1,1.2-4.5,1.7-6.8,2.7c-0.3,0.2-0.7,0.4-0.9,0.7c-0.2,0.4,0.1,0.9,0.3,1.3
		c1.1,1.9,2.5,3.7,3.9,5.4c0.7,0.9,1.4,1.8,2.3,2.5s2,1.2,3.1,1.1c0.3,0,0.6-0.1,0.9-0.2c0.3-0.2,0.5-0.6,0.6-0.9
		c1.6-3.9,1.6-8.7,2-12.9c0-0.2,0-0.4-0.1-0.5c-1.4-2.2-3.5-0.5-5,0.5C54.3,58.3,54.2,58.3,54,58.4z"/>
	<path class="st0" d="M96.7,59.6c-2.3-0.5-4.5-1.8-6.9-2.5c-0.4-0.1-0.8-0.2-1.1,0c-0.4,0.2-0.5,0.7-0.6,1.1
		c-0.4,2.2-0.6,4.4-0.7,6.7c-0.1,1.1-0.1,2.3,0.1,3.4c0.2,1.1,0.7,2.2,1.6,2.9c0.2,0.2,0.5,0.4,0.8,0.4c0.4,0,0.7-0.1,1-0.3
		c3.8-1.9,7-5.4,10.1-8.3c0.1-0.1,0.3-0.3,0.3-0.4c0.4-2.6-2.3-2.7-4.1-2.9C97,59.7,96.8,59.7,96.7,59.6z"/>
	<path class="st0" d="M76.1,111.1c2.4-0.3,4.8,0.2,7.3,0.1c0.4,0,0.8-0.1,1.1-0.4c0.3-0.3,0.3-0.8,0.2-1.3c-0.3-2.2-0.9-4.4-1.5-6.5
		c-0.3-1.1-0.6-2.2-1.2-3.2c-0.6-1-1.4-1.9-2.5-2.3c-0.3-0.1-0.6-0.2-0.9-0.1c-0.4,0.1-0.6,0.3-0.9,0.6c-3,3-4.8,7.5-6.8,11.2
		c-0.1,0.2-0.2,0.3-0.1,0.5c0.4,2.6,3,1.8,4.8,1.4C75.7,111.2,75.9,111.2,76.1,111.1z"/>
	<path class="st0" d="M87.1,110.2c2.1-1,4.7-1.3,7-2.2c0.4-0.1,0.8-0.3,0.9-0.7c0.2-0.4,0-0.9-0.2-1.3c-1-2-2.2-3.9-3.5-5.7
		c-0.6-0.9-1.3-1.9-2.1-2.7c-0.8-0.8-1.9-1.4-3-1.4c-0.3,0-0.6,0-0.9,0.2c-0.3,0.2-0.5,0.5-0.7,0.8c-1.9,3.8-2.3,8.6-3.1,12.7
		c0,0.2-0.1,0.4,0,0.5c1.2,2.3,3.4,0.8,5-0.1C86.8,110.3,86.9,110.3,87.1,110.2z"/>
	<path class="st0" d="M95.6,106.6c2.1-1.1,4.6-1.3,6.9-2.3c0.4-0.1,0.7-0.3,0.9-0.7c0.2-0.4,0-0.9-0.2-1.3c-1-2-2.3-3.9-3.5-5.7
		c-0.6-0.9-1.3-1.9-2.1-2.7c-0.8-0.8-1.9-1.3-3.1-1.4c-0.3,0-0.6,0-0.9,0.2c-0.3,0.2-0.5,0.5-0.6,0.9c-1.8,3.8-2.2,8.6-2.9,12.7
		c0,0.2-0.1,0.4,0,0.5c1.2,2.3,3.5,0.7,5-0.2C95.3,106.8,95.4,106.7,95.6,106.6z"/>
	<path class="st0" d="M48.6,105.9c2.3,0.6,4.4,2.1,6.7,3c0.4,0.1,0.8,0.3,1.1,0.1c0.4-0.2,0.6-0.7,0.7-1.1c0.6-2.2,0.9-4.4,1.2-6.6
		c0.2-1.1,0.3-2.3,0.2-3.4c-0.1-1.1-0.5-2.3-1.4-3c-0.2-0.2-0.5-0.4-0.8-0.4c-0.4-0.1-0.7,0.1-1.1,0.2c-3.9,1.6-7.4,4.9-10.7,7.5
		c-0.1,0.1-0.3,0.2-0.3,0.4c-0.6,2.5,2.1,2.8,3.9,3.2C48.3,105.8,48.4,105.9,48.6,105.9z"/>
</g>
<text transform="matrix(1 0 0 1 48.7999 87.321)" class="st0 st3 st4">ahhhh!!</text>
</svg>
