<?xml version="1.0" encoding="utf-8"?>
<!-- Generator: Adobe Illustrator 24.0.2, SVG Export Plug-In . SVG Version: 6.00 Build 0)  -->
<svg version="1.1" id="Capa_1" xmlns="http://www.w3.org/2000/svg" xmlns:xlink="http://www.w3.org/1999/xlink" x="0px" y="0px"
	 viewBox="0 0 144 144" style="enable-background:new 0 0 144 144;" xml:space="preserve">
<style type="text/css">
	.st0{fill:#6CC415;}
	.st1{fill:#97CD00;}
	.st2{fill:#2A2B24;}
	.st3{fill:#00963F;}
	.st4{fill:#48B219;}
	.st5{fill:#3A322B;}
	.st6{fill:#A2D000;}
	.st7{font-family:'Moderna';}
	.st8{font-size:20.6949px;}
</style>
<g>
	<path class="st0" d="M43.2,25.3c-2.3-0.4-3.8-2-3.8-4.3c0-4.8,0-9.6,0-14.3c0-2.5,2-4.4,4.4-4.3c2.5,0,4.4,1.9,4.4,4.4
		c0,4.7,0,9.5,0,14.2c0,2.3-1.5,4-3.8,4.3c0-1.6-0.2-3.2,0.1-4.7c0.1-0.9,1-1.7,1.5-2.5c0.3-0.5,1.1-1,0.3-1.5
		c-0.7-0.4-0.9,0.5-1.2,0.9c-0.2,0.2-0.3,0.5-0.7,0.9c0-2,0.1-3.8,0-5.5c-0.2-2.2,0.3-4.2,1.8-5.9c0.1-0.2,0.3-0.3,0.3-0.5
		c0-0.2,0-0.6-0.2-0.7c-0.1-0.1-0.6,0-0.7,0.1c-0.4,0.4-0.7,1-1.2,1.7c0-0.7,0-1.2,0-1.7c0-0.5,0.2-1.3-0.5-1.3
		c-0.9,0-0.6,0.8-0.6,1.3c0,2,0,4.1,0,6.1c0,0.3,0,0.5-0.2,0.8c-0.3-0.4-0.5-0.9-0.9-1.3c-0.2-0.2-0.6-0.2-0.9-0.4
		c0,0.3-0.1,0.6-0.1,0.9c0,0.1,0.1,0.2,0.1,0.2c1.7,1.8,2,3.9,1.9,6.3C43.1,20.8,43.2,23,43.2,25.3z"/>
	<path class="st1" d="M55.9,12c0-0.9,0.1-1.6,0-2.3c0-0.3-0.4-0.5-0.6-0.8c-0.2,0.3-0.5,0.5-0.5,0.8c0,2.1,0,4.1,0,6.2
		c0,0.1,0,0.2,0,0.5c-0.3-0.3-0.4-0.6-0.7-0.7c-0.2-0.1-0.6-0.2-0.7-0.1c-0.2,0.1-0.1,0.5-0.2,0.7c0,0,0.1,0.1,0.1,0.1
		c1.7,1.5,1.5,3.5,1.5,5.5c0,0.4,0,0.7,0,1.1c-1.2-0.2-2.1-1.1-2.1-2.4c0-3.8,0-7.6,0-11.4c0-1.4,1.2-2.5,2.6-2.5
		c1.5,0,2.7,1.1,2.7,2.5c0,3.8,0,7.6,0,11.4c0,1.2-0.9,2.1-2.1,2.3c0-2.9-0.1-5.8,0-8.7c0-0.6,0.6-1.1,1-1.6
		c0.2-0.3,0.4-0.5,0.5-0.7c0.1-0.2,0-0.5-0.1-0.6c-0.2-0.1-0.5-0.1-0.7,0C56.4,11.4,56.2,11.7,55.9,12z"/>
	<path class="st1" d="M32.8,23c0-1.5,0-2.8,0-4.2c0-0.4,0.3-0.7,0.4-1c0.2-0.3,0.4-0.5,0.6-0.8c0.2-0.4,1-0.8,0.3-1.3
		c-0.2-0.2-0.9,0.2-1.4,0.4c0-0.4,0-1.1,0-1.7c0-1.5,0-3,0-4.5c0-0.5,0-1-0.6-0.9c-0.2,0-0.5,0.6-0.5,0.9c-0.1,0.7,0,1.3,0,2
		c-0.1-0.1-0.2-0.1-0.2-0.1c-0.3-0.4-0.6-1.1-1.2-0.6c-0.6,0.5,0,0.9,0.3,1.3c0.8,0.9,1.2,1.8,1.1,3.1c-0.1,2.5,0,4.9,0,7.4
		c-1.2-0.1-2.1-1.1-2.1-2.5c0-1.4,0-2.8,0-4.2c0-2.2,0-4.3,0-6.5c0-1.8,1.1-3.1,2.7-3c1.6,0,2.7,1.2,2.7,3c0,3.5,0,7.1,0,10.6
		C35,21.7,34.2,22.7,32.8,23z"/>
	<path class="st2" d="M54.8,24.4c0.4,0,0.6,0,1.1,0c0,0.8,0,1.7,0,2.5c0,1.8,0,3.5,0,5.3c0,0.3-0.3,0.6-0.5,0.9
		c-0.2-0.3-0.5-0.6-0.5-0.8C54.8,29.6,54.8,27,54.8,24.4z"/>
	<path class="st2" d="M31.7,24.4c0.4,0,0.6,0,1,0c0,1.4,0,2.7,0,4.1c0,1.3,0,2.6,0,3.9c0,0.2-0.3,0.5-0.5,0.7
		c-0.2-0.2-0.5-0.4-0.5-0.6C31.7,29.8,31.7,27.1,31.7,24.4z"/>
	<path class="st2" d="M43.3,26.5c0.4,0,0.7,0,1,0c0,2,0,4,0,5.9c0,0.2-0.3,0.4-0.5,0.6c-0.2-0.2-0.5-0.4-0.5-0.6
		C43.3,30.5,43.3,28.6,43.3,26.5z"/>
</g>
<g>
	<path class="st3" d="M54.3,43c-0.7,0-1.3,0-1.9,0c-0.8-0.1-1.4-0.3-1.7-1.3c-0.2-0.7-0.8-1.5-1.4-1.9c-1-0.6-1.1-1.4-1-2.4
		c0.3-2.4,2.1-4,4.4-4.3c0.3,0,0.8-0.3,1-0.6c1.9-3.6,7.1-3.5,8.9,0c0.2,0.3,0.6,0.6,1,0.6c2.8,0.3,4.7,2.6,4.5,5.4
		c0,0.4-0.4,0.7-0.6,1c-0.6,0.7-1.4,1.3-1.7,2.1c-0.3,0.8-0.8,1.1-1.6,1.2c-0.4,0.1-0.9,0-1.3,0.1c-0.5,0-0.7-0.2-0.8-0.7
		c-0.4-1.9-2-3.2-3.8-3.2c-1.9,0-3.4,1.4-3.8,3.3C54.4,42.7,54.3,42.8,54.3,43z"/>
	<path class="st2" d="M56.6,52.4c-1.8,0-3.5,0-5.2,0c-2.4-0.1-4.4-2-4.6-4.3c0.3,0,0.6,0,0.9,0c0.1,0.4,0.2,0.8,0.4,1.1
		c0.7,1.2,1.6,2.1,3.1,2.2c1.8,0.1,3.5,0,5.4,0c0-1.1,0-2.1,0-3.2c1.1,0,2.1,0,3.2,0c0,1.1,0,2.1,0,3.2c2,0,3.8,0.1,5.7,0
		c1.8-0.2,2.8-1.4,3.2-3.2c0.3,0,0.6,0,1,0c-0.1,2.3-2.2,4.2-4.6,4.3c-1.4,0-2.8,0-4.2,0c-0.3,0-0.6,0-1,0.1c0,2.4,0,4.7,0,7
		c-1.1,0-2.1,0-3.2,0C56.6,57.2,56.6,54.9,56.6,52.4z"/>
	<path class="st3" d="M69.3,46.9c-0.7,0-1.4,0-2.2,0c-0.8,0-1.3-0.4-1.6-1.1c-0.2-0.7,0-1.3,0.5-1.8c0.3-0.3,0.5-0.7,0.5-1
		c0.1-1.5,1.3-2.7,2.8-2.6c1.5,0,2.5,1.1,2.7,2.6c0,0.4,0.2,0.8,0.5,1.1c0.5,0.6,0.8,1.2,0.5,1.9c-0.3,0.7-0.8,1-1.5,1
		C70.7,46.9,70,46.9,69.3,46.9z"/>
	<path class="st3" d="M58.2,46.9c-0.7,0-1.4,0-2.2,0c-0.8,0-1.3-0.4-1.6-1.1c-0.2-0.7,0-1.3,0.5-1.8c0.3-0.3,0.5-0.7,0.5-1
		c0.2-1.5,1.3-2.6,2.7-2.6c1.5,0,2.6,1.1,2.8,2.6c0,0.4,0.2,0.8,0.5,1.1c0.6,0.6,0.7,1.2,0.5,1.9c-0.3,0.7-0.8,1-1.5,1
		C59.7,46.9,58.9,46.9,58.2,46.9C58.2,46.9,58.2,46.9,58.2,46.9z"/>
	<path class="st3" d="M47.2,46.9c-0.7,0-1.4,0-2.1,0c-0.9,0-1.3-0.4-1.6-1.2c-0.3-0.7-0.1-1.3,0.5-1.8c0.2-0.2,0.4-0.6,0.4-0.9
		c0.1-1.5,1.2-2.7,2.6-2.7c1.7,0,2.7,1,2.9,2.7c0,0.3,0.3,0.7,0.5,1c0.6,0.6,0.7,1.2,0.5,1.9c-0.3,0.7-0.8,1-1.5,1
		C48.7,46.9,47.9,46.9,47.2,46.9z"/>
</g>
<g>
	<path class="st0" d="M44.9,62.8c-2-0.3-3.2-1.5-3.2-3.3c0-1.8,1.1-3,3.2-3.3c0.2-1.1,0.5-2.3,1.7-2.8c1.3-0.5,2.2-1.2,3.1-2.1
		c1.4-1.2,3.7-0.7,4.6,0.9c0.3,0.4,0.5,0.7,1.1,0.8c1.5,0.2,2.4,1.2,2.8,3.2c2.1,0.4,3.3,1.6,3.3,3.3c0,1.7-1.1,2.9-3.3,3.4
		c-0.2,1.7-1,3-2.8,3.1c-1.4,0.1-2.9,0-4.4,0c-0.7,0-1.5-0.2-2.3,0c-1.4,0.4-2.9-0.5-3.5-1.8C45.2,63.8,45.1,63.3,44.9,62.8z"/>
	<path class="st2" d="M49.3,73.2c-1.4,0-2.8,0.1-4.1,0c-1.3-0.1-2.2-0.8-2.8-2.1c0.6-0.1,1.1-0.2,1.6,0.4c0.3,0.3,0.8,0.6,1.2,0.6
		c1.3,0.1,2.7,0,4.2,0c0-1-0.1-2.1,0-3.1c0-0.5,0.4-0.9,0.6-1.4c0.3-0.8,0.8-0.5,1.3-0.4c0.5,0,0.9-0.1,1.4-0.1
		c1.8,1.3,0.8,3.3,1.1,5c1.4,0,2.9,0,4.4,0c0.3,0,0.6-0.3,0.9-0.5c0.4-0.2,0.9-0.5,1.5-0.8c-0.4,1.5-1.5,2.4-2.8,2.4
		c-0.7,0-1.3,0-2,0c-0.7,0-1.3,0-2,0c0,2.8,2.5,5.8,5.9,6.1c0.1,0,0.2,0,0.4,0c0.8,0,1.3,0.3,1.4,1.1c0,0.7-0.5,1.1-1.5,1
		c-2.2-0.1-4-0.9-5.6-2.3c-0.2-0.1-0.3-0.3-0.6-0.5c0,1,0,1.9,0,2.8c-1.5,0-2.9,0-4.4,0c0-0.9,0-1.8,0-2.8c-0.3,0.2-0.5,0.4-0.6,0.5
		c-1.6,1.5-3.5,2.3-5.8,2.4c-0.7,0-1.3-0.2-1.3-1c-0.1-0.7,0.4-1.1,1.3-1.2c3.2-0.2,5.7-2.3,6.3-5.3C49.3,73.9,49.3,73.6,49.3,73.2z
		"/>
	<path class="st0" d="M40.6,62.3c0.1-0.4,0.2-0.6,0.3-1.1c0.7,1.4,1.7,2.2,3,2.6c0.1,0,0.2,0.3,0.3,0.4c0.8,2,2.3,3,4.4,3
		c0.1,0,0.2,0,0.3,0.1c-0.9,0.1-1.1,0.9-1.4,1.5c-0.5,1-1.6,1.3-2.6,0.9c-0.2-0.1-0.6-0.3-0.7-0.2c-0.8,0.5-1.6,0.4-2.5,0
		c-0.1-0.1-0.4,0.1-0.6,0.1c-1.4,0.5-2.6,0-3-1.5c-0.1-0.2-0.3-0.5-0.5-0.6c-0.8-0.3-1.2-0.8-1.2-1.6c0-0.7,0.4-1.3,1.2-1.5
		c0.2-0.1,0.4-0.2,0.5-0.4C38.6,62.6,39,62.3,40.6,62.3z"/>
	<path class="st0" d="M54.5,67.4c2.3-0.1,3.9-1,4.7-3.2c0.1-0.1,0.2-0.3,0.3-0.4c1.3-0.4,2.2-1.3,2.9-2.6c0.1,0.5,0.2,0.8,0.3,1.1
		c1.7,0.1,2.1,0.4,2.7,1.9c0.1,0.2,0.3,0.3,0.5,0.4c0.7,0.3,1.1,0.8,1.2,1.5c0,0.8-0.4,1.3-1.1,1.6c-0.2,0.1-0.5,0.4-0.6,0.6
		c-0.5,1.4-1.6,1.9-3,1.5c-0.3-0.1-0.7,0-1.1,0c-1.4,0-2.9,0.1-4.3,0c-0.4,0-1-0.6-1.2-1C55.5,68.1,55.2,67.6,54.5,67.4z"/>
</g>
<g>
	<path class="st0" d="M58.2,81.3c-3.1,0-6.1,0-9.2,0c-2.5,0-4.5-1.4-5.3-3.7c-0.8-2.3,0-4.7,1.9-6.2c0.3-0.2,0.6-0.7,0.5-1.1
		c-0.2-3.3,2.1-5.9,5.4-6c0.9,0,1.2-0.2,1.3-1.2c0.1-2.6,2.4-4.8,4.9-4.9c2.9-0.2,5.3,1.6,5.9,4.3c0,0.1,0,0.1,0,0.2
		c0.3,1.5,0.3,1.5,1.8,1.6c3,0.3,5.1,2.8,4.9,5.7c0,0.6,0.1,1,0.6,1.4c1.9,1.5,2.6,3.9,1.8,6.2c-0.8,2.2-2.8,3.6-5.2,3.6
		C64.5,81.3,61.3,81.3,58.2,81.3z"/>
	<path class="st0" d="M56.7,87.8c0-1.8,0-3.5,0-5.3c1,0,2,0,3.1,0c0,1.7,0,3.5,0,5.3C58.8,87.8,57.8,87.8,56.7,87.8z"/>
	<path class="st0" d="M64.7,82.3c-0.3,1.8-1.7,2.8-3.6,2.7c0-0.3,0-0.5-0.1-1c1.2,0,2.2-0.4,2.7-1.6C63.8,82.4,64.3,82.4,64.7,82.3z
		"/>
	<path class="st0" d="M52.6,82.6c-0.1-0.2-0.2-0.2-0.4-0.2c0,0-0.4,0.1-0.4,0.1c0.4,1.9,2,2.9,3.7,2.5c0-0.1,0.1-0.4,0-0.5
		c0,0,0-0.1-0.1-0.1c-0.1,0-0.3,0-0.4,0C53.6,84.2,52.8,83,52.6,82.6z"/>
</g>
<g>
	<path class="st1" d="M112.9,24.1c-7.5,3.8-15,3.8-22.5,0c1.4-1.6,2.7-3.3,4.1-4.8c0.1-0.1,0.5-0.2,0.8-0.1c4.3,1.7,8.5,1.6,12.7,0
		c0.2-0.1,0.6,0,0.7,0.1C110.2,20.9,111.5,22.5,112.9,24.1z"/>
	<path class="st1" d="M109.6,17.3c-5.4,2.7-10.6,2.7-15.9,0c1.2-1.5,2.4-2.9,3.6-4.3c0.1-0.1,0.5-0.2,0.7-0.1c2.4,0.7,4.8,0.7,7.3,0
		c0.2-0.1,0.6,0,0.8,0.2C107.2,14.4,108.4,15.8,109.6,17.3z"/>
	<path class="st1" d="M107.4,10.7c-3.9,1.9-7.6,2-11.5,0c1.9-2.3,3.8-4.6,5.7-7C103.6,6.1,105.5,8.4,107.4,10.7z"/>
	<path class="st2" d="M100.1,28.2c1,0,2.1,0,3.1,0c0,1.6,0,3.2,0,4.8c-1.1,0-2,0-3.1,0C100.1,31.4,100.1,29.8,100.1,28.2z"/>
</g>
<g>
	<path class="st3" d="M79,40.9c0-1.3-0.1-2.6,0-3.9c0.4-2.8,2.7-4.9,5.5-5.2c0.8-0.1,1.2-0.4,1.4-1.1c1.1-3.4,4.3-5.6,7.8-5.5
		c3.6,0,6.6,2.3,7.7,5.7c0.2,0.7,0.5,0.9,1.2,0.9c3.5,0.3,5.8,2.9,5.8,6.5c0,1.9,0,3.8-0.1,5.7c0,0.3-0.3,0.6-0.5,0.8
		c-0.2-0.3-0.4-0.5-0.4-0.8c-0.1-0.9-0.1-1.9-0.1-2.8c0-1-0.7-1.8-1.7-1.8c-0.9,0-1.6,0.7-1.6,1.8c0,2.1,0,4.2,0,6.3
		c0,0.3-0.3,0.5-0.5,0.7c-0.2-0.2-0.5-0.5-0.5-0.7c-0.1-2-0.1-4-0.1-5.9c0-1.3-0.7-2.1-1.7-2.1c-1,0-1.7,0.8-1.7,2.1
		c0,0.9,0,1.7,0,2.6c0,0.3-0.3,0.5-0.4,0.8c-0.2-0.2-0.5-0.5-0.6-0.7c-0.1-1,0-1.9,0-2.9c0-1.2-0.6-1.9-1.8-1.9c-2.1,0-4.1,0-6.2,0
		c-1.2,0-1.9,0.6-1.9,1.9c0,1,0,1.9,0,2.9c0,0.2-0.3,0.5-0.5,0.7c-0.2-0.2-0.5-0.5-0.5-0.7c-0.1-0.9,0-1.8,0-2.7
		c0-1.3-0.6-2.1-1.7-2.1c-1,0-1.6,0.8-1.6,2.1c0,1.9,0,3.8,0,5.8c0,0.3-0.3,0.9-0.5,0.9c-0.6,0.1-0.5-0.5-0.5-0.9c0-2,0-4,0-5.9
		c0-1.5-1.3-2.3-2.4-1.7c-0.7,0.4-0.9,1-0.9,1.7c0,0.9,0,1.9,0,2.8c0,0.3-0.3,0.5-0.5,0.8c-0.2-0.3-0.4-0.5-0.5-0.8c0,0,0-0.1,0-0.1
		c0-1.1,0-2.1,0-3.2C79,40.9,79,40.9,79,40.9z"/>
	<path class="st2" d="M92.2,40.6c1.1,0,2.1,0,3.2,0c0,0.3,0.1,0.5,0.1,0.8c0,3.1,0,6.1,0,9.2c0,2.1,1.1,3.2,3.2,3.2
		c0.5,0,1.1,0,1.7,0c0,0.4,0,0.7,0,1c-1.7,0.1-3.4,0.3-4.8-1c-0.2-0.2-0.5-0.3-0.8-0.4c-0.1,0.3-0.3,0.6-0.4,0.9
		c0,0.1,0,0.3-0.1,0.5c-0.3,0-0.6,0-0.9,0c0-0.3,0-0.6-0.1-0.8c-0.1-0.7-0.6-0.9-1-0.4c-1.4,1.5-3.2,1.3-5,1.2c0-0.3,0-0.6,0-1
		c0.6,0,1.2,0,1.8,0c2,0,3.1-1.1,3.1-3.2c0-3,0-6.1,0-9.1C92.2,41.3,92.2,41,92.2,40.6z"/>
</g>
<g>
	<path class="st3" d="M116.4,32.3c0.5,1.4,1,2.6,1.5,3.9c0.8-1.1,1.6-2.2,2.5-3.4c0.2,1.5,0.3,2.7,0.5,4.2c1.1-0.9,2.1-1.7,3.2-2.6
		c-0.2,1.4-0.4,2.7-0.6,4.1c1.3-0.6,2.5-1.1,3.8-1.7c-0.6,1.3-1.1,2.5-1.7,3.8c1.4-0.2,2.7-0.4,4.1-0.6c-0.9,1.2-1.7,2.1-2.6,3.2
		c1.4,0.2,2.7,0.3,4.1,0.5c-1.2,0.9-2.2,1.6-3.3,2.5c1.2,0.5,2.3,0.9,3.6,1.4c-10.1,0-20,0-30.1,0c1.3-0.5,2.4-0.9,3.6-1.4
		c-1.1-0.8-2.1-1.6-3.3-2.5c1.4-0.2,2.7-0.3,4.1-0.5c-0.9-1.1-1.7-2.1-2.6-3.2c1.4,0.2,2.7,0.4,4.1,0.6c-0.6-1.3-1.1-2.5-1.7-3.8
		c1.3,0.6,2.5,1.1,3.8,1.7c-0.2-1.4-0.4-2.6-0.6-4.1c1.1,0.9,2.1,1.7,3.2,2.6c0.2-1.4,0.3-2.7,0.5-4.1c0.9,1.2,1.6,2.2,2.5,3.3
		C115.4,34.8,115.9,33.7,116.4,32.3z"/>
	<path class="st2" d="M118,64.1c-1.1,0-2.1,0-3.2,0c0-0.3,0-0.6,0-0.9c0-2.9,0-5.7,0-8.6c0-0.6-0.2-1-0.8-1.3
		c-2.7-1.3-5.4-2.7-8.1-4.1c-0.2-0.1-0.5-0.3-0.8-0.5c2.7-0.5,4.4,1.4,6.7,2c-0.7-0.6-1.4-1.2-2.1-1.8c0.9-0.4,1.5-0.3,2.1,0.3
		c0.9,1,1.9,1.9,3,3.1c0-1.3,0-2.4,0-3.6c1.2,0,2.2,0,3.3,0c0,1.1,0,2.2,0,3.6c1.1-1.1,2-2,2.9-2.9c0.6-0.7,1.2-0.9,2.2-0.7
		c-0.8,0.6-1.4,1.1-2.1,1.7c0.1,0.1,0.2,0.2,0.3,0.3c2.1-0.6,3.9-2.6,6.5-2c-2.2,1.1-4.3,2.2-6.4,3.2c-0.8,0.4-1.7,0.9-2.5,1.2
		c-0.7,0.3-0.9,0.7-0.9,1.5c0,2.8,0,5.5,0,8.3C118,63.3,118,63.7,118,64.1z"/>
</g>
<g>
	<path class="st3" d="M110.3,56.2c-4.8,1.6-7.8,7-4.6,12.6c-4.8,3-11.5,1.1-14.3-4.1c-2.8-5.2-0.6-12,4.6-14.3
		C101.7,47.8,108.2,50.4,110.3,56.2z"/>
	<path class="st1" d="M112.6,71.3c-3.9,0-7.1-3.2-7.1-7.1c0-4,3.1-7.2,7.1-7.2c4,0,7.2,3.2,7.2,7.1
		C119.7,68.1,116.6,71.3,112.6,71.3z"/>
	<path class="st2" d="M102.1,79c-1.1,0-2.1,0-3.2,0c0-2.6,0-5.1,0-7.6c1,0,2.1,0,3.2,0C102.1,73.9,102.1,76.4,102.1,79z"/>
	<path class="st2" d="M113.6,79c-0.7,0-1.4,0-2,0c0-2.2,0-4.3,0-6.5c0.7,0,1.3,0,2,0C113.6,74.6,113.6,76.7,113.6,79z"/>
</g>
<g>
	<path class="st3" d="M76.2,10.3c-2.7,0-4.2,1-4.7,3c-0.5,1.9,0.4,3.5,2.7,4.7c-2.1,3.4-7.7,5.1-11.8,3c1-2.1,0.9-3.7-0.3-5
		c-1.3-1.3-2.8-1.6-5-0.7c-1-3.2-0.7-6.3,1.3-9.1c2.3-3.3,6.4-4.8,10.3-3.9C72.5,3.2,75.5,6.3,76.2,10.3z"/>
	<path class="st2" d="M68,22.9c0,2.9,0,5.8,0,8.8c-1.1,0-2.1,0-3.1,0c0-2.9,0-5.8,0-8.8C65.9,22.9,67,22.9,68,22.9z"/>
	<path class="st3" d="M75.2,16.8c-1.5,0-2.8-1.3-2.7-2.8c0-1.5,1.3-2.7,2.8-2.7c1.5,0,2.7,1.2,2.7,2.7C78,15.7,76.8,16.9,75.2,16.8z
		"/>
	<path class="st3" d="M62,18.6c0,1.5-1.2,2.7-2.7,2.7c-1.6,0-2.8-1.3-2.7-2.9c0-1.5,1.3-2.7,2.8-2.6C60.9,15.8,62,17.1,62,18.6z"/>
	<path class="st2" d="M63.6,25.2c0,0.3,0,0.6,0,0.9c-2.5,0.6-5.1-1.2-5.4-3.7c0.6,0,1,0,1.2,0.8c0.3,1.2,1.4,1.6,2.5,1.8
		C62.5,25.1,63,25.1,63.6,25.2z"/>
</g>
<g>
	<path class="st3" d="M122.4,2.4c0.9,1.3,1.8,2.6,2.7,3.9c-1.8,0-3.6,0-5.4,0C120.6,5,121.4,3.7,122.4,2.4z"/>
	<g>
		<path class="st2" d="M123.4,31.7c-0.7,0-1.3,0-2,0c0-3.6,0-7.2,0-10.9c0.7,0,1.3,0,2,0C123.4,24.4,123.4,28,123.4,31.7z"/>
		<path class="st3" d="M126.6,19.5c-2.9,0-5.6,0-8.5,0c0.9-1.1,1.7-2.2,2.7-3.1c0.3-0.3,1.1-0.1,1.7-0.2c1.2-0.2,2,0.3,2.6,1.2
			C125.4,18.2,126,18.8,126.6,19.5z"/>
		<path class="st2" d="M110.9,23.5c0.7,0,1.3,0,2,0c0,2.7,0,5.4,0,8.1c-0.6,0-1.3,0-2,0C110.9,28.9,110.9,26.2,110.9,23.5z"/>
		<path class="st2" d="M133.9,31.7c-0.7,0-1.3,0-2,0c0-2.7,0-5.4,0-8.2c0.7,0,1.3,0,2,0C133.9,26.2,133.9,28.9,133.9,31.7z"/>
		<path class="st3" d="M136.6,22.3c-2.6,0-5,0-7.6,0c0.8-1,1.5-2,2.2-2.9c0.1-0.2,0.5-0.3,0.7-0.3c2.2-0.1,2.2-0.1,3.5,1.7
			C135.8,21.2,136.2,21.7,136.6,22.3z"/>
		<path class="st3" d="M115.7,22.3c-2.6,0-5,0-7.5,0c0.8-1.1,1.5-2.1,2.3-3c0.2-0.2,0.7-0.1,1-0.2c1.4-0.3,2.3,0.2,3,1.5
			C114.7,21.1,115.2,21.6,115.7,22.3z"/>
		<path class="st3" d="M126.2,15.1c-2.6,0-5,0-7.6,0c0.8-1.1,1.5-2.1,2.3-3c0.1-0.2,0.5-0.2,0.7-0.2c1.5-0.3,2.7,0.1,3.4,1.6
			C125.2,14,125.7,14.5,126.2,15.1z"/>
		<path class="st3" d="M108.6,17.9c0.7-1.1,1.3-2.1,2.1-3c0.4-0.5,2.4-0.2,2.8,0.3c0.6,0.9,1.2,1.8,1.8,2.8
			C113,17.9,110.9,17.9,108.6,17.9z"/>
		<path class="st3" d="M136.1,17.9c-2.2,0-4.3,0-6.6,0c0.8-1.1,1.4-2.2,2.2-3.2c0.4-0.5,2.4,0,2.7,0.5c0.5,0.8,1.1,1.6,1.6,2.4
			C136,17.7,136,17.7,136.1,17.9z"/>
		<path class="st3" d="M125.6,10.7c-2.1,0-4.2,0-6.5,0c0.7-1.1,1.3-2.1,2.1-3.1c0.4-0.5,2.5-0.1,2.8,0.4c0.5,0.8,1.1,1.7,1.6,2.5
			C125.6,10.6,125.6,10.6,125.6,10.7z"/>
		<path class="st3" d="M114.6,13.5c-1.9,0-3.6,0-5.5,0c0.9-1.3,1.8-2.6,2.7-3.9C112.8,10.8,113.7,12.1,114.6,13.5z"/>
		<path class="st3" d="M132.8,9.6c0.9,1.3,1.8,2.5,2.7,3.9c-1.9,0-3.6,0-5.4,0C131,12.1,131.9,10.9,132.8,9.6z"/>
	</g>
</g>
<g>
	<path class="st4" d="M88.5,36.5c-1.9-1.3-3.3-1.2-5,0.9c-0.3-0.4-0.6-0.8-0.8-1.2c-0.3-0.5-0.7-0.5-1.1-0.1c-1.7,2.3-5.3,2.2-7,0
		c-0.4-0.5-0.8-0.4-1.1,0.1c-1.6,2.4-5.5,2.2-6.7-0.7c-0.1-0.2-0.5-0.4-0.7-0.5c-1.5-0.5-2.5-1.5-2.8-3.1c-0.3-1.7,0.4-3,1.8-3.9
		c0.3-0.2,0.6-0.5,0.9-0.9c0.6-0.8,1.3-1.4,2.2-1.7c0.3-0.1,0.7-0.4,0.9-0.7c0.9-1.6,2.3-2.4,4.2-2.1c0.7,0.1,0.9-0.1,1.1-0.7
		c0.6-1.7,2-2.7,3.6-2.7c1.7,0,3.1,1,3.7,2.8c0.2,0.6,0.4,0.7,1,0.6c1.9-0.3,3.3,0.4,4.3,2.1c0.2,0.3,0.5,0.6,0.8,0.7
		c1,0.3,1.7,0.9,2.3,1.8c0.2,0.3,0.5,0.6,0.8,0.8c1.4,0.9,2.1,2.1,1.9,3.7c-0.2,1.7-1.2,2.7-2.8,3.3C89.5,35.3,89.1,36,88.5,36.5z"
		/>
	<path class="st2" d="M80.3,45.5c1.3,0.2,2.6-0.2,3.6-0.9c0.5-0.4,0.9-0.9,1.3-1.4c0.2-0.4,0.4-1.4,0.9-1.4c0.2,0,0.4,0,0.5,0.1
		c0,0,0.1,0,0.1,0.1c0,0,0,0.1,0,0.1c0,0.2-0.1,0.5-0.2,0.7c-0.5,1.2-1.2,2.3-2.3,3c-0.5,0.3-1.1,0.6-1.8,0.8
		c-0.2,0-2.1,0.4-2.1,0.3c0,0.7,0,1.4,0,2.1c-1.5,0-2.9,0-4.3,0c0-3.4,0-6.8,0-10c1.4,0,2.8,0,4.3,0C80.3,41,80.3,43.2,80.3,45.5z"
		/>
	<path class="st4" d="M82.7,39.9c0.1-0.5,0.4-0.9,0.8-1.2c0.3-0.2,0.6-0.5,0.7-0.8c0.4-0.7,1-1.1,1.8-1.1c0.8,0,1.3,0.4,1.7,1.1
		c0.2,0.3,0.3,0.6,0.6,0.7c0.9,0.6,1.2,1.4,0.9,2.2c-0.4,0.8-1.2,1.1-2.1,0.8c-0.4-0.1-0.7-0.5-1.1-0.4c-0.2,0.1-0.4,0.2-0.7,0.3
		c-0.2,0.1-0.5,0.1-0.7,0.2c-0.8,0.1-1.5-0.3-1.8-1.1C82.7,40.4,82.7,40.1,82.7,39.9z"/>
</g>
<g>
	<path class="st1" d="M73.1,66.8c-2.6,0-5.2,0-7.8,0c-3.1,0-5.9-2.1-6.7-5.1c-1-3.7,0.7-7.6,4.7-8.8c0.6-0.2,0.9-0.5,1-1.1
		c0.6-4.1,4.2-7.3,8.2-7.5c4.6-0.1,8.4,2.6,9.3,6.9c0.2,1,0.6,1.5,1.6,1.9c3.1,1.1,5.1,4.5,4.5,7.8c-0.6,3.4-3.5,5.9-6.8,6
		C78.4,66.9,75.7,66.8,73.1,66.8z"/>
	<path class="st2" d="M69.4,73.9c0-2,0-4,0-5.9c2.5,0,5,0,7.5,0c0,2,0,3.9,0,5.9C74.4,73.9,71.9,73.9,69.4,73.9z"/>
</g>
<g>
	<path class="st2" d="M18.9,34.8c-1.1,0-2.1,0-3.2,0c0-8.4,0-16.8,0-25.2c1,0,2.1,0,3.2,0C18.9,18,18.9,26.4,18.9,34.8z"/>
	<path class="st0" d="M9.3,8.4c0.2-1.7,1.6-3.1,3.4-3.2c3.2-0.1,6.4-0.1,9.5,0c1.7,0,3.1,1.4,3.3,3.2C20.1,8.4,14.7,8.4,9.3,8.4z"/>
	<path class="st3" d="M12.3,24.9c-3.2,0-6.4,0-9.6,0c0.3-1.2,1.1-2,2.3-2.1c1.7-0.1,3.4-0.1,5,0C11.2,22.9,12,23.7,12.3,24.9z"/>
	<path class="st3" d="M22.5,24.9c0.5-1.5,1.3-2.1,2.7-2.1c1.4,0,2.9,0,4.3,0c1.4,0,2.3,0.7,2.6,2.1C28.9,24.9,25.7,24.9,22.5,24.9z"
		/>
	<path class="st3" d="M31.1,14.5c-2.9,0-5.7,0-8.5,0c0.2-1.2,1-2,2.2-2.1c1.4-0.1,2.8-0.1,4.1,0C30,12.5,30.7,13.3,31.1,14.5z"/>
	<path class="st0" d="M12.3,14.5c-2.8,0-5.6,0-8.4,0c0.1-1.1,0.9-2,2.1-2.1c1.4-0.1,2.8-0.1,4.1,0C11.2,12.5,12,13.3,12.3,14.5z"/>
	<path class="st2" d="M20.2,29.3c0-0.4,0-0.7,0-1c1.2,0,2.4,0,3.6,0c1.2,0,2.2-0.5,2.8-1.7c0.1-0.3,0.6-0.4,1.1-0.6
		c-0.1,1.9-1.5,3.2-3.3,3.3C23,29.3,21.6,29.3,20.2,29.3z"/>
	<path class="st2" d="M7.1,26.1c0.3,0,0.6,0,1,0c0.5,1.5,1.6,2.1,3.2,2.1c1.1,0,2.2,0,3.4,0c0,0.3,0,0.6,0,0.9c-1.7,0-3.4,0.2-5,0
		C8.3,28.9,7.3,27.6,7.1,26.1z"/>
	<path class="st2" d="M26.2,15.7c0.4,0,0.7,0,1,0c-0.4,2-1.8,3.2-3.8,3.2c-1,0-2.1,0-3.2,0c0-0.3,0-0.7,0-1.1c0.8,0,1.6,0,2.4,0
		C24.3,18,25.6,17.4,26.2,15.7z"/>
	<path class="st2" d="M7.6,15.7c0.3,0,0.6,0,0.9-0.1c1,3.2,3.8,1.9,6,2.3c0,0.3,0,0.6,0.1,0.9c-1.4,0-2.8,0.1-4.1,0
		C8.9,18.6,7.8,17.3,7.6,15.7z"/>
</g>
<g>
	<path class="st4" d="M17.4,30.9c1.2,2.6,3.2,3.4,5.8,3.3c3-0.1,6.1-0.1,9.1,0c2.5,0,4.4-0.9,5.4-3.2c2.6,1,3.8,4.5,2.5,7.1
		c-1,2-2.6,3.1-4.9,3.1c-4.7,0-9.5,0-14.2,0c-1.4,0-2.8,0-4.1-0.8c-1.8-1.2-2.8-2.9-2.6-5.1C14.6,33.4,15.6,31.9,17.4,30.9z"/>
	<path class="st4" d="M27.6,33c-1.8,0-3.7,0-5.5,0c-2.2,0-3.9-1.8-3.8-3.9c0.1-2.1,1.8-3.8,3.9-3.7c0.3,0,0.7,0.2,0.9,0.5
		c1.3,1.5,2.6,3,3.9,4.6c0.5,0.5,0.9,0.5,1.4,0c1.3-1.5,2.6-3.1,3.9-4.6c0.2-0.2,0.6-0.4,0.8-0.5c2-0.1,3.7,1.5,3.9,3.4
		c0.2,2.1-1.2,4-3.2,4.2C31.7,33.1,29.6,33,27.6,33C27.6,33,27.6,33,27.6,33z"/>
	<path class="st4" d="M27.4,29.6c-1.2-1.5-2.4-3-3.5-4.5c-1.1-1.5-0.9-3.1,0.2-4.5c1.1-1.5,2.6-2.1,4.4-1.7c1.8,0.4,2.9,1.5,3.4,3.3
		c0.3,1,0.1,2-0.5,2.8c-1.1,1.6-2.4,3.1-3.5,4.6C27.7,29.6,27.6,29.6,27.4,29.6z"/>
	<path class="st5" d="M22.2,48.4c0-0.3,0-0.6,0-1c1.3,0.1,2.7,0,3.3-1.3c0.5-1.1,0.5-2.3,0.7-3.6c0.9,0,1.9,0,2.8,0
		c0.3,1.3,0.3,2.6,0.8,3.6c0.6,1.3,2,1.3,3.3,1.2c0,0.3,0,0.6,0,1c-1.4,0.2-2.6,0-3.7-0.9c-0.3-0.2-0.6-0.3-1-0.5
		c-0.1,0.3-0.2,0.7-0.3,1c0,0.1,0,0.2,0,0.3c-0.3,0-0.6,0-0.9,0c0,0-0.1-0.1-0.1-0.1c-0.1-0.4-0.2-0.8-0.4-1.2
		c-0.4,0.2-0.8,0.3-1.1,0.6C24.6,48.4,23.5,48.5,22.2,48.4z"/>
</g>
<g>
	<path class="st3" d="M52.3,47.4c-0.4,1.9-1.6,3-3.4,3.3c-0.3,0-0.6,0.4-0.9,0.6c0.3,0.2,0.7,0.5,1,0.5c1.5,0.1,3.1,0,4.6,0
		c0.3,0,0.6,0,0.9,0c-0.2,1.9-1.7,3.2-3.7,3.3c-3.9,0-7.9,0-11.8,0c-2.6,0-5.3,0-7.9,0c-2,0-3.5-1.2-3.8-3.3c1.6,0,3.2,0,4.8,0
		c0.4,0,0.7,0,1.1,0c0.2-0.1,0.5-0.3,0.5-0.5c0-0.2-0.3-0.5-0.5-0.6c-0.5-0.2-1.1-0.2-1.6-0.4c-1.2-0.5-1.9-1.5-2-2.9
		c1.6,0,3.3,0,4.9,0c0.3,0,0.6,0.1,0.8,0c0.3-0.1,0.5-0.3,0.7-0.5c-0.2-0.2-0.4-0.5-0.6-0.6c-1.2-0.2-2.3-0.6-3-1.6
		c-0.3-0.5-0.5-1-0.8-1.7c1.6,0,3,0,4.4,0c0.5,0,0.9,0.1,1.3,0c0.3-0.1,0.6-0.4,0.9-0.6c-0.3-0.2-0.6-0.5-0.9-0.6
		c-1.7-0.2-2.8-1.2-3.4-2.8c0-0.1,0-0.2,0-0.4c1.5,0,2.9,0,4.3,0c0.3,0,0.6,0.1,0.9,0c0.3-0.1,0.5-0.4,0.7-0.6
		c-0.2-0.2-0.4-0.5-0.7-0.5c-2-0.3-3.2-1.3-3.6-3.3c0.8,0,1.5,0,2.3,0c0.5,0,0.9-0.2,1-0.8c0.2-1.2,1.1-2,2.2-2c1.1,0,1.9,0.8,2.1,2
		c0.1,0.7,0.4,0.8,1,0.8c0.7,0,1.4,0,2.2,0c0,1.4-1.1,2.7-2.6,3.1c-0.2,0.1-0.5,0.1-0.7,0.1c-0.4,0-1,0.1-0.8,0.6
		c0.1,0.2,0.6,0.5,1,0.5c1.3,0.1,2.6,0,4,0c0.3,0,0.6,0,0.9,0c0,1.6-1.4,3-3,3.2c-0.2,0-0.5,0-0.6,0.1c-0.2,0.1-0.5,0.4-0.5,0.6
		c0,0.1,0.3,0.4,0.5,0.5c0.5,0.1,1,0,1.4,0c1.5,0,2.9,0,4.4,0c0,1.2-0.9,2.4-2.1,2.9c-0.3,0.1-0.6,0.1-0.9,0.3
		c-0.4,0.2-1.2-0.2-1.2,0.6c0.1,0.9,0.9,0.5,1.4,0.6C48.9,47.5,50.6,47.4,52.3,47.4z"/>
	<path class="st2" d="M38.8,56.3c1.4,0,2.8,0,4.2,0c0,1.6,0,3.2,0,4.8c-1.4,0-2.8,0-4.2,0C38.8,59.5,38.8,57.9,38.8,56.3z"/>
</g>
<g>
	<path class="st3" d="M26.7,72.4c-0.2-0.4-0.5-1-0.8-1.5c-0.4-0.6-0.5-1.1,0-1.6c0.7-0.8,0.9-1.7,0.6-2.7c-0.3-0.7,0-1.2,0.7-1.5
		c1-0.4,1.5-1.2,1.5-2.3c0-0.7,0.3-1.1,1-1.1c1.2,0,2-0.6,2.5-1.7c0.3-0.6,0.7-0.8,1.3-0.5c1.1,0.4,2,0.2,2.8-0.6
		c0.5-0.5,1-0.5,1.5,0c0.9,0.8,1.8,1,2.9,0.6c0.6-0.2,1,0,1.2,0.5c0.5,1.1,1.3,1.7,2.5,1.7c0.6,0,0.9,0.4,0.9,1
		c0.1,1.2,0.6,2,1.7,2.5c0.5,0.2,0.7,0.7,0.5,1.2c-0.4,1.2-0.2,2.2,0.6,3.1c0.4,0.4,0.4,0.9,0,1.3c-0.8,0.9-1.1,1.9-0.6,3.1
		c0.2,0.5,0,0.9-0.5,1.2c-1.1,0.5-1.7,1.3-1.7,2.5c0,0.7-0.4,0.9-1,1c-1.1,0.1-1.9,0.5-2.3,1.5c-0.3,0.6-0.7,0.9-1.4,0.6
		c-1.1-0.4-2-0.2-2.8,0.6c-0.5,0.5-1,0.4-1.5,0c-0.8-0.7-1.7-1-2.7-0.6c-0.7,0.3-1.2,0.1-1.5-0.6c-0.5-1-1.3-1.5-2.4-1.6
		c-0.7,0-1-0.4-1-1.1c0-1-0.5-1.8-1.4-2.2c-0.8-0.4-1-0.9-0.7-1.7C26.6,73.2,26.6,72.9,26.7,72.4z"/>
	<path class="st2" d="M35.5,82.1c1,0.8,2.1,1,3.2-0.2c0,2,0,3.7,0,5.5c0,0.6-0.2,0.8-0.8,0.8c-0.8,0-1.5,0-2.4,0
		C35.5,86.2,35.5,84.2,35.5,82.1z"/>
</g>
<g>
	<path class="st0" d="M68.6,68.1c0.1-2.4,1.6-4.2,3.7-4.5c0.7-0.1,0.9-0.4,0.8-1.1c-0.3-2.1,0.7-3.5,2.8-3.9
		c0.8-0.2,0.9-0.5,0.7-1.2c-0.6-1.8,0.2-3.4,1.9-4.2c0.3-0.1,0.6-0.5,0.7-0.9c0.6-1.9,2.3-3.2,4.2-3.2c1.9,0,3.6,1.2,4.2,3.1
		c0.1,0.4,0.5,0.8,0.9,1c1.7,0.8,2.5,2.5,1.8,4.3c-0.2,0.7,0,0.9,0.6,1.1c2.4,0.6,3.1,1.7,2.8,4.1c-0.1,0.7,0.3,0.8,0.9,0.9
		c2.3,0.5,3.3,1.8,3.6,3.9c0.3,2-1,3.9-2.9,4.5c-1.4,0.4-2.7,0.3-3.9-0.7c-0.6-0.5-1.1-0.6-1.8,0c-1.7,1.3-3.8,1.3-5.5-0.1
		c-0.5-0.4-0.9-0.4-1.4,0c-1.7,1.4-3.9,1.4-5.5,0c-0.6-0.5-0.9-0.4-1.5,0c-1.5,1.2-3.1,1.3-4.8,0.5C69.3,71,68.6,69.6,68.6,68.1z"/>
	<path class="st2" d="M81.8,78.8c0-1.8,0-3.5,0-5.2c0-0.2,0.2-0.5,0.4-0.7c0.4-0.3,0.8-0.5,1.2-0.7c0,0,0.1,0,0.2,0.1
		c1.4,0.4,1.7,1.4,1.5,2.8c-0.1,1.2,0,2.5,0,3.7C84,78.8,82.9,78.8,81.8,78.8z"/>
</g>
<g>
	<path class="st0" d="M129.4,32.1c1.7,1.4,2.8,1.4,4.3,0.3c1.1,0.3,2.1,0.5,3,0.7c0.3,0.1,0.6,0.2,0.8,0.4c1.4,1.3,2.8,2.7,4.2,4.1
		c0.5,0.4,0.7,0.9,0.3,1.5c-0.4,0.6-0.9,0.7-1.6,0.6c-0.8-0.2-1.3-0.6-1.6-1.5c-0.1-0.2-0.4-0.4-0.6-0.6c-0.2,0.2-0.5,0.4-0.6,0.7
		c-0.1,0.9-0.5,1.4-1.4,1.5c-0.8,0.1-1.6-0.5-1.9-1.3c-0.1-0.3-0.4-0.6-0.6-0.9c-0.2,0.3-0.5,0.5-0.6,0.9c-0.3,0.8-0.8,1.3-1.6,1.3
		c-0.8,0-1.4-0.5-1.6-1.4c-0.1-0.3-0.4-0.5-0.6-0.8c-0.2,0.2-0.5,0.5-0.6,0.7c-0.3,0.9-1,1.5-1.8,1.4c-0.9-0.1-1.3-0.7-1.5-1.5
		c0-0.2-0.3-0.4-0.5-0.6c-0.2,0.2-0.5,0.4-0.6,0.6c-0.3,0.9-1.1,1.6-2,1.5c-0.4,0-1-0.3-1.1-0.7c-0.2-0.3,0-1,0.2-1.3
		c1.5-1.5,3-3,4.5-4.4c0.1-0.1,0.4-0.2,0.6-0.2C127.7,33.2,128.6,32.9,129.4,32.1z"/>
	<path class="st0" d="M129.4,24.4c1.8,1.4,2.9,1.4,4.5,0c0.8,0.7,1.8,1.2,2.9,1c0.2,0,0.4,0.2,0.6,0.4c1.4,1.4,2.8,2.7,4.2,4.1
		c0.5,0.5,0.7,1,0.3,1.6c-0.4,0.7-1,0.7-1.7,0.5c-0.7-0.2-1.3-0.6-1.4-1.5c0-0.2-0.4-0.4-0.6-0.6c-0.2,0.2-0.5,0.4-0.5,0.6
		c-0.1,0.9-0.4,1.5-1.4,1.5c-0.9,0-1.6-0.5-1.9-1.5c-0.1-0.3-0.4-0.4-0.6-0.7c-0.2,0.2-0.5,0.4-0.5,0.7c-0.3,1-0.8,1.5-1.6,1.5
		c-0.9,0-1.4-0.5-1.6-1.5c-0.1-0.3-0.4-0.5-0.5-0.7c-0.2,0.2-0.4,0.4-0.6,0.6c-0.2,0.2-0.1,0.7-0.3,0.8c-0.6,0.3-1.2,0.7-1.8,0.7
		c-0.7,0-0.9-0.7-1.1-1.3c-0.1-0.3-0.4-0.5-0.6-0.7c-0.2,0.2-0.5,0.4-0.6,0.7c-0.3,0.9-1.2,1.6-2.1,1.4c-0.4-0.1-0.8-0.4-1-0.7
		c-0.1-0.3-0.1-0.9,0.2-1.1c1.5-1.6,3.1-3,4.6-4.6c0.1-0.1,0.3-0.2,0.4-0.2C127.6,25.5,128.6,25.1,129.4,24.4z"/>
	<path class="st0" d="M131.6,14.7c1.1,1.4,2.2,2.7,3.2,4.1c0.8,1,1.5,2,2.3,2.9c0.5,0.6,0.8,1.2,0.3,1.9c-0.3,0.4-0.9,0.6-1.4,0.6
		c-0.8,0-1.3-0.5-1.6-1.3c0-0.1,0-0.1,0-0.2c-0.2-0.2-0.4-0.5-0.6-0.7c-0.2,0.2-0.5,0.4-0.5,0.7c-0.3,1-0.7,1.5-1.6,1.5
		c-0.8,0-1.4-0.4-1.6-1.3c-0.1-0.3-0.4-0.6-0.6-0.9c-0.2,0.3-0.5,0.6-0.7,0.9c-0.3,0.9-1.2,1.4-2.1,1.2c-1-0.2-1.4-1.3-0.7-2.3
		c1.5-2,3-3.9,4.6-5.8C130.9,15.7,131.2,15.3,131.6,14.7z"/>
	<path class="st2" d="M130.1,40.4c1.1,0.6,2.1,0.6,3.2,0c0,1.3,0,2.4,0,3.7c-1,0-2.1,0-3.2,0C130.1,42.8,130.1,41.7,130.1,40.4z"/>
</g>
<g>
	<path class="st1" d="M50.2,96.9c-3.1,0-6.1,0-9.2,0c-2.5,0-4.5-1.4-5.3-3.7c-0.8-2.3,0-4.7,1.9-6.2c0.3-0.2,0.6-0.7,0.5-1.1
		c-0.2-3.3,2.1-5.9,5.4-6c0.9,0,1.2-0.2,1.3-1.2c0.1-2.6,2.4-4.8,4.9-4.9c2.9-0.2,5.3,1.6,5.9,4.3c0,0.1,0,0.1,0,0.2
		c0.3,1.5,0.3,1.5,1.8,1.6c3,0.3,5.1,2.8,4.9,5.7c0,0.6,0.1,1,0.6,1.4c1.9,1.5,2.6,3.9,1.8,6.2c-0.8,2.2-2.8,3.6-5.2,3.6
		C56.4,96.9,53.3,96.9,50.2,96.9z"/>
	<path class="st2" d="M48.6,103.4c0-1.8,0-3.5,0-5.3c1,0,2,0,3.1,0c0,1.7,0,3.5,0,5.3C50.7,103.4,49.7,103.4,48.6,103.4z"/>
	<path class="st2" d="M56.7,98c-0.3,1.8-1.7,2.8-3.6,2.7c0-0.3,0-0.5-0.1-1c1.2,0,2.2-0.4,2.7-1.6C55.7,98,56.3,98.1,56.7,98z"/>
	<path class="st2" d="M44.5,98.2c-0.1-0.2-0.2-0.2-0.4-0.2c0,0-0.4,0.1-0.4,0.1c0.4,1.9,2,2.9,3.7,2.5c0-0.1,0.1-0.4,0-0.5
		c0,0,0-0.1-0.1-0.1c-0.1,0-0.3,0-0.4,0C45.6,99.9,44.8,98.7,44.5,98.2z"/>
</g>
<g>
	<path class="st3" d="M74.9,89.1c-2.6,0-5.2,0-7.8,0c-1.1,0-2-0.3-2.5-1.4c-0.1-0.2-0.6-0.4-0.9-0.4c-1,0.2-1.8,0-2.4-0.8
		c-0.7-0.8-0.6-1.7,0-2.6c0.4-0.5,0.3-0.9-0.2-1.2c-1.3-1-1.4-2.6,0-3.5c0.6-0.4,0.7-0.7,0.3-1.3c-0.9-1.4-0.4-2.9,1.3-3.4
		c0.6-0.2,0.8-0.4,0.6-1c-0.4-1.8,0.6-2.9,2.4-2.8c0.5,0,0.7-0.2,0.8-0.7c0.3-1.9,1.5-2.6,3.3-1.9c0.5,0.2,0.8,0.1,1-0.4
		c0.9-1.7,2.3-1.9,3.6-0.7c0.4,0.4,0.7,0.4,1.1,0c1.4-1.2,2.8-1,3.7,0.7c0.3,0.5,0.6,0.6,1.1,0.4c1.7-0.7,3,0.1,3.2,1.8
		c0.1,0.7,0.4,0.8,1,0.8c1.6-0.1,2.7,1.2,2.3,2.7c-0.2,0.7,0,1,0.7,1.1c1.6,0.4,2.1,2,1.2,3.3c-0.4,0.6-0.3,0.9,0.3,1.3
		c1.3,0.9,1.3,2.6,0,3.5c-0.7,0.5-0.7,0.8-0.2,1.4c0.6,0.8,0.5,1.7,0,2.4c-0.6,0.8-1.4,1.1-2.3,0.8c-0.6-0.2-0.9-0.1-1.1,0.5
		c-0.4,1-1.2,1.3-2.2,1.3C80.2,89.1,77.6,89.1,74.9,89.1C74.9,89.1,74.9,89.1,74.9,89.1z"/>
	<path class="st2" d="M71.7,90.3c2.1,0,4.3,0,6.4,0c0,1.8,0,3.5,0,5.3c-2.1,0-4.2,0-6.4,0C71.7,93.9,71.7,92.1,71.7,90.3z"/>
</g>
<g>
	<path class="st4" d="M129.5,60.3c-3.5,0-7,0-10.5,0c-1.8,0-3.2-1.1-3.2-2.8c-0.1-1.7,1.1-3,2.9-3.2c0.6-0.1,0.9-0.3,0.9-0.9
		c0-0.5,0-1.1,0-1.6c0.2-1.6,1.3-2.8,2.9-2.9c0.9-0.1,1-0.6,1-1.3c0-1.9,0.7-3.1,2.3-3.6c0.1,0,0.2-0.1,0.3-0.1
		c1.1,0.1,1.3-0.5,1.4-1.5c0-1.1,1.1-1.9,2.1-1.9c1.1,0,2.1,0.8,2.1,2c0,0.9,0.3,1.3,1.3,1.4c1.5,0.1,2.6,1.5,2.7,3.1
		c0,0.3,0,0.7,0,1c0,0.5,0.2,0.7,0.7,0.8c2.1,0.3,3.1,1.5,3.1,3.6c0,0.3,0,0.7,0,1c0,0.6,0.2,0.9,0.9,0.9c1.8,0.1,3,1.4,3,3.1
		c0,1.7-1.3,2.9-3.1,2.9C136.5,60.3,133,60.3,129.5,60.3z"/>
	<path class="st2" d="M131.5,70.8c-1.4,0-2.8,0-4.2,0c0-3.3,0-6.5,0-9.8c1.4,0,2.8,0,4.2,0C131.5,64.2,131.5,67.4,131.5,70.8z"/>
	<path class="st2" d="M136,61.5c-1.3,1.2-2.5,2.4-3.8,3.6c-0.1-0.5-0.2-1.2,0.5-1.7c0.4-0.4,0.8-0.8,1.2-1.2
		C134.5,61.5,135.1,61.3,136,61.5z"/>
	<path class="st2" d="M126.6,65.3c-1.3-1.3-2.5-2.5-3.7-3.7c0.7-0.2,1.4,0,1.9,0.7c0.3,0.4,0.7,0.8,1.1,1.1
		C126.6,63.8,126.7,64.5,126.6,65.3z"/>
</g>
<g>
	<path class="st2" d="M3.9,57.3c0.7-0.2,1,0,1.3,0.6c0.3,0.9,1.1,1.3,2,1.5c0.5,0.1,1.1,0.1,1.6,0.1c1,0,2.1,0,3.2,0
		c0-0.8,0-1.4,0-2.2c0.4,0,0.7,0,1.1-0.1c0,0.8,0,1.5,0,2.2c2.6,0,5.1,0,7.7,0c0-0.7,0-1.4,0-2.1c0.4,0,0.7,0,1.1,0
		c0,0.7,0,1.4,0,2.1c1.8,0,3.4,0.1,5.1-0.1c0.6-0.1,1.3-0.8,1.7-1.4c0.4-0.6,0.6-0.8,1.2-0.6c0,1.7-1.6,3.1-3.5,3.2
		c-1.7,0.1-3.5,0-5.2,0c-0.3,0-0.6,0-1.1,0c0,5.7,0,11.4,0,17c-2.2,0-4.3,0-6.5,0c0-5.7,0-11.3,0-17c-2.1,0-4.1,0-6.1,0
		C5.6,60.4,4.2,59.2,3.9,57.3z"/>
	<path class="st4" d="M23.6,56c-4.4,0-8.7,0-13.1,0c0-1-0.1-2.1,0-3.1c0.2-1.6,1.9-2.8,3.5-2.8c1.9,0,3.8-0.1,5.7,0
		c2.3,0,3.9,1.6,3.9,3.9C23.6,54.6,23.6,55.3,23.6,56z"/>
	<path class="st4" d="M31.9,56c-2.4,0-4.7,0-7.1,0c-0.1-1.4-0.2-2.8-0.3-4.3c1.6,0,3.3,0,5,0c1.1,0,2.1,0.9,2.2,2
		C31.8,54.5,31.8,55.2,31.9,56z"/>
	<path class="st4" d="M9.5,51.7c-0.1,1.4-0.3,2.8-0.4,4.3c-2.3,0-4.6,0-7,0c0-0.7-0.1-1.3,0-2c0.1-1.2,1.2-2.2,2.3-2.3
		C6.2,51.7,7.9,51.7,9.5,51.7z"/>
	<path class="st4" d="M6.6,50.6c-0.3-2.6,0.8-3.9,3.2-3.9c1.3,0,2.6,0,3.9,0c1.4,0,2.3,0.8,2.6,2.1c-0.8,0-1.6,0.1-2.4,0.1
		c-1.2,0-2.1,0.6-3.1,1.3c-0.3,0.2-0.7,0.3-1,0.3C8.7,50.6,7.7,50.6,6.6,50.6z"/>
	<path class="st4" d="M27.3,50.7c-1.2,0-2.4,0-3.5,0c-0.2,0-0.4-0.1-0.5-0.2c-1.3-1.3-2.9-1.6-4.6-1.6c-0.3,0-0.7,0-1,0
		c0.2-1.2,1.1-2.1,2.4-2.1c1.5-0.1,3.1-0.1,4.6,0C26.7,46.9,27.6,48.1,27.3,50.7z"/>
</g>
<g>
	<path class="st4" d="M31.7,102.5c-5.4,0.3-8.8,4.9-8.7,8.7l18.4,0C41.4,106.4,36.8,102.2,31.7,102.5z"/>
	<path class="st4" d="M39.2,99.1c0.1-3.5-3.3-6.6-7.1-6.5c-3.8,0-7.1,3.1-6.9,6.6L39.2,99.1z"/>
	<path class="st4" d="M31.7,84.8c-2.3,0.1-4.3,2.1-4.3,4.3l9.7,0C36.7,86.4,34.5,84.7,31.7,84.8z"/>
	<rect x="29.5" y="89.2" class="st5" width="4.9" height="1.6"/>
	<rect x="29.5" y="98.9" class="st5" width="4.9" height="1.6"/>
	<rect x="29.5" y="111.2" class="st5" width="4.9" height="4"/>
</g>
<g>
	<path class="st4" d="M124.7,103.1c-9.9,0-19.7,0-29.6,0c0-1.1-0.1-2.2,0-3.2c0.1-1.1,1.1-2,2.3-2.1c0.7-0.1,1-0.3,1-1.1
		c0.2-6.1,5.3-11.1,11.3-11.1c6.6,0,11.5,4.6,11.8,11c0,0.7,0.2,1,0.9,1.1c1.4,0.2,2.3,1.1,2.4,2.5
		C124.8,101.2,124.7,102.1,124.7,103.1z"/>
	<path class="st2" d="M105.5,104.3c0.4,0,0.7,0,1,0.1c0,1.5,0,3,0,4.4c0,0.8,0.3,1.1,1.1,1c1.6,0,3.1,0,4.7,0c0.7,0,0.9-0.3,0.9-1
		c0-1.5,0-3,0-4.5c0.4,0,0.7,0,1,0c0,1.4,0,2.7,0,4.1c0,1.4,0.1,1.4,1.4,1.4c2.7,0.1,4.9-2.1,4.7-4.7c0-0.2,0-0.5,0-0.8
		c0.3,0,0.6-0.1,0.9-0.1c0.9,3.9-1.7,6.6-4.8,6.6c-1,0-1.9,0-2.9,0c-0.8,0-1,0.3-1,1c0,1.1,0,2.2,0,3.4c-0.9,0-1.8,0-2.7,0
		c-0.9,0-1.8,0-2.8,0c0-1.2,0-2.2,0-3.3c0-0.8-0.3-1.1-1.1-1.1c-0.9,0-1.8,0-2.7,0c-2.9,0-5-2.2-5-5c0-0.5,0-1,0-1.5
		c0.3,0,0.6,0,1.1-0.1c0,0.4,0,0.8,0,1.2c0.1,2.7,2.2,4.7,5.5,4.4c0.6-0.1,0.7-0.5,0.7-1C105.5,107.3,105.5,105.9,105.5,104.3z"/>
</g>
<g>
	<path class="st1" d="M104.4,64.1c-0.2,1.5-0.3,2.9-0.5,4.4c1.5-0.5,2.9-0.9,4.4-1.4c-0.3,1.5-0.5,2.9-0.8,4.4
		c1.3,0.2,2.7,0.4,4.1,0.6c-0.7,1.3-1.4,2.5-2.2,3.8c1.4,0.5,2.8,1,4.4,1.5c-1.1,1-2.1,1.9-3.1,2.7c-0.2,0.1-0.5,0.2-0.8,0.2
		c-7.7,0-15.4,0-23.1,0c-0.3,0-0.6-0.1-0.8-0.2c-1-0.8-1.9-1.7-3-2.7c1.5-0.5,2.9-1,4.4-1.5c-0.7-1.3-1.4-2.5-2.2-3.8
		c1.4-0.2,2.7-0.4,4.1-0.6c-0.3-1.5-0.5-2.8-0.8-4.4c1.5,0.5,2.9,0.9,4.4,1.4c-0.2-1.5-0.3-2.8-0.5-4.3c1.3,0.6,2.5,1.2,3.8,1.8
		c0.7-1.2,1.4-2.5,2.2-3.8c0.7,1.3,1.5,2.5,2.2,3.8C101.9,65.3,103.1,64.7,104.4,64.1z"/>
	<path class="st2" d="M96.8,86.8c0-2,0-3.7,0-5.4c1.1,0,2.1,0,3.2,0c0,1.7,0,3.5,0,5.2c0.1,0,0.2,0.1,0.2,0.1c1.5-1.5,3-2.9,4.3-4.5
		c0.8-1,1.8-1,3-0.9c-0.3,0.3-0.5,0.5-0.7,0.7c-2.1,2.1-4.3,4.3-6.4,6.5c-0.3,0.3-0.5,0.8-0.5,1.2c-0.1,1.4,0,2.8,0,4.2
		c-1.1,0-2.1,0-3.3,0c0-1.2-0.1-2.5,0-3.7c0.1-0.9-0.3-1.4-0.9-2c-2.3-2.2-4.5-4.4-6.8-6.8c1.1-0.1,2.1-0.2,2.9,0.7
		c1.2,1.4,2.6,2.7,3.9,4C96.2,86.2,96.4,86.4,96.8,86.8z"/>
</g>
<g>
	<path class="st0" d="M128,87.1c-1.8,1.6-3.7,1.9-5.8,0.7c-0.2-0.1-0.6,0-0.8,0.1c-2.9,1.3-6,0.6-7.7-1.9c-1.7-2.4-1.4-5.5,0.7-7.8
		c0.2-0.2,0.3-0.6,0.3-0.8c-1.6-3.9,1.7-7.6,5.3-6.9c0.1,0,0.2,0,0.3,0c1.1-2.7,1.8-3.2,4.5-3.4c0.5-1.6,1.5-2.7,3.3-2.7
		c1.3,0,2.5,0.8,3,2.1c0.1,0.3,0.4,0.6,0.7,0.6c2.3,0.2,3.5,1.2,4,3.4c0.8,0,1.6-0.1,2.4,0c3.2,0.4,5.1,3.8,3.8,6.7
		c-0.3,0.6-0.3,1,0.2,1.5c1.8,2.2,1.8,5.3,0.1,7.5c-1.7,2.2-4.8,3-7.4,1.7c-0.5-0.2-0.8-0.2-1.3,0C131.5,89,129.6,88.7,128,87.1z"/>
	<path class="st2" d="M132.3,89.6c0,1.9,0,3.7,0,5.5c-2.9,0-5.8,0-8.7,0c0-1.8,0-3.6,0-5.5c1.5,0.2,3,0,4.3-1
		C129.3,89.5,130.7,89.8,132.3,89.6z"/>
</g>
<g>
	<path class="st3" d="M15.1,86.4c-3.7,0-7.4,0.1-11.2,0.1c-1,0-1.9-0.3-2.3-1.2c-0.4-1-0.2-1.8,0.5-2.6c0.2-0.2,0.3-0.7,0.1-0.9
		c-0.7-1.5-0.4-2.3,0.8-3.2c0.2-0.2,0.4-0.6,0.4-0.9c0-1.5,0.5-2.3,1.9-2.6c0.5-0.1,0.8-0.3,0.8-0.9c0.1-1.1,0.9-1.8,2-2
		c0.3-0.1,0.7-0.2,0.9-0.5c0.7-1,1.5-1.4,2.7-1c0.5,0.2,0.8,0.1,1.1-0.5c0.4-0.9,1-1.4,2-1.4c1,0,1.6,0.5,2,1.4
		c0.2,0.5,0.5,0.6,1,0.4c1.3-0.4,2-0.1,2.8,0.9c0.2,0.2,0.5,0.4,0.8,0.5c1.3,0.2,1.9,0.7,2.1,1.9c0.1,0.5,0.3,0.8,0.9,0.8
		c1.4,0.2,2,1.1,1.9,2.5c0,0.3,0.2,0.7,0.5,0.9c1.2,0.8,1.6,1.8,0.9,3.1c-0.2,0.5-0.2,0.8,0.2,1.1c0.7,0.7,0.9,1.5,0.6,2.5
		c-0.4,0.9-1.2,1.3-2.2,1.3C22.7,86.3,18.9,86.4,15.1,86.4z"/>
	<path class="st2" d="M14.6,87.6c0.4,0,0.7,0,1.1,0c0,1.8,0,3.6,0.1,5.3c0,1,0.3,1.2,1.3,0.9c3-1,4.7-3.1,5.3-6.3c0.3,0,0.6,0,1,0
		c-0.1,1.8-0.8,3.4-1.9,4.7c-1.2,1.5-2.8,2.4-4.6,2.7c-0.8,0.1-1.1,0.5-1,1.3c0.1,0.7,0,1.4,0,2.1c-0.3,0-0.6,0.1-1.1,0.1
		c0-0.8-0.1-1.5,0-2.2c0-0.8-0.2-1.2-1.1-1.3C10,94.4,7.5,91.6,7,87.9c0-0.1,0-0.1,0.1-0.2c0.3,0,0.6,0,0.9,0
		c0.3,0.8,0.5,1.6,0.9,2.3c1,1.9,2.5,3.2,4.6,3.9c1,0.3,1.3,0.1,1.3-1C14.7,91.2,14.7,89.4,14.6,87.6z"/>
</g>
<g>
	<path class="st4" d="M56.2,114c-5-0.8-7.6-6.8-4.9-11.3c1.1-1.9,2.3-3.8,3.4-5.6c1-1.7,2.1-3.4,3.2-5.3c0.2,0.3,0.4,0.6,0.5,0.8
		c1.8,3,3.6,6.1,5.5,9.1c0.3,0.5,0.3,0.9,0,1.4c-1,1.5-2.1,3-2.2,4.8c-0.6-0.3-1.3-0.6-2.1-0.9c-0.1-0.9-0.3-2,0.9-2.7
		c0.2-0.1,0.3-0.3,0.5-0.4c0.6-0.6,1.1-1.2,0.7-2.1c-0.3-0.9-1.1-1.1-2-1.1c0-0.3,0-0.5-0.1-0.8c-0.1-0.9-0.9-1.5-1.7-1.4
		c-0.9,0-1.5,0.7-1.6,1.5c0,1.3,0,2.6,0,3.8c-0.6,0.2-1.2,0.3-1.6,0.6c-0.7,0.4-0.8,1.4-0.4,2.1c0.1,0.1,0.1,0.2,0.2,0.3
		c1.8,1.2,1.9,2.9,1.8,4.8C56.1,112.2,56.2,113.1,56.2,114z"/>
	<path class="st3" d="M66.1,107.1c-0.4,0-0.7,0-1,0.1c-1.2,0.3-1.6,1.7-0.8,2.7c0.4,0.5,0.9,0.8,1.2,1.3c0.3,0.4,0.5,1,0.8,1.7
		c-3-0.7-4.3-4.2-2.9-6.9c0.5-1,1.2-1.9,1.8-2.9c0.8-1.3,1.6-2.7,2.5-4.1c0.8,1.3,1.6,2.5,2.3,3.7c0.6,1,1.3,2,1.9,3.1
		c1.5,2.5,0.6,5.6-1.9,7c-0.2,0.1-0.3,0.1-0.6,0.2c0-1.1,0-2.1,0-3.1c0-0.2,0.2-0.5,0.4-0.7c0.4-0.4,0.8-0.9,1.3-1.3
		c0.6-0.6,0.7-1.2,0.3-1.9c-0.3-0.7-0.9-1-1.7-0.9c-0.3,0-0.7,0-0.9-0.2c-0.6-0.5-1.4-0.6-1.9-0.2c-0.4,0.3-0.6,0.9-0.8,1.5
		C66,106.3,66.1,106.7,66.1,107.1z"/>
	<path class="st2" d="M57.3,106.1c0-1.9,0-3.8,0-5.7c0-0.4-0.1-1,0.5-0.9c0.2,0,0.5,0.6,0.5,0.9c0.1,0.8,0,1.6,0,2.6
		c0.5-0.5,0.8-0.9,1.2-1.1c0.2-0.1,0.5-0.1,0.8-0.1c0,0.3,0.1,0.8-0.1,0.8c-2.2,1.3-2.1,3.4-1.9,5.5c0,0.4,0,0.7,0,1.1
		c0,0.1,0,0.1,0.1,0.3c0.4-0.4,0.7-0.7,1.1-1c0.2-0.1,0.5-0.1,0.8-0.1c0,0.3,0,0.6-0.1,0.9c0,0.1-0.1,0.1-0.2,0.2
		c-1.6,1.1-1.9,2.6-1.8,4.4c0.1,2.4,0,4.8,0,7.2c0,0.3-0.3,0.6-0.5,0.9c-0.2-0.3-0.5-0.6-0.5-0.9c0-4.1,0-8.1,0-12.2
		c0-0.7-0.1-1.3-0.7-1.7c-0.5-0.4-0.9-0.9-1.3-1.4c-0.1-0.2,0-0.5-0.1-0.7c0.3,0,0.6-0.1,0.8,0c0.4,0.3,0.7,0.8,1,1.1
		C57.2,106.2,57.3,106.2,57.3,106.1z"/>
	<path class="st2" d="M67.3,109.6c0-1.3,0-2.3,0-3.3c0-0.3,0.3-0.6,0.5-0.8c0.2,0.3,0.4,0.6,0.5,0.9c0.1,0.2,0,0.5,0,1.1
		c0.5-0.5,0.7-0.8,1.1-1.1c0.2-0.2,0.6-0.1,0.9-0.2c-0.1,0.3-0.1,0.6-0.2,0.9c0,0.1-0.1,0.2-0.2,0.2c-1.5,1-1.8,2.5-1.7,4.2
		c0.1,3.1,0,6.3,0,9.4c0,0.3-0.1,0.7-0.3,0.9c-0.4,0.3-0.8,0-0.8-0.8c0-2.8-0.1-5.5,0-8.3c0-1.2-0.3-2-1.1-2.7
		c-0.3-0.3-0.6-0.6-0.9-0.9c-0.1-0.2-0.1-0.5-0.1-0.8c0.3,0,0.6-0.1,0.8,0.1C66.4,108.7,66.7,109.1,67.3,109.6z"/>
	<path class="st3" d="M63.1,112.4c-1.1,0.6-2.2,1.2-3.3,1.8c-1-2.5,0.9-3.5,1.9-4.8C62.1,110.3,62.6,111.2,63.1,112.4z"/>
</g>
<g>
	<path class="st3" d="M51.3,121.9c-0.6,0-1.2-0.4-1.6-1.1c-0.3-0.6-0.6-0.6-1.2-0.5c-0.6,0.2-1.3,0.1-2,0c-0.5-0.1-0.8-0.1-1.1,0.4
		c-0.9,1.6-2.8,1.7-3.7,0.1c-0.3-0.5-0.6-0.6-1.1-0.4c-0.6,0.2-1.3,0.2-2,0c-0.6-0.1-0.9-0.1-1.1,0.4c-0.5,0.9-1.3,1.3-2.2,1.1
		c-0.9-0.2-1.5-0.8-1.6-1.7c-0.1-0.7-0.4-0.9-1-1.1c-1.1-0.3-1.7-1.1-1.7-2.1c0.1-1.1,0.7-1.6,1.9-2c0.3-0.1,0.6-0.4,0.7-0.7
		c0.5-1.9,1.9-2.5,3.5-1.4c0.4,0.3,0.6,0.2,0.9-0.2c0.4-0.4,0.5-1.4,1.5-1c0.2,0.1,0.7-0.7,0.9-1.1c0.6-1.6,1.8-2.2,3.4-2.2
		c1.4,0.1,2.4,0.9,2.9,2.2c0.1,0.2,0.2,0.4,0.4,0.5c0.7,0.6,1.3,1.2,2.1,1.7c0.2,0.2,0.7,0.2,0.9,0c1.7-1,3-0.4,3.4,1.4
		c0.1,0.3,0.4,0.6,0.7,0.7c1.2,0.4,1.9,1,1.9,2.1c0,1.1-0.6,1.8-1.9,2.1c-0.5,0.1-0.7,0.4-0.8,0.9C53.4,121.2,52.6,121.9,51.3,121.9
		z"/>
	<path class="st2" d="M43.1,123c0.4,0,0.7,0,1.1,0c0,1.6-0.1,3.3,0,4.9c0.1,1.5,0,3.1,0.5,4.5c1,2.9,3.2,4.3,6.2,4.7
		c0.4,0,1.1-0.1,1,0.6c-0.1,0.7-0.7,0.5-1.2,0.4c-2-0.2-3.7-1-5.2-2.4c-0.2-0.2-0.6-0.3-1-0.5c-0.1,0.3-0.3,0.6-0.3,1
		c0,0.6,0,1.2,0,2c-0.4,0-0.7,0-1-0.1c0-0.7,0-1.3,0-1.9c0-0.3-0.2-0.6-0.4-0.9c-0.3,0.1-0.7,0.2-0.9,0.4c-1.5,1.5-3.2,2.4-5.4,2.5
		c-0.4,0-1,0.2-1-0.5c0-0.2,0.6-0.5,0.9-0.6c4.2-0.5,6.8-3.4,6.8-7.6C43.1,127.4,43.1,125.2,43.1,123z"/>
	<path class="st2" d="M48.9,121.7c0.3,0.2,0.5,0.4,0.8,0.7c-1.5,1.7-2.9,3.2-4.4,4.9c-0.1-1-0.1-1.7,0.6-2.3
		C47,124,48,122.8,48.9,121.7z"/>
	<path class="st2" d="M41.8,127.2c-1.4-1.6-2.8-3.1-4.3-4.8c0.2-0.2,0.5-0.4,0.8-0.7c1.2,1.3,2.4,2.5,3.4,3.8c0.3,0.4,0.2,1,0.3,1.6
		C42,127.1,41.9,127.2,41.8,127.2z"/>
</g>
<g>
	<path class="st1" d="M82.9,105.4c0.3-1.8,0.6-4,1-6.2c0.6-3.6,1.2-7.2,1.7-10.7c0.2-1.5,1.3-2.5,2.7-2.5c1.4,0,2.5,0.9,2.8,2.3
		c0.5,3.3,1,6.5,1.5,9.8c0.3,2.1,0.7,4.2,1.1,6.3c0.6,3.2-1,5.6-3.1,6.5C86.9,112.4,82.9,109.7,82.9,105.4z"/>
	<path class="st1" d="M74.7,106.7c0.4-2.4,0.7-5,1.1-7.7c0.3-2.2,0.7-4.5,1-6.7c0.1-0.5,0.2-1,0.3-1.4c0.4-0.8,1.2-1.3,2.1-1.2
		c0.9,0.1,1.6,0.8,1.8,1.8c0.4,2.3,0.6,4.7,1.1,7c0.4,2,0,3.8-0.3,5.7c-0.3,1.6-0.2,3.2,0.6,4.6c0.1,0.3,0.1,0.8-0.1,1.1
		c-1,1.5-3,2.1-4.7,1.5C75.9,111,74.6,109.1,74.7,106.7z"/>
	<path class="st1" d="M95.2,106c-0.3-1.3-0.5-2.4-0.6-3.4c-0.3-1.4-0.2-2.8,0.1-4.3c0.4-2.1,0.6-4.2,0.9-6.3
		c0.1-0.9,0.5-1.7,1.4-2.1c1.2-0.6,2.7,0.2,2.9,1.7c0.8,5,1.6,10,2.2,15c0.3,2.5-1.3,4.7-3.7,5.1c-1.6,0.3-3.4-0.5-4.2-1.9
		c-0.1-0.2-0.2-0.5-0.1-0.6C94.5,108.1,94.9,107,95.2,106z"/>
	<path class="st2" d="M90,112.3c0,1.1,0,2.1,0,3.3c-1,0-2.1,0-3.2,0c0-1.1,0-2.2,0-3.3C87.9,112.3,88.9,112.3,90,112.3z"/>
	<path class="st2" d="M80.1,115.6c-0.7,0-1.4,0-2.1,0c0-0.9,0-1.7,0-2.7c0.7,0,1.4,0,2.1,0C80.1,113.8,80.1,114.6,80.1,115.6z"/>
	<path class="st2" d="M98.8,112.9c0,0.9,0,1.8,0,2.7c-0.7,0-1.3,0-2,0c0-0.9,0-1.8,0-2.7C97.4,112.9,98.1,112.9,98.8,112.9z"/>
</g>
<g>
	<path class="st3" d="M27.2,112.4c-2.4-0.9-4.4,0.6-4.1,3.3c-2.8,1.1-6.5-0.8-7.7-3.7c-0.6-1.4-0.6-2.9-0.2-4.3
		c0.1-0.2,0.2-0.4,0.3-0.6c0.7-0.9,1.5-1.8,2.2-2.7c0.2-0.2,0.4-0.5,0.7-0.7c2.2-1.3,5.7-0.9,7.7,1.1
		C28.1,106.7,28.7,110,27.2,112.4z"/>
	<path class="st3" d="M11.5,96.2c3,0,5.5,2.4,5.5,5.4c0,3.1-2.4,5.6-5.5,5.5c-3.1,0-5.5-2.5-5.4-5.6C6.1,98.6,8.6,96.2,11.5,96.2z"
		/>
	<path class="st3" d="M5.6,111.6c1.9-0.3,3-1.3,3.2-3.2c1.4-0.3,3,0.4,3.8,1.6c0.8,1.5,0.7,3.4-0.4,4.5c-1.2,1.3-3,1.6-4.7,0.9
		C6.2,114.9,5.4,113.3,5.6,111.6z"/>
	<path class="st2" d="M16.5,120.3c2.1,0.2,3.6-0.7,4.2-2.5c0.2-0.6,0.6-0.8,1.1-0.7c0.2,2.3-2,4.1-5.3,4.4c0,0.7,0,1.3,0,2.1
		c-0.7,0-1.4,0-2.1,0c0-0.7,0-1.3,0-1.7c-1.3-0.5-2.5-0.8-3.6-1.5c-1.1-0.7-1.7-1.8-1.8-3.2c0.3,0,0.6,0,0.9-0.1
		c1.1,2.5,2.4,3.4,4.5,3.1c0-2.5,0-5,0-7.6c0.7,0.9,1.4,1.6,2,2.4c0.1,0.2,0.1,0.5,0.2,0.8C16.5,117.3,16.5,118.8,16.5,120.3z"/>
	<path class="st3" d="M19.8,94c1.4,0,2.7,1.2,2.7,2.7c0,1.5-1.2,2.8-2.7,2.8c-1.5,0-2.8-1.2-2.8-2.7C17.1,95.2,18.3,94,19.8,94z"/>
	<path class="st3" d="M5.5,106.1c1.2,0,2.2,0.9,2.2,2.1c0,1.2-0.9,2.2-2.1,2.2c-1.2,0-2.3-1-2.2-2.2C3.3,107,4.3,106.1,5.5,106.1z"
		/>
	<path class="st3" d="M27.5,114.9c0,0.9-0.7,1.6-1.6,1.6c-0.9,0-1.7-0.8-1.6-1.7c0-0.9,0.8-1.6,1.7-1.6
		C26.8,113.2,27.5,114,27.5,114.9z"/>
	<path class="st2" d="M20.3,100.6c0,0.4,0,0.7,0,1.1c-0.3,0.1-0.6,0.1-1,0.2c0-0.4,0-0.8,0-1.3C19.6,100.6,19.9,100.6,20.3,100.6z"
		/>
</g>
<g>
	<path class="st2" d="M86.2,136.3c0.5,0,1,0,1.4,0c0.6,0,1.1,0,1.8,0c0,1.4,0,2.8,0,4.1c-1,0-2.1,0-3.2,0
		C86.2,139.1,86.2,137.8,86.2,136.3z"/>
	<path class="st4" d="M87.2,135.7c-0.2,0-0.3,0-0.5-0.1c-0.5-0.1-0.8-0.5-1.3-0.6c-0.4-0.1-0.7-0.1-1-0.4c-0.4-0.3-0.8-0.5-1.3-0.3
		c-4.1,1.2-8.2-2.7-7.3-6.9c0.3-1.6,1.2-2.9,2.6-3.8c0.4-0.3,0.5-0.5,0.3-1c-0.5-1.1-0.9-2.2-0.7-3.5c0.4-2.1,2.4-3.5,4.3-3.5
		c0.6,0,0.8-0.1,1-0.6c0.7-1.9,2.2-3,4.2-3.2c2.2-0.2,3.9,0.7,4.9,2.6c0.5,1,0.9,1.3,2,1.3c3.2,0.1,4.9,3.4,3.5,6.3
		c-0.2,0.4-0.4,0.8-0.6,1.2c0.7,0.7,1.4,1.3,1.9,2.1c1.4,2.2,1.3,4.9-0.3,6.9c-1.5,2-4.4,2.9-6.8,1.9c-0.2-0.1-0.5,0-0.7,0.2
		c-1.2,0.7-2,1.4-3.5,1.4C87.7,135.8,87.5,135.8,87.2,135.7z"/>
</g>
<g>
	<path class="st2" d="M60,137c0.4,0,0.8,0,1.2,0c0.5,0,0.9,0,1.5,0c0,1.8,0,3.6,0,5.4c-0.8,0-1.7,0-2.6,0C60,140.6,60,138.8,60,137z
		"/>
	<path class="st4" d="M60.1,135.8c-4-0.4-7.2-4.5-5.6-8.7c0.8-1.9,1.9-3.7,2.9-5.5c1.3-2.3,2.6-4.5,3.9-6.9c0.7,1.3,1.4,2.4,2,3.6
		c1.4,2.4,2.7,4.8,4.1,7.1c2.4,3.9,0.6,8.7-3.7,10.1c-0.3,0.1-0.7,0.1-1.2,0.2c0-1.2,0-2.3,0-3.4c0-0.2,0.3-0.4,0.5-0.6
		c0.9-0.9,1.8-1.8,2.7-2.7c0.6-0.6,0.7-1.4,0.2-1.9c-0.4-0.5-1.2-0.4-1.8,0.2c-0.4,0.4-0.8,0.8-1.2,1.2c0,0-0.1,0.1-0.3,0.1
		c0-0.3-0.1-0.5-0.1-0.8c0-1.5,0-3,0-4.5c0-1.1-0.4-1.6-1.2-1.6c-0.7,0-1.2,0.6-1.2,1.6c0,1.4,0,2.9,0,4.3c0,0.3,0,0.6,0,1
		c-0.6-0.5-1-1-1.5-1.4c-0.6-0.6-1.4-0.7-1.8-0.2c-0.5,0.6-0.5,1.2,0.2,1.9c0.9,0.9,1.8,1.7,2.6,2.7c0.3,0.3,0.5,0.7,0.5,1.1
		C60.2,133.9,60.1,134.8,60.1,135.8z"/>
</g>
<g>
	<path class="st2" d="M70.4,134.5c0.3,0,0.5,0,0.8,0c0.3,0,0.6,0,1,0c0,2.2,0,4.3,0,6.5c-0.6,0-1.2,0-1.8,0
		C70.4,138.9,70.4,136.8,70.4,134.5z"/>
	<path class="st3" d="M71.1,116.9c2.1,2,3.7,4,4.5,6.6c0.8,2.6,0.1,4.9-1.3,7c-0.7,1.1-1.7,2.1-2.5,3.1c-0.3,0.3-0.6,0.6-1,0.1
		c-2-2-3.6-4.2-4.2-7c-0.4-2.3,0.4-4.2,1.5-6C68.9,119.4,70,118.3,71.1,116.9z"/>
</g>
<g>
	<path class="st2" d="M129.7,114.3c0.4,0,0.8,0,1.2,0c0.5,0,0.9,0,1.5,0c0,1.8,0,3.6,0,5.4c-0.8,0-1.7,0-2.6,0
		C129.7,118,129.7,116.2,129.7,114.3z"/>
	<path class="st6" d="M131.2,113c-2.2,0-4.3-0.1-6.5,0c-2.2,0.1-3.8-1-4.9-2.8c-1.7-2.8-1.1-6.9,1.5-8.8c1.1-0.8,1.6-1.8,2.1-3
		c0.9-2.4,2.4-4.3,4.9-5.5c3.6-1.7,7.5-0.3,9.6,2.7c0.8,1.1,1.3,2.3,1.8,3.6c0.3,0.9,0.7,1.5,1.5,2.1c2.2,1.7,2.8,4.1,2.3,6.7
		c-0.4,2.1-1.4,3.7-3.5,4.6c-0.5,0.2-1.2,0.3-1.7,0.3C135.9,113.1,133.6,113,131.2,113z"/>
</g>
<g>
	<path class="st0" d="M124.7,115.7c0-0.5,0-1,0-1.4c-0.1-1-0.8-1.7-1.7-1.7c-0.9,0-1.6,0.7-1.6,1.7c0,1.2,0,2.3,0,3.6
		c-0.3-0.2-0.4-0.3-0.5-0.4c-0.8-0.7-1.8-0.6-2.4,0.1c-0.6,0.7-0.6,1.6,0.1,2.3c0.7,0.8,1.5,1.6,2.3,2.3c0.8,0.7,0.5,1.7,0.4,2.4
		c0,0.3-1,0.6-1.6,0.6c-1.7,0.1-2.8-1-3.3-3.2c-2.3-0.6-3.2-1.6-3.2-3.5c0-1.7,1.1-2.8,3.1-3.2c0.2-0.6,0.4-1.2,0.7-1.7
		c0.3-0.4,0.7-1,1.1-1.1c1.2-0.3,2-1.1,2.9-1.9c1.4-1.2,3.8-1.1,4.9,0.9c0.1,0.2,0.3,0.5,0.6,0.5c1.9,0.2,2.9,1.3,3.2,3.2
		c2.4,0.8,3.4,1.8,3.3,3.6c-0.1,1.7-1.1,2.7-3.3,3.2c-0.2,1.1-0.5,2.1-1.6,2.7c-0.4,0.2-0.9,0.4-1.4,0.5c-1.5,0.2-1.8-0.2-1.9-1.7
		c-0.3-2.2,0.4-4,2.2-5.3c0.3-0.2,0.6-0.5,0.8-0.8c0.4-0.7,0.4-1.4-0.1-2c-0.5-0.6-1.4-0.8-2-0.4
		C125.3,115.2,125.1,115.4,124.7,115.7z"/>
	<path class="st0" d="M118.6,134.1c-0.3,1.6-1.3,2.3-2.7,2c-0.2-0.7-0.1-1.3,0.5-1.8c0.3-0.2,0.5-0.5,0.7-0.7
		c0.7-0.6,1.1-1.3,0.7-2.2c-0.3-0.9-1.1-1-2-1c0-1.2,0.1-2.6-1.6-2.8c-0.9-0.1-1.4,0.5-1.8,1.7c-0.3,0-0.7,0-1,0.1
		c-1.1,0.3-1.5,1.6-0.8,2.6c0.2,0.3,0.5,0.5,0.7,0.8c1.3,1.3,1.4,1.5,1,3.4c-1.3,0.2-2.2-0.3-2.6-1.5c-0.1-0.3-0.4-0.5-0.7-0.6
		c-1-0.4-1.6-1.2-1.6-2.2c0-1,0.7-1.7,1.7-2.1c0.2-0.1,0.4-0.4,0.6-0.6c0.2-0.2,0.2-0.6,0.4-0.8c1.1-0.8,2.3-1.6,3.5-2.2
		c0.8-0.4,1.6,0.1,2.2,0.8c0.2,0.3,0.6,0.4,1,0.7c0.5,0.4,1.2,0.7,1.4,1.2c0.3,0.7,0.6,1,1.3,1.2c0.8,0.3,1.2,1.1,1.2,2
		c0,0.9-0.5,1.6-1.3,2C119.2,133.9,118.9,134,118.6,134.1z"/>
	<path class="st0" d="M133.6,136.1c-0.4-1.6,0-2.8,1.3-3.8c1.1-0.9,1.1-2.1,0.1-2.7c-0.4-0.3-0.9-0.3-1.5-0.5
		c-0.4-1.2-1-1.7-1.9-1.5c-1.1,0.2-1.4,0.7-1.5,2.7c-0.2,0-0.4,0-0.7,0.1c-1.3,0.2-1.9,1.5-1.1,2.6c0.3,0.5,0.7,0.9,1.2,1.2
		c0.6,0.5,0.8,1.1,0.6,1.9c-1.2,0.2-2.2-0.2-2.5-1.4c-0.1-0.5-0.4-0.7-0.8-0.8c-1-0.3-1.5-1.1-1.5-2.1c0-0.9,0.7-1.7,1.6-2.1
		c0.3-0.1,0.6-0.4,0.7-0.6c0.3-0.9,0.9-1.4,1.8-1.6c0.2-0.1,0.5-0.3,0.7-0.5c1-1.4,2.6-1.4,3.7,0c0.2,0.2,0.5,0.4,0.8,0.5
		c0.9,0.2,1.4,0.8,1.7,1.6c0.1,0.2,0.4,0.5,0.6,0.6c1,0.4,1.6,1.1,1.6,2.1c0,1-0.6,1.8-1.6,2.1c-0.3,0.1-0.5,0.4-0.6,0.7
		C135.7,135.8,134.9,136.3,133.6,136.1z"/>
	<path class="st2" d="M123.8,118.5c0.6-0.7,1.3-1.4,2-2.1c0.2-0.2,0.6-0.1,0.9-0.2c-0.1,0.3,0,0.7-0.2,0.9c-0.7,0.8-1.5,1.6-2.3,2.3
		c-0.5,0.5-0.7,1-0.7,1.7c0,6.4,0,12.7,0,19.1c0,0.2,0.1,0.4,0,0.5c-0.1,0.2-0.3,0.4-0.5,0.6c-0.2-0.2-0.4-0.4-0.5-0.6
		c-0.1-0.2,0-0.4,0-0.6c0-5.7,0-11.4,0-17c0-0.4-0.2-0.9-0.5-1.2c-0.8-0.9-1.6-1.6-2.4-2.5c-0.2-0.2-0.2-0.7-0.2-1
		c0.3,0.1,0.8,0.1,1,0.3c0.7,0.6,1.3,1.3,1.9,2c0.1,0,0.2-0.1,0.2-0.1c0-1.7,0-3.3,0-5c0-0.3-0.1-0.7,0-1c0.1-0.3,0.3-0.5,0.5-0.7
		c0.2,0.3,0.5,0.5,0.6,0.8c0.1,1,0,2,0,3c0,0.3,0,0.5,0,0.8C123.6,118.4,123.7,118.4,123.8,118.5z"/>
	<path class="st2" d="M115,132.8c0.3-0.4,0.6-0.8,1-1.1c0.2-0.1,0.5-0.1,0.8-0.1c0,0.3,0,0.6-0.1,0.9c0,0-0.1,0.1-0.1,0.1
		c-1.7,1.1-2,2.8-1.8,4.7c0.1,1.1,0.1,2.2,0,3.2c0,0.3-0.3,0.5-0.5,0.8c-0.2-0.3-0.5-0.6-0.5-0.9c0-2.1,0-4.1,0-6.2
		c0-0.6-0.1-1.1-0.6-1.6c-0.5-0.4-0.9-0.8-1.3-1.3c-0.1-0.2,0-0.6-0.1-0.9c0.3,0,0.6,0,0.8,0.2c0.4,0.3,0.6,0.7,0.9,1.1
		c0.1-0.1,0.2-0.1,0.3-0.2c0-0.5,0-1.1,0-1.6c0-0.4-0.3-1.2,0.5-1.2c0.8,0,0.5,0.8,0.5,1.2c0,0.9,0,1.8,0,2.7
		C114.8,132.7,114.9,132.7,115,132.8z"/>
	<path class="st2" d="M131.3,132.7c0-1,0-2.1,0-3.1c0-0.3,0.3-0.5,0.5-0.8c0.2,0.3,0.5,0.5,0.5,0.8c0.1,0.7,0,1.3,0,2
		c0.1,0.1,0.2,0.1,0.2,0.2c0.3-0.4,0.6-0.8,1-1.1c0.2-0.1,0.6-0.1,0.8-0.1c0,0.3-0.1,0.5-0.1,0.8c0,0-0.1,0.1-0.1,0.1
		c-1.7,1.1-2,2.8-1.9,4.7c0.1,1.4,0.1,2.8,0,4.2c0,0.3-0.4,0.6-0.6,0.9c-0.2-0.3-0.5-0.6-0.5-0.9c0-1.7-0.1-3.4,0-5
		c0-0.7-0.1-1.1-0.7-1.6c-0.5-0.4-0.9-0.8-1.3-1.3c-0.1-0.2-0.1-0.6-0.1-0.9c0.3,0,0.6,0,0.8,0.1c0.4,0.3,0.7,0.7,1,1.1
		C131.1,132.8,131.2,132.7,131.3,132.7z"/>
</g>
<g>
	<path class="st3" d="M32.7,133.2c-5.1,0-10,0-15.2,0c0.6-0.8,1.3-1.5,1.7-2.2c1-1.7,2.4-2.4,4.4-2.2c1.6,0.2,3.3,0,4.9,0
		c0.3,0,0.6,0,0.7,0.2C30.5,130.3,31.5,131.7,32.7,133.2z"/>
	<path class="st4" d="M31.6,127.7c-4.4,0-8.6,0-13,0c1.1-1.4,2.2-2.7,3.2-4.1c0.1-0.2,0.5-0.2,0.7-0.2c1.7,0,3.4,0,5,0
		c0.3,0,0.6,0.1,0.8,0.3C29.5,124.9,30.5,126.2,31.6,127.7z"/>
	<path class="st0" d="M19.7,122.2c1.2-1.5,2.2-2.8,3.3-4.1c0.1-0.1,0.3-0.2,0.5-0.2c1.1,0,2.2,0,3.2,0c0.2,0,0.4,0.1,0.5,0.2
		c1.1,1.3,2.2,2.7,3.3,4.1C26.9,122.2,23.4,122.2,19.7,122.2z"/>
	<path class="st6" d="M29.1,116.7c-1.5,0-2.7,0-4,0c-1.2,0-2.5,0-3.9,0c1.3-2,2.5-3.9,3.9-6C26.4,112.7,27.7,114.6,29.1,116.7z"/>
	<path class="st2" d="M24.1,134.4c0.3,0,0.6,0,0.9,0c0.4,0,0.7,0,1.1,0c0,1.8,0,3.6,0,5.4c-0.6,0-1.3,0-2,0
		C24.1,138,24.1,136.2,24.1,134.4z"/>
</g>
<g>
	<path class="st3" d="M89.4,121.9c0.1-3.6,2.7-6.3,6.3-6.6c0.7,0,1-0.3,1.3-0.8c1.4-2.7,3.7-4.1,6.8-4.1c3.1,0,5.4,1.5,6.8,4.2
		c0.3,0.5,0.5,0.7,1.1,0.8c3.1,0.1,5.6,2.3,6.2,5.2c0.6,3.1-0.9,6.1-3.6,7.3c-2.8,1.3-6,0.6-7.9-1.9c-0.3-0.4-0.6-0.5-1.1-0.4
		c-0.9,0.1-1.9,0.1-2.9,0c-0.5,0-0.8,0-1.1,0.4c-1.7,2.1-4,2.9-6.7,2.3c-2.7-0.6-4.3-2.4-4.9-5.2C89.5,122.7,89.5,122.3,89.4,121.9z
		"/>
	<path class="st2" d="M105.3,126.9c0,1.2,0,2.3,0,3.8c1-0.7,1.7-1.2,2.6-1.8c0.2,0.1,0.5,0.2,0.8,0.4c-0.7,1-1.5,1.8-2.6,2.1
		c-0.6,0.2-0.7,0.5-0.7,1.1c0,2.6,0,5.1,0,7.7c0,0.3,0,0.7,0,1c-1.1,0-2.1,0-3.2,0c0-1.9,0-3.8,0-5.7c0-0.5,0-0.9,0-1.4
		c0.2-1.5,0.1-2.8-1.7-3.3c-0.6-0.2-1.1-0.9-1.7-1.5c0.4-0.2,0.7-0.3,0.9-0.4c0.8,0.6,1.5,1.1,2.5,1.8c0-1.4,0-2.6,0-3.8
		C103.2,126.9,104.2,126.9,105.3,126.9z"/>
</g>
<text transform="matrix(1 0 0 1 31.5371 76.5917)" class="st2 st7 st8">bosque</text>
</svg>
