<?xml version="1.0" encoding="utf-8"?>
<!-- Generator: Adobe Illustrator 24.0.2, SVG Export Plug-In . SVG Version: 6.00 Build 0)  -->
<svg version="1.1" id="Capa_1" xmlns="http://www.w3.org/2000/svg" xmlns:xlink="http://www.w3.org/1999/xlink" x="0px" y="0px"
	 viewBox="0 0 144 144" style="enable-background:new 0 0 144 144;" xml:space="preserve">
<style type="text/css">
	.st0{fill:#D93715;}
	.st1{fill:#E9E3C3;}
</style>
<path class="st0" d="M137.5,116.2H7.5c-3.9,0-7-3.1-7-7V7.2c0-3.9,3.1-7,7-7h130c3.9,0,7,3.1,7,7v102
	C144.5,113.1,141.4,116.2,137.5,116.2z"/>
<path class="st0" d="M51.1,141.4l-14.6-25.2h36l-14.6,25.2C56.5,143.8,52.5,143.8,51.1,141.4z"/>
<g>
	<path d="M115.4,85.9c-29.3,0-58.5,0-87.9,0c0-17.4,0-34.8,0-52.1c1.1-0.4,2.1-1,3.2-1.1c2.1-0.2,4.1,0,6.4,0c0-1.3,0-2.1,0-3
		c0-3.6,0.3-3.9,3.9-3.8c10,0.3,19.8,2.1,29.1,5.8c1.5,0.6,2.7,0.6,4.2,0c9.2-3.6,18.8-5.4,28.6-5.8c4-0.1,4.2,0,4.2,3.9
		c0,0.8,0,1.7,0,2.9c2.4,0,4.5,0,6.7,0c2.8,0,3.1,0.4,3.2,3.1c0,15.6,0,31.3-0.1,46.9C116.8,83.8,115.9,84.8,115.4,85.9z M70.3,81.1
		c0-15,0-29.6-0.1-44.3c0-0.5-0.7-1.4-1.2-1.6c-2.6-1-5.3-1.9-8-2.7c-6.5-1.8-13.1-2.8-20-2.9c0,15.2,0,30.3,0,45.5
		C51,75.5,60.6,77.4,70.3,81.1z M103.4,29.6c-0.9,0-1.7,0-2.4,0C92.4,30.2,84,31.9,76,34.9c-1.5,0.5-2,1.2-2,2.8
		c0.1,13.8,0,27.5,0.1,41.3c0,0.6,0.1,1.1,0.2,1.9c9.5-3.7,19.1-5.5,29.1-5.9C103.4,59.9,103.4,44.8,103.4,29.6z M59.4,81.8
		c0-0.1,0-0.2,0.1-0.4c-1.5-0.3-3-0.8-4.5-1c-4.7-0.6-9.5-1.2-14.2-1.6c-3.2-0.3-3.4-0.3-3.4-3.6c0-12.1,0-24.3,0-36.4
		c0-0.8,0-1.6,0-2.5c-2.2,0-4,0-6,0c0,15.2,0,30.3,0,45.4C40.8,81.8,50.1,81.8,59.4,81.8z M84.8,81.4c0,0.1,0.1,0.2,0.1,0.3
		c9.3,0,18.7,0,28,0c0-15.2,0-30.3,0-45.4c-2,0-3.9,0-5.9,0c0,1,0,1.8,0,2.7c0,12.3,0,24.6,0,36.8c0,2.1-0.8,2.9-2.9,3
		c-3.8,0.2-7.7,0.5-11.5,1C90.1,80.2,87.5,80.9,84.8,81.4z"/>
	<path class="st1" d="M70.3,81.1c-9.6-3.7-19.3-5.6-29.3-6c0-15.2,0-30.3,0-45.5c6.9,0.1,13.5,1.1,20,2.9c2.7,0.8,5.4,1.7,8,2.7
		c0.6,0.2,1.2,1,1.2,1.6C70.3,51.4,70.3,66.1,70.3,81.1z"/>
	<path class="st1" d="M103.4,29.6c0,15.2,0,30.3,0,45.5c-10,0.5-19.7,2.2-29.1,5.9c-0.1-0.8-0.2-1.4-0.2-1.9c0-13.8,0-27.5-0.1-41.3
		c0-1.6,0.5-2.3,2-2.8c8-3,16.4-4.7,24.9-5.3C101.7,29.5,102.5,29.6,103.4,29.6z"/>
	<path class="st1" d="M59.4,81.8c-9.3,0-18.6,0-28,0c0-15.2,0-30.2,0-45.4c1.9,0,3.8,0,6,0c0,0.9,0,1.7,0,2.5c0,12.1,0,24.3,0,36.4
		c0,3.3,0.2,3.3,3.4,3.6c4.7,0.4,9.5,1,14.2,1.6c1.5,0.2,3,0.7,4.5,1C59.4,81.6,59.4,81.7,59.4,81.8z"/>
	<path class="st1" d="M84.8,81.4c2.6-0.5,5.2-1.2,7.9-1.6c3.8-0.5,7.6-0.8,11.5-1c2.1-0.1,2.9-0.9,2.9-3c-0.1-12.3,0-24.6,0-36.8
		c0-0.8,0-1.7,0-2.7c2.1,0,3.9,0,5.9,0c0,15.1,0,30.2,0,45.4c-9.3,0-18.7,0-28,0C84.9,81.7,84.9,81.6,84.8,81.4z"/>
	<path d="M70.3,15.8c0-0.9-0.2-2,0.1-2.8c0.3-0.8,1.1-1.6,1.9-1.8c0.5-0.1,1.6,1,1.7,1.6c0.2,2.2,0.2,4.4,0,6.5
		c-0.1,0.7-1.2,1.8-1.7,1.7c-0.7-0.2-1.7-1-1.9-1.8C70.1,18.2,70.3,17,70.3,15.8z"/>
	<path d="M59.9,14.4c2.1,0.8,2.5,3.2,3.7,5c0.6,1,1,2.3,0.8,3.4c-0.2,1.2-2.2,1.2-3-0.1c-1.2-1.8-2.3-3.7-3.3-5.6
		C57.4,15.7,58.2,14.5,59.9,14.4z"/>
	<path d="M86.8,16.4c-1.5,2.4-2.9,4.7-4.4,6.9c-0.2,0.3-1.5,0.4-1.9,0c-0.5-0.4-1-1.5-0.8-1.9c1.1-2.2,2.3-4.4,3.7-6.4
		c0.3-0.4,1.4-0.5,2.1-0.4C85.9,14.8,86.2,15.6,86.8,16.4z"/>
	<path d="M48.4,37.4c5.2,1.1,9.9,2.1,14.6,3.3c0.8,0.2,1.8,1.5,1.8,2.2c-0.1,1.4-1.4,1.6-2.7,1.3c-4.6-1-9.2-1.8-13.8-2.9
		c-0.7-0.2-1.4-0.9-1.5-1.6C46.7,38.6,47.7,38,48.4,37.4z"/>
	<path d="M48.9,46.8c1.2-0.1,2.6,0.2,3.3,0.3c3.4,0.7,6.9,1.5,10.3,2.3c1.3,0.3,2.8,0.7,2.3,2.5c-0.5,1.8-2,1.3-3.3,1
		c-4.2-0.9-8.4-1.8-12.6-2.6c-1.4-0.3-3-0.3-2.5-2.1C46.7,47.2,47.8,46.8,48.9,46.8z"/>
	<path d="M46.7,56c0.1-0.2,0.4-0.4,0.7-0.5c1.1-0.4,2.8,0.2,3.9,0.4c1,0.2,2.1,0.3,3.1,0.5c2.9,0.6,5.8,1.3,8.6,1.9
		c1.2,0.3,2.5,1,1.7,2.4c-0.4,0.7-1.9,1.2-2.8,1c-4.5-0.8-9-1.7-13.5-2.7C47.3,58.8,46.1,57,46.7,56z"/>
	<path d="M48.2,64c5.3,1.2,10.3,2.3,15.2,3.5c0.8,0.2,1.2,1.4,0.9,2.1c-0.3,0.8-1.1,1.4-1.9,1.2c-4.9-0.8-9.7-1.8-14.5-2.9
		c-0.7-0.2-1.6-1.3-1.5-1.9C46.5,65.3,47.5,64.7,48.2,64z"/>
	<path d="M80.7,43.8c-0.8-0.1-1.3-0.3-1.2-0.9c0.1-0.8,0.8-2,1.5-2.2c4.1-1,8.2-1.9,12.3-2.7c1-0.2,2.1-0.5,3-0.3
		c0.7,0.1,1.5,0.9,1.7,1.6c0.1,0.5-0.6,1.7-1,1.8c-3.2,0.7-6.4,1.3-9.6,1.9C86.7,43,82.8,44,80.7,43.8z"/>
	<path d="M96.2,46.5c0.9,0.1,1.6,0.6,1.8,1.7c0.1,0.6-0.8,1.7-1.5,1.9c-4.8,1.1-9.6,2.1-14.4,2.9c-0.6,0.1-2-0.2-2.3-0.7
		c-0.4-0.7,0.6-2.4,1.4-2.6c2.6-0.7,5.2-1.3,7.8-1.8c1.4-0.3,2.8-0.6,4.2-0.9C93.8,46.6,95.1,46.4,96.2,46.5z"/>
	<path d="M80.7,61.9c-0.1-0.1-1.2-0.6-1.2-1.1c0-0.7,0.6-2,1.2-2.1c5.2-1.2,10.4-2.2,15.6-3.2c0.5-0.1,1.6,0.9,1.7,1.5
		c0.1,0.6-0.6,1.8-1.1,1.9C91.7,59.9,86.5,60.8,80.7,61.9z"/>
	<path d="M80.5,70.9c-0.4-0.1-0.8-0.3-1-0.8c-0.3-0.8,0.4-2.4,1.3-2.6c2.7-0.9,5.4-1.5,8.1-2.1c2.3-0.5,4.6-0.8,6.9-0.9
		c1.9-0.1,2.3,3,0.5,3.4c-4.9,1.1-9.8,2.1-14.6,3C81.3,70.9,80.9,71,80.5,70.9z"/>
</g>
<g>
	<g>
		<path class="st1" d="M32.9,99.2v-1l1.3-0.2v-6l-1.3-0.2v-1h2.6l0.1,1.3c0.3-0.4,0.6-0.8,1.1-1c0.4-0.2,0.9-0.4,1.4-0.4
			c0.9,0,1.6,0.3,2.1,0.8c0.5,0.5,0.8,1.4,0.8,2.5V98l1.3,0.2v1h-4.1v-1l1.3-0.2v-4.1c0-0.7-0.1-1.3-0.4-1.6s-0.7-0.5-1.3-0.5
			c-0.4,0-0.8,0.1-1.2,0.3c-0.3,0.2-0.6,0.5-0.8,0.9v5l1.3,0.2v1H32.9z"/>
		<path class="st1" d="M46.1,99.4c-0.9,0-1.5-0.2-2-0.6s-0.7-1-0.7-1.8c0-0.5,0.1-1,0.4-1.4s0.7-0.7,1.3-0.9c0.6-0.2,1.2-0.3,2-0.3
			h1.5v-0.8c0-0.5-0.2-0.9-0.5-1.2s-0.7-0.4-1.3-0.4c-0.4,0-0.7,0-0.9,0.1s-0.5,0.2-0.7,0.4l-0.2,1.2h-1.2v-1.9
			c0.4-0.3,0.8-0.5,1.3-0.7c0.5-0.2,1.1-0.2,1.7-0.2c1,0,1.8,0.2,2.4,0.7c0.6,0.5,0.9,1.2,0.9,2.1v4.1c0,0.1,0,0.2,0,0.3
			c0,0.1,0,0.2,0,0.3l0.8,0.1v1h-2.2c0-0.2-0.1-0.4-0.1-0.6c0-0.2,0-0.4-0.1-0.5c-0.3,0.4-0.7,0.7-1.1,0.9
			C47.1,99.3,46.6,99.4,46.1,99.4z M46.4,98.1c0.5,0,1-0.1,1.4-0.4c0.4-0.2,0.7-0.5,0.9-0.9v-1.5h-1.6c-0.7,0-1.2,0.2-1.6,0.5
			C45.2,96.2,45,96.5,45,97c0,0.4,0.1,0.7,0.3,0.8S45.9,98.1,46.4,98.1z"/>
		<path class="st1" d="M52.2,99.2v-1l1.3-0.2v-6l-1.3-0.2v-1h2.6l0.1,1.1l0,0.1c0.2-0.4,0.5-0.8,0.9-1c0.4-0.2,0.8-0.4,1.2-0.4
			c0.2,0,0.3,0,0.5,0c0.2,0,0.3,0.1,0.4,0.1l-0.2,1.4l-1.1-0.1c-0.4,0-0.7,0.1-1,0.3s-0.5,0.5-0.6,0.8V98l1.3,0.2v1H52.2z"/>
		<path class="st1" d="M58.9,99.2v-1l1.3-0.2v-6l-1.3-0.2v-1h2.6l0.1,1.1l0,0.1c0.2-0.4,0.5-0.8,0.9-1c0.4-0.2,0.8-0.4,1.2-0.4
			c0.2,0,0.3,0,0.5,0c0.2,0,0.3,0.1,0.4,0.1l-0.2,1.4l-1.1-0.1c-0.4,0-0.7,0.1-1,0.3s-0.5,0.5-0.6,0.8V98l1.3,0.2v1H58.9z"/>
		<path class="st1" d="M68.3,99.4c-0.9,0-1.5-0.2-2-0.6s-0.7-1-0.7-1.8c0-0.5,0.1-1,0.4-1.4s0.7-0.7,1.3-0.9c0.6-0.2,1.2-0.3,2-0.3
			h1.5v-0.8c0-0.5-0.2-0.9-0.5-1.2s-0.7-0.4-1.3-0.4c-0.4,0-0.7,0-0.9,0.1s-0.5,0.2-0.7,0.4l-0.2,1.2h-1.2v-1.9
			c0.4-0.3,0.8-0.5,1.3-0.7c0.5-0.2,1.1-0.2,1.7-0.2c1,0,1.8,0.2,2.4,0.7c0.6,0.5,0.9,1.2,0.9,2.1v4.1c0,0.1,0,0.2,0,0.3
			c0,0.1,0,0.2,0,0.3l0.8,0.1v1H71c0-0.2-0.1-0.4-0.1-0.6c0-0.2,0-0.4-0.1-0.5c-0.3,0.4-0.7,0.7-1.1,0.9
			C69.3,99.3,68.8,99.4,68.3,99.4z M68.6,98.1c0.5,0,1-0.1,1.4-0.4c0.4-0.2,0.7-0.5,0.9-0.9v-1.5h-1.6c-0.7,0-1.2,0.2-1.6,0.5
			c-0.4,0.3-0.5,0.7-0.5,1.1c0,0.4,0.1,0.7,0.3,0.8S68.1,98.1,68.6,98.1z"/>
		<path class="st1" d="M77.4,99.4c-0.6,0-1.1-0.2-1.5-0.6s-0.6-1-0.6-1.8v-5.1H74v-1.1h1.3v-2h1.5v2h1.8v1.1h-1.8V97
			c0,0.4,0.1,0.7,0.2,0.9c0.2,0.2,0.4,0.3,0.6,0.3c0.2,0,0.4,0,0.6-0.1c0.2,0,0.4-0.1,0.5-0.1l0.2,1c-0.2,0.1-0.5,0.1-0.8,0.2
			S77.7,99.4,77.4,99.4z"/>
		<path class="st1" d="M80.1,99.2v-1l1.3-0.2v-6l-1.3-0.2v-1h2.8V98l1.3,0.2v1H80.1z M81.3,88.7V87h1.6v1.6H81.3z"/>
		<path class="st1" d="M88.7,99.2l-3-7.3l-0.9-0.1v-1h3.5v1l-1.1,0.2l1.9,4.8l0.2,0.7h0l0.2-0.7l1.7-4.8l-1.1-0.2v-1h3.5v1L93,91.9
			l-2.9,7.3H88.7z"/>
		<path class="st1" d="M97.4,99.4c-0.9,0-1.5-0.2-2-0.6s-0.7-1-0.7-1.8c0-0.5,0.1-1,0.4-1.4s0.7-0.7,1.3-0.9c0.6-0.2,1.2-0.3,2-0.3
			h1.5v-0.8c0-0.5-0.2-0.9-0.5-1.2s-0.7-0.4-1.3-0.4c-0.4,0-0.7,0-0.9,0.1s-0.5,0.2-0.7,0.4l-0.2,1.2h-1.2v-1.9
			c0.4-0.3,0.8-0.5,1.3-0.7c0.5-0.2,1.1-0.2,1.7-0.2c1,0,1.8,0.2,2.4,0.7c0.6,0.5,0.9,1.2,0.9,2.1v4.1c0,0.1,0,0.2,0,0.3
			c0,0.1,0,0.2,0,0.3l0.8,0.1v1h-2.2c0-0.2-0.1-0.4-0.1-0.6c0-0.2,0-0.4-0.1-0.5c-0.3,0.4-0.7,0.7-1.1,0.9
			C98.4,99.3,97.9,99.4,97.4,99.4z M97.6,98.1c0.5,0,1-0.1,1.4-0.4c0.4-0.2,0.7-0.5,0.9-0.9v-1.5h-1.6c-0.7,0-1.2,0.2-1.6,0.5
			c-0.4,0.3-0.5,0.7-0.5,1.1c0,0.4,0.1,0.7,0.3,0.8S97.2,98.1,97.6,98.1z"/>
		<path class="st1" d="M106.9,99.4c-0.6,0-1.1-0.1-1.6-0.2s-1-0.3-1.6-0.5l0-2h1.2l0.3,1.2c0.3,0.1,0.6,0.2,0.8,0.3s0.6,0.1,0.9,0.1
			c0.6,0,1.1-0.1,1.3-0.4c0.3-0.2,0.4-0.5,0.4-0.9c0-0.3-0.1-0.6-0.4-0.8c-0.3-0.2-0.8-0.4-1.5-0.6c-1-0.2-1.8-0.5-2.3-0.9
			c-0.5-0.4-0.7-0.9-0.7-1.6c0-0.5,0.1-0.9,0.4-1.2c0.3-0.4,0.6-0.6,1.1-0.9c0.5-0.2,1-0.3,1.7-0.3c0.6,0,1.2,0.1,1.6,0.2
			c0.5,0.1,0.9,0.3,1.2,0.6l0.1,1.9h-1.2l-0.2-1.1c-0.2-0.1-0.4-0.2-0.6-0.3c-0.2-0.1-0.5-0.1-0.9-0.1c-0.5,0-0.9,0.1-1.2,0.3
			c-0.3,0.2-0.4,0.5-0.4,0.8c0,0.2,0,0.4,0.1,0.5c0.1,0.1,0.3,0.3,0.5,0.4s0.6,0.2,1.1,0.3c1.2,0.3,2,0.6,2.5,1.1
			c0.5,0.4,0.7,1,0.7,1.6c0,0.7-0.3,1.3-0.8,1.8C108.9,99.2,108.1,99.4,106.9,99.4z"/>
	</g>
</g>
</svg>
