<svg id="b587332e-0dfb-4672-b484-aec2e9c77919" data-name="Capa 1" xmlns="http://www.w3.org/2000/svg" width="20" height="20" viewBox="0 0 20 20"><defs><style>.b723aab0-9d95-4780-8f1d-e53f3cf2428f{fill:#264de4;}.bd0a86ef-4850-4c35-acd6-09342c35a8b9{fill:#2965f1;}.e56f4714-4987-4379-b927-fbd6dab4a54a{fill:#ebebeb;}.a3364004-a8a1-4b9f-bc13-c8e97d14bc57{fill:#fff;}</style></defs><title>_</title><path class="b723aab0-9d95-4780-8f1d-e53f3cf2428f" d="M9.99229,19.3l-5.3328-1.479L3.47018,4.5H16.52982L15.34043,17.81847Z"/><path class="bd0a86ef-4850-4c35-acd6-09342c35a8b9" d="M14.32157,16.97131l1.01761-11.382H10v12.579Z"/><path class="e56f4714-4987-4379-b927-fbd6dab4a54a" d="M6.19486,10.52992,6.341,12.164H10V10.52992Z"/><path class="e56f4714-4987-4379-b927-fbd6dab4a54a" d="M5.90011,7.22342l.14863,1.634H10v-1.634Z"/><path class="e56f4714-4987-4379-b927-fbd6dab4a54a" d="M10,14.77339l-.00641.00125-1.82112-.49085L8.0558,12.98043H6.41529l.2281,2.56573,3.3489.92922L10,16.47279Z"/><path d="M6.54342.7H8.52357v.82666H7.37267v.82792H8.52482v.82792H6.54342Z"/><path d="M8.92087.7h1.98007v.719H9.74879v.14354h1.15215V3.21838H8.92087V2.46219H10.073V2.31865H8.91954V.7Z"/><path d="M11.297.7h1.98007v.719H12.1249v.14354h1.15215V3.21838H11.297V2.46219h1.15216V2.31865H11.297V.7Z"/><path class="a3364004-a8a1-4b9f-bc13-c8e97d14bc57" d="M13.79481,10.52992l.29608-3.3065h-4.096v1.634h2.303l-.1487,1.67249H9.99488V12.164h2.01339l-.18969,2.11853-1.8237.4921V16.474l3.3514-.92789.02433-.27676.38447-4.30111Z"/></svg>