<svg id="f9aa1ba2-0e7d-426f-a034-6ff2e8cdbb9f" data-name="Capa 1" xmlns="http://www.w3.org/2000/svg" width="20" height="20" viewBox="0 0 20 20"><defs><style>.b4b55011-6d04-4c80-a9f5-847da988d1f5{fill:#0acf83;}.ab3c32c0-f770-4cf9-84f3-89e512233415{fill:#a259ff;}.fe2e70f7-251c-4015-967c-ad3d14490fd0{fill:#f24e1e;}.bfddd7a4-0bcc-4f6f-8f74-10af50448cd5{fill:#ff7262;}.f3bf3764-73b3-4e04-bc07-15ec3cb18396{fill:#1abcfe;}</style></defs><title>_</title><path class="b4b55011-6d04-4c80-a9f5-847da988d1f5" d="M6.82122,19.54a3.17931,3.17931,0,0,0,3.17951-3.17952v-3.181H6.82122a3.18025,3.18025,0,1,0,0,6.3605Z"/><path class="ab3c32c0-f770-4cf9-84f3-89e512233415" d="M3.64024,10a3.18056,3.18056,0,0,1,3.181-3.17952h3.17951v6.359H6.82122A3.18056,3.18056,0,0,1,3.64024,10Z"/><path class="fe2e70f7-251c-4015-967c-ad3d14490fd0" d="M3.64024,3.63955A3.1805,3.1805,0,0,1,6.82122.46h3.17951V6.82044H6.82122A3.18174,3.18174,0,0,1,3.64024,3.63955Z"/><path class="bfddd7a4-0bcc-4f6f-8f74-10af50448cd5" d="M10.00073.46h3.17952a3.18021,3.18021,0,0,1,0,6.36041H10.00073Z"/><path class="f3bf3764-73b3-4e04-bc07-15ec3cb18396" d="M16.35976,10a3.17952,3.17952,0,1,1-3.17951-3.17952A3.17931,3.17931,0,0,1,16.35976,10Z"/></svg>