<svg id="a861bfb5-75ed-4621-ab5d-1c1d5d9f57c4" data-name="Capa 1" xmlns="http://www.w3.org/2000/svg" width="20" height="20" viewBox="0 0 20 20"><defs><style>.ec46f18f-1380-4ef8-8cf3-bfeceb933e14{fill:#470137;}.ac24d3e3-9a53-409a-9378-bf27fc3a4204,.b8b1ac44-8ec9-46e3-b4c7-403e375342ab{fill:#ff61f6;}.ac24d3e3-9a53-409a-9378-bf27fc3a4204{fill-rule:evenodd;}</style></defs><title>_</title><path class="ec46f18f-1380-4ef8-8cf3-bfeceb933e14" d="M.5,10A9.5,9.5,0,1,1,10,19.5,9.4998,9.4998,0,0,1,.5,10Z"/><path class="b8b1ac44-8ec9-46e3-b4c7-403e375342ab" d="M10.45885,6.44318,8.22635,10.1387,10.608,14.05745a.131.131,0,0,1,.0152.08929c-.0076.03044-.038.0076-.08266.01519H8.8372c-.11971,0-.2014-.00759-.25365-.08262-.1558-.31352-.32015-.61938-.476-.9329-.15676-.30592-.32776-.61938-.50634-.94049s-.35721-.64222-.5358-.97H7.0512c-.15676.32112-.32775.64124-.49875.96235-.172.32112-.34294.64217-.50634.95569-.171.31351-.342.63463-.514.94049-.02946.07509-.0893.08268-.171.08268H3.72431c-.02945,0-.05227.01421-.05227-.02284a.10106.10106,0,0,1,.01522-.0817L6.00144,10.265,3.74614,6.43559c-.02183-.0294-.02945-.05886-.01423-.07411A.08446.08446,0,0,1,3.806,6.3311H5.4951a.4328.4328,0,0,1,.10451.01519.20736.20736,0,0,1,.0741.06749c.14154.32106.30494.64217.47689.96236.17859.321.34961.63457.53579.94808.17862.31352.342.627.49875.94809H7.1994c.15676-.32772.32016-.64884.48355-.96235.16436-.31352.33535-.627.50634-.94049s.33535-.63463.49875-.94049a.126.126,0,0,1,.04465-.07509.13972.13972,0,0,1,.09692-.01519h1.57033a.06864.06864,0,0,1,.0817.05224C10.48926,6.39854,10.474,6.429,10.45885,6.44318Z"/><path class="ac24d3e3-9a53-409a-9378-bf27fc3a4204" d="M12.2971,13.98242a3.68423,3.68423,0,0,0,1.59979.3363,6.52533,6.52533,0,0,0,1.14665-.10449,5.71224,5.71224,0,0,0,1.21316-.35816.12147.12147,0,0,0,.0741-.11974c-.001-.01994-.00191-.03989-.0038-.05983-.00571-.113-.0133-.24035-.02565-.37336-.001-.01519-.00189-.02946-.00189-.04465-.00762-.14629-.01331-.28116-.01331-.40281V5.73451a.06605.06605,0,0,0-.0741-.05224H14.7006c-.05129,0-.0741.02945-.0741.08169V8.12279c-.04085-.00284-.07979-.00476-.115-.00661-.0418-.00192-.07978-.00383-.11588-.00858a1.48363,1.48363,0,0,0-.1558-.00661,3.80042,3.80042,0,0,0-1.88292.4322,3.06341,3.06341,0,0,0-1.59315,2.73224,3.24008,3.24008,0,0,0,.40945,1.70239A2.60329,2.60329,0,0,0,12.2971,13.98242Zm2.3294-4.44124V12.8253a.63847.63847,0,0,1-.26789.038c-.09692.00759-.20045.0142-.31256.0142a1.93341,1.93341,0,0,1-.61749-.09689,1.29088,1.29088,0,0,1-.50637-.29826,1.46356,1.46356,0,0,1-.33439-.53015,2.08,2.08,0,0,1-.12635-.76851,1.54054,1.54054,0,0,1,.87781-1.501A1.8351,1.8351,0,0,1,14.18,9.48893c.0817,0,.1634.0076.24606.0152A1.85517,1.85517,0,0,1,14.6265,9.54118Z"/></svg>