<svg id="adac7313-8125-4e53-8e6d-8c04c0affed2" data-name="Capa 1" xmlns="http://www.w3.org/2000/svg" width="20" height="20" viewBox="0 0 20 20"><defs><style>.b7785164-1f21-452d-88a2-9d20ad1fa60b{fill:#eff4f4;}.e858fc1d-3dc1-4774-a7ad-5e507eda3076{fill:#0b0b0a;fill-rule:evenodd;}</style></defs><title>_</title><circle class="b7785164-1f21-452d-88a2-9d20ad1fa60b" cx="10" cy="10" r="10"/><path class="e858fc1d-3dc1-4774-a7ad-5e507eda3076" d="M15.16118,8.358l.0015.01a.35523.35523,0,0,1,.00385.0577v3.14845a.37055.37055,0,0,1-.00385.05848l-.00075.00385-.00075.0046-.0008.00463-.00075.00615a.32728.32728,0,0,1-.00845.03692l-.00385.01385-.0031.00768-.00155.00462-.0092.0277-.01.02153-.0154.03-.00845.01308-.0046.00692a.20934.20934,0,0,1-.0185.02693l-.01535.01922a.22466.22466,0,0,1-.02231.02385v.00078h0l-.01694.01692-.0254.02153-.00615.00463-.01386.01-.00384.00307-.00381.00308-4.72233,3.14767a.44454.44454,0,0,1-.49308,0L5.03117,11.94414l-.00385-.00308h0L5.02423,11.938a.22351.22351,0,0,1-.02-.01463.23334.23334,0,0,1-.02536-.02153l-.0177-.0177a.21567.21567,0,0,1-.0223-.02385l-.0154-.01922L4.905,11.81413l-.0131-.02-.0146-.03-.00385-.00692h0l-.00615-.01461-.0108-.02925-.00075-.00307-.0023-.00615-.0046-.01538-.0077-.03692-.0008-.00538h0l-.003-.01385a.499.499,0,0,1-.00385-.05848V8.42567a.4758.4758,0,0,1,.00385-.0577l.003-.0146.0008-.00463h0c.0023-.0123.0046-.02537.0077-.03692l.0046-.01538.0023-.00615a.20305.20305,0,0,1,.01155-.0323l.0092-.02155h0l.0008-.00078c.0046-.01.0092-.02.0146-.02922l.0131-.02078.01845-.02692.0154-.01923a.32428.32428,0,0,1,.0223-.02385l.003-.00383h0l.01465-.01307a.23126.23126,0,0,1,.02536-.02155.136.136,0,0,1,.02-.01538l.00309-.00232h0l.00385-.00308L9.75346,4.908a.44557.44557,0,0,1,.49308,0l4.72233,3.14845.00381.00308.00154.00077.0023.00155.01386.01075h0l.00615.00463.0254.02155.0123.01152.00464.00538c.00766.0077.01536.0154.02231.02385l.01535.01923a.20924.20924,0,0,1,.0185.02692l.0038.00618.00925.0146.0154.02922.01.02233a.3094.3094,0,0,1,.01075.0323l.0031.00768h0l.00385.01385a.29373.29373,0,0,1,.00845.03692h0l.00155.00923Zm-1.2377.06848L10.44424,6.1072V8.178l1.92538,1.28767ZM9.55576,6.1072V8.178L7.63118,9.46566,6.07732,8.42645ZM6.8327,10.00028,5.72115,9.25721v1.48615Zm2.72306,3.89231L6.07732,11.57337l1.55386-1.03846,1.92458,1.28692ZM8.42961,10.00028l1.57077,1.05,1.57-1.05-1.57-1.05076Zm2.01463,3.89231V11.82183l1.92538-1.28692,1.55386,1.03846Zm2.72386-3.89231,1.11075.74308V9.25721Z"/></svg>