<svg id="a215f1a1-48e4-4dfe-b0fe-744c4a615c78" data-name="Capa 1" xmlns="http://www.w3.org/2000/svg" width="20" height="20" viewBox="0 0 20 20"><defs><style>.f80ab866-3eca-4711-af66-25aa9c0c9c7c{fill:#0098f3;}.b739035c-caf4-420c-80af-ea718f111ed7{fill:#0298f3;}</style></defs><title>_</title><path class="f80ab866-3eca-4711-af66-25aa9c0c9c7c" d="M10.96739,3.18041a.21078.21078,0,0,1,.09678.19819c-.00346.46663-.00145.9333-.0018,1.4-.0001.13845-.04891.19162-.18527.1919q-.80026.00167-1.60054-.00071c-.13647-.00033-.18519-.05208-.18531-.19076-.0004-.46683.00179-.93367-.00188-1.40047a.20894.20894,0,0,1,.09745-.19811Z"/><path class="f80ab866-3eca-4711-af66-25aa9c0c9c7c" d="M7.33292,9.63573c2.07379,0,4.1476.00394,6.22137-.003a3.342,3.342,0,0,0,1.36761-.29121c.04742-.02128.08139-.03575.04264-.10066a2.67763,2.67763,0,0,1-.26578-2.114,3.62312,3.62312,0,0,1,.60714-1.26931c.02381-.03225.04-.05362.08961-.02662a2.97388,2.97388,0,0,1,1.50712,1.81757,2.30278,2.30278,0,0,1,.06409.27546c.00856.05144.01988.06778.07652.05883a4.218,4.218,0,0,1,1.06479-.046,2.31,2.31,0,0,1,1.34378.4884.1025.1025,0,0,1,.03767.13372,2.56323,2.56323,0,0,1-1.91045,1.6847,3.18385,3.18385,0,0,1-.909.09233.11331.11331,0,0,0-.12847.08844,12.542,12.542,0,0,1-1.2919,2.50261,8.40977,8.40977,0,0,1-3.91205,3.13789,10.35376,10.35376,0,0,1-2.43238.63534,12.88776,12.88776,0,0,1-2.69773.08453,9.84588,9.84588,0,0,1-2.02511-.34653,4.36189,4.36189,0,0,1-2.01485-1.15762,5.32065,5.32065,0,0,1-1.06911-1.712A8.29349,8.29349,0,0,1,.565,11.40248,10.42842,10.42842,0,0,1,.5,10.27958a.5934.5934,0,0,1,.63993-.64377Q4.23644,9.63556,7.33292,9.63573Z"/><path class="b739035c-caf4-420c-80af-ea718f111ed7" d="M12.4226,9.26914c-.26825,0-.53649.00048-.80473-.0002-.138-.00035-.18827-.04994-.18849-.18867q-.00113-.7096.00006-1.41921c.00024-.12875.05494-.18077.18613-.18085q.79953-.00048,1.599,0c.13906.00008.18866.04608.18926.18664q.003.70548.00089,1.411c-.00046.14569-.05251.19245-.2054.19309-.25892.0011-.51784.0003-.77676.0003Z"/><path class="b739035c-caf4-420c-80af-ea718f111ed7" d="M5.41088,7.12027q-.39249,0-.785-.00008c-.15667-.00018-.20528-.04776-.20535-.20135q-.00035-.691,0-1.382c.0001-.16189.04691-.20879.20857-.20887q.78095-.00039,1.56188,0c.15526.00011.20394.04862.20407.20346q.00062.69573,0,1.39144c-.00009.14786-.04992.1966-.19931.19668q-.39246.00024-.78493,0Z"/><path class="b739035c-caf4-420c-80af-ea718f111ed7" d="M7.761,7.12028c-.26477,0-.52955.00051-.79432-.00019-.14825-.0004-.19748-.05049-.19776-.19859Q6.76763,6.22523,6.76684,5.529c-.00009-.1454.05473-.20071.19989-.20086q.79029-.00079,1.58057,0c.147.00016.19646.05124.19661.20167q.00066.70035,0,1.4007c-.00014.13548-.05406.18914-.18855.18935Q8.15819,7.12048,7.761,7.12Z"/><path class="b739035c-caf4-420c-80af-ea718f111ed7" d="M7.7578,7.48008q.38793,0,.77584,0c.16786,0,.21018.04258.21031.21415q.00053.68593,0,1.37186c-.00011.15487-.04776.20475-.20246.20487-.449.00035-.898-.00138-1.347-.002-.08441-.00012-.16887.003-.25323.0012-.11325-.00249-.17135-.05442-.17188-.16856q-.00339-.73382.001-1.46765c.00058-.10479.06029-.15328.1737-.15362C7.21535,7.47953,7.48658,7.48008,7.7578,7.48008Z"/><path class="b739035c-caf4-420c-80af-ea718f111ed7" d="M5.40256,9.2689q-.393,0-.786-.00013C4.46965,9.26853,4.421,9.222,4.42073,9.0784q-.00105-.70017.00007-1.40034c.00029-.15089.04879-.19788.19792-.19793q.7901-.00021,1.58018,0c.14794.00005.19618.049.19625.19926q.00033.69071,0,1.38142c-.00008.16175-.04625.20939-.20654.21-.262.00091-.524.00024-.78606.00024Z"/><path class="b739035c-caf4-420c-80af-ea718f111ed7" d="M3.09641,7.48008q.40209,0,.80418.00015c.12537.00024.18213.05034.1827.17509q.00331.71425.00006,1.42853c-.00063.13746-.04559.18286-.18269.18347q-.79551.00357-1.591.0005c-.16612-.00087-.20088-.04468-.20075-.21233.00034-.45774-.00089-.91548.00058-1.37322.00052-.16032.04488-.20206.20171-.20215Q2.70379,7.47989,3.09641,7.48008Z"/><path class="b739035c-caf4-420c-80af-ea718f111ed7" d="M10.07718,7.11955c-.26485,0-.52969.00059-.79454-.00024-.14613-.00045-.19146-.04682-.19153-.193q-.00032-.70057.00006-1.40115c.00011-.15031.0459-.19669.19926-.19694q.79527-.00126,1.59055,0c.12889.00019.1814.055.18151.18608q.0006.70979-.00012,1.41957c-.00014.13675-.0499.18558-.19062.186-.26485.00089-.52971.00026-.79457.00026Z"/><path class="f80ab866-3eca-4711-af66-25aa9c0c9c7c" d="M10.08382,7.48013c.265,0,.52993-.00042.7949.00019.13318.0003.18373.04964.18388.18112q.00081.71418-.00019,1.42837c-.00017.124-.053.17991-.17783.18024q-.805.00213-1.60994-.00022c-.136-.00041-.1833-.05306-.18341-.193q-.00052-.705,0-1.41c.0001-.13764.04941-.18642.18823-.18664Q9.68163,7.47964,10.08382,7.48013Z"/></svg>