<svg id="f081de66-1bca-42dc-b294-8495bd9851ac" data-name="Capa 1" xmlns="http://www.w3.org/2000/svg" width="20" height="20" viewBox="0 0 20 20"><defs><style>.b0951968-a35b-41b0-bf73-ea0edcfc6fd4{fill:#333;}.ab26c191-39ce-4ebe-808a-44b75e513a40{fill:#f7f7f7;}</style></defs><title>_</title><path class="b0951968-a35b-41b0-bf73-ea0edcfc6fd4" d="M0,10A10,10,0,1,1,10,20,9.99972,9.99972,0,0,1,0,10Z"/><path class="ab26c191-39ce-4ebe-808a-44b75e513a40" d="M7.87537,19.00539a.5975.5975,0,0,1-.74153.57309,9.99645,9.99645,0,0,0,4.77.24154,10.53272,10.53272,0,0,0,1.27385-.33694.43562.43562,0,0,1-.34462-.47769c0-.33769.01155-1.44154.01155-2.81384a2.48552,2.48552,0,0,0-.67767-1.89845c2.22614-.25386,4.56613-1.12077,4.56613-5.05926a4.01664,4.01664,0,0,0-1.02924-2.75153,3.7664,3.7664,0,0,0-.09846-2.71384s-.83843-.27538-2.74691,1.05077a9.2712,9.2712,0,0,0-5.00845,0C5.93924,3.49309,5.09925,3.76847,5.09925,3.76847A3.77143,3.77143,0,0,0,5.0023,6.48231a4.02442,4.02442,0,0,0-1.03,2.75153c0,3.92924,2.33459,4.80847,4.55613,5.06771a2.20593,2.20593,0,0,0-.63537,1.37078,2.09881,2.09881,0,0,1-2.91-.85231,2.10739,2.10739,0,0,0-1.53231-1.05694s-.97619-.01308-.0685.62385a2.694,2.694,0,0,1,1.11,1.5s.58692,1.83,3.36919,1.21C7.86537,17.95309,7.87537,18.76078,7.87537,19.00539Z"/></svg>