<svg id="b900ea33-5db9-443f-9551-43df9f973fef" data-name="Capa 1" xmlns="http://www.w3.org/2000/svg" width="20" height="20" viewBox="0 0 20 20"><defs><style>.f886358d-33ec-4e52-8945-accccf9d006f{fill:#f36;}.b51dd66d-d29d-4cd6-9425-1f17179741ff{fill:#fff;fill-rule:evenodd;}</style></defs><title>_</title><path class="f886358d-33ec-4e52-8945-accccf9d006f" d="M.28051,10A9.71949,9.71949,0,1,1,10,19.71949,9.71929,9.71929,0,0,1,.28051,10Z"/><path class="b51dd66d-d29d-4cd6-9425-1f17179741ff" d="M7.542,5.5796A1.18542,1.18542,0,1,0,6.35614,6.74886,1.17165,1.17165,0,0,0,7.542,5.5796Zm4.9686,8.317a1.59071,1.59071,0,0,0,1.77768,1.69119c1.02931,0,1.84868-.66193,2.30161-2.24912l-.76687-.29549c-.38394,1.06236-.71537,1.2548-.97681,1.2548s-.40049-.17393-.40049-.52287a2.344,2.344,0,0,1,.08655-.54043l.55788-2.00417a4.39464,4.39464,0,0,0,.19244-1.27035A2.02244,2.02244,0,0,0,13.27742,7.68a3.38541,3.38541,0,0,0-2.598,1.90789l.38394-1.74558H8.08137L7.66344,9.38963H9.05819l-.85924,3.431a2.17511,2.17511,0,0,1-2.06924,1.48124c-.25468-.05831-.41794-.15359-.41794-.485a3.28956,3.28956,0,0,1,.1215-.79409L7.14152,7.8423H3.82815l-.418,1.54733h1.3773l-.88937,3.62149a3.90036,3.90036,0,0,0-.104.86695A1.56066,1.56066,0,0,0,5.53683,15.5858a2.78464,2.78464,0,0,0,2.355-1.53469l-.3509,1.39083H9.49362l1.11581-4.46026c.27893-1.13331.81931-1.70578,1.63868-1.70578a.97652.97652,0,0,1,1.04681,1.06432,2.07712,2.07712,0,0,1-.0875.62686L12.632,13.0247A3.07968,3.07968,0,0,0,12.51055,13.89657Z"/></svg>