<svg id="e3a233ff-ddbf-48c6-b88f-e95d6e886640" data-name="Capa 1" xmlns="http://www.w3.org/2000/svg" width="20" height="20" viewBox="0 0 20 20"><defs><style>.b5b902f2-2659-48ee-8521-1a42877aed85{fill:#519ee2;}.ec2114e1-e187-455c-bf69-081e10f72e9a{fill:#ddebf9;}</style></defs><title>_</title><path class="b5b902f2-2659-48ee-8521-1a42877aed85" d="M2.43353,5.04152c.10968-.05965.11793-.18481.177-.27709A1.13919,1.13919,0,0,1,3.87733,4.2537,1.11852,1.11852,0,0,1,4.719,5.36409a1.11589,1.11589,0,0,1-.82658,1.12147A1.12865,1.12865,0,0,1,2.61952,5.9942c-.06048-.09127-.07184-.2171-.186-.27145Z"/><path class="b5b902f2-2659-48ee-8521-1a42877aed85" d="M17.56647,12.23226c-.09363.039-.10052.13843-.14388.21127a1.14489,1.14489,0,1,1-1.181-1.69147,1.14138,1.14138,0,0,1,1.23748.72434c.02344.05381.0077.12946.08737.15032Z"/><path class="b5b902f2-2659-48ee-8521-1a42877aed85" d="M17.56647,15.487c-.09412.03706-.10332.13511-.14634.20775a1.13692,1.13692,0,0,1-2.1359-.65984,1.14392,1.14392,0,0,1,.97256-1.04427,1.16945,1.16945,0,0,1,1.22439.74106c.0226.05369.00553.12893.08529.14976Z"/><path class="b5b902f2-2659-48ee-8521-1a42877aed85" d="M2.43353,8.29627c.06595-.10377.13054-.20844.19808-.31116a1.13572,1.13572,0,0,1,2.08582.70727,1.11238,1.11238,0,0,1-.87249,1.05029A1.12848,1.12848,0,0,1,2.5745,9.16052c-.04619-.08666-.09394-.17249-.141-.25871Z"/><path class="b5b902f2-2659-48ee-8521-1a42877aed85" d="M17.56647,5.64705c-.041.075-.084.14893-.1228.225a1.12138,1.12138,0,0,1-1.28151.62511,1.10993,1.10993,0,0,1-.88038-1.19486A1.13918,1.13918,0,0,1,16.221,4.22407a1.15676,1.15676,0,0,1,1.26175.74115c.02187.05475.00555.12876.08372.152Z"/><path class="b5b902f2-2659-48ee-8521-1a42877aed85" d="M17.56647,8.9775c-.09923.052-.10879.16247-.1589.24618a1.14078,1.14078,0,0,1-2.11671-.762,1.15957,1.15957,0,0,1,1.05024-.97546,1.14228,1.14228,0,0,1,1.15952.83568.81408.81408,0,0,0,.06585.12571Z"/><path class="b5b902f2-2659-48ee-8521-1a42877aed85" d="M2.43353,11.551a1.30666,1.30666,0,0,1,1.10379-.83719,1.14237,1.14237,0,0,1,1.16731.92045,1.1719,1.1719,0,0,1-.70975,1.31664,1.14752,1.14752,0,0,1-1.4186-.5381c-.04675-.08588-.09513-.17087-.14275-.25627Z"/><path class="b5b902f2-2659-48ee-8521-1a42877aed85" d="M2.43353,14.80578c.25208-.4505.54034-.84474,1.1347-.842a1.14317,1.14317,0,0,1,1.13515.91107,1.17133,1.17133,0,0,1-.70027,1.321,1.13937,1.13937,0,0,1-1.38351-.46633c-.06522-.10408-.12421-.21208-.18607-.31827Z"/><path class="ec2114e1-e187-455c-bf69-081e10f72e9a" d="M10.30266.5c.20376.19579.50372.24666.663.52973a1.20885,1.20885,0,0,1-.40079,1.64449,1.18966,1.18966,0,0,1-1.563-.46431,1.12193,1.12193,0,0,1,.48-1.56557A2.4668,2.4668,0,0,0,9.69734.5Z"/><path class="b5b902f2-2659-48ee-8521-1a42877aed85" d="M7.94391,8.67942A1.14977,1.14977,0,1,1,6.8217,7.48289,1.19046,1.19046,0,0,1,7.94391,8.67942Z"/><path class="b5b902f2-2659-48ee-8521-1a42877aed85" d="M13.19788,9.81065a1.16454,1.16454,0,1,1,1.15655-1.15339A1.16451,1.16451,0,0,1,13.19788,9.81065Z"/><path class="b5b902f2-2659-48ee-8521-1a42877aed85" d="M11.13952,11.90561A1.1401,1.1401,0,1,1,8.85971,11.896a1.14024,1.14024,0,1,1,2.27981.00961Z"/><path class="ec2114e1-e187-455c-bf69-081e10f72e9a" d="M11.13493,5.39458a1.20012,1.20012,0,0,1-1.12225,1.15507A1.20047,1.20047,0,0,1,8.86511,5.42a1.13374,1.13374,0,0,1,1.15872-1.21063A1.15578,1.15578,0,0,1,11.13493,5.39458Z"/><path class="ec2114e1-e187-455c-bf69-081e10f72e9a" d="M14.31408,11.89124a1.09138,1.09138,0,0,1-1.139,1.17347A1.20253,1.20253,0,0,1,12.049,11.91428a1.276,1.276,0,0,1,1.14955-1.1932A1.1086,1.1086,0,0,1,14.31408,11.89124Z"/><path class="ec2114e1-e187-455c-bf69-081e10f72e9a" d="M14.31408,5.38959a1.10564,1.10564,0,0,1-1.08386,1.163,1.2483,1.2483,0,0,1-1.17486-1.19786,1.1583,1.1583,0,0,1,1.16588-1.143A1.0841,1.0841,0,0,1,14.31408,5.38959Z"/><path class="ec2114e1-e187-455c-bf69-081e10f72e9a" d="M14.31407,15.16869a1.07869,1.07869,0,0,1-1.13734,1.13866,1.11529,1.11529,0,0,1-1.11417-1.18129A1.15465,1.15465,0,0,1,13.183,13.98039,1.0971,1.0971,0,0,1,14.31407,15.16869Z"/><path class="ec2114e1-e187-455c-bf69-081e10f72e9a" d="M11.13491,8.67631a1.13615,1.13615,0,1,1-2.26984-.07684A1.11252,1.11252,0,0,1,10.1327,7.53816,1.07314,1.07314,0,0,1,11.13491,8.67631Z"/><path class="ec2114e1-e187-455c-bf69-081e10f72e9a" d="M6.82951,10.71983A1.24893,1.24893,0,0,1,7.94016,11.8991a1.13119,1.13119,0,0,1-1.22094,1.15625,1.11464,1.11464,0,0,1-1.04564-1.23128A1.16932,1.16932,0,0,1,6.82951,10.71983Z"/><path class="ec2114e1-e187-455c-bf69-081e10f72e9a" d="M5.68594,15.12242A1.09775,1.09775,0,0,1,6.82434,13.98a1.15552,1.15552,0,0,1,1.11314,1.15246,1.12972,1.12972,0,0,1-1.12331,1.17564A1.082,1.082,0,0,1,5.68594,15.12242Z"/><path class="ec2114e1-e187-455c-bf69-081e10f72e9a" d="M5.68592,5.37616a1.08446,1.08446,0,0,1,1.105-1.16433A1.15322,1.15322,0,0,1,7.94133,5.36722a1.22462,1.22462,0,0,1-1.14554,1.179A1.1079,1.1079,0,0,1,5.68592,5.37616Z"/><path class="ec2114e1-e187-455c-bf69-081e10f72e9a" d="M8.86507,15.12673A1.20748,1.20748,0,0,1,9.9913,13.97419a1.17233,1.17233,0,0,1-.00151,2.344A1.20478,1.20478,0,0,1,8.86507,15.12673Z"/><path class="ec2114e1-e187-455c-bf69-081e10f72e9a" d="M9.98167,19.5a1.079,1.079,0,0,1-1.11661-1.0957A1.20739,1.20739,0,0,1,9.9995,17.22866a1.20759,1.20759,0,0,1,1.13544,1.17465A1.08448,1.08448,0,0,1,9.98167,19.5Z"/></svg>