<svg id="a8d80bb3-7b07-4924-9b23-810d99b2b17d" data-name="Capa 1" xmlns="http://www.w3.org/2000/svg" width="20" height="20" viewBox="0 0 20 20"><defs><style>.b90322a2-213c-48c4-9446-04517c8407c1{fill:#fdfdfd;}.e37d5b50-7a10-49ca-addc-4d82a2dbc138{fill:#0172c5;}.beefd284-a0bd-483a-b362-5d6f4d79e78a{fill:#2787ce;}.a96adc0b-1a20-41cf-ae9e-5c40990fb233{fill:#fcfdfd;}.a3e85bac-cb67-41df-bc6a-50dcde4eb1d0{fill:#fafcfd;}.a71df1ef-c236-43f9-ae6c-726339e8fbc8{fill:#b7d332;}.adaa5223-9059-4851-929c-7557c29a2e82{fill:#7eba02;}</style></defs><title>_</title><ellipse class="b90322a2-213c-48c4-9446-04517c8407c1" cx="10" cy="3.23577" rx="7.59952" ry="2.66877"/><path class="e37d5b50-7a10-49ca-addc-4d82a2dbc138" d="M2.40047,3.23577V16.76426C2.40047,18.2382,5.80293,19.433,10,19.433V5.90451C5.80293,5.90451,2.40047,4.70965,2.40047,3.23577Z"/><path class="beefd284-a0bd-483a-b362-5d6f4d79e78a" d="M10,5.90451V19.433c4.19713,0,7.59951-1.1948,7.59951-2.66874V3.23577C17.5995,4.70965,14.19712,5.90451,10,5.90451Z"/><path class="a96adc0b-1a20-41cf-ae9e-5c40990fb233" d="M11.35811,14.733a4.8002,4.8002,0,0,1-.74138-.79839.90452.90452,0,0,0-.6697-.36987,2.25523,2.25523,0,0,1-1.85638-2.21914A2.54193,2.54193,0,0,1,9.05494,9.072a2.29818,2.29818,0,0,1,.83764-.37522L9.959,8.66406l.001.00116a3.0107,3.0107,0,0,1,1.48753.16277,2.24421,2.24421,0,0,1,1.32563,2.151,2.37721,2.37721,0,0,1-1.44443,2.45366c.38356.3575.75857.69953,1.12273,1.05275.07327.07107.20946.10294.19849.24552ZM9.88974,9.72116a1.62917,1.62917,0,0,0-.64726,1.739,1.24638,1.24638,0,0,0,.70937,1.0825,1.08071,1.08071,0,0,0,1.43735-.39237,2.044,2.044,0,0,0,.05407-1.95727A1.06631,1.06631,0,0,0,9.88974,9.72116Z"/><path class="a3e85bac-cb67-41df-bc6a-50dcde4eb1d0" d="M7.41372,9.81065a2.06623,2.06623,0,0,0-1.1983-.31372c-.2579.01941-.48778.08987-.56724.36817a.51576.51576,0,0,0,.29464.60478c.36374.22708.77066.377,1.12.63223a1.26239,1.26239,0,0,1,.55382,1.18357,1.27526,1.27526,0,0,1-.82716,1.13317,2.27578,2.27578,0,0,1-.64864.1602,2.97656,2.97656,0,0,1-1.45943-.16849.2249.2249,0,0,1-.17224-.246c.00841-.27835.00253-.55714.00253-.88725a2.2845,2.2845,0,0,0,1.08318.46584,1.20242,1.20242,0,0,0,.55323-.04919.46136.46136,0,0,0,.17586-.78926,1.78251,1.78251,0,0,0-.49322-.31583,4.043,4.043,0,0,1-.79742-.46218,1.32106,1.32106,0,0,1-.52729-1.283,1.30317,1.30317,0,0,1,.91936-1.07,3.15017,3.15017,0,0,1,1.85009-.0017.15454.15454,0,0,1,.14075.17263C7.40876,9.22181,7.41372,9.49927,7.41372,9.81065Z"/><path class="b90322a2-213c-48c4-9446-04517c8407c1" d="M13.71641,8.70453h.84776l.02606.00457.02584-.00568.06427.06624.00015,3.81985c.06181.11041.16614.05316.2487.05438.42847.00637.85738.0123,1.2855-.0015.17723-.00572.2273.05122.21576.21949-.01525.22252-.01042.44642-.01422.66973h-2.808l-.0437-.04367.0123-4.77415.088-.01177.0255.00689Z"/><path class="a71df1ef-c236-43f9-ae6c-726339e8fbc8" d="M14.76206,4.3732c.82652-.31207,1.32372-.707,1.32372-1.13743,0-1.008-2.70968-1.82519-6.05226-1.82519s-6.05218.81715-6.05218,1.82519c0,.43047.4972.82536,1.32371,1.13743a14.26071,14.26071,0,0,1,4.72847-.68768A14.26078,14.26078,0,0,1,14.76206,4.3732Z"/><path class="adaa5223-9059-4851-929c-7557c29a2e82" d="M14.76206,4.3732a14.26078,14.26078,0,0,0-4.72854-.68768A14.26071,14.26071,0,0,0,5.305,4.3732a14.25863,14.25863,0,0,0,4.72847.68776A14.2587,14.2587,0,0,0,14.76206,4.3732Z"/></svg>