<svg id="e4064148-dd3f-44c8-a6b2-fd1e4c2443a3" data-name="Capa 1" xmlns="http://www.w3.org/2000/svg" width="20" height="20" viewBox="0 0 20 20"><defs><style>.e1d0f899-37f4-4fcb-81f8-06692d9169b0{fill:#31afd8;}.aba71dfa-2443-44c0-a248-79ac0f1dc7ca{fill:#fffffe;}</style></defs><title>_</title><path class="e1d0f899-37f4-4fcb-81f8-06692d9169b0" d="M0,10A10,10,0,1,1,10,20,9.99972,9.99972,0,0,1,0,10Z"/><path class="aba71dfa-2443-44c0-a248-79ac0f1dc7ca" d="M15.73923,8.39231q-.08077,1.7527-2.4477,4.79769-2.44726,3.18-4.14076,3.18-1.05,0-1.77538-1.93692-.48347-1.77577-.96848-3.55077Q5.86808,8.94619,5.25076,8.94538A3.69806,3.69806,0,0,0,4.30922,9.51L3.7446,8.78308q.88848-.78,1.75157-1.56154A3.967,3.967,0,0,1,7.27459,6.14385Q8.67423,6.01,8.99846,8.05847q.34959,2.21192.48537,2.75.40389,1.83462.88924,1.8346.37614,0,1.13154-1.19077a4.70882,4.70882,0,0,0,.80768-1.81153q.10734-1.02693-.80768-1.02769a2.24647,2.24647,0,0,0-.88844.19691q.885-2.8973,3.37919-2.81614Q15.845,6.0481,15.73923,8.39231Z"/></svg>